<svg xmlns="http://www.w3.org/2000/svg" xmlns:xlink="http://www.w3.org/1999/xlink" viewBox="0 0 6449.11 1153.46"><defs><style>.cls-1{fill:url(#Лето);}.cls-2{fill:url(#Лето-2);}.cls-3{fill:url(#Лето-3);}.cls-4{fill:url(#Лето-4);}.cls-5{fill:url(#Лето-5);}.cls-6{fill:url(#Лето-6);}.cls-7{fill:url(#Лето-7);}.cls-8{fill:url(#Лето-8);}.cls-9{fill:url(#Лето-9);}.cls-10{fill:url(#Лето-10);}.cls-11{fill:url(#Лето-11);}.cls-12{fill:url(#Лето-12);}.cls-13{fill:url(#Лето-13);}.cls-14{fill:url(#Лето-14);}</style><radialGradient id="Лето" cx="146.28" cy="773.66" r="239.44" gradientUnits="userSpaceOnUse"><stop offset="0" stop-color="#fff"/><stop offset="0.09" stop-color="#ffedd8"/><stop offset="0.21" stop-color="#ffd5a7"/><stop offset="0.33" stop-color="#ffc17d"/><stop offset="0.46" stop-color="#ffb05b"/><stop offset="0.59" stop-color="#ffa340"/><stop offset="0.72" stop-color="#ff9a2d"/><stop offset="0.86" stop-color="#ff9522"/><stop offset="1" stop-color="#ff931e"/></radialGradient><radialGradient id="Лето-2" cx="399.4" cy="712.77" r="374.58" xlink:href="#Лето"/><radialGradient id="Лето-3" cx="943.65" cy="1002.54" r="70.31" xlink:href="#Лето"/><radialGradient id="Лето-4" cx="1109.89" cy="662.07" r="297.7" xlink:href="#Лето"/><radialGradient id="Лето-5" cx="1105.67" cy="895.64" r="76.07" xlink:href="#Лето"/><radialGradient id="Лето-6" cx="1713.08" cy="603.07" r="374.62" xlink:href="#Лето"/><radialGradient id="Лето-7" cx="2421.45" cy="551.77" r="330.37" xlink:href="#Лето"/><radialGradient id="Лето-8" cx="3063.69" cy="496.26" r="401.48" xlink:href="#Лето"/><radialGradient id="Лето-9" cx="3751.82" cy="508.56" r="351.09" xlink:href="#Лето"/><radialGradient id="Лето-10" cx="3823.13" cy="248.2" r="270.49" xlink:href="#Лето"/><radialGradient id="Лето-11" cx="4074.65" cy="594.18" r="308.23" xlink:href="#Лето"/><radialGradient id="Лето-12" cx="4751.44" cy="570.22" r="410.45" xlink:href="#Лето"/><radialGradient id="Лето-13" cx="5530.39" cy="603.94" r="411.76" xlink:href="#Лето"/><radialGradient id="Лето-14" cx="6113.71" cy="576.73" r="453.5" xlink:href="#Лето"/></defs><title>Кабанидзе</title><g id="Слой_2" data-name="Слой 2"><g id="Слой_1-2" data-name="Слой 1"><path class="cls-1" d="M1.35,470.23c9.64,26.95,26.5,49.14,45.44,70.29C55,549.74,63.57,558.71,71.72,568c1.87,2.14,3.73,4.29,5.55,6.48,1.53,1.83,7.74,10.57,2.24,2.57,4.3,6.25,9.13,12.17,13.6,18.29,34.5,47.17,67.1,95.69,101.53,142.92,8.25,11.33,16.26,22.88,22.87,35.27,1.75,3.29,3.33,6.66,4.92,10,2.51,5.36-2.44-6.49-.4-.92.55,1.5,1.14,3,1.67,4.5a120.42,120.42,0,0,1,5.44,22.11l-1-7.57a746.38,746.38,0,0,1,6.2,95.42c.09,16.46.32,32.92.37,49.38,0,15.82.64,31.94-1.42,47.66l1-7.58c-4.52,31.55-18.53,60.8-23,92.36-1.12,7.92-1.34,14.76,2.87,22,3.46,5.91,10.24,11.55,17,13.1,7.3,1.66,15.49,1.3,22-2.87,5.77-3.73,12.09-9.9,13.09-17,3.29-23.27,11.78-45.27,17.84-67.88a221.61,221.61,0,0,0,6.94-39.09c1-12.15.66-24.5.65-36.67,0-25.63,0-51.31-.49-76.92-.47-24-3-48-6.09-71.83-3.19-25-12.29-48.06-25.65-69.43-11.23-17.95-24.49-34.56-36.83-51.75-29-40.36-56.45-81.8-86-121.73-15-20.28-31.59-38.67-48.44-57.4-3.87-4.31-7.7-8.67-11.4-13.13-.83-1-1.66-2-2.48-3-.66-.81-4.29-5.45-1.16-1.42s-.09-.16-.59-.84c-.92-1.25-1.83-2.51-2.71-3.78a149.84,149.84,0,0,1-8.93-14.3c-1.21-2.23-2.36-4.49-3.43-6.79-.38-.82-2.44-5.58-.39-.76,2.13,5-.4-1.3-.75-2.26-5-14-19.65-24.9-35-19.91C7.46,439.63-4,455.2,1.35,470.23Z"/><path class="cls-2" d="M34.83,467.16a61.31,61.31,0,0,0,29.09-8.42c5.4-3.13,10.23-7.15,15.65-10.25,1.22-.7,2.47-1.33,3.75-1.93.1-.05,3.14-1.11,3.34-1.47,0,0-5.49,2.23-2.61,1.12,3.67-1.41,7.32-2.89,11-4.26,7.41-2.76,14.86-5.38,22.22-8.27,15.66-6.15,30.68-13.7,46-20.53,14.14-6.28,29.21-13.32,39.9-24.86,5.87-6.35,10.64-13.65,15.62-20.69.73-1,4.21-5.66,1-1.51s.34-.26,1.22-1.19c.59-.63,2.83-3.56,3.79-3.55s-6.14,3.25-3.17,2.58a16.9,16.9,0,0,0,2.82-1.57H195.75c3.75,1.68,6.89,4,10.41,6-6.37-3.67-4-3.21-2.08-1.53.68.59,1.36,1.19,2,1.81,1.84,1.71,3.6,3.51,5.28,5.38,1.24,1.38,2.41,2.82,3.61,4.24,3.36,4-3.58-4.85-1.45-1.88.69,1,1.4,1.9,2.08,2.87,2.61,3.68,5.07,7.46,7.46,11.29,4.51,7.23,8.76,14.63,13.41,21.77,5.51,8.47,10.78,16.59,15,25.82,1.65,3.62-2.64-6.87-.59-1.29.39,1.06.82,2.12,1.22,3.18.89,2.4,1.75,4.82,2.57,7.24,1.77,5.18,3.41,10.4,5.09,15.6,3.6,11.15,7.55,22.18,11.49,33.21,8.52,23.87,17.55,47.51,27.47,70.83,4.76,11.2,9,23.93,16.32,33.75,4.12,5.55,8.67,10.51,13.22,15.68a28.5,28.5,0,0,0,1.91,2.23c-5.49-4.92-2.49-3.41-1.06-1,.57.93,2.62,5.4.48.42s-.34.19-.12,1.54l-1-7.58c.64,5.85,0,11.69.18,17.55.44,11.46,3.4,22.28,11.43,30.81,10.41,11.06,27.36,14.62,41.53,9.34,22-8.18,38.6-26.44,52.14-45,6.89-9.43,11.06-20.82,15.22-31.61,5.29-13.73,9.42-27.86,13.93-41.86,2.24-6.94,4.54-13.88,7.24-20.66.41-1,2.68-6.47.84-2.15s.49-1.1.92-2.11c2.21-5.14,4.41-10.29,6.56-15.45,6.25-15,10.83-30.63,10.94-47,.14-21.06-4.26-41.89-1.52-63l-1,7.58a60.51,60.51,0,0,1,2.21-10.14,17.8,17.8,0,0,1,1-2.7c.6,0-3.68,7.16-1.73,4.29a20.19,20.19,0,0,0,1.31-2.31c1.66-3.38-4.77,5.42-2.69,3.36.48-.47,1-1,1.42-1.54,2.41-2.82-6.11,4-3.54,2.63.58-.32,1.23-.73,1.77-1.09,3-2-6.61,2.28-3.51,1.42a100.1,100.1,0,0,1,12.72-3l-7.58,1c11.22-1.46,22.57-1.26,33.85-.69,11.12.57,22.31,1.19,33.36,2.64l-7.58-1c18.93,2.63,37.49,7.24,56,11.72,7.24,1.75,14.62,3.13,21.79,5.17,1.72.49,3.45,1.3,5.18,1.68q-7.1-3.12-3.18-1.32,1.14.56,2.22,1.2c4.34,2.14-6.47-4.78-1.26-.78a14.88,14.88,0,0,1-4.57-7.77,15.54,15.54,0,0,1,.71,2.76l-1-7.58a27.26,27.26,0,0,1,.1,5.71l1-7.57c-1.49,10.69-7,21-10.58,31.18q-3,8.67-6.24,17.28-1.56,4.17-3.2,8.31c-.55,1.39-1.1,2.77-1.66,4.14-.44,1.1-.9,2.2-1.35,3.3q2.42-5.71,1.13-2.73c-4.84,10.88-10,21.53-16.45,31.56-6.3,9.77-13.4,19-20.45,28.22-7.21,9.43-14.42,18.91-20.65,29-6.47,10.5-11,21.78-16,33-6.26,14.14-12.6,28.23-18.54,42.51q-1.84,4.46-3.61,9c-.36.92-.74,1.86-1.09,2.79-1.69,4.49,3.14-7.12,1.08-2.56s-4,8.89-6.08,13.34c-11.13,24.49-21.65,50.6-8.46,76.6,10.64,21,32.93,34.4,49.76,49.91a230.8,230.8,0,0,1,24.22,26.74c8.1,10.21,16.59,20.11,25,30.07,4,4.74,8,9.49,11.92,14.3q2.94,3.6,5.83,7.25c1,1.31,4.58,6.61.12.11,1,1.53,2.26,3,3.36,4.47,7.81,10.54,15.15,21.44,22.62,32.23,9.58,13.83,19.41,27.43,29.77,40.69.75,1,1.51,1.93,2.27,2.9l2.2,2.82q-3.94-5.13-1.19-1.53c1.94,2.59,3.91,5.17,5.82,7.8,4,5.44,7.79,11,11.39,16.68,3.79,6,7.32,12.14,10.51,18.46.81,1.6,1.61,3.22,2.37,4.85.92,2,2.12,7.1-.12-.46,1.49,5,4,10,6.21,14.7A66.64,66.64,0,0,0,719.67,1022c4.59,4.25,9.6,7.81,13.5,12.77L725.84,1007c3.59-9.5,2.29-5.39,1-3-2.55,4.95,4.76-5,1.86-2.28-.86.8-1.75,1.68-2.57,2.53-2.94,3.06,6.29-4.27,2.8-2.12-2.31,1.42-4.52,2.88-7,4.08-2.29,1.13-7.55,2.65,1.88-.69-1.22.44-2.42.94-3.65,1.38-11.18,3.95-23,6-34.68,7.63l7.57-1c-10.49,1.4-21,2.17-31.54,3.5-20.76,2.64-41.32,6.54-62,9.36l7.57-1c-8.83,1.16-17.7,2.1-26.61,2.49-8.47.36-16.92-.09-25.39.11-8.78.2-17.94,1.16-26.34,3.8a119.59,119.59,0,0,0-15.87,6.5c-2.35,1.14,7.53-2.63,1.46-.75a27,27,0,0,1-4.17.94l7.57-1a18.6,18.6,0,0,1-3.73,0l7.58,1c-5.52-1,6.63,4,1.89.91q6.39,5.28,3.9,2.9a12.9,12.9,0,0,1-1.09-1.13c1,.14,4.3,6.76,2,2.43-.53-1-1.17-1.94-1.7-2.94s-2.38-5.2-.56-.86.1-.19-.18-1.29c-.38-1.51-.62-3.06-.85-4.61l1,7.58c-1.72-13.45-3.56-24.77-9.8-37-4-7.92-9.3-15.08-13-23.21-2.91-6.37,2.06,5.34-.49-1.18-.85-2.16-1.65-4.33-2.44-6.51-1.67-4.65-3.24-9.33-4.87-14-3.3-9.46-6.93-18.76-9.76-28.38-4.28-14.54-7.72-29.08-10.82-43.89C471.69,872,467,854.73,455,843.83c-9.95-9-24.57-14-37.83-10-11,3.29-18.86,10.51-25.13,19.82-7.13,10.6-10.41,23.62-14.6,35.57-2,5.62,3.13-7.16,1.36-3q-2.55,5.93-5,11.89-2.92,7.08-5.54,14.28-5.12,14.17-9,28.75c-4.86,18.28-6.78,37.51-12.7,55.47-.34,1-.74,2.06-1.08,3.09-1.79,5.62,3-6,.31-.61-1.19,2.39-2.35,4.76-3.67,7.08-2.71,4.75-5.7,9.33-8.72,13.88-5.86,8.84-11.06,17.83-16.22,27.08-1,1.78-2,3.53-3.16,5.23a12.32,12.32,0,0,0-1.3,1.88c0-.57,5.18-6.14,2.1-2.77-1.07,1.16-2.1,2.32-3.28,3.38-4.6,4.16,6.12-4,.79-.72-1.41.87-2.88,1.54-4.35,2.3-2.87,1.48,6.73-2.49,3.56-1.55-1,.3-2,.7-3,1a95.1,95.1,0,0,1-14.93,3.17l7.58-1c-18.77,2.33-37.63.16-56.45.07-14.91-.08-29.19,13.16-28.5,28.5.69,15.5,12.52,28.42,28.5,28.5,26.93.13,55.32,4.22,81.33-5,11.43-4.07,22.24-10,30-19.53,8.11-9.91,13.14-21.11,20-31.83,7.1-11.14,15-21.76,20.25-33.94,5.68-13.12,8.67-26.25,11.4-40.21,2.54-13,5.57-25.84,9.34-38.5q2.53-8.49,5.49-16.83c1-2.81,2-5.6,3.11-8.39q1-2.52,2-5c.45-1.13.92-2.25,1.38-3.38-1.57,3.71-1.92,4.56-1.07,2.58,1.51-5.29,4.41-10.53,6.17-15.85,1.28-3.83,2.53-7.67,4-11.44.85-2.2,2.94-5.87-1.29,3,.44-.92.83-1.86,1.28-2.78.86-1.74,1.93-3.34,2.84-5,2-3.75-5.26,5.85-2.33,2.94A17.76,17.76,0,0,0,440.4,884c-3.68,4.95-6.24,4.29-3.28,2.71-8.13,4.34-6.46,2.26-3.38,1.82l-7.58,1a13,13,0,0,1,2.25.05l-7.58-1c.56.1,1.9.74,2.39.63s-6.7-2.83-4.7-1.86c.38.18.91.74,1.32.81-1-.18-6.17-5.63-3.38-2.3.43.5-4.11-6.16-3.09-4,.26.55.71,1.07,1,1.6.52.87,1,1.78,1.43,2.68,2.23,4.27-1.68-4.58-1.15-2.78.79,2.65,1.81,5.22,2.56,7.9C419.7,900,421,909.11,423,918a378.34,378.34,0,0,0,12,41.64c5.48,15.57,10.83,31.25,17.31,46.43a171,171,0,0,0,11.51,21.48c.88,1.46,1.75,2.93,2.56,4.43.61,1.12,3.06,6.51,1.06,1.81s.2,1.08.55,2.36a61.47,61.47,0,0,1,1.32,6.59l-1-7.58c.81,6.15,1.13,12.45,2.65,18.48a71.41,71.41,0,0,0,6.49,15.76c5.16,9.77,12.9,17.61,23.09,21.91a42.53,42.53,0,0,0,30.71.6c3.34-1.17,6.59-2.65,9.81-4.1l2.87-1.33c-4.23,1.74-5,2.07-2.2,1a80.45,80.45,0,0,1,11.55-2.84l-7.57,1c8.38-1.06,16.79-.62,25.21-.6a250.38,250.38,0,0,0,29.6-1.86c21.75-2.55,43.23-6.7,64.91-9.7l-7.58,1c26.19-3.52,53.56-3.84,78.62-13,15.71-5.76,31.64-14.22,40.08-29.45,5-9,7-18.72,2.84-28.46-2.82-6.69-8.08-12.28-13.58-17-1.55-1.33-3.14-2.61-4.67-4-.67-.59-4.5-3.43-4.43-4.35,0-.11,4.18,6.37,1.44,1.81-.45-.74-.92-1.46-1.36-2.21-1.16-2-2-5.21-3.45-6.89,2.65,3,2,4.85.88,2.07-.43-1.07-.87-2.13-1.31-3.19-1.6-3.86-3.2-7.76-5-11.56-2-4.32-4.23-8.55-6.56-12.71a267,267,0,0,0-15.65-24.43q-3.86-5.38-7.89-10.65c-2.55-3.35-5.13-6.68-7.71-10l-2.21-2.82c-.6-.77-4-5-1.19-1.5,2.64,3.24,0,0-.63-.84-.76-1-1.51-2-2.26-3-1.5-2-3-4-4.45-6q-4.7-6.43-9.24-13c-12.5-17.86-24.65-35.91-38.06-53.1-12.23-15.67-25.42-30.53-38-45.87-6.85-8.33-13.21-17.06-20.6-24.93a275.09,275.09,0,0,0-22.59-21c-7-6-14.35-11.7-21-18.07-1.64-1.57-3.24-3.18-4.77-4.87a19.51,19.51,0,0,1-2-2.27c-.11.28,4.45,6.25,1.38,1.64-.54-.8-1-1.61-1.52-2.44-2.57-4.52.15,2,.77,2.41-1-.68-1.27-4.62-1.43-5.74l1,7.58a38.11,38.11,0,0,1,.2-8.13l-1,7.58a75.91,75.91,0,0,1,3.43-13.52q1.17-3.37,2.51-6.69c.79-2,2.68-5.48-.92,2.14.71-1.52,1.34-3.08,2-4.61,4.88-10.86,9.7-21.67,14.13-32.72.48-1.19,1-2.39,1.46-3.58.68-1.65,2.27-7.66.13-.34.89-3,2.6-6,3.88-8.94,2.88-6.55,5.82-13.07,8.72-19.62,5-11.31,9.52-22.79,15.92-33.41,12-19.93,27.8-37.21,40.61-56.59,14.53-22,24-47.14,32.85-71.85,1.95-5.46,3.72-11,5.8-16.42s4.57-10.5,6-16.05c5.08-20.23-.92-40.15-18.35-52.2-9.18-6.35-20.45-8.95-31.17-11.35-11.62-2.6-23.13-5.62-34.73-8.24A428.22,428.22,0,0,0,522,342.62c-10.36-.52-20.82-.77-31.14.36-11.94,1.31-25,3.07-35.21,10-21.51,14.64-25.94,40.87-25.79,65.16.12,18.07,4.06,36.52,1.83,54.52l1-7.58a108.85,108.85,0,0,1-6.13,22.7c-.69,1.85-1.43,3.69-2.18,5.53-.32.78-.67,1.56-1,2.35.17-.43,2.77-6.48.87-2.09q-3.49,8.1-6.92,16.25c-6.16,14.72-10.66,30-15.53,45.18-2.46,7.69-5,15.36-7.92,22.89-.47,1.23-2.94,7.24-1.09,2.88,1.93-4.57-.84,1.83-1.25,2.71-1.13,2.43-2.27,4.9-3.63,7.21-.79,1.35-1.67,2.64-2.57,3.91-.46.66-.95,1.3-1.42,2-2.09,3,3.3-4.14,2.87-3.69s-.76,1-1.14,1.45c-3.05,3.73-6.19,7.35-9.55,10.8-2,2.08-4.1,4.1-6.26,6-1.07,1-2.17,1.85-3.24,2.78-2.72,2.33,6.55-4.78,1.69-1.34-1.95,1.38-4,2.51-6,3.72-4.1,2.41,7.25-2.27,2.94-1.21-1.11.27-2.17.63-3.3.83l7.58-1a15,15,0,0,1-3.41.06l7.58,1c-3.16-.52-4-2.47,3.74,1.92-3.1-1.77,6.16,5.69,3.61,2.88-2.37-2.61,4.8,7.21,2.47,3.16,4.13,7.18,1.81,4.78,1.28,1.24l1,7.58c-1-10,.52-19.67-1.64-29.69-2.57-11.91-10.61-21.58-18.64-30.3q-2-2.17-3.94-4.38c-1.86-2.09-.09-2.12,1.73,2.33a22,22,0,0,0-1.62-2.44c-2.76-4.57-4.79-9.68-7-14.54-2.08-4.59-4.1-9.22-6.09-13.85-.8-1.85-2.55-3.6.66,1.56a25.17,25.17,0,0,1-1.46-3.5c-1.09-2.64-2.16-5.28-3.23-7.93-8.05-20-15.39-40.37-22.57-60.75s-13-41-21.73-60.68c-6.86-15.45-17.34-29.4-26.17-43.79-9.72-15.82-20.48-31.18-35.28-42.62a73.72,73.72,0,0,0-11.34-7.62c-4.35-2.24-8.74-4.16-13.63-4.82-7.59-1-14.56.95-21,4.95-9.83,6.14-16.69,14.78-23.3,24.12-2.12,3-4.47,6-6.4,9.08,4.78-7.72,1.46-1.85-.32.07-.61.66-1.24,1.31-1.89,1.94-3.93,3.77,2.18-1.4,2.18-1.41.23,1.1-9.62,6.16-10.75,6.78-4.34,2.39-8.82,4.53-13.33,6.59-9.54,4.36-19.1,8.6-28.55,13.14-1.12.54-2.24,1.06-3.37,1.57l-1.69.76c-2.26,1-2.26,1,0,0l1.7-.71-2.55,1-4.26,1.68c-5.67,2.19-11.4,4.25-17.1,6.34C71.79,390,59.44,393.89,49,400.38c-3.88,2.41-7.52,5.2-11.38,7.65-1.18.75-5.65,2.35-6.2,3.45.33-.65,7-2.12,2.89-1.37-1.39.25-2.73.67-4.13.88l7.58-1a23.4,23.4,0,0,1-2.9.18c-14.88.46-29.2,12.78-28.5,28.5.68,15,12.54,29,28.5,28.5Z"/><path class="cls-3" d="M844.67,1031h198c14.91,0,29.19-13.1,28.5-28.5s-12.52-28.5-28.5-28.5h-198c-14.91,0-29.19,13.11-28.5,28.5s12.52,28.5,28.5,28.5Z"/><path class="cls-4" d="M879.17,984.55a45.56,45.56,0,0,1,.05-11.55l-1,7.57a48.64,48.64,0,0,1,1.6-6.64,15.3,15.3,0,0,1,1.27-3.55c-.11.17-3.09,6.79-1.06,2.62s4.32-8.52,6.43-12.81c5.23-10.59,10.23-21.3,15.18-32,10.34-22.41,20.77-45,27-68.9,5.56-21.23,8.81-43,13.31-64.42,4.56-21.76,10.29-43.43,16.6-64.74,3.27-11.06,7.28-21.84,10.76-32.82,3.37-10.67,6.08-21.54,9.52-32.18.87-2.67,1.78-5.33,2.75-8,.44-1.18.9-2.35,1.36-3.52,1.95-5.09-.71,1.44-.66,1.55-.38-.74,3.07-6.6,3.53-7.55q2.17-4.54,4.39-9.06c4.81-9.81,9.67-19.61,14-29.65a337.2,337.2,0,0,0,13-35.77c1.41-4.63,3.13-9.17,4.95-13.66.53-1.31,1.16-2.61,1.63-4-.16.45-2.76,6.49-.87,2.09s3.72-8.73,5.54-13.11c8.67-20.74,12.09-42.37,15.9-64.41,2.26-13.12,4.6-26.25,7.73-39.2,3-12.37,4.83-24.72,7.09-37.22,1.67-9.2,4.9-17.85,7.71-26.73.58-1.83,1.18-3.66,1.85-5.47.39-1.07,2-5-.15.15-2.06,4.92-.58,1.42,0,.29.42-.8.92-1.57,1.34-2.37,2.43-4.54-3.86,4.43-2,2.56.92-.95,2.91-2.48-1.15.71-2.48,1.76-2.94,2.18-1.4,1.29q-8.38,3-4.35,2.12L1026,356.32c8.14,24.77,14,50,24.3,74.06,4.53,10.62,10.07,20.75,14.76,31.3.73,1.65,1.44,3.31,2.16,5,1.28,2.92-.69,1.64-.75-1.8,0,2.23,2.59,6.34,3.43,8.43,2.24,5.65,4.41,11.32,6.55,17,17.26,45.9,35.63,91.81,64.36,132,14.69,20.56,31.58,39.29,48.44,58.05,3.87,4.31,7.75,8.61,11.47,13q2.21,2.61,4.33,5.27c1.24,1.55,4.11,6.36-.34-.51.89,1.37,2,2.64,3,4,6.24,8.47,12,17.28,17.37,26.33,5.64,9.48,11.12,19.19,16,29.11l.8,1.69c1,2.25,1,2.25,0,0l-.74-1.71c.44,1.13.87,2.27,1.27,3.41,1,2.83,1.89,5.7,2.74,8.58,1.67,5.73,3.12,11.53,4.84,17.25a140.68,140.68,0,0,0,17.29,37.12c2.86,4.34,5.78,8.64,8.26,13.21.71,1.32,1.31,2.69,2,4,1.92,3.57-2.45-6.75-.38-1,1,2.81,2,5.6,3,8.44,4.63,14.26,9.71,28,16.46,41.39,1.31,2.62,2.59,7.19,4.52,9.39-2.88-3.29-1.81-4.75-.9-2,.54,1.66,1.15,3.3,1.66,5,1.76,5.78,3.43,11.57,5.65,17.2,5.55,14,12.39,27.08,22.92,38.14,3.22,3.39,6.89,6.31,10.21,9.59.77.76,1.53,1.52,2.26,2.31,2.5,2.74.88,3.24-1.32-1.87a18.08,18.08,0,0,0,1.27,2.05c2.39,3.59-2.19-7.71-.93-1.33l-1-7.57a20.38,20.38,0,0,1,.1,3.58l1-7.58-.18,1.25,13.1-17c.88-.38,6-2.35,2.36-1-1.26.46-2.5.93-3.77,1.35-2.28.77-4.59,1.45-6.91,2a125.91,125.91,0,0,1-14.26,2.76l7.58-1c-28.86,3.68-57.86-1-86.45-4.77a270.43,270.43,0,0,0-44.42-2.42c-9.49.31-18.77.53-28.11,2.6-6.65,1.48-13.08,3.57-19.85,4.53-6.55.92-13.86,7.68-17,13.1-3.58,6.1-5.09,15.11-2.88,22s6.51,13.55,13.1,17c7.25,3.83,13.92,4,22,2.87,8.82-1.24,17.19-4.41,26-5.6l-7.58,1c58.51-6.13,118,20.69,175.51.34,5.7-2,11.6-4,16.4-7.76,8-6.21,11.82-16,11.43-26-.46-12-5.66-21.79-13.17-30.83-3.45-4.15-7.6-7.57-11.51-11.25-1.81-1.7-3.4-3.52-5.06-5.36-2-2.26,2,2.58,1.9,2.46a19,19,0,0,0-1.4-2q-1.55-2.26-3-4.62c-1.67-2.83-3-5.78-4.49-8.72-1.24-2.55,1.64,3.41,1.41,3.36a10.79,10.79,0,0,1-.82-2.11q-.94-2.49-1.79-5c-2.54-7.53-4.61-15-7.7-22.37-3.19-7.56-7-14.77-10.51-22.17-.14-.29-1-2.83-1.47-3.16,0,0,2.19,5.64,1.18,2.79-.61-1.7-1.29-3.38-1.89-5.09-1.28-3.68-2.41-7.41-3.58-11.12a178.62,178.62,0,0,0-10.2-26.15c-3.37-6.74-7.79-12.87-11.85-19.2-1.88-2.93-3.69-5.9-5.28-9a12.44,12.44,0,0,0-1.16-2.34s2.18,5.6,1.1,2.65c-.74-2-1.52-4-2.2-6-2.39-7.1-4.16-14.38-6.23-21.56-4.74-16.41-12.38-31.45-20.7-46.28A340.21,340.21,0,0,0,1257.34,674c-18.63-25.41-41.19-47.41-60.91-71.93-1.14-1.41-2.2-2.89-3.38-4.25-.07-.09,3.56,4.71,1.71,2.19-.53-.72-1.08-1.43-1.62-2.15-2.47-3.32-4.88-6.7-7.19-10.14-4.17-6.22-8-12.67-11.78-19.13-7.67-13.05-14.91-26.36-21.44-40q-2.3-4.83-4.48-9.7c-.74-1.63-1.45-3.28-2.17-4.92-.34-.77-1.59-3.74,0,.09,1.69,4.05,0,.06-.31-.77-2.87-7-5.5-14.08-8.12-21.18-5.36-14.47-10.68-29-16.63-43.21-3.72-8.92-7.49-17.82-11.69-26.52-1.57-3.25-3.25-6.45-4.85-9.68-.84-1.69-1.64-3.39-2.43-5.1l-1.14-2.55c-1.57-3.49.37.36.72,1.71-1.86-7.15-5.29-14.16-7.51-21.26-2.31-7.42-4.4-14.89-6.55-22.35s-4.28-14.68-6.66-21.94c-5.1-15.52-19.26-22.91-35.06-19.9-23.57,4.48-29.76,29.79-36.6,48.86-3.83,10.69-5.56,21.5-7.27,32.69-1.82,11.94-5.19,23.51-7.63,35.33-4.92,23.77-7,48.52-13.77,71.87-1.43,5-3.22,9.8-5.13,14.59-.43,1.06-.87,2.11-1.3,3.17-1.81,4.43.67-1.65.88-2.08-2.16,4.5-4,9.32-5.89,13.89-4.3,10.27-7.24,20.77-10.8,31.28q-1.32,3.87-2.79,7.68c-.43,1.13-.9,2.25-1.33,3.38-2.24,5.8,2.09-4.7.42-.95-2.47,5.54-5,11-7.63,16.51-4.93,10.2-10.16,20.28-14.71,30.66a299.39,299.39,0,0,0-13.45,38.75c-3.25,11.41-7.11,22.54-10.81,33.79-7.36,22.41-13.3,45.38-18.69,68.34-5.29,22.53-8.52,45.5-13.9,68A248.8,248.8,0,0,1,864,873.48c-1.9,4.66.44-.84.62-1.48a43.64,43.64,0,0,1-2.29,5.33q-2.12,4.88-4.3,9.73-4.14,9.29-8.46,18.48-8.13,17.37-16.72,34.52c-7,13.84-12.52,28.71-10.66,44.49.92,7.81,2.57,14.37,8.35,20.15,4.94,4.94,13.05,8.67,20.15,8.35,7.37-.33,15-2.75,20.15-8.35,4.77-5.19,9.21-12.82,8.35-20.15Z"/><path class="cls-5" d="M1083.13,984.55a128.67,128.67,0,0,1,1.14-17.55l-1,7.58c2-13.29,6-26,10.58-38.64,4.92-13.6,9.72-27.22,14.51-40.86,5.23-14.87,10.78-30.7,10.85-46.65.07-15.38-6.8-27.92-14.33-40.76l-4.45,34.54c.13-.16,1.57-1.62,1.55-1.69.19.5-6.9,4.47-2.64,2.26,1.76-.92-5.76,1.46-3.76,1.66a14.6,14.6,0,0,0,2.76-.59l-7.58,1a38.73,38.73,0,0,1,9.74.2l-7.58-1a130.17,130.17,0,0,1,16.51,4c5,1.47,10.17,2.43,15.12,4,3.07,1,3.71,2.72-2.36-1.13.88.56,1.9,1,2.83,1.55,3.87,2.08-5.69-5.56-2.28-1.73,2.8,3.15-.1,2.11-1.76-2.58a13.34,13.34,0,0,0,1.4,2.39c2,3.18-2.24-7.09-1.44-3.29.51,2.38,1.2,4.65,1.55,7.07l-1-7.57c2,16.37.74,33.33.66,49.79-.09,20.22,3.53,40,6.29,59.92l-1-7.57q.38,2.8.72,5.63c1,7.83,2.55,14.36,8.34,20.16,5,4.94,13.06,8.66,20.16,8.34,7.37-.33,15-2.75,20.15-8.34,4.75-5.18,9.24-12.84,8.35-20.16-1.48-12.14-3.46-24.19-5.13-36.31l1,7.58c-2.09-15.81-1.84-31.5-1.75-47.42.08-14.25.62-28.85-2.45-42.88S1164,808.14,1151,801.72c-10.86-5.32-23.44-8.17-35.16-11.08-18.82-4.66-41.94-5-55.68,11.26-8.26,9.76-11.23,23-4.45,34.54,2.15,3.67,4.44,7.28,6.4,11a13.45,13.45,0,0,0,1.07,2.15c-.33,0-2.55-7.13-1.55-3.61a46.35,46.35,0,0,1,1.37,5.58l-1-7.58a41.31,41.31,0,0,1-.07,9.43l1-7.58c-1.67,12-5.78,23.54-9.79,34.91-3.85,11-7.55,21.94-11.58,32.82-8.49,23-15.46,46.16-15.37,70.94,0,14.9,13.07,29.19,28.5,28.5s28.56-12.53,28.5-28.5Z"/><path class="cls-6" d="M1326.07,336.68c-.22,20.19,4.43,39.71,11.66,58.44,6.76,17.52,12,35.55,19.45,52.79,7,15.95,18.14,29.7,27.8,44.06a495.67,495.67,0,0,1,28,45.88q3.09,5.88,5.93,11.88,1.33,2.82,2.59,5.67c.45,1,2,4.74.35.7-1.87-4.52.42,1.07.62,1.58,3.49,8.71,6.79,17.49,10.37,26.16,7.45,18,15.35,36,20.34,54.94,4.87,18.43,7.37,37.36,10.92,56.06a243.81,243.81,0,0,0,15.38,51.83c2,4.52,4,9,6.27,13.38,1.7,3.32-2.06-5.6-.93-2.18.42,1.27.91,2.51,1.33,3.79.67,2.06,1.27,4.14,1.86,6.23a251.79,251.79,0,0,0,11.57,32.32c2.18,5,4.63,9.84,6.92,14.78.35.75,1.68,3.76,0,0-1.87-4.26.23.72.59,1.67,1,2.53,1.83,5.09,2.64,7.66a186.12,186.12,0,0,1,6.62,30.23l-1-7.57c2.26,17.06,2.66,34.27,2.72,51.46,0,7.3.23,14.62-.38,21.89-.6,7-1.58,14-2,21.07-1,17,2.84,35.94,15.83,48,8.17,7.59,18.2,10.06,29.09,10.57a39.85,39.85,0,0,0,16-2.25,70.66,70.66,0,0,1,14.19-3.53l-7.58,1c6.15-.75,12.29-.3,18.46-.07a119.59,119.59,0,0,0,19.74-1.06,395.78,395.78,0,0,0,44-8.32A736.76,736.76,0,0,1,1741.66,971l-7.58,1c28.24-3.76,56.52-7.7,85.06-7.63,14,0,28.07.58,42.11.66,14.75.1,29.55-.9,44.22,1.06l-7.58-1c11,1.69,21.75,4.71,32.76,6.4,14.87,2.3,31.69,4.69,46.16-1,10.27-4,18.79-9.75,24.4-19.63,4.72-8.31,6.16-17.31,7-26.68,1-11-.67-22-1.3-33-1-16.89.26-34.28,2.44-51l-1,7.58a205.39,205.39,0,0,1,6.28-30.25c1.36-4.63,2.59-10.19,5-14.39-.2.35-2.91,6.49-.89,2.16.48-1,.94-2,1.42-3,1.18-2.45,2.4-4.87,3.58-7.31,4-8.3,7.7-16.71,11.84-24.93,4-8,8.92-15,13.6-22.54-4.62,7.41-1.09,1.47.72-.56,1.52-1.71,3.1-3.37,4.74-5s3.06-2.88,4.66-4.24c.77-.66,1.78-1.32,2.5-2.06-5.49,5.6-3.59,2.76-1.66,1.36,7.67-5.55,15.59-10.73,22.75-17,18.36-16,25-40.53,16.12-63.37-8.28-21.33-24.44-38.21-45-48.28-19.81-9.71-41.22-14.05-62.85-17.63-22.33-3.69-44.83-6.27-67.11-10.23-23-4.1-46.68-8.18-70.17-6.87-26.52,1.48-50.83,9.06-72.44,24.61-5.77,4.16-11.37,8.58-17,12.94l-3.1,2.4c-2.74,2.14,5.32-4.06,1.44-1.11-2.27,1.72-4.54,3.45-6.85,5.12a148.37,148.37,0,0,1-12.8,8.4c-.87.5-1.75,1-2.63,1.47s-6,2.81-1.46.94c4.1-1.68.83-.37-.26,0a30.17,30.17,0,0,1-4.69,1l7.58-1a25.76,25.76,0,0,1-4.81,0l7.58,1c-1.59-.26-5.8-1.84-.89.28,5.3,2.28.67-.11-.51-.63,5.68,2.49,4.92,4.17,3.06,2.35-.57-.56-1.17-1.07-1.73-1.63s-3.39-2.93-3.31-3.72c0-.08,4.62,6.22,2.06,2.66-.4-.54-.8-1.08-1.19-1.63-.94-1.31-1.85-2.64-2.77-4-2.33-3.4-4.69-6.77-7.06-10.15A528,528,0,0,1,1702.25,566c-8-14.44-15.54-29.17-24-43.36-4.27-7.16-8.74-14.21-13.64-20.95-5.33-7.33-10.86-15.21-17.56-21.42a152.93,152.93,0,0,0-12.4-9.84l-3.79-2.8c-.63-.47-1.25-1-1.89-1.42-2.37-1.72,6.11,5.05,2.53,1.93-2.29-2-4.33-4.14-6.49-6.28,6,6,3.58,5,2.55,3.14-.64-1.18-2.09-4.35-.06.58,2.19,5.29.2-.16-.06-1.78l1,7.58a25.74,25.74,0,0,1,.11-5.95l-1,7.58c.24-1.3.71-2.52,1-3.79.58-2.9-3.93,7.6-1.81,4.41.26-.4.53-.91.75-1.32,2.4-4.53-4.75,5.26-2.13,2.6,1-1,1.88-2,2.91-3,.43-.39.88-.75,1.31-1.14,3-2.76-6,4.27-3.27,2.54,1.18-.77,2.32-1.61,3.52-2.36a81.34,81.34,0,0,1,8-4.31c1.29-.62,2.6-1.17,3.9-1.77-9.62,4.42-3.46,1.47-1.18.6,3.38-1.29,6.8-2.47,10.24-3.58,6.6-2.11,13.28-4,20-5.7,10.78-2.81,21.85-5,32.41-8.64,20.37-7,40.55-14.91,60.7-22.53q9-3.4,17.89-6.94,4.46-1.79,8.9-3.62l3.55-1.48,7.69-3.25q-5.57,2.31-2.63,1.13a162.35,162.35,0,0,1,34.28-8.56l-7.58,1c16.47-2.11,33.06-2.28,49.63-2.21s33-.25,49.37,1.93l-7.58-1a172.28,172.28,0,0,1,21.71,4.45q5.13,1.41,10.15,3.13c2,.69,4,1.51,6,2.18,3.43,1.14-4.18-1.54-3.75-1.63s2,.91,2.44,1.13c7.21,3.37,14.57,7.54,22.43,9.05,11.38,2.19,23.46,1.1,33.47-5.19,14.87-9.35,20.92-25.62,24.67-41.94a311.75,311.75,0,0,0,7.55-52c.79-13.85-.23-27.68-1.22-41.49-1.22-17.09-4.58-33.17-16.52-46.2s-31.35-18.31-48.22-21.7a304.22,304.22,0,0,0-52.5-5.41c-67.69-1.63-135.26,3.58-202.9,5.07-16.69.37-33.29.57-49.91,2.27-17.77,1.81-35.47,4.48-53,7.79-32,6-63.6,14.08-95.51,20.66-30.7,6.34-61.86,11.35-91.44,22.09-8.82,3.2-17.51,6.84-26,10.83-3.08,1.45-6.14,2.91-9.25,4.27-1,.46-6.15,2.63-1.59.71s-1.26.5-2.41,1c-14.43,5.94-29.31,11.53-42.65,19.74a126.29,126.29,0,0,0-20.51,15.71c-10.85,10.28-11.13,30.09,0,40.31,11.63,10.68,28.73,11,40.3,0,1-.93,7.06-6,2.94-2.83s2.51-1.71,3.41-2.3a126.74,126.74,0,0,1,12.25-7c3.79-1.92,7.65-3.69,11.54-5.38.78-.34,5.76-2.46,1-.45-4.23,1.79-.79.34.27-.1l7.34-3c10.48-4.32,20.74-9,31.06-13.65,4.45-2-1.26.57-1.82.75,1.12-.36,2.25-.91,3.35-1.34q3.78-1.49,7.61-2.84,7.65-2.72,15.46-5c20.52-6,41.55-10,62.51-14.14,21.49-4.24,42.83-9.16,64.2-14,24.37-5.47,48.83-10.65,73.6-14.05l-7.58,1c39.06-5.22,78.73-4.22,118.05-5.84,39.67-1.63,79.32-3.44,119-3.45,21.3,0,42.63-.23,63.78,2.58l-7.58-1a190.19,190.19,0,0,1,19.95,3.82q5,1.26,9.87,2.85c1.49.49,3,1,4.45,1.53,6.08,1.93-5.26-3.15-1.06-.45.91.59,1.89,1.21,2.84,1.72,2.81,1.5-5.2-4.92-2.4-1.73,2.41,2.74,1,2.78-1.42-2.2.49,1,1.21,2,1.78,3,2.18,3.66-2.13-6.2-1.27-3.09.26.95.63,1.86.89,2.81a59,59,0,0,1,1.41,7.22l-1-7.58a264.34,264.34,0,0,1,0,67.68l1-7.57a273.65,273.65,0,0,1-6.32,32.09c-.51,1.94-1.18,3.83-1.72,5.76-1.29,4.55,2.59-5,1.23-2.74-.51.82-1,1.75-1.39,2.62-1.86,3.78,4.26-4.8,2.13-2.59-2,2.05-3,1.34,2.92-2-3.13,1.76,3.75-1.46,3.87-1.37s-3.31.82-3.45.84l7.57-1a23.6,23.6,0,0,1-5.11,0l7.58,1a29.87,29.87,0,0,1-3.61-.93,20,20,0,0,0-2.63-1c-.06,0,5.9,2.64,3.42,1.41-2.78-1.38-5.61-2.67-8.44-3.94a178.31,178.31,0,0,0-26.88-9.66,219.79,219.79,0,0,0-49.93-7c-32.13-1-65.45-1.41-97.06,5a130.45,130.45,0,0,0-22.32,6.57l-2.4,1c.26-.11-10.89,4.61-5.17,2.18,4-1.68-1.84.76-2.81,1.16q-6.23,2.55-12.48,5c-15.79,6.19-31.74,11.95-47.65,17.81-10.79,4-21.43,8.57-32.52,11.65-8.63,2.4-17.36,4.41-26,6.68a291.44,291.44,0,0,0-28.62,8.74c-10.37,3.87-21.08,8.13-30,14.79-10.86,8.08-20.35,18-23.58,31.64-4.4,18.6,2,37.32,16.18,50,5.29,4.74,11.17,8.85,16.88,13.08,4.34,3.21-5-4.14-1.66-1.27.84.74,1.71,1.44,2.53,2.2a72.06,72.06,0,0,1,6.3,6.88,31.1,31.1,0,0,1,2.94,3.65c.18.3-3.82-5.13-2-2.6.47.66,1,1.3,1.44,2,2.26,3.11,4.42,6.28,6.52,9.5,4,6.13,7.76,12.42,11.39,18.77,7.27,12.7,13.9,25.74,21.11,38.47,7.91,14,16.63,27.48,25.8,40.66,8,11.54,15.68,25.48,26.5,34.57,9,7.58,18.4,11.86,30.18,12.94,10.41.95,20.58-2.8,29.73-7.3,13.66-6.71,25.63-16.79,37.53-26.1,2.42-1.89-3,2.29-2.67,2.06.82-.65,1.66-1.27,2.49-1.9q1.86-1.43,3.75-2.82c2.7-2,5.44-3.95,8.25-5.81s5.6-3.59,8.51-5.2c1.34-.73,2.69-1.44,4-2.11a14.73,14.73,0,0,1,2.76-1.29c-.21-.08-6.57,2.52-2.6,1.14a117.94,117.94,0,0,1,22.07-5.4l-7.57,1c16.79-2.18,33.65-1.13,50.37,1.11l-7.58-1c18.23,2.53,36.31,6.07,54.53,8.68,19,2.72,38,5.27,56.81,9.25a192.53,192.53,0,0,1,23.9,6.25c1.51.53,3,1.2,4.51,1.7-8.87-2.9-2.69-1.13-.46,0a86.6,86.6,0,0,1,9.09,5.15c1.35.88,2.61,1.92,4,2.77-7.53-4.66-2.38-1.83-.45-.06,1.35,1.24,2.65,2.54,3.88,3.9.62.67,1.21,1.37,1.8,2.07-2.88-3.81-3.66-4.83-2.37-3,2,2.91,3.41,6,5.18,9-4.33-7.33-1.27-3-.47-.13a42.1,42.1,0,0,1,1.15,5.53l-1-7.57a28.83,28.83,0,0,1-.08,6.23l1-7.57c-.17,1-.45,1.9-.62,2.86-.5,2.74-2.84,3.32,1.45-3a37.57,37.57,0,0,0-2.34,4c3.15-6.26,3.9-4.59,1.89-2.55-.7.71-1.35,1.47-2.06,2.18-1.46,1.44-3,2.74-4.6,4.08-3.24,2.78,2.87-2.32,2.81-2.15-.23.6-2,1.46-2.54,1.86-1.52,1.1-3.06,2.17-4.6,3.24-4.85,3.38-9.56,6.87-14.2,10.55-16.27,12.89-28,30.6-37.11,49.07-9.55,19.43-19.94,39.21-25.86,60.1-6.45,22.73-8.82,46.85-9.32,70.42a245.75,245.75,0,0,0,.77,25.75c.73,8.76,1.4,17.61.33,26.37l1-7.58a60.89,60.89,0,0,1-1.37,6.38c-1.09,4.32,3.38-6.81,1.38-3.21-2.68,4.81,3.64-4.06,2.1-2.52-2,2,7.19-4.73,2.89-2.27s6.21-1.92,3.26-1.24c-2.3.54-4.44,1.21-6.8,1.53l7.57-1a83.84,83.84,0,0,1-20.14-.69l7.57,1c-17.32-2.46-34-7.52-51.56-8.68-11.23-.75-22.5-.14-33.74-.18-11.47,0-22.94-.41-34.41-.58-22.69-.35-44.77,1.44-67.27,4.12-24.25,2.89-48.54,5.83-72.54,10.38-24.85,4.72-49.07,12.5-74.15,16l7.58-1c-10.08,1.32-19.79,1.2-29.93.85a83.68,83.68,0,0,0-34.4,6.32l7.57-1a83.52,83.52,0,0,1-8.94-.47l7.58,1a14.79,14.79,0,0,0-2-.44c-1.82-.05,6.25,2.83,4.73,2a14.48,14.48,0,0,1,6.31,6.14c-.28-.62-.69-1.25-1-1.85-2.39-4.29,1.42,2.17,1,2.66.25-.32-1.26-4.81-1.37-5.48l1,7.58c-1.07-8.47,0-17.06.85-25.5a258.1,258.1,0,0,0,1.24-27.66c0-23.63-.92-47.14-5.1-70.46a166.15,166.15,0,0,0-8.55-30.88q-3.84-9.9-8.49-19.47c-1.18-2.43-2.31-4.88-3.44-7.33-2-4.38.69,1.85.9,2.2a32.4,32.4,0,0,1-1.78-4.54c-3.52-9.41-5.49-19.32-9.11-28.69-2.57-6.68-5.77-13-8.75-19.47-.47-1-.88-2.07-1.38-3.07,3.35,6.67,1.66,4,1,2.3-1-2.42-1.88-4.85-2.73-7.31-6.74-19.53-9.56-40.27-13.12-60.54a326.17,326.17,0,0,0-18.78-66c-9-22.31-17.33-45.17-27.58-66.91-9-19.17-20.18-37.23-31.93-54.83-6.76-10.13-13.76-20.09-20.63-30.15a109.31,109.31,0,0,1-8.15-14.61c-.79-1.64-1.67-4.85.93,2.3-.56-1.55-1.23-3.07-1.82-4.61-1-2.6-1.91-5.22-2.82-7.85-3.61-10.45-7-20.94-11-31.25-4.37-11.33-8-22.85-9.75-34.9l1,7.58a116.87,116.87,0,0,1-.89-16c.16-14.92-13.23-29.19-28.5-28.5-15.58.69-28.33,12.52-28.5,28.5Z"/><path class="cls-7" d="M2178,880.06c24.78-3.66,35.48-27.83,48.36-45.84,15.37-21.48,29.64-42.47,38.76-67.51,17.38-47.75,12.43-98.86,8.59-148.34-2.25-28.93-3.3-57.91.42-86.77l-1,7.57c5.71-41.92,13.14-83.89,21.44-125.38,8-40,17.46-80.55,13.45-121.58-2.34-23.95-9.67-46.82-13-70.58l1,7.57c-1-7.88-1.17-15.75-1.57-23.67a103.17,103.17,0,0,1,.29-18.6l-1,7.57c.22-1.38.5-2.72.84-4.08.68-2.74,3-4.26-1.55,3.36,2.08-3.46-5.15,5.93-2.53,3.2a20.59,20.59,0,0,1-9.58,5.67,11.64,11.64,0,0,1,1.83-.45l-7.58,1a16.48,16.48,0,0,1,3.78,0l-7.58-1c1,.19,1.93.46,2.9.72,4.4,1.16-6.85-3.65-2.89-1.14,1.64,1,3.26,2.12,4.89,3.17-8.13-5.21-2.11-1.55-.09.33,1.82,1.69,3.57,3.46,5.28,5.26,6.59,6.94,13.12,14.09,19.28,21.41q2.94,3.5,5.79,7.09l1.13,1.44q2.8,3.6-1.09-1.42c.52,0,2.36,3.12,2.76,3.66,4.21,5.64,8.3,11.36,12.37,17.09Q2333.79,276.94,2346,294c16.2,22.65,32.54,45.19,49.26,67.46,16.61,22.11,33.51,44,48.79,67.09,30.39,45.88,52.27,96.91,76.27,146.25,24.58,50.55,51.63,99.87,75.2,150.91q4.82,10.44,9.43,21l1.9,4.38c.74,1.72,4.21,8.19.49,1.1a113.25,113.25,0,0,1,4.34,10.57q8.73,21.74,15.3,44.23a602,602,0,0,1,19.29,87.43l-1-7.58a42.24,42.24,0,0,1,.3,9.92l1-7.58c-.16,1-.59,2.06-.71,3.07q3.89-8.4,2-4.87,5.86-7.1,3.19-4.14-2.92,2.68,4.11-3.14-3.53,1.95,4.73-1.88c-1.12.1-2.34.62-3.48.8l7.58-1a43.36,43.36,0,0,1-9.66-.23l7.58,1c-18.29-2.54-34.73-11.54-52.15-17.07a333.7,333.7,0,0,0-54.55-12.61c-21.94-3.08-44.67-4.35-66.19,2.19-9.71,3-19.72,7-28,13a53.53,53.53,0,0,0-10.67,9.92c-1,1.14-2,2.2-3,3.29q-3.17,2.79,3.28-2.52,8.07-2.89,4-1.79l7.57-1a7.32,7.32,0,0,1-2,.08l7.58,1c-3.61-.63,3.93,2,4,2.06-.49-.29,6.41,5.44,4.23,3.13.05.06,5.18,6.95,2.85,3.35-.61-.94-1.7-3.79.42,1.21,2.28,5.38.26.25-.16-1.17-.5-1.67-.92-3.37-1.3-5.07-1.25-5.53-2.08-11.15-2.84-16.76l1,7.58c-1.38-13.66.77-27.61-3.61-40.94-4.08-12.45-11.64-22.45-17.61-33.9-1.5-2.87-.44-4.23.77,2.36a15.69,15.69,0,0,0-.66-1.85c-.54-1.78-1-3.56-1.47-5.37-1-4.1-1.79-8.26-2.78-12.36-2.59-10.76-6.8-23-15.57-30.38-7.18-6-14.48-9.11-23.94-7.84-8,1.08-17.33,5.7-20.82,13.61a189.51,189.51,0,0,0-14.51,52.73c-2.16,16.11-3.07,32.36-5.17,48.48l1-7.58c-1.75,12.77-3.93,25.46-5.62,38.24l1-7.57a141.28,141.28,0,0,1-2.55,14.42c-.57,2.29-1.27,4.52-2,6.75-1.48,4.34,2.88-5.1,1-2.45a23.83,23.83,0,0,0-1.59,2.88c-1.63,3.3,1.52-2.45,2.22-2.61-.59.13-2.76,3-3.19,3.39-.76.72-1.68,1.36-2.4,2.13,4.39-4.74,3.69-2.75,1.46-1.38a22.15,22.15,0,0,0-3.17,1.76c3.48-3.12,5.57-2.13,2.27-1a45.62,45.62,0,0,1-7.37,1.74l7.57-1c-12.34,1.63-24.66-.83-36.91-2.12-16.15-1.7-32.32-3.32-48.49-4.77-15.65-1.41-31.46-3-47.18-3.25-12.95-.18-25.78,3.16-38.74,1.67l7.57,1c-1.52-.23-3-.69-4.49-.94-1.08-.18-4-1.61,1.63.8,5.41,2.31,2.49,1.21,1.43.53-4.33-2.8,2.58,2.24,2.64,2.31a13.62,13.62,0,0,0-2.13-2.16c-.1-.06,4.44,6.54,3.24,4.13-.2-.4-.49-.78-.72-1.17s-.49-1.09-.8-1.56c-1-1.55,2.42,6.7,2,4.82-.48-2.39-1.34-4.65-1.69-7.1l1,7.57a68.76,68.76,0,0,1,.3-17.14l-1,7.57c2.22-16.45,7.62-32.43,13.79-47.77.4-1,.81-2,1.22-3,1.58-3.88-2.74,6.38-1.45,3.41.75-1.72,1.48-3.44,2.24-5.15q2.3-5.16,4.76-10.25c2.35-4.86,4.8-9.68,7.51-14.35,7.47-12.91,3.42-31.78-10.23-39s-31-3.56-39,10.22c-10.43,18-18.67,37.76-25.43,57.39a177.93,177.93,0,0,0-8.32,32.83c-1.86,13.18-3.21,27,1.33,39.89,5.51,15.64,16.87,27.89,33.22,32.33,17,4.61,33.63-.31,50.71.09,38,.9,75.78,6.57,113.56,10.16,22.74,2.16,46.07-3.56,62.09-20.76,16.48-17.68,18.3-40.54,21.32-63.3l-1,7.57c1.76-12.74,4.16-25.36,5.5-38.18,1.21-11.58,2-23.2,3.49-34.75l-1,7.57a196.24,196.24,0,0,1,3.68-20.25c.8-3.24,1.7-6.46,2.73-9.64q.85-2.64,1.84-5.25c.64-1.72,3.14-7.28,0-.18l-44.76,5.77c4.34,3.63-3.43-6-1.41-2.3,1.47,2.69,1.91,6.34-.5-2,.8,2.75,1.81,5.43,2.51,8.23,1.45,5.8,2.4,11.73,4.1,17.47,2.54,8.61,6.91,16.41,11.59,24,2.07,3.36,4.19,6.72,6,10.23.51,1,1,2,1.45,3q-2.62-6.5-1.09-2.31c.53,2.25,1.16,4.4,1.53,6.7l-1-7.58c.94,7.7.26,15.42.74,23.13a196.11,196.11,0,0,0,2.59,19.6c2.06,12.56,5.5,26.45,14.92,35.63a35.77,35.77,0,0,0,35,8.43c8.59-2.54,15.25-8.23,20.84-14.94.68-.81,1.42-1.58,2.08-2.4,2.58-3.2-7.52,5-1.75,1.32,2.91-1.86,6.41-3,9.24-4.88q-6,2.49-3,1.31c.77-.3,1.56-.59,2.34-.86,1.57-.54,3.14-1,4.74-1.49a83.29,83.29,0,0,1,11-2.28l-7.58,1c12.83-1.64,25.7-1.11,38.5.55l-7.58-1a323.35,323.35,0,0,1,55.33,12.87c8.84,2.87,17.4,6.56,26.11,9.81a135.85,135.85,0,0,0,32.83,8c20.79,2.36,42.15-7.92,47.11-29.62,2.31-10.06.92-19.42-.7-29.46s-3.45-19.75-5.43-29.56A619.68,619.68,0,0,0,2657.16,725c-16.2-38-34.92-74.79-53.72-111.52q-28.05-54.84-54.59-110.37c-17.62-36.66-35.46-73.36-58.22-107.16-22.9-34-48.64-66-72.74-99.15q-18.58-25.53-36.81-51.3c-12.61-17.74-25-35.66-38.92-52.41-8.71-10.48-18.09-21.75-28.54-30.57-7.71-6.51-16.14-12.72-26.2-15.06-13.52-3.16-28.23-.16-38.07,10.11-12.69,13.23-12.66,32.65-11.85,49.76a330.77,330.77,0,0,0,8.09,58.15c2.14,9.37,4.38,18.71,5.71,28.24l-1-7.58c2.76,21.45,1.63,43.1-1.22,64.47l1-7.57c-3.3,23.88-9,47.32-13.5,71-4.73,25-8.87,50.05-12.93,75.14-4.33,26.76-8.88,53.39-9.08,80.57-.18,24.56,2.14,49,4.16,73.48,2.1,25.41,3,50.83-.22,76.19l1-7.58a188.81,188.81,0,0,1-9.68,40.55c-.35.95-2.7,6.71-.72,2.08,2.06-4.85-1,2.06-1.34,2.87-1.54,3.25-3.19,6.45-4.92,9.61-3.44,6.23-7.23,12.26-11.21,18.16-6.9,10.22-14.51,19.91-21,30.42-1.36,2.22-2.73,4.43-4.19,6.59-.73,1.07-1.56,2.1-2.26,3.19,4.6-7.26,2.84-3.57,1.23-1.79-1,1.07-2.15,2-3.07,3.08-1.73,2.06,6.68-4.17,1.94-1.57s5.44-1.3,2.58-.84c-1.35.22-2.68.74-4.06.94-6.57,1-13.84,7.65-17,13.1-3.58,6.11-5.09,15.11-2.88,22s6.51,13.55,13.1,17c7.23,3.82,13.94,4.06,22,2.88Z"/><path class="cls-8" d="M2705.47,195.54a37.56,37.56,0,0,0,3.78,2.57c-5.54-2.63-4-3.2-1.73-1.29a68.63,68.63,0,0,1,5.59,5.33c.62.67,1.21,1.37,1.82,2,3.56,4-4.15-5.86-1.11-1.54,1.53,2.18,3,4.39,4.31,6.7,1.1,1.91,2.11,3.87,3,5.86s2.31,6.61-.73-1.95c.29.84.66,1.66,1,2.48,1.78,4.63,3.27,9.36,4.64,14.12,2.83,9.87,5.12,19.88,8,29.72,3.8,12.75,9.2,24.89,14.37,37.13,5.34,12.64,10.81,25.23,16.22,37.84q1.82,4.26,3.64,8.53l.73,1.71q1.8,4.24-.71-1.69a18.31,18.31,0,0,1,1.44,3.42q3.93,9.41,7.73,18.87a695.33,695.33,0,0,1,25.89,76.86,704.63,704.63,0,0,1,17.86,89.17l-1-7.58a846.22,846.22,0,0,1,7,102.84c.18,17.82,0,35.64-.07,53.46s1.29,35.93-1,53.56l1-7.58c-2.34,16.32-6.48,32.23-8.05,48.68-1.37,14.38-1.49,28.83-3.35,43.17l1-7.57c-1.31,9.44-3.45,18.73-4.91,28.15-.66,4.26-1.32,8.53-2.31,12.72-.44,1.88-.94,3.75-1.51,5.59-.35,1.1-.78,2.16-1.11,3.26-1,3.19,2.86-5.56.42-1-2.76,5.22-6.53,9.8-10,14.56a86.92,86.92,0,0,0-12.34,22.8c-3.94,11.21-2.26,23.84,3.58,34,5.71,10,15.94,16.38,26.65,19.71,13.58,4.22,28.29,2.77,42.2,1.63,19.25-1.59,38.74.86,57.81,3.42l-7.57-1c16.68,2.26,33.4,4.31,50.09,6.53l-7.58-1c15.36,2.07,29.9,4.65,45.32,1.85,18.42-3.35,31.66-17.07,37.85-34.21,2.57-7.13,3.37-14.89,4.91-22.29,2-9.64,3.86-19.23,5.18-29a137.93,137.93,0,0,0,.86-28.72c-.64-8.91-1.42-17.77-.45-26.69l-1,7.58c1.83-12.83,7.62-24.55,9.36-37.45,1.8-13.39-.29-26.7,1.09-40.07l-1,7.58c2-14.54,5.23-29.08,8.29-43.42,3-14.17,6.31-28.43,11.62-41.94,2.81-7.16,6-14.18,8.65-21.39,2.42-6.55,3.91-13.34,6.15-19.94.33-1,2.34-6.08.67-2s.8-1.58,1.27-2.56c1.75-3.67,3.61-7.29,5.38-10.95,3.65-7.55,6.8-15.34,9.86-23.15l1.36-3.45c1.41-3.68-3.44,7.3-1.3,3.07.88-1.72,4.27-6.74.43-1.8-3.67,4.72-1.66,1.93-.61,1.06-.48.4-7.35,4.88-3.56,3,.74-.38-8.3,2.53-4.07,1.83,1-.17,2-.43,3-.57l-7.58,1c8.55-1,17.5-.26,26,.79l-7.58-1a104.25,104.25,0,0,1,19.36,4.34c2.48.83,7.71,4-.24-.34,1.22.66,2.55,1.16,3.79,1.8q2.47,1.28,4.83,2.76c.92.58,6,4.31,1.64,1s.54.62,1.33,1.39c1.18,1.13,2.24,2.37,3.36,3.57q2.11,2.51-2.26-3c.57.78,1.12,1.57,1.64,2.37a47,47,0,0,1,2.36,4.14c2.85,5.66-2-6.09-.44-1.13.49,1.56,1,3.09,1.46,4.67a83.13,83.13,0,0,1,2.05,10.61l-1-7.58c1.62,13.51.78,27.11-.06,40.65-.9,14.59-.81,29.13-.67,43.75.17,17.32.43,34.64.45,52,0,17,.51,34.29-1.72,51.17l1-7.58c-2.92,20.24-10.21,39.21-16.54,58.54-7.58,23.09-13.32,48.33-.95,71,22.43,41.11,74.47,24.83,108.78,12.34,12.58-4.58,24.65-8.22,37.94-10l-7.58,1c33.38-4.45,68.19-5.36,100.24-16.55,16.49-5.76,33.38-13.93,44.72-27.67,7.6-9.21,13.4-19.62,15.64-31.51,2.77-14.71,2.06-28.37-.07-43.07-3.48-24.15-11.38-47.31-14.68-71.53l1,7.58c-2.36-17.65-4-35.58-8.66-52.81-4.84-17.92-13.19-35.08-20.52-52.07-6.92-16-14.1-32-21.34-47.85-1.57-3.45-3.16-6.88-4.7-10.35,0-.07-1.12-3.17-1.46-3.35,0,0,2.25,5.48,1.11,2.61-.78-2-1.59-3.91-2.36-5.87q-4.4-11.24-8-22.77c-9.4-30.1-14.85-61.22-19.52-92.36-4.88-32.6-12.89-64.16-21.86-95.86-4.89-17.29-9.79-34.59-13.86-52.1-4.4-18.93-7.46-38.07-10.05-57.32l1,7.57c-3.37-25.36-5.86-50.82-9-76.21a219.37,219.37,0,0,0-8.66-39.43c-3.35-10.54-7.05-21-9.5-31.8-4.23-18.63-5.71-38.07-16.29-54.64-15.56-24.38-43-35.77-71.13-37.21-13.33-.69-26.81,1.51-39.9,3.72-10.53,1.79-21.18,3.28-31.65,5.35-18.7,3.68-34.94,13.94-44.81,30.44-10.74,17.94-15.6,40.75-19.3,61.06-4.55,24.87-6.67,50.1-7.42,75.35-.83,28.32-.93,56.37,2.95,84.48a260.37,260.37,0,0,0,8.12,38,205.87,205.87,0,0,0,8.43,23c.41,1,.83,1.94,1.25,2.91,2.34,5.41-2.26-6.48-.43-.89a55.34,55.34,0,0,1,2.4,9l-1-7.58a25.69,25.69,0,0,1-.1,5.88l1-7.57a16.15,16.15,0,0,1-.78,2.88q3.84-8.15,2-5.11c-1.08,1.85,5.9-6.66,2.06-2.83-1.88,1.88-4.34,2.48,2.82-2-.9.56-1.74,1.2-2.63,1.76-2.31,1.43-4.74,2.57-7.17,3.76-4.47,2.2,7-2.74,2.32-.95-1.35.51-2.68,1-4,1.53a137.91,137.91,0,0,1-28,7.15l7.58-1a66,66,0,0,1-15.7.21l7.58,1a42.22,42.22,0,0,1-6.48-1.38c-1.31-.39-4.94-1.9.24.31,5.35,2.28.93.36-.38-.37-.8-.46-1.56-1-2.35-1.45-3.81-2.25,4,3.42,2.82,2.26-1.55-1.56-3.25-2.92-4.73-4.57-.6-.67-1.43-2.28-2.19-2.61,1.06.46,4.78,6.44,2.06,2.53-1.42-2-2.74-4.15-4-6.29-2.58-4.42-4.89-9-7.14-13.6-2.66-5.43-5.24-10.91-7.88-16.36-.93-1.93-1.86-3.85-2.74-5.8l-1.13-2.58c-1.31-2.89,1.08,2.57,1.06,2.51-1-4-3.13-8.08-4.47-12-5-15-8.5-30.44-11.57-46-5.45-27.56-9.69-56.25-20.27-82.46-6.55-16.22-15.44-29.62-29.89-39.87-13.84-9.83-30.94-13.34-47.57-14.44-17.06-1.13-36-.45-52.64,3.44-15.66,3.67-29.76,12-45.76,14.54l7.57-1c-1.1.16-2.21.3-3.32.4-7.77.84-14.43,2.63-20.16,8.35-4.94,4.94-8.66,13.05-8.34,20.15.63,14.08,12.62,30.2,28.5,28.5a133.44,133.44,0,0,0,35.21-8.63c9.35-3.65,18.63-7.24,28.63-8.63l-7.58,1c15-1.68,30.71-2.34,45.69-.33l-7.58-1a68.93,68.93,0,0,1,11.53,2.69c.38.13,2.67,1.08,2.76,1-.28.21-6.73-3.29-2.95-1.18,1.74,1,3.46,1.92,5.17,2.93,5.08,3-4.29-3.93-1.27-1.11,1.18,1.1,2.38,2.14,3.49,3.32.54.57,1,1.19,1.58,1.77,2.69,2.87-2.36-2.79-2.28-3-.11.26,2.7,4.1,2.9,4.45.8,1.37,1.54,2.77,2.24,4.2.35.72.66,1.46,1,2.18,1.46,3-2.59-6.57-1.46-3.45,1.22,3.34,2.44,6.65,3.49,10.05,2.32,7.52,4.4,15.15,6.3,22.79,4.69,18.91,7.8,38.16,11.8,57.22A308,308,0,0,0,2933.87,339c5.77,13.12,11.94,26.6,19.36,38.89s17.56,24.33,30.9,30.62c29.78,14,66.6,4.95,94.72-9.5,9-4.6,17.09-11.26,22.35-20,7.66-12.65,6.62-29.23,1.4-42.53-1.65-4.21-4.06-8.36-5.36-12.7-.12-.4,2.42,6.1,1.35,3.21-.43-1.18-.9-2.33-1.32-3.51-1.9-5.47-3.54-11.05-5-16.64a258,258,0,0,1-6.42-31.87l1,7.57c-2.78-21.21-2.57-42.52-2.22-63.87.36-21.51,1.32-43,4.1-64.36l-1,7.58a320.14,320.14,0,0,1,9.89-47.37c.78-2.67,1.59-5.32,2.47-8s5.37-12.08.51-2.14c.92-1.87,1.74-3.78,2.77-5.59.48-.84,1-1.63,1.51-2.46,2.82-4.78-3.52,4-2,2.46.33-.34,4.08-3.94,4.06-4,.17.68-7.32,4.83-2.91,2.38.79-.45,1.54-1,2.35-1.38s1.74-.77,2.55-1.23c-7.66,4.44-5.43,2.2-2.58,1.27a66.67,66.67,0,0,1,7.06-1.86c13.94-2.94,28.35-5.11,42.46-7.06l-7.57,1c9.88-1.28,19.76-1.82,29.68-.58l-7.58-1a76.44,76.44,0,0,1,11.28,2.48c.87.26,1.73.54,2.59.85,2.29.88,2.3.85.05-.08s-2.25-1,0,.09c1,.5,2.07,1,3.08,1.59,1.3.72,2.52,1.56,3.78,2.33,4.18,2.56-5.07-4.52-1.37-1,1,.92,1.94,1.81,2.85,2.79,2,2.2,2.26,4.48-1.2-1.78,1.22,2.21,2.77,4.2,3.91,6.48,2.7,5.41-.33-2.06-.83-2.18.49.12,1.3,3.64,1.48,4.2a132.16,132.16,0,0,1,3.82,16c2.35,12.44,4.83,24.58,8.65,36.67,4.57,14.46,9.62,28.75,11.84,43.82l-1-7.58c5.28,40.42,8.39,81.18,15.81,121.31,6.6,35.74,17.92,70.34,27.16,105.44a520.4,520.4,0,0,1,11.62,54.14c2.67,17.58,5.25,35.17,8.67,52.63a465.13,465.13,0,0,0,12.59,50.6c6.07,19.25,14.12,37.67,22.46,56q6.63,14.58,13.12,29.2,3.35,7.56,6.62,15.14l3.06,7.13c.5,1.19,1,2.38,1.51,3.57-.64-1.49-2-4.88-.62-1.46,4.11,9.89,8.33,19.71,11.06,30.09a248.29,248.29,0,0,1,5.53,30l-1-7.57c2.3,17.25,4.17,34.55,8.29,51.48,3.39,13.93,7.25,27.75,9.29,42l-1-7.57a97.08,97.08,0,0,1,.52,25.14l1-7.57a56.31,56.31,0,0,1-1.75,8.13c-.26.87-.55,1.74-.86,2.59l1.85-4.29c0,.82-1,2.13-1.4,2.84-.74,1.36-4.75,6.91-1,2s-.58.5-1.64,1.56c-.56.57-3.78,4.16-4.51,4,.12,0,7.21-5,2.7-2.19-.82.52-1.62,1.08-2.44,1.6a101.42,101.42,0,0,1-10.8,5.62c9.78-4.61,2.52-1.08-.16-.12q-3.12,1.13-6.29,2.08c-4.38,1.34-8.82,2.49-13.28,3.5-9.65,2.18-19.42,3.72-29.22,5l7.58-1c-22.5,3-45.66,3.85-67.82,8.92-22.66,5.18-43.27,16.83-66.54,20l7.57-1a58.15,58.15,0,0,1-14.32.22l7.58,1c-2-.3-3.8-.89-5.73-1.32-4.13-.93,6.65,3.69,3.39,1.4-1-.69-4.68-3.23-.36,0,5.9,4.47-2.81-4.16,1.4,1.34,3.25,4.24.36-.2-.31-1-1.63-2.1,2.52,7.37.95,1.84a38,38,0,0,1-.95-4.63l1,7.58a54.35,54.35,0,0,1,.07-12.49l-1,7.57c2.83-20.9,12.48-40.67,18.26-60.85,7.22-25.2,7.88-50.87,7.94-76.9s-.51-52.27-.58-78.41c-.05-19.8,3-39.62,1.34-59.41-1.18-14-3.86-26.49-10-39.15-5.82-12-15.77-21.41-26.51-29-18.55-13-43-17.24-65.17-17.92-10.69-.33-21.75.23-31.38,5.37a40.86,40.86,0,0,0-17.71,19c-2.3,5-4.28,10.14-6.28,15.25-.47,1.21-3,7.45-1.12,2.94,2.08-4.88-.44.91-.75,1.57-.79,1.71-1.61,3.4-2.44,5.09-5.81,11.88-11.27,23.66-14.83,36.41-3.61,12.91-9.62,24.86-14.12,37.44s-7.34,25.67-10.07,38.65c-2.66,12.59-5.14,25.25-7.35,37.93a125.89,125.89,0,0,0-2,25.91c.24,7.25.64,14.44-.21,21.67l1-7.58c-1.06,6.93-3.42,13.42-5.56,20.07a99.87,99.87,0,0,0-4.78,27.54c-.47,15.19,2.41,30,.55,45.25l1-7.58c-1,7.54-2.53,15-4.08,22.41-1.48,7.1-2.38,14.48-4.31,21.47-.35,1.26-2.18,5.89,0,.75s.24-1-.3.14c-2.17,4.57,3.88-4.06,2.08-2.46-1,.91-4,3.44.48.07s1.31-1.14.21-.4c-4,2.71,6.12-2,3.43-1.35a60.7,60.7,0,0,1-6.14,1.41l7.58-1c-7.62.85-15.27-.14-22.82-1.13l7.57,1c-12.78-1.72-25.6-3.2-38.38-4.91l7.57,1c-23.7-3.22-47.45-7.18-71.42-7.39-13.52-.13-27,2.75-40.49,1.14l7.58,1a43.6,43.6,0,0,1-5.19-1c-.79-.22-1.58-.6-2.37-.76-2.6-.52,7.53,3.23,3.79,1.5-.53-.25-1-.76-1.53-1,4.37,1.66,5.73,4.74,3.45,2.41-2.1-2.14,4.32,6.7,2.65,3.24.44.91,2.64,8,1.63,3.36l1,7.57a15.5,15.5,0,0,1,0-3.79l-1,7.58a23.82,23.82,0,0,1,.68-3c1.64-5.42-.53,2.59-1.21,2.62.41,0,3.32-5.87,3.69-6.45,2.77-4.29,5.91-8.32,8.94-12.44,7.84-10.69,12.44-23.34,14.74-36.35,2.78-15.71,5.85-31.44,7.59-47.31,1.54-14.13,1.48-28.41,3.23-42.52l-1,7.58c1.44-10.53,3.94-20.85,5.71-31.32a217.51,217.51,0,0,0,2.88-38c-.14-22.82.08-45.63.1-68.45a904.46,904.46,0,0,0-9.93-136.55,673.82,673.82,0,0,0-31.95-127.11c-8.09-22.44-17.36-44.42-26.73-66.35-4.27-10-8.6-20-12.88-30-1-2.31-2-4.61-2.95-6.92-.23-.53-2.63-6.32-.77-1.81,1.62,3.94,0,0-.4-1-2.09-5-4.24-10-6.1-15.06-6.21-17.08-9.16-35.14-15.32-52.22-8.52-23.6-21.79-43-43.09-56.79-12.53-8.13-32-2.95-39,10.23-7.5,14.19-3.15,30.32,10.22,39Z"/><path class="cls-9" d="M3451.36,98.93c0,29,.71,57.75,5.08,86.5,4,26.3,11.82,52.31,20.61,77.38,5,14.24,10.69,28.25,17,41.95,2.81,6.12,5.89,12.08,8.9,18.09q2,4,3.9,8.13c.74,1.61,1.45,3.24,2.17,4.86,2.35,5.23-2.5-6.19.17.46,9.49,23.65,15.44,48.44,20.68,73.32,6.37,30.28,12.17,60.65,16.71,91.27l-1-7.58c1.51,11.24.58,22.52,1.18,33.8.71,13.32,3.93,26.4,5.71,39.6l-1-7.58c3.69,28.49,4.31,57.23,4.26,85.93,0,14.31-.2,28.62-.22,42.92s.27,28.15-1.54,42.25l1-7.58c-1.75,12.93-4.07,25.77-5.77,38.71-1.41,10.77-1.55,21.63-2.94,32.4l1-7.58a130.42,130.42,0,0,1-5.28,23.51c-.35,1-.73,2.1-1.12,3.15q-1.66,4.23,1-2.26a16.81,16.81,0,0,0-1.38,2.67c-1.45,2.53-7.41,9.39-.78,1.7-8.76,10.17-18.92,20.65-24.55,32.92-4.8,10.48-7.28,21.43-4.33,32.92,2.86,11.13,10,19.05,20.88,22.79a116.71,116.71,0,0,0,13,3.5c18.83,4.13,38.17,5.14,57.25,7.6l-7.58-1a186.79,186.79,0,0,1,21.14,3.92c7.05,1.79,13.8,4.49,21,5.87,15.5,3,31.23,2.67,46.82,4.73l-7.57-1c9.65,1.6,18.12,7,27.76,8.71,17.39,3.06,33.85-1.09,47.22-12.75,17.25-15,19.81-39.58,23.1-60.73a386.59,386.59,0,0,1,16.69-66.49q2.67-7.75,5.61-15.41c1.11-2.86,2.26-5.69,3.41-8.53.63-1.56,2.38-4.63-.72,1.68.82-1.67,1.5-3.45,2.26-5.15,4.68-10.47,9.82-20.73,15.29-30.81a573.39,573.39,0,0,1,34.33-55q9.51-13.57,19.58-26.73l2.65-3.47c2.44-3.19-4.43,5.68-.71.93l4.31-5.52q5.43-6.89,10.95-13.71c14.91-18.47,30.77-36.29,44.79-55.47,12.49-17.08,23.21-35.38,35.62-52.52.83-1.14,1.66-2.27,2.5-3.4,3.81-5.12-2.12,2.59-.37.42,1.94-2.41,3.86-4.82,5.88-7.17,3.67-4.29,7.59-8.32,11.57-12.32a240.75,240.75,0,0,0,25.69-31.37c13.89-19.75,24.83-41.37,35.38-63,3.39-7,5-14.28,2.87-22-1.82-6.61-6.93-13.78-13.1-17-12.8-6.76-32-4.08-39,10.23-8.59,17.63-17.43,35.18-27.9,51.78-2.4,3.8-4.89,7.56-7.48,11.24-1.28,1.83-2.62,3.62-3.94,5.44-2.75,3.8,1.07-1.46,1.41-1.78a42.72,42.72,0,0,0-3.13,3.9c-6.23,7.54-13.39,14.14-19.9,21.42-14.21,15.85-26,33.66-37.67,51.43-5.27,8-10.55,16.08-16.16,23.89-1.49,2.07-3,4.11-4.55,6.16-2.18,3,3.63-4.56,1.32-1.71-.72.88-1.42,1.78-2.14,2.67-3.34,4.11-6.77,8.16-10.16,12.25-27.08,32.64-53.93,65.69-77.36,101.08-23.9,36.1-43.49,74.82-57.27,115.9-3.84,11.44-7.58,23-10.34,34.78-2.67,11.38-4.33,23-6.15,34.48-1.58,10-3.87,19.46-6.27,29.2,1.74-7.07,2.53-5.47,1.41-3.41-.56,1-1.2,2.1-1.73,3.15-1.74,3.45,1.93-3,2.41-2.91,0,0-2.29,2.43-2.4,2.55-1.84,1.93-2.48-.18,3-2.25-.59.22-2.85,2.13-3.25,1.82-.58-.45,7.74-2.23,3.07-1.46-1.5.25-3,.72-4.48.93l7.58-1a32,32,0,0,1-6.11-.17l7.58,1c-10.95-1.86-20.46-7.73-31.56-9.23-12.54-1.68-25.18-1.8-37.71-3.37l7.57,1c-14-2-27-7.48-41-9.71-15.62-2.5-31.39-3.67-47.07-5.7l7.58,1a175.78,175.78,0,0,1-29.59-6.34l19.91,19.9a17.87,17.87,0,0,1-1.15-3.86l1,7.58a20.85,20.85,0,0,1,0-4l-1,7.58a49.82,49.82,0,0,1,1.27-5c-1.73,7-2.5,5.53-1,2.74.47-.87,1-1.71,1.51-2.55.7-1.13,5.12-7.11,1.71-2.73-3.18,4.09-.58.77.18-.17s1.66-2,2.51-3c6.51-7.75,14-15.39,18.67-24.43C3596.46,829,3600,816,3602,803c2.12-14.16,2.42-28.41,4.33-42.58l-1,7.58c2.78-19.8,7.19-39.58,7.28-59.65.09-19.81,0-39.62.12-59.43.07-19.41-.09-38.83-1.27-58.2-1.31-21.5-4.8-42.52-8-63.77l1,7.57c-1.62-13.08-.15-26.28-1.61-39.38-1.59-14.28-4.15-28.54-6.61-42.7q-6.41-36.81-14.7-73.3a400.16,400.16,0,0,0-22.56-70.49c-5-11.67-11.18-22.79-16.43-34.35-.5-1.11-1-2.21-1.48-3.32-.32-.72-2.13-6.2-.72-1.58s-.36-.9-.65-1.59l-1.35-3.35q-3.65-9.18-6.88-18.53c-9.09-26.28-17-53.4-20.77-81l1,7.58c-3.17-24.42-3.31-49-3.31-73.63,0-14.91-13.11-29.19-28.5-28.5s-28.51,12.52-28.5,28.5Z"/><path class="cls-10" d="M3467.36,66.93c0,33.48,22.95,62.15,43.23,86.58,8.63,10.38,17.7,20.39,26.12,31a15.42,15.42,0,0,0,1.45,1.82c.17.15-4.76-6.31-2.41-3.1,1,1.33,1.95,2.65,2.93,4,2.72,3.73,5.46,7.46,8.17,11.2,5.55,7.64,11,15.35,16.21,23.24,5,7.68,9.41,15.7,14.21,23.51a166.65,166.65,0,0,0,19.07,24.74c11.57,12.66,23.61,24.59,34.34,38,1.51,1.89,3,3.81,4.51,5.72.5.64,2.47,3.2,0,0l.53.69q4.38,5.73,8.73,11.48c6.54,8.62,13.1,17.24,19.81,25.73,10.53,13.31,22.56,25.2,33.33,38.25,1.89,2.29,3.7,4.63,5.53,6.95-6.08-7.71-1.92-2.47-.58-.72q3.38,4.4,6.78,8.79c3.85,5,7.76,9.91,12.07,14.5,11.35,12.09,25.63,21.87,41.74,26.31,19,5.24,41,4.13,58.23-5.88,12.76-7.4,21-19,31-29.42a203.43,203.43,0,0,1,19.59-17.4c2.43-1.95-2.5,1.91-2.34,1.81,1-.63,1.85-1.4,2.77-2.08,1.62-1.21,3.26-2.41,4.9-3.59q5.64-4.06,11.36-8c15.13-10.5,30.66-20.7,43.78-33.74,21.7-21.57,37.36-48.73,60.75-68.69.75-.63,1.53-1.24,2.27-1.88,2.16-1.89-2.92,2.49-2.88,2.17.11-.73,4.16-3,4.79-3.44,3.82-2.58,7.75-5,11.55-7.63,8.87-6.12,17.43-12.72,25.84-19.46,13.9-11.13,27.1-23.1,40.4-34.94q5-4.5,10.11-8.95,2.37-2.09,4.78-4.16c.89-.77,1.81-1.53,2.7-2.31,3.81-3.33-3.84,2.67-1,.76,7.17-4.78,14.47-9.19,21.95-13.48a196.14,196.14,0,0,0,26.69-18.13c5.29-4.31,9.92-9.32,15.07-13.79.39-.35,1.61-1.63,2-1.68.69-.09-5.75,3.94-3.19,2.5,1.3-.73,2.48-1.7,3.8-2.43a13.19,13.19,0,0,1,2.32-1.18c.38.16-7.57,2.56-3.09,1.43,1.84-.47,3.61-.94,5.5-1.23l-7.58,1c1.55-.18,3.06-.28,4.62-.32,14.89-.39,29.2-12.82,28.5-28.5-.68-15.1-12.54-28.92-28.5-28.5-11.15.3-22,2.92-31.66,8.71-7.32,4.41-13.69,10.35-19.83,16.24-2.34,2.23-4.75,4.37-7.16,6.53-1.39,1.24-3.53,1.91,1.92-1.42-.72.44-1.4,1-2.1,1.53-1.87,1.33-3.79,2.61-5.73,3.84-7.26,4.61-14.87,8.61-22.22,13-16.52,10-30.58,23.33-44.91,36.12-6.64,5.93-13.29,11.85-20.05,17.64q-4.73,4-9.53,8c-1.84,1.5-3.68,3-5.54,4.47l-2.1,1.65c-2.75,2.2,4.94-3.7.82-.64-14.63,10.85-30.51,20-43.84,32.56-10.82,10.17-20,21.87-29.28,33.46-9.39,11.79-18.83,23.63-29.83,34-2.8,2.63-5.74,5.08-8.67,7.55-2.35,2,3-2.38,2.72-2.1a28.1,28.1,0,0,1-2.61,1.91q-2.75,2-5.53,3.94c-7.05,5-14.2,9.82-21.25,14.8-16.4,11.58-32.73,23.75-46.12,38.81-4.59,5.16-8.91,10.66-14.14,15.22-.43.37-.89.71-1.3,1.09-2.34,2.18,6.22-4.25,2.6-2.1-1.31.77-2.63,1.52-3.95,2.28-3.42,2,3.39-1.74,3.57-1.46,0-.06-2.74.89-2.94,1a44.82,44.82,0,0,1-5.87,1.17l7.58-1a64.07,64.07,0,0,1-15-.13l7.57,1a57.67,57.67,0,0,1-9.09-2c-1.24-.39-6.51-2.51-1.34-.34s-.3-.29-1.6-1-2.47-1.44-3.67-2.22-5.45-4-1.07-.63,0-.1-.88-.88q-1.84-1.64-3.58-3.37a147.11,147.11,0,0,1-11.53-13.16c-.7-.88-4.26-5.46-.9-1.11s-.11-.17-.87-1.15c-3.15-4.12-6.3-8.24-9.51-12.31-9.41-11.94-20.4-22.51-30.08-34.24q-3.73-4.54-7.38-9.17c-.56-.7-5-6.46-2.21-2.79,2.61,3.39.14.17-.51-.68l-2.19-2.86c-5.28-6.92-10.51-13.88-15.82-20.77-11.58-15.05-23.34-29.74-36.61-43.34-5.25-5.38-10.53-10.75-15.33-16.55a29,29,0,0,0-2.06-2.54c-.12-.12,3.64,5,2,2.48-1.09-1.65-2.29-3.22-3.36-4.87-2.47-3.79-4.57-7.78-6.86-11.67-16.34-27.82-36.24-54-57.23-78.5-4.95-5.77-9.92-11.53-14.75-17.41-1.23-1.5-2.46-3-3.67-4.53l-1.82-2.29c-2.57-3.21,1.87,2.06,1.78,2.32.37-1.09-6.36-8.65-7.2-9.87a138.11,138.11,0,0,1-11.07-18.67c-.28-.58-.54-1.16-.82-1.74-1.95-4,2.19,5.92,1.16,2.77-.5-1.54-1.14-3-1.63-4.58a57.79,57.79,0,0,1-2.13-9.55l1,7.58a49.86,49.86,0,0,1-.3-5.47c0-14.91-13.11-29.19-28.5-28.5s-28.51,12.53-28.5,28.5Z"/><path class="cls-11" d="M3963.36,426.93c0,76.17-.26,152.34-.24,228.5q0,56.87.32,113.73c.16,37.22-2.05,74.39-4.65,111.49-2.94,41.94-6.36,83.86-7.46,125.9-.24,9,4.33,17.05,11.23,22.38,7.78,6,15.42,6.42,24.84,5.1,32.47-4.55,61.25-22.32,93.67-27.09l-7.58,1c18.51-2.44,37.22-3,55.29-8.18,21-6,40-17,51.52-36,10.29-16.94,13.89-36.64,16.15-56a276.77,276.77,0,0,0,.75-50.27c-1.52-23-5.46-45.79-8.53-68.61l1,7.57c-4.55-34-8.42-68.21-9.25-102.56-.82-33.73,1.71-67.43,1.52-101.15a484.42,484.42,0,0,0-4.65-62.76l1,7.57c-4.44-34.34-2.8-69-4-103.51a397.14,397.14,0,0,0-5.71-56.44c-3.11-17.26-7.73-34.07-10.11-51.49l1,7.58c-7.11-54-3.22-108.5-3.17-162.75,0-14.91-13.12-29.19-28.5-28.5s-28.49,12.52-28.5,28.5c0,38.25-2,76.5-.66,114.74a536.2,536.2,0,0,0,5.78,62.11c2.86,18.81,8.28,37.06,10.89,55.9l-1-7.58c3.22,24.37,3.36,49,3.56,73.51.22,26.62,1.35,52.82,4.94,79.22l-1-7.58c4.9,37.84,2.81,76,1.83,114a800.87,800.87,0,0,0,5.8,115.84c2.79,23.34,6.21,46.6,9.37,69.89l-1-7.58c3.37,25.42,4.55,51.53,1.29,77l1-7.58a131.17,131.17,0,0,1-5.65,25.23c-.93,2.72-4.29,8.58.26-.15-.88,1.69-1.61,3.44-2.54,5.11s-1.9,3.12-2.89,4.67c-2.24,3.46,4.46-4.9,2.07-2.66-.71.67-1.32,1.5-2,2.2s-1.19,1.07-1.75,1.64c-3.33,3.38,6-4,1.92-1.42-1.78,1.13-3.51,2.31-5.36,3.32-2.36,1.29-9.4,3.85-.29.48-1.89.7-3.76,1.46-5.68,2.1a151.74,151.74,0,0,1-27.32,6l7.58-1c-9.57,1.27-19.2,1.81-28.76,3.09a182.07,182.07,0,0,0-34.73,8.4c-20.72,7.09-40.87,16.13-62.72,19.2l36.08,27.48c2-74.69,11.29-149,12.07-223.74.39-37.79-.24-75.61-.27-113.41s0-75.83.08-113.75q.09-64.36.15-128.72c0-14.91-13.11-29.19-28.5-28.5s-28.5,12.52-28.5,28.5Z"/><path class="cls-12" d="M4380.36,890.93c3.3-25.37-7-50.76-10.61-75.58l1,7.58c-3.6-27.29-9.86-54.08-13.56-81.34l1,7.58c-1.86-14.27-2.1-28.62-3.14-43-1-13.4-2-27-.48-40.35l-1,7.58c.51-3.8,1.62-7.33,2.46-11,.61-2.7-3,5.78-1.47,3.49.42-.65.72-1.42,1.1-2.1.48-.86,1.05-1.66,1.55-2.51,1.88-3.18-2,3-2.35,2.93.32.06,2.8-3.11,3.19-3.49,1.09-1.08,6-5.06,1.64-1.7s.45-.19,1.62-.93q2.37-1.5,4.85-2.8c1.49-.79,3-1.48,4.54-2.22,3.55-1.71-3.27,1.34-3.29,1.38.18-.36,2-.78,2.39-.93,3.4-1.26,6.86-2.35,10.37-3.31a167.56,167.56,0,0,1,20.85-4.16l-7.58,1c11.58-1.47,23.12-.89,34.67.58l-7.58-1c25.08,3.4,49.62,9.18,75.08,9.06,24.27-.11,48.58-2.34,72.77.67l-7.57-1c17.33,2.36,35.4,9.56,53,7.75,15.32-1.57,27.45-7.85,36.47-20.58,7.41-10.46,9.49-23.46,10.64-35.91,2.57-27.76-6.34-55.54-12.66-82.23-5.68-24-8.37-48.59-12-72.93-3.73-25-8.11-50.11-16.05-74.2-6.66-20.22-14.76-40.45-28.42-57-16.6-20.07-36.36-37.66-54.27-56.54-6-6.3-11.88-12.68-17.61-19.21q-4-4.59-7.93-9.29-1.87-2.26-3.7-4.57c-.6-.74-1.18-1.51-1.78-2.25,6.46,7.95,3.32,4.31,1.9,2.43a141.23,141.23,0,0,1-11.28-17.08c-.68-1.26-1.34-2.53-1.95-3.82-2.71-5.73,2.65,7.33,1.07,2.57a39.81,39.81,0,0,1-1.88-7.15l1,7.58a19.68,19.68,0,0,1-.06-4.34l-1,7.58a8.7,8.7,0,0,1,.32-1.75c1.41-4-2.11,4.72-2.14,4.78a10.89,10.89,0,0,1,.85-1.48c-.34.5-6.16,7-2.88,3.94,2.8-2.61-6.84,5-3.35,2.67,3.83-2.55-4.19,1.53-3.72,1.45,2.17-.36,4.28-1.19,6.49-1.53l-7.58,1c9.55-1.26,19.3-.29,28.79,1l-7.58-1c17.35,2.39,34.29,6.67,51.43,10.17,12.87,2.64,26.17,3.47,39.25,4.58,16.36,1.39,32.74,2.47,49.11,3.71,19,1.44,38,3.11,56.86,5.62l-7.57-1c25.47,3.48,51,6.22,76.51,9.62l-7.58-1c19.82,2.69,39.37,6.66,59.44,6.65,17.61,0,35.22-1.45,52.77.65l-7.58-1c11.16,1.5,21.38,4.9,31.76,9.17,3.29,1.36-6-2.52-1.26-.52l6.56,2.77c3.24,1.37,6.47,2.75,9.73,4.05a142.31,142.31,0,0,0,15.26,5.24,96.92,96.92,0,0,0,32.49,3.47c7.74-.59,15.49-1.67,23.25-.75l-7.57-1c1.59.25,3.4,1.06,5,1.1s-5-2.74-3.79-1.64a15.87,15.87,0,0,0,2.3,1.38c-.4,0-5.6-4.91-3.31-2.3-.12-.14-4.3-6.18-2.38-3,2.3,3.77-1.57-6.34-1.36-3.48.06.75.37,1.61.47,2.36l-1-7.57a21.09,21.09,0,0,1-.11,4l1-7.58c-.18,1-1.6,4.28-1.39,5.17,0-.15,3.39-7.07,1.5-3.64-.39.69-.72,1.42-1.1,2.11-.89,1.63-1.87,3.2-2.88,4.74-.72,1.09-2.77,5.11-4,5.62-.12,0,4.81-6.1,2.18-2.84l-1.5,1.88-3.22,4c-3.17,3.92-6.4,7.81-9.22,12-13.6,20.1-23.35,43.8-32.18,66.28-16.8,42.79-21,89.33-21.81,134.93-.21,12.69-.2,25.38-.2,38.07,0,12.22.34,24.47-1.15,36.63l1-7.57a100.17,100.17,0,0,1-2.79,13.72c-.61,2.16-1.29,4.3-2.06,6.41-.27.74-.56,1.47-.83,2.21-1.68,4.62,3.11-6.94,1.09-2.54-2.31,5-4.82,10-7.1,15-3.77,8.35-6.78,15.7-6.87,25-.12,12.19,6.92,24.21,17.39,30.36,9,5.25,19.12,6.73,29.35,7.2,10.47.48,20.92.64,31.38,1.41,21.34,1.56,42.6,4.1,63.94,5.59,11.94.82,23.9,1.3,35.86,1.12,11.29-.18,22.53-.63,33.77.72l-7.57-1c.48.06,3.32.79,3.61.53.1-.09-6-2.69-1.74-1.08s8.27,3.63,12.57,5a91.66,91.66,0,0,0,20.43,3.85c10.79.93,22.15-.4,33-.85l-7.58-1a44.93,44.93,0,0,1,5.53,1.18c3.39,1,3.09,2.53-2.21-1.12,1.06.72,5.4,3.62.83,0-4.87-3.81-.66.07.12.5-4.6-2.57-4-5.84-2.16-2.6,3,5.31-2-6.49-.83-2.3a55.86,55.86,0,0,1,1.61,7.14l-1-7.58c1.49,12.14.4,24.74.35,36.93q-.09,26.65,0,53.31c.08,35.48-.23,71,0,106.43.08,12.29,2.71,24.6,1.42,36.9l1-7.58c-.19,1.42-.83,3-.88,4.37,0,1.22,2.64-5.12,1.91-4.5a7.17,7.17,0,0,0-1.38,2.09c.07-.26,4.94-5.63,2.46-3.37a20.86,20.86,0,0,0-1.84,1.8c-1.59,1.87,5.52-3.67,3.35-2.52-.75.39-1.45,1-2.17,1.43-1.21.74-2.52,1.28-3.75,2,8.1-4.56,4.13-1.67,1.17-.75a71.56,71.56,0,0,1-10.76,2.31l7.58-1c-16.39,2.18-32.84.39-49.29.62-10.13.15-20.27,1.5-29.71,5.28-6.37,2.56-12.55,5.48-18.81,8.29-2.14,1-5.28,1.3,2.56-1.06-1,.31-2,.77-3,1.1a37.53,37.53,0,0,1-6.44,1.55l7.58-1a25.44,25.44,0,0,1-5.72,0l7.57,1c-.9-.17-1.91-.59-2.81-.7-3.09-.37,6.79,3.21,2.9,1s3.87,4.07,1.9,1.43a22.53,22.53,0,0,0-2.1-2.16c-2.51-2.51,2.31,2.77,2.31,3.11,0-.42-1.33-1.9-1.62-2.36-1.06-1.66-1.94-3.37-2.84-5.11-1.09-2.13-1.21-5,1.2,3-.24-.77-.59-1.52-.85-2.29-.69-2-1.29-4-1.82-6A110.5,110.5,0,0,1,5044,893.8l1,7.58c-2.28-18.09-1.12-36.25-.72-54.41.52-23.6,3.52-47-.43-70.46s-20.45-41.7-43-48.85c-18.52-5.85-39.09-3.31-57.75.21-18.38,3.47-36.09,10-54.63,12.59l7.57-1c-19.52,2.47-39.16,1.24-58.78,1.74a183.71,183.71,0,0,0-35.38,3.93c-9.49,2.13-18.76,5-28.42,6.37l7.58-1c-15.49,1.78-31.21.73-46.74.24-16.26-.5-32.53-.28-48.79-.28q-49.87,0-99.73,0c-13.11,0-26.14-.17-39.24-.77-12.34-.56-24.55-.29-36.71,2.24-31.34,6.52-52.3,34.57-57.52,65-2.93,17.07-3,33.91-2.07,51.14.74,13.7,2.12,27.68.33,41.35l1-7.58c-.65,4.37-2.2,8.29-3.2,12.52.27-1.17,3.65-7.37,1.21-3.27-.4.68-.77,1.39-1.19,2.06-.7,1.11-3.12,4.28.35-.22s1-1.39.12-.44c-.54.55-1.13,1-1.67,1.6-2.95,3,6.36-4.17,2.83-2.16-1.62.92-3.55,1.8-5.05,2.87,5.15-3.67,6.27-2.48,3-1.35-1,.35-2,.66-3.1.94a61.11,61.11,0,0,1-6.83,1.36l7.58-1c-10.32,1.35-20.69.62-31-.72l7.58,1c-17.16-2.37-34-6.32-50.94-9.92-1.86-.39-3.72-.74-5.56-1.22-1.4-.36-7.39-2.63-2.35-.55s-.17-.61-1.42-1.2c-2.23-1.06,4.56,4.2,3.06,2.34a17.81,17.81,0,0,0-1.59-1.54c-.84-.79-2.71-3.31.47.79s1.23,1.68.69.65a18.32,18.32,0,0,0-1.06-1.89c-1.53-2.12,2.25,6.34,1.54,3.8a70.51,70.51,0,0,1-2.27-9.44l1,7.58a89,89,0,0,1,.53-21.51c.85-6.71-3.8-15.6-8.35-20.15-4.94-4.94-13.05-8.67-20.15-8.35-7.37.33-15,2.75-20.16,8.35-5.46,6-7.34,12.21-8.34,20.15-3.29,26,2.6,52.57,25.36,68.11,10.24,7,22.58,8.86,34.41,11.42,11.43,2.48,22.88,4.93,34.44,6.74,24.8,3.87,50.94,6.16,74-6.06,21.93-11.65,30.76-35.11,32.55-58.52,2-25.68-3.66-51.32-.27-77l-1,7.58a94.74,94.74,0,0,1,4.45-18c1.89-5.31-3.11,6.16-.43,1.2.74-1.36,1.41-2.73,2.21-4.06s1.67-2.42,2.4-3.67c-3.73,6.39-2.86,3.53-1,1.52.88-1,1.85-1.82,2.76-2.74,3.25-3.28-6,3.94-1.87,1.37.63-.39,6.18-3.08,6.27-3.54-.14.76-7.94,3-2.38,1.14.94-.31,1.9-.59,2.86-.84a63.92,63.92,0,0,1,7.73-1.5l-7.57,1c14.06-1.71,28.21.09,42.3.33,21,.37,42.11,0,63.16,0,42.15,0,84.26.09,126.4.9,13.13.25,26.09-.25,39.06-2.56,11.06-2,21.73-5.68,32.87-7.34l-7.58,1c15.39-2,31-1.29,46.48-1.32,17.05,0,34.21-1.12,50.89-4.85,17.22-3.85,33.92-9.45,51.46-11.91l-7.58,1a98.94,98.94,0,0,1,24.91-.6l-7.57-1a66.22,66.22,0,0,1,10.5,2.48c4.14,1.27-6.87-3.49-3.36-1.4.8.47,1.65.84,2.45,1.32s1.27.87,1.93,1.26c2.46,1.45-6.32-5.65-2.89-2.16.54.56,1.11,1.09,1.66,1.63,2.3,2.27.77,3.31-2-2.82.73,1.58,1.93,3.19,2.79,4.73,1.56,2.76-2.68-7.38-1.43-3.36.37,1.17.77,2.31,1.09,3.5a71.53,71.53,0,0,1,1.66,8.71l-1-7.57c2,17.48-.52,35-.92,52.47-.31,13.19-.94,26.42-.79,39.62.41,37.29,10.45,89,56,93.46,11.82,1.17,22.65-3.37,33.17-8,2.08-.92,4.14-1.9,6.21-2.86l2.53-1.16c4.26-2-5.51,2.15-2.28.95a59.11,59.11,0,0,1,12.85-3.52l-7.58,1c10.37-1.12,20.89-.26,31.28,0,13.72.28,27.73-.2,41.14-3.36,16-3.78,30.18-12.86,39.29-26.67,8.37-12.69,7.27-29.49,6-43.94-1.33-14.89-1-29.82-.92-44.76q.09-27.6.06-55.19c-.07-34.26.71-68.61.18-102.86-.32-20.41-6.2-39.2-23.63-51.26a53.92,53.92,0,0,0-31.18-9c-10.36.42-21.51,1.88-31.8.5l7.58,1a72.77,72.77,0,0,1-11.93-2.88c-1.11-.37-2.21-.78-3.3-1.21l3.56,1.48c-4.12-1.55-7.71-3.56-12.07-4.23a179,179,0,0,0-28.58-2.24c-16.87.09-33.58.3-50.43-.86-17.13-1.19-34.21-3.07-51.31-4.57-8.42-.74-16.84-1.38-25.27-1.82-8-.41-16.15-.15-24.14-1l7.58,1a37.05,37.05,0,0,1-4.79-.89,17.85,17.85,0,0,0-1.72-.52c-2.17-.33,7.13,3.41,4.33,1.77s4.68,3.79,4.18,3.32c-2.17-2.08,3.77,5.15,3.32,4.46-1.45-2.19,2.51,8.83,1.78,3.72l1,7.57a13,13,0,0,1,.05-2.41l-1,7.58a33.18,33.18,0,0,1,1.55-5.62c1.29-3.89-3.7,8.13-1.15,2.8.55-1.16,1.09-2.33,1.64-3.48,3.3-6.83,6.48-13.64,9.3-20.68,7.18-18,8.34-37.61,8.3-56.74-.07-36.84-.61-73.89,4.26-110.49l-1,7.58a291.23,291.23,0,0,1,14.09-58.89q1.26-3.49,2.61-6.94c.4-1,1.37-6.12.69-1.82-.61,3.79-.18.41.39-.91,2.1-4.88,4.24-9.75,6.46-14.57a318.94,318.94,0,0,1,14.6-28.37c1.33-2.25,2.65-4.52,4.1-6.7.72-1.08,3.54-4.76-.06-.11-3.76,4.86-.24.36.57-.63,1.07-1.33,2.15-2.64,3.21-4,5.59-6.94,11.57-14,15.69-22,5.84-11.29,9.41-24.08,6.05-36.75a44.68,44.68,0,0,0-22.66-28.05c-10.66-5.3-22.42-6.69-34.2-5.89-8.24.56-16.24,1.62-24.5.64l7.58,1a99.54,99.54,0,0,1-18.16-4.47c-2.95-1-5.86-2.14-8.75-3.31-1.32-.52-2.62-1.18-4-1.62,7.8,2.57,2.24.94.49.2-13.66-5.79-26.86-11.5-41.64-13.6-15-2.14-29.69-2.48-44.8-2.1-13.36.34-26.72.67-40-1.05l7.57,1c-32.95-4.78-66-8.7-99-13.1l7.58,1c-25.34-3.42-50.67-6-76.16-7.87-23-1.7-46.17-3-69.12-5.79l7.58,1c-14.19-1.91-28.13-6.15-42.21-8.77-20.22-3.75-42.55-7.86-62.93-2.63a44.4,44.4,0,0,0-26.84,19.25c-6,9.46-6.28,20.56-4.49,31.2,2.23,13.27,10.06,25.79,17.88,36.52,20.37,28,45,52.41,69.18,77,8.51,8.64,17.28,17.18,25,26.54,1.84,2.23,4.18,6.47-2.25-3,.47.7,1,1.36,1.48,2.07a105.18,105.18,0,0,1,6.53,12.33q1.13,2.34,2.19,4.71l.7,1.59q1.82,4.18-.84-2c.71,3.22,2.59,6.52,3.71,9.64,2.33,6.48,4.39,13.06,6.22,19.69,8.15,29.49,11.87,59.93,16.29,90.12,2.23,15.28,4.58,30.52,8.19,45.54,3.76,15.66,8.11,31.19,10.38,47.16l-1-7.58a116.08,116.08,0,0,1,.53,28.79l1-7.58a58,58,0,0,1-2.11,10c-2,6.1,3.17-5.47.94-2a33.54,33.54,0,0,0-1.87,3.07q5.55-6.86,2.87-3.86c-.36.38-.74.74-1.13,1.09,3.34-4.38,6-4.63,2.65-2.32-3.08,2.1,8.44-2.58,3.32-1.5-1,.22-2,.47-3,.63l7.57-1a44.77,44.77,0,0,1-11.27-.27l7.58,1c-7.32-1-14.5-2.86-21.73-4.34a236,236,0,0,0-41-4.67c-26.53-.67-53.12,2.68-79.55-.77l7.58,1c-26.5-3.65-53.27-11.23-80.2-8.25-21.11,2.34-42.7,7.07-61.16,18.07A80.2,80.2,0,0,0,4307.68,633c-7.27,11.14-9.54,24.25-10.52,37.26-.81,10.63-.12,21.33.63,31.94.79,11.27,1.08,22.59,2,33.84,2.51,30.77,10.45,60.64,14.57,91.16l-1-7.57c2.51,19.54,7.92,38.44,10.64,57.92l-1-7.58a81.57,81.57,0,0,1,.39,20.94c-.87,6.7,3.81,15.62,8.34,20.16,4.95,4.94,13.06,8.66,20.16,8.34,7.37-.33,15-2.75,20.15-8.34,5.47-6,7.31-12.21,8.35-20.16Z"/><path class="cls-13" d="M5251.36,138.93c-.44,21.93,4.18,43.54,7.13,65.17l-1-7.58c1.94,14.74,2.17,29.55,4.37,44.26,1.7,11.4,4.66,22.52,7.86,33.58,5,17.36,7.71,35.23,12.59,52.61,6.58,23.42,19.29,46.56,45.36,51.58,22.88,4.41,44.2-3.87,65.62-10.66,21.07-6.68,41.19-16.45,63.26-19.61l-7.58,1a71.4,71.4,0,0,1,17.65-.29l-7.58-1a63.49,63.49,0,0,1,8.72,2.06c4.54,1.31-5.33-2.88-2.57-1.07.65.42,1.38.85,2.07,1.21,3.44,1.77-6.39-5.88-2.62-2,.56.57,1.15,1.13,1.71,1.71,1.95,2,1.69,4-2.38-3.22.48.85,1.13,1.63,1.63,2.48,1.76,2.9,3.19,8.89.11-.84.62,2,1.45,3.87,2,5.86a96.21,96.21,0,0,1,2.82,13.76l-1-7.57c2.6,20.13,1.21,40.61-.3,60.77-.63,8.48-1.4,17-1.73,25.45-.45,11.93,1.7,23.73,3.29,35.51l-1-7.58c1.33,9.94,2.75,20.13,1.41,30.15l1-7.58a37,37,0,0,1-.92,4.3c-1.76,6,3.1-5.78,1-2.16q-2.2,3.51,2.83-3.43c-1.16,1.16-.56.74,1.78-1.25,4.82-3.74.85-1.22-.23-.43q7.81-3.18,3.77-1.67c-.74.26-1.48.5-2.23.73-1.54.49-3.09.91-4.65,1.32-2.46.66-4.95,1.22-7.42,1.86-8.52,2.22-16.45,6.51-24.37,10.27-1.19.57-3.86,1.21-4.77,2.22q6.21-2.55,2-.87c-1.07.41-2.14.79-3.23,1.15a57.91,57.91,0,0,1-9.56,2.13l7.57-1c-12.5,1.58-25.16.29-37.66-.71-15.25-1.22-29.87-1.57-45.06.71s-30.93,9.81-41,21.71c-13.83,16.33-18.91,36-20.08,57-.83,15.07.69,30.18,1.32,45.22.71,16.62,3.47,34.38,13.32,48.27,12,16.87,29.66,26.35,49.9,29.63,18.32,3,36.51,3.32,55,2.36s37.17-2.92,55.81-3c21.95-.11,44.13-2.77,66-.23l-7.57-1A85.19,85.19,0,0,1,5535,712.8c2.35.66-6.82-3.64-3.53-1.42a17.28,17.28,0,0,0,1.68,1c1.12.56,3.83,2.78-.63-.64s-1.82-1.33-.89-.47c4,3.66-3.74-6.14-1.51-2,.33.63.7,1.31,1.08,1.9,1.68,2.64-1.8-4.23-1.78-4.35-.13,1,1.12,3.43,1.38,4.51.4,1.65.68,3.33.93,5l-1-7.58c1.62,12.69.93,25.74,1.11,38.5.23,16,.53,32,.72,48,.19,15.7.28,31.39.13,47.09-.15,14.93.42,30.4-1.54,45.22l1-7.57a52.5,52.5,0,0,1-1.69,7.63c-.94,3-3.53,5.7,1.06-2-.49.83-.84,1.76-1.32,2.61-.61,1.1-1.35,2.1-2,3.18-2.2,3.63,5.08-5.67,2.18-2.9-.86.82-1.69,1.72-2.53,2.57-3.86,3.88,4.6-3.17,2.63-1.91-1.8,1.15-3.52,2.33-5.43,3.3-2.5,1.27-5.88,1.56,3-1.14-1.05.32-2.07.79-3.12,1.14a77.42,77.42,0,0,1-14.11,3.17l7.57-1c-24.06,3.16-49,.22-73.18-.18-39.22-.64-78.54-5.15-117.74-1.67-20.79,1.85-40.39,5.24-59.16,14.73a74.45,74.45,0,0,0-38.53,47.44c-4.74,17.43-4.27,35.83-3.26,53.69.42,7.36,1,14.76.84,22.14-.18,8.69-1.55,17.31-1.7,26-.2,11.49,1.48,23.74,7.16,33.91,4.27,7.66,10.86,13.56,18.15,18.26,11.1,7.17,24.9,10.84,37.8,13.16,28.23,5.09,57.23,6,85.84,7,84.64,3,169.29-1.19,253.93-1.6,18.28-.08,36.36,1.09,54.6,2.08,18.75,1,39.19,1.84,57.38-3.54,36.76-10.88,53.19-46.1,60.51-80.85,8.11-38.49,22-75.62,28.75-114.41,7.46-43,6.08-86.11,2.55-129.44-3.49-42.87-6.34-85.53-15.56-127.66-8.58-39.22-20.61-77.56-31.44-116.18-22.7-80.92-41.37-162.91-66.24-243.22-6.11-19.72-12.62-39.32-19.84-58.66-3.53-9.45-7.57-18.73-10.85-28.27-3-8.69-5.39-17.56-8.34-26.26a146.94,146.94,0,0,0-33.15-55.41c-13.65-14.37-30.05-26.72-47.14-36.72-31.76-18.56-69.08-25.41-105.2-29.16C5478.07,78,5461.22,77,5444.66,78a260.76,260.76,0,0,0-64.32,12.59c-20.11,6.56-39.62,15-58.87,23.73-6.12,2.78-11.39,10.83-13.1,17-1.87,6.82-1,15.9,2.88,22s9.76,11.44,17,13.09c7.9,1.8,14.62.46,22-2.87q5.82-2.64,11.65-5.2c.65-.28,4.78-1.45,5.06-2.19l-1.73.73,3.41-1.4c7.42-3,14.9-5.88,22.48-8.46a259.11,259.11,0,0,1,48.3-11.78l-7.58,1c24.63-3.14,49.9-1.37,74.43,1.89l-7.58-1c19.92,2.74,39.88,6.83,58.68,14.09.9.34,1.79.71,2.69,1.06,5,1.94-5.57-2.49-2.22-.92,1.88.88,3.78,1.73,5.64,2.66,4.47,2.25,8.79,4.79,13,7.45q6.67,4.2,13,8.9c2.13,1.57,3.08,3.93-1.07-.87a22.91,22.91,0,0,0,2.64,2.12q3.61,3,7.06,6.09A153.9,153.9,0,0,1,5609.42,189c1.46,1.64,2.85,3.34,4.28,5,3.87,4.56-3.83-5.52-.5-.61.89,1.33,1.84,2.61,2.72,4a101.21,101.21,0,0,1,7.1,12.91c2,4.37-.88-1.68-.89-2.11,0,1.31,1.36,3.55,1.81,4.8,1,2.7,1.87,5.42,2.74,8.15,3.33,10.43,6.33,20.91,10.4,31.08q7,17.61,13.33,35.53c33,94,53.69,191.8,80.7,287.61,14.66,52,31.22,103.73,38.55,157.46l-1-7.58c2,15.44,3,30.94,4.22,46.45s2.67,31.13,3.76,46.71c2.2,31.26,2.87,62.63-1.15,93.77l1-7.58c-4.3,31.58-14.26,61.85-22.58,92.51-3.75,13.85-6.42,27.91-9.88,41.82a165.77,165.77,0,0,1-5.21,16.9,6.45,6.45,0,0,1-.71,1.81c-.47.38,2.93-6.41,1.61-3.84-.58,1.13-1.07,2.32-1.64,3.46a70.23,70.23,0,0,1-4.4,7.61c-.35.52-.72,1-1.06,1.53-2.15,3.26,2.1-3,2.21-2.83a30.92,30.92,0,0,1-2.85,3.19c-1,1-2.08,2-3.12,2.93-3,2.89,2.76-2.46,2.87-2.17a20.68,20.68,0,0,1-2.05,1.39c-1.24.79-2.53,1.46-3.82,2.16-4.88,2.67,5.45-1.69,1.42-.61a96.42,96.42,0,0,1-11,2.48l7.57-1c-26,3.47-52.18-.86-78.2-1.4-30.14-.63-60.39.42-90.53,1-62.1,1.22-124.26,2.78-186.35.36-21-.82-42.17-1.54-63-4.33l7.58,1a168.16,168.16,0,0,1-31.5-7.34c-2.45-.84,7.86,3.77,2.72,1.1-1-.5-1.95-1-2.9-1.5s-1.74-1.12-2.64-1.64c-3.58-2.05,6.05,5.65,2.81,2.17-.61-.65-1.28-1.32-1.93-1.93-2.88-2.74,4.78,7,2.5,3.06s2.31,7.86,1.06,2.55c-.46-1.92-1-3.78-1.28-5.74l1,7.58c-2-15.74,1.66-31.74.93-47.59-.72-15.44-2.22-30.91-.38-46.34l-1,7.58a81.89,81.89,0,0,1,1.85-9.81c.47-1.8,1.08-3.54,1.64-5.31,1.55-5-3.07,6-.75,1.76.88-1.59,1.79-3.15,2.68-4.73,2.51-4.41-4.52,4.84-1.21,1.47,1.28-1.31,2.56-2.57,3.89-3.83,3.69-3.53-6.05,4.19-.69.62a68.27,68.27,0,0,1,9-5c6-2.82-5.72,2-.66.28,1.62-.56,3.23-1.17,4.86-1.68a126,126,0,0,1,21.32-4.45l-7.58,1c26.35-3.38,53-2.58,79.47-1.4,22.85,1,45.7,1.39,68.55,2.23,35,1.29,76.27,5.46,103.77-21a65.32,65.32,0,0,0,16.92-29c3.63-12.76,3.29-26.7,3.61-39.85.69-28.1.38-56.21,0-84.31-.21-14.36-.47-28.71-.64-43.07-.14-12.26-.1-24.34-2.46-36.44-4.6-23.55-24.17-39.48-47.33-42.82-17.2-2.47-34.29-2.06-51.6-1.36-13.88.56-27.76.45-41.62,1.26-26.53,1.54-53.35,4.85-79.87,1.54l7.58,1a96.83,96.83,0,0,1-17.26-3.7l-1.41-.48q-4.17-1.61,2.85,1.24c-.88-.63-2-1-3-1.56s-5.1-3.58-.87-.25.45.29-.42-.54c-.72-.69-1.37-1.44-2.08-2.16-3.34-3.39,3.88,5.87,1.59,2-1.69-2.82-4-9.78-1-.48a84.79,84.79,0,0,1-3.65-14.22l1,7.58c-1.36-10.18-1.4-20.6-1.94-30.85-.61-11.44-.92-22.93.54-34.32l-1,7.57a87.24,87.24,0,0,1,1.63-8.62c.35-1.38.74-2.75,1.18-4.11.76-2.34,3-5.81-.88,1.6,1.25-2.41,2.52-4.73,3.92-7.06,2.42-4-4.78,5.26-1.53,2,.81-.81,1.55-1.67,2.39-2.46,1.91-1.79,5-2.85-2.33,1.6,1-.57,1.81-1.26,2.76-1.83s1.92-1.06,2.89-1.59c3.86-2.12-7.19,2.61-2.76,1.12a71.7,71.7,0,0,1,13.32-3.16l-7.57,1c12.92-1.55,26-.37,38.88.67,14.63,1.17,28.64,1.63,43.21-.59,9.54-1.45,18.37-5.48,27.05-9.55,1.85-.86,3.69-1.76,5.53-2.64.89-.43,8.34-3.75,3.63-1.79-4.1,1.71-.23.13.83-.21,1.24-.39,2.52-.67,3.77-1,7.84-2,15.42-4.05,22.73-7.63,10.25-5,16.47-14.38,20.2-24.83,6.4-17.95,1.9-38.78-.57-57l1,7.58c-2.3-17.17-.85-33.6.4-50.79,1.4-19.25,2.52-38.74.09-58-2.92-23.09-10-48-31.87-60.22-25.74-14.4-56.94-8.12-83.33.91-11.68,4-23.1,8.72-34.88,12.39-12,3.75-23.79,8.49-36.34,10.18l7.57-1a49.72,49.72,0,0,1-11.82.07l7.58,1a35.09,35.09,0,0,1-3.67-.75c-6-1.64,2.38.79,2.22,1.14-.08.15-2.75-1.71-3.18-1.91,5.88,2.84,4.49,3.4,2.24,1.31-3.09-2.87,4.29,6.29,2.11,2.76-.54-.88-1.11-1.73-1.62-2.63-1.52-2.69-3.6-9.84-.5-.36a282.29,282.29,0,0,1-8.27-30.42c-2-9.52-3.81-19-6.56-28.37-3.92-13.36-7.71-26.73-9.64-40.55l1,7.58c-1.37-10.69-1.41-21.48-2.75-32.18-1.59-12.72-3.72-25.35-5.48-38l1,7.57a194.31,194.31,0,0,1-2-29.91c.3-14.91-13.33-29.18-28.5-28.5-15.7.71-28.18,12.52-28.5,28.5Z"/><path class="cls-14" d="M5839.25,209.32c2.22,3.64,4.41,7.29,6.38,11.08.88,1.7,1.63,3.47,2.5,5.18,1.38,2.68-1.95-4-1.54-3.63s.92,2.45,1.19,3.23c2.85,8.34,4.13,17.08,6.48,25.56,5.61,20.27,15.18,39.36,23.75,58.5,1.29,2.88-1-2.29-1-2.32,0,.88,1.15,2.9,1.5,3.88.87,2.47,1.61,5,2.24,7.52,1.23,4.85,2,9.79,2.93,14.7a147.27,147.27,0,0,0,8,28.39c2.4,6,5,12,7.56,18,.49,1.13.94,2.31,1.47,3.42,0,.07-2.25-5.46-1.05-2.51,1.05,2.6,2.12,5.19,3.1,7.82,3.59,9.7,5.85,19.81,8.15,29.87q7.09,31,11.63,62.54c.2,1.34.39,2.69.58,4,.15,1.06.76,5.52.18,1.24-.56-4.05-.08-.54,0,.24l.51,4q1,8.06,1.85,16.13,1.69,16.16,2.83,32.37c3,43.09,2.84,86.23,2.73,129.39-.12,44.27-.29,88.54,0,132.8q.1,15.84-1.1,31.62c-.36,4.66-.81,9.31-1.31,14q-.43,4-.93,8c-.16,1.32-.43,2.69-.51,4,.18-3.19.64-4.64.07-.57-2.88,20.44-6.64,40.73-10.31,61-.84,4.65-1.53,9.36-2.74,13.93-.56,2.13-1.24,4.23-2,6.31-.43,1.2-.87,2.4-1.33,3.59-.35.9-.71,1.8-1.08,2.69l1.35-3.24c0,1.95-2.38,5.26-3.23,7.07l-2.89,6.09c-3,6.22-5.73,12.5-8.36,18.88-3.91,9.51-7.06,19.29-10.34,29-1.61,4.76-3.25,9.5-5,14.19-.48,1.26-1,2.5-1.48,3.77-1.13,3,.86-2,.91-2.12a56.94,56.94,0,0,0-2.37,5.42c-7.2,16.69-14.21,33.43-9.63,52,2.69,10.86,10.45,19.8,19.66,25.73,10.22,6.57,22.21,8.16,34,9.59,20.72,2.53,41.64,1.65,62.43.74,21.13-.92,42.24-1,63.38-1.32,21.76-.36,43.53-.89,65.29-.54,11.14.17,22.28.55,33.39,1.49q7.23.62,14.45,1.48c1.68.2,10.87,1,2.7.3,2.74.23,5.49.77,8.21,1.18,21.53,3.24,42.9,7.46,64.36,11.15,21,3.6,41.61,7.77,62.27,13,18.38,4.61,36.76,9,55.55,11.65,17.92,2.52,35.7,4.32,53.6.25,22.56-5.13,42.75-25.75,40.68-50.17a128.73,128.73,0,0,0-2.63-15.73c-1-4.5.48,2.38.38,2.73.26-.85-.21-3.12-.27-4.16-.2-3.09-.39-6.19-.57-9.28-.6-10.57-1.07-21.15-1.31-31.73-.92-40.88,2.73-81.81-.51-122.63-1.38-17.38-3.49-35.08-8.31-51.87-5.05-17.59-13.4-36.39-27.7-48.44-17.41-14.67-37.71-20.55-60.16-21.84-16.85-1-33.86.48-50.74.49-22.62,0-45.24.12-67.86.12-10.71,0-21.43.09-32.14-.12-12.76-.24-24.91-.89-37.6,1.12a52.2,52.2,0,0,0-17,5.53c-1.74.95-3.34,2.13-5,3.18a30.41,30.41,0,0,1-2.63,1.57c-.79-1.08,11.92-2.35,8.48-2.26-5.06.12,7.2,1.7,3.29.58s-2.75-2.18,2.65,1.54a17.33,17.33,0,0,0-2.56-1.42c-2.66-1.19,5.72,5.17,3.79,3a18.51,18.51,0,0,0-1.5-1.44c-3.48-3.14,2.42,3.52,2.07,2.76-.47-1-1.24-2.07-1.8-3-2.4-4.18,2.47,6.89,1.18,3-.46-1.4-1-2.76-1.36-4.18-.7-2.5-1.15-5-1.64-7.57-.83-4.34.9,8.09.38,2.76-.16-1.65-.32-3.3-.43-5-1.39-20.77,1.57-41.41,0-62.22-1.09-14.36-2.51-28.7-2.76-43.11a176.58,176.58,0,0,1,.71-21.08,19.56,19.56,0,0,1,.29-2.58c.26-.11-1.09,6.92-.58,4.42.32-1.62.54-3.26.88-4.88a82.91,82.91,0,0,1,2.52-9c1.76-5.35-2.95,5.68-1,2.21.7-1.22,1.36-2.49,2-3.73a9.78,9.78,0,0,1,1.14-1.73c.71-.14-4.74,5.45-2.9,3.74,1.08-1,2.12-2.21,3.14-3.28,2.8-2.91-6.84,4.33-1.94,1.59,1-.54,1.92-1.15,2.92-1.67.59-.3,1.23-.54,1.8-.88,2.43-1.45-5.16,2.57-4.45,1.86.89-.89,3.38-1.24,4.58-1.62a86.44,86.44,0,0,1,8.42-2.13c1.61-.32,3.23-.58,4.85-.87,1.08-.19,3.68-.51-1.29.15-5.45.72-1.23.17.05,0,7-.78,14-1.11,21-1.19,26.3-.3,52.77,2.42,78.89,5.35,1.37.15,2.73.32,4.1.48.76.09,4.31.6.31,0-4.23-.61.28,0,1.33.2,1.37.19,2.73.4,4.1.6,5.46.82,10.91,1.71,16.36,2.62,10.54,1.75,21.08,3.57,31.67,5.06,22.69,3.19,46.29,7.73,68-1.93,17.64-7.85,29.37-25.58,35.19-43.35,5-15.31,5.77-32.48,4.81-48.47-1.78-29.36-8.21-58.91-17.09-86.93-10.18-32.12-27.19-66.38-59.35-81.36-40.26-18.76-83.79-8.27-124.73,2.23-19.47,5-39.24,8.18-59,11.75-4.9.89-9.81,1.75-14.72,2.53-2.09.33-4.18.64-6.26,1-1,.17-2,.33-3,.52-5.06,1,5.69-.23,3-.38a13.85,13.85,0,0,0-2.41.1c-3.27.43,7.25,1.48,4,.61-5.34-1.41,5.22,3.19.88.63-1-.58-2.06-1.31-3.09-1.82-1.85-.9-3.27-3.92,3,2.45-1.06-1.08-2.27-2-3.31-3.13a11.52,11.52,0,0,0-1.49-1.74c.29.07,4.3,6.28,2.41,3-.69-1.21-1.47-2.35-2.13-3.57-.57-1-3.17-6.89-.93-1.58s-.33-1.18-.78-2.55a153.26,153.26,0,0,1-4.75-19.71c-2.52-13.49-3.94-27.47-8.82-40.38a229.26,229.26,0,0,0-10.33-22.34c-1.36-2.69-2.73-5.38-4.05-8.09-.6-1.24-1.2-2.48-1.78-3.73s-3.21-7.33-.89-1.85c2.22,5.27.24.52-.21-.71s-1-2.68-1.38-4-.77-2.61-1.08-3.93c-.11-.47-.18-1-.3-1.44-1.09-4.26.59,3.88.49,4.29a15.42,15.42,0,0,0-.19-3.63c-.3-5-1.11,5.1-.67,3.68a25.42,25.42,0,0,0,.72-2.89c.46-2.91-1.65,4.3-1.91,4.45a11,11,0,0,0,1.07-1.88c.48-1-5.47,6.67-1.58,2.25,3.21-3.63-5.82,3.78-2.25,1.59,1.3-.79,2.61-1.53,3.93-2.29.89-.51,3.33-1.46-1.11.4-4.9,2.05-.82.38.35,0a80.61,80.61,0,0,1,11.64-2.93c1.3-.24,2.61-.46,3.92-.66,1.06-.17,5.53-.75,1.27-.24-4,.49-.51.07.26,0,2-.22,4.06-.46,6.1-.65,21.15-2,42.43-1.59,63.64-1.05s42.7,1.25,64-.24c19.37-1.35,38.63-4.74,57.78-7.95,16.13-2.71,32.07-6.79,46.52-14.72a76.73,76.73,0,0,0,21.29-16.86c7.71-9.05,12.22-17.77,16.7-28.69,13.61-33.17,19.9-71.69,5.58-105.63-8.51-20.16-23.78-33.62-41-46.38A294.38,294.38,0,0,0,6323.36,61C6289.2,44.33,6253.08,32,6216.59,21.68,6176.72,10.36,6136.43,1.8,6094.88.27S6011.38,3.92,5971,13.51c-37.21,8.82-73.63,21.59-109.05,35.93C5843,57.08,5825.64,65.61,5810.08,79c-15.76,13.51-27.62,32.88-30.6,53.55-3.29,22.74-.18,48.65,16.94,65.67,7.28,7.24,15.5,10.87,24.86,14.59l3.78,1.47c6.1,2.42-5.21-2.57-1.14-.47a67.21,67.21,0,0,1,9.55,5.78c5.54,4.14,15.62,4.62,22,2.87,6.61-1.82,13.78-6.93,17-13.09,3.49-6.62,5.24-14.63,2.87-22-2.43-7.5-6.83-12.35-13.1-17-7.13-5.32-15.44-8.46-23.67-11.69L5837,158c-3.8-1.42,3.84,1.71,3.69,1.6a29.06,29.06,0,0,0-3.46-1.66c-1.14-.61-5.77-3.94-1.23-.45,5.87,4.5-3.27-4.6,1,1,3.36,4.37.06-.46-.64-1.58-2.27-3.63,1.12,2,1,2.55a18.42,18.42,0,0,0-1.12-3.32c-.57-1.88-.91-3.8-1.37-5.71-.86-3.63.47,6.27.35,2.53,0-1.43-.2-2.85-.22-4.28,0-2,.17-4,.22-6,.11-3.76-1.15,6.12-.36,2.44.18-.85.3-1.7.48-2.55a61.39,61.39,0,0,1,1.79-6.64c.27-.81.6-1.6.87-2.41,1.07-3.25-3,5.66-.49,1.39,1.13-1.9,2.12-3.86,3.35-5.7.44-.67.93-1.3,1.36-2,1.94-3-3.91,4.67-1.58,2a100,100,0,0,1,8-8.43c.76-.69,1.57-1.34,2.33-2,3.3-3-1.8,1.35-2.15,1.56,1.53-.91,2.92-2.14,4.4-3.15a123.84,123.84,0,0,1,10.66-6.41c3.45-1.86,7-3.58,10.55-5.2,1.07-.48,7.14-3.11,2.38-1.07-4.25,1.81-.84.36.23-.07s2.43-1,3.66-1.46c7.21-2.83,14.5-5.45,21.75-8.18,37.25-14,75.33-25.93,114.64-32.63,4.37-.75,8.81-1.23,13.17-2-8.26,1.56-.34,0,1.84-.2q3.77-.45,7.55-.83,14.66-1.47,29.39-1.9a412.28,412.28,0,0,1,58.78,2.72c1.64.19,5.44,1-1.7-.25,1,.16,2,.27,2.94.41q3.45.51,6.89,1.06,7.95,1.29,15.86,2.91c9.94,2,19.78,4.48,29.58,7.11,16.65,4.47,33.25,9.18,49.68,14.43,8.36,2.68,16.67,5.49,24.92,8.49q6.21,2.25,12.38,4.66c1.91.74,3.83,1.5,5.73,2.27l3.27,1.34c4.77,1.94-4.4-1.91-1.13-.49a372.36,372.36,0,0,1,47.09,24.12q5,3.13,9.95,6.47c1.85,1.27,3.69,2.55,5.51,3.87l2,1.48c3.58,2.65.53.63-1.12-.92,3,2.81,6.48,5.12,9.51,7.91,1.35,1.25,2.66,2.55,3.91,3.91a24.07,24.07,0,0,0,2,2.32c-.61-.49-3.84-5.33-1.68-2.17a96,96,0,0,1,5.58,9.5c1.63,3.08-2.32-6.1-1.14-2.82.24.67.52,1.34.76,2q1.08,3.06,1.87,6.21c.42,1.64.73,3.29,1.07,4.95,1,4.52-.35-3.22-.36-3.27a17,17,0,0,1,.3,2.9,93.11,93.11,0,0,1,.27,11.81c-.06,1.74-.17,3.49-.32,5.23-.07.75-.15,1.5-.22,2.25-.4,4.65.45-2.91.46-3.08-.17,4-1.37,8.15-2.27,12a180.21,180.21,0,0,1-6.67,21.91c-.7,1.88-1.44,3.74-2.17,5.61-1.78,4.5,2.85-6.15.22-.63q-1.1,2.31-2.41,4.52c-.49.81-1,1.58-1.53,2.39-2.35,3.94,3.86-4.16,1.55-1.89-1.69,1.66-4.66,6.58-7.14,7.05-.66.13,5.7-3.94,3.13-2.45-.76.44-1.45,1-2.19,1.49-1.48,1-3,1.86-4.58,2.7s-3.22,1.54-4.82,2.35c-2.65,1.35,4.12-2,3.69-1.56a11,11,0,0,1-2.55,1c-3.47,1.26-7,2.31-10.59,3.22-6.87,1.76-13.86,3-20.86,4.15-7.24,1.17-14.5,2.25-21.74,3.47l-3.07.5c-5.19.89.68,0,1.44-.14a78.11,78.11,0,0,1-8.21.93c-5.14.51-10.29.86-15.44,1.11-41.82,2-83.81-3.41-125.52,1.41-20.77,2.4-43.21,5.43-59,20.65-13.72,13.22-16.49,31.57-12.94,49.52,2.6,13.12,9.44,25.54,15.44,37.39,1.37,2.71,2.75,5.42,4.09,8.14.62,1.26,1.21,2.53,1.84,3.79,1.82,3.67-2.81-7.42-.74-1.58a127.08,127.08,0,0,1,4.74,19c5.78,30.85,10.44,68.64,42.85,83.46,7.06,3.23,13.35,5.29,21.21,5.54,5.31.16,10.71-1,15.91-1.87,9.75-1.65,19.51-3.23,29.25-5,19.32-3.54,38.47-6.88,57.5-11.82,8.92-2.31,17.84-4.67,26.87-6.58q3.14-.66,6.3-1.25c1.82-.33,5.79-.2,7.25-1.2-.39.27-7.21.81-2.09.3l2.76-.28q4.17-.4,8.35-.56a127.5,127.5,0,0,1,13.26.19c2.28.16,9.79,2,2.15,0,2,.51,4,.7,6,1.18s3.79,1,5.66,1.61c1.17.39,6.91,2.69,1.89.61-4.78-2,.38.32,1.57,1q2.68,1.46,5.2,3.17c.56.37,1.09.77,1.65,1.15,3.68,2.47-2.74-2-2.6-2,1,.15,2.67,2.32,3.48,3.08,1.13,1.07,2.23,2.16,3.28,3.3s5.38,6.48,2.1,2.2.27.43,1,1.44q1.55,2.24,3,4.56c1.92,3.13,3.67,6.37,5.29,9.67.71,1.47,1.39,3,2.07,4.44,2.47,5.36-2.11-5.42-.4-1,1.36,3.54,2.71,7.08,3.92,10.67,2.28,6.74,4.26,13.58,6.11,20.45,3.33,12.35,6.24,24.81,8.39,37.43.27,1.61.53,3.23.78,4.85.11.7.2,1.4.31,2.1.71,4.52-.42-3.27-.43-3.33a85.64,85.64,0,0,1,1.2,11.44,165.79,165.79,0,0,1,.4,21.26c-.1,1.82-.23,3.65-.41,5.46-.06.67-.17,1.34-.22,2-.24,3.48,1.15-7,.48-3.62s-1.25,6.71-2.23,10c-.41,1.38-.91,2.72-1.36,4.09-1.23,3.83,1.32-3.41,1.51-3.46a16.31,16.31,0,0,0-1,2.14c-.62,1.21-1.28,2.39-2,3.55-.31.49-.65,1-.94,1.45-2.29,3.82,3.9-4.4,2-2.59-1.28,1.24-2.38,2.62-3.7,3.84-4.46,4.12,4.44-2.44.55-.35-1.26.67-6.16,3.06-1.22.93,6.58-2.85-2.58.79-2.6.23s8.1-.53,3.71-.62c-.68,0-1.37.06-2.05.07-1.7,0-3.4,0-5.09-.09-4.91-.22-9.82-.67-14.71-1.18-2.6-.28-5.56-1-8.17-1,0,0,5.76.81,2.47.34l-4.08-.59c-5.46-.79-10.9-1.67-16.35-2.57-10.21-1.69-20.42-3.46-30.67-5-16-2.35-32.06-3.95-48.16-5.5-29.15-2.8-58.29-4.44-87.36,0-15.21,2.31-29.52,7.68-41.41,17.6-11.59,9.66-18.44,25.19-21.17,39.75-5.5,29.32-1.49,58.45.3,87.87,1.22,20.16-2.31,40.29,0,60.42,1.9,16.61,5.57,32.23,17,45.12,14.1,16,38.8,19.89,57.08,9.15,1.53-.9,3-1.9,4.49-2.9,1.1-.75,4.16-2.07-.41-.17s-1.44.61-.3.41c-.11,0,3.7-1,3.92-.82.06.06-7.45.56-1.64.29,2.67-.12,5.32-.26,8-.25,10.64,0,21.27.62,31.91.66,21.9.07,43.8,0,65.7-.06q27.34-.06,54.63-.69c3.95-.09,7.9-.13,11.85,0,1.84,0,3.67.12,5.51.24,1,.06,2.08.14,3.12.23s6,.71.85,0c-5.41-.73,1.08.25,2.29.5,2,.41,4,.89,5.92,1.47,1.7.5,3.34,1.14,5,1.72,2.67.91-3.49-1.25-3.33-1.39s3.8,2,4,2.11c1,.61,6.14,4.34,2.21,1.22s1,1,1.91,1.91c.76.76,3.28,2.74,3.45,3.84.11.69-3.93-5.74-2.47-3.13.54,1,1.28,1.86,1.87,2.8a94.88,94.88,0,0,1,4.59,8.62c2,4.06-1.31-2.66-1.17-2.82-.06.07.92,2.38,1.05,2.74.69,1.87,1.32,3.75,1.91,5.65a169.28,169.28,0,0,1,5.31,23.11c.29,1.75.48,3.52.81,5.27-1.78-9.51-.33-2.42-.07-.15q.6,5.34,1,10.7c3.25,40-.23,80.15.51,120.23.39,21.45.35,43.88,4.77,64.92a15.48,15.48,0,0,1,.52,2.63c-.45.51-.23-8.34-.69-3.68-.05.53,1.38-7.19.55-4.16-.88,3.23,3.27-5.35,1.08-2.24a13.06,13.06,0,0,0-1.53,2.55c1.13-3.46,4.52-5.52,2.45-3.29-4.18,4.52,5.29-3.66,1-.86s6.29-2,2.11-.75c-1.35.41-2.69.87-4.07,1.2-1.19.29-7.74,1.31-1.85.51,5.62-.77-.63,0-2.16,0a131.55,131.55,0,0,1-20.81-.82c-1.44-.16-2.87-.36-4.31-.52-3.05-.34,5.52.81,4.66.63s-1.48-.21-2.21-.32q-6-.87-12-2c-20.44-3.74-40.44-9.43-60.64-14.19-20.41-4.8-41.17-7.78-61.79-11.51-22.58-4.07-45.16-8-67.93-10.85-42.4-5.26-85.2-3.15-127.79-2.63-20.69.26-41.31.78-62,1.58-10.15.39-20.31.65-30.47.39-5-.14-10-.39-14.94-.83-1.81-.16-5.38.22-6.85-.73,2,1.3,5.34,1,2,.21-1.31-.28-2.63-.5-3.94-.82-.9-.22-4.39-.68-4.75-1.44-.22-.49,7,3.69,3.44,1.37a9.67,9.67,0,0,0-1.46-.84c-2.87-1.1,5.22,4.88,3.28,2.62a8.27,8.27,0,0,0-1.36-1.35c-1.71-1.14,3.26,4.23,3.06,4-.72-1-2-4.31.25,1s1,1.3.47,0c3.31,8.38.58,7.31.78,4.84.05-.59.05-1.32,0-1.9-.1-4.18-1.65,8.11-.41,3.06.39-1.6.73-3.2,1.21-4.78.8-2.67,1.77-5.29,2.8-7.88,2.47-6.21-2,4.55-.42.93l2.1-4.8c4.79-11,9-22.12,12.83-33.5,1.47-4.41,2.93-8.82,4.47-13.2q1.14-3.27,2.36-6.53c.47-1.24,1-2.47,1.44-3.7,2.34-6.13-1.75,3.69-.21.46,5.06-10.56,10-21.19,14.47-32,7.26-17.82,9.24-37.8,12.51-56.67,3.86-22.35,7.31-44.84,9.29-67.45,1.78-20.42,1.36-40.82,1.3-61.3-.15-43.55.1-87.11.16-130.66.06-42.1-.55-84.13-4.41-126.08-4-43.3-10.69-86.45-21.14-128.68a183.57,183.57,0,0,0-9.19-27.07q-2.52-6-5.08-11.95c-.49-1.14-.94-2.32-1.47-3.43,0-.07,2.25,5.47,1.06,2.52-1.87-4.63-3.72-9.25-5.23-14-3-9.44-4.19-19.21-6.28-28.85-2.46-11.36-7.34-21.9-12.05-32.48-1.75-3.91-3.54-7.81-5.3-11.72-1-2.19-1.93-4.38-2.91-6.57-.69-1.53-1.84-5,.77,1.88-.32-.84-.69-1.65-1-2.48a173.58,173.58,0,0,1-8.3-25.49c-1.85-7.83-3.33-15.66-6.23-23.2a161,161,0,0,0-13.09-26.24c-7.77-12.72-25.89-18.68-39-10.23-12.77,8.24-18.53,25.38-10.22,39Z"/></g></g></svg>