<svg xmlns="http://www.w3.org/2000/svg" xmlns:xlink="http://www.w3.org/1999/xlink" viewBox="0 0 654.32 611.97"><defs><style>.cls-1,.cls-11,.cls-5{fill:none;}.cls-2{clip-path:url(#clip-path);}.cls-3{fill:gray;}.cls-11,.cls-3,.cls-4{stroke:#595858;stroke-width:10px;}.cls-10,.cls-11,.cls-12,.cls-3,.cls-4,.cls-5,.cls-6,.cls-7,.cls-8{stroke-miterlimit:10;}.cls-4{fill:#a3a3a3;}.cls-5,.cls-6{stroke:#606060;}.cls-5,.cls-6,.cls-7{stroke-width:5px;}.cls-6{fill:#3a3a3a;}.cls-7{fill:#f15a24;stroke:#ba4522;}.cls-8{fill:#ba4522;}.cls-12,.cls-8{stroke:#772d1c;stroke-width:13px;}.cls-9{fill:#d9cbb1;}.cls-10{fill:#683a20;stroke:#3f2e1b;stroke-width:12px;}.cls-12{fill:#772d1c;}</style><clipPath id="clip-path" transform="translate(-28.68 -71.03)"><rect class="cls-1" width="654.4" height="669.61" rx="81.73" ry="81.73"/></clipPath></defs><title>avatarKnight</title><g id="Слой_2" data-name="Слой 2"><g id="Слой_1-2" data-name="Слой 1"><g class="cls-2"><path class="cls-3" d="M495.82,372.11c0-2.25-7.69,11.66-18.1,25.24-7.5,9.78-16.43,19.4-24.9,22.65,0,2.59-45.53,59.53-137.86,51.77-29-21.78-48.83-44.84-61.62-67.94a154,154,0,0,1-17.63-101.32c114.41,72.16,217.64,29.75,263.13-.54C505.94,338.39,495.82,374.22,495.82,372.11Z" transform="translate(-28.68 -71.03)"/><path class="cls-4" d="M491.61,278.72c-63.41,0-204.24,4.08-254.53,16.41,10.8-51.29,43.72-89.24,60.18-92.56q9-1.81,17.2-2.9c-.28,6.39-.3,11.65-.13,15.19,0,0,21.48,1.55,41.65,2.82,21.07,1.35,40.72,2.38,33,1.06a3.46,3.46,0,0,1-1.16-.44l22.66.44q-2-2.68-3.92-5.73a96.94,96.94,0,0,1,22.26,18C463.06,238.06,481.8,257,491.61,278.72Z" transform="translate(-28.68 -71.03)"/><path class="cls-5" d="M356,217.69c-20.17-1.27-41.65-2.82-41.65-2.82-.18-3.55-.15-8.8.13-15.19a200.91,200.91,0,0,1,35.22-1.82,140.51,140.51,0,0,1,30,4.3A105.52,105.52,0,0,1,406.51,213h0q2,3,3.92,5.73l-22.66-.44a3.46,3.46,0,0,0,1.16.44C396.7,220.07,377,219,356,217.69Z" transform="translate(-28.68 -71.03)"/><path class="cls-6" d="M498.84,302c-45.49,30.3-148.72,72.71-263.13.54.39-2.48.86-4.94,1.37-7.36,50.29-12.33,191.12-16.38,254.53-16.41,17.85,0,29.56.31,31.4.85C525.45,280.29,516.48,290.21,498.84,302Z" transform="translate(-28.68 -71.03)"/><path class="cls-5" d="M237.08,295.13c-.51,2.42-1,4.88-1.37,7.36q-3.68-2.31-7.39-4.8A89.41,89.41,0,0,1,237.08,295.13Z" transform="translate(-28.68 -71.03)"/><path class="cls-7" d="M356,217.69c-20.17-1.27-41.65-2.82-41.65-2.82-.18-3.55-.15-8.8.13-15.19.86-19.53,4.06-49.79,10.8-75.32,4.81-18.17,11.4-34,20.21-41.76a19.88,19.88,0,0,1,9.33-4.9c3.11,5,6.39,23.61,10,45.74h0c4.4,27.11,9.28,59.51,14.95,78.71,2.53,8.55,5.21,14.49,8.07,16.16a3.46,3.46,0,0,0,1.16.44C396.7,220.07,377,219,356,217.69Z" transform="translate(-28.68 -71.03)"/><path class="cls-7" d="M410.45,218.75l-22.66-.44L356,217.69s-2.52-8-6.3-19.84c-6.53-20.43-16.83-52.22-24.42-73.49C323,118,321,112.64,319.39,108.75c-10.12-24.59,0-28.47,15.18-34.94,3.06-1.31,6.74,2.12,10.9,8.79,5.64,9,12.17,23.84,19.3,40.83h0c12.64,30.1,27.12,66.89,41.75,89.58h0Q408.48,216.06,410.45,218.75Z" transform="translate(-28.68 -71.03)"/><path class="cls-3" d="M401.9,654.23H274.26C272.89,556.21,234,420,234,420l-8.08,2.42a110,110,0,0,1,27.41-18.6c12.79,23.1,32.58,46.16,61.62,67.94,92.33,7.76,137.86-49.18,137.86-51.77,8.47-3.25,17.4-12.86,24.9-22.65,29.39,17.54,53,46.81,64.26,85.27-42.46,44.1-86.7,92.83-111.07,120l-60.3-22.14c-1.26,11.65-21.5,36.24-27.82,33.65C338.69,612.43,375.49,636.85,401.9,654.23Z" transform="translate(-28.68 -71.03)"/><path class="cls-3" d="M549.22,536.08h0c0,3.11-.13,6.25-.28,9.43-2,38.93-9.64,69-22.32,92.21L486.53,623l-55.62-20.42c24.37-27.16,68.61-75.89,111.07-120A185,185,0,0,1,549.22,536.08Z" transform="translate(-28.68 -71.03)"/><path class="cls-8" d="M274.26,654.23h-160C71.47,590.82,37.36,514,35.45,479.52l190.47-57.1h0L234,420S272.89,556.21,274.26,654.23Z" transform="translate(-28.68 -71.03)"/><path class="cls-9" d="M642.53,390.22c-10.21,25.44-53.2,89-93.31,145.85h0c-24.8,35.11-48.49,67.62-62.68,86.94l-55.62-20.42c24.37-27.16,68.61-75.89,111.07-120C584.63,438.31,625.45,398.68,642.53,390.22Z" transform="translate(-28.68 -71.03)"/><path class="cls-1" d="M515.9,654.23A119,119,0,0,1,484,683l-56.45-11.94s-11.28-7.38-25.62-16.82Z" transform="translate(-28.68 -71.03)"/><path class="cls-10" d="M536.29,641.29l-10.12,12.94H401.9c-26.41-17.38-63.21-41.8-59.11-40.12,6.32,2.59,26.56-22,27.82-33.65l60.3,22.14L486.53,623l40.08,14.7Z" transform="translate(-28.68 -71.03)"/><line class="cls-1" x1="85.58" y1="583.2" x2="6.77" y2="583.2"/><line class="cls-1" x1="654.32" y1="583.2" x2="497.49" y2="583.2"/><path class="cls-11" d="M424.65,445.91c11.29,26.64,30.46,92.33,80.28,69.78" transform="translate(-28.68 -71.03)"/><path class="cls-11" d="M297,462.75c0,52,3.83,49-31.62,62.75" transform="translate(-28.68 -71.03)"/><ellipse class="cls-12" cx="135.16" cy="498.58" rx="49.82" ry="56.86"/></g></g></g></svg>