<svg xmlns="http://www.w3.org/2000/svg" viewBox="0 0 701 705.61"><defs><style>.cls-1,.cls-11,.cls-4,.cls-9{fill:none;}.cls-1,.cls-10{stroke:#3f2e1b;}.cls-1,.cls-10,.cls-11,.cls-12,.cls-2,.cls-3,.cls-4,.cls-5,.cls-6,.cls-7{stroke-miterlimit:10;}.cls-1{stroke-width:36px;}.cls-2{fill:gray;}.cls-11,.cls-2,.cls-3{stroke:#595858;stroke-width:10px;}.cls-3{fill:#a3a3a3;}.cls-4,.cls-5{stroke:#606060;}.cls-4,.cls-5,.cls-6{stroke-width:5px;}.cls-5{fill:#3a3a3a;}.cls-6{fill:#f15a24;stroke:#ba4522;}.cls-7{fill:#ba4522;}.cls-12,.cls-7{stroke:#772d1c;stroke-width:13px;}.cls-8{fill:#d9cbb1;}.cls-10{fill:#683a20;stroke-width:12px;}.cls-12{fill:#772d1c;}</style></defs><title>avatarKnigh</title><g id="Слой_2" data-name="Слой 2"><g id="Слой_1-2" data-name="Слой 1"><rect class="cls-1" x="18" y="18" width="654.4" height="669.61" rx="81.73" ry="81.73"/><path class="cls-2" d="M513.82,390.11c0-2.25-7.69,11.66-18.1,25.24-7.5,9.78-16.43,19.4-24.9,22.65,0,2.59-45.53,59.53-137.86,51.77-29-21.78-48.83-44.84-61.62-67.94a154,154,0,0,1-17.63-101.32c114.41,72.16,217.64,29.75,263.13-.54C523.94,356.39,513.82,392.22,513.82,390.11Z"/><path class="cls-3" d="M509.61,296.72c-63.41,0-204.24,4.08-254.53,16.41,10.8-51.29,43.72-89.24,60.18-92.56q9-1.81,17.2-2.9c-.28,6.39-.3,11.65-.13,15.19,0,0,21.48,1.55,41.65,2.82,21.07,1.35,40.72,2.38,33,1.06a3.46,3.46,0,0,1-1.16-.44l22.66.44q-2-2.68-3.92-5.73a96.94,96.94,0,0,1,22.26,18C481.06,256.06,499.8,275,509.61,296.72Z"/><path class="cls-4" d="M374,235.69c-20.17-1.27-41.65-2.82-41.65-2.82-.18-3.55-.15-8.8.13-15.19a200.91,200.91,0,0,1,35.22-1.82,140.51,140.51,0,0,1,30,4.3A105.52,105.52,0,0,1,424.51,231h0q2,3,3.92,5.73l-22.66-.44a3.46,3.46,0,0,0,1.16.44C414.7,238.07,395,237,374,235.69Z"/><path class="cls-5" d="M516.84,320c-45.49,30.3-148.72,72.71-263.13.54.39-2.48.86-4.94,1.37-7.36,50.29-12.33,191.12-16.38,254.53-16.41,17.85,0,29.56.31,31.4.85C543.45,298.29,534.48,308.21,516.84,320Z"/><path class="cls-4" d="M255.08,313.13c-.51,2.42-1,4.88-1.37,7.36q-3.68-2.31-7.39-4.8A89.41,89.41,0,0,1,255.08,313.13Z"/><path class="cls-6" d="M374,235.69c-20.17-1.27-41.65-2.82-41.65-2.82-.18-3.55-.15-8.8.13-15.19.86-19.53,4.06-49.79,10.8-75.32,4.81-18.17,11.4-34,20.21-41.76a19.88,19.88,0,0,1,9.33-4.9c3.11,5,6.39,23.61,10,45.74h0c4.4,27.11,9.28,59.51,14.95,78.71,2.53,8.55,5.21,14.49,8.07,16.16a3.46,3.46,0,0,0,1.16.44C414.7,238.07,395,237,374,235.69Z"/><path class="cls-6" d="M428.45,236.75l-22.66-.44L374,235.69s-2.52-8-6.3-19.84c-6.53-20.43-16.83-52.22-24.42-73.49C341,136,339,130.64,337.39,126.75c-10.12-24.59,0-28.47,15.18-34.94,3.06-1.31,6.74,2.12,10.9,8.79,5.64,9,12.17,23.84,19.3,40.83h0c12.64,30.1,27.12,66.89,41.75,89.58h0Q426.48,234.06,428.45,236.75Z"/><path class="cls-2" d="M419.9,672.23H292.26C290.89,574.21,252,438,252,438l-8.08,2.42a110,110,0,0,1,27.41-18.6c12.79,23.1,32.58,46.16,61.62,67.94,92.33,7.76,137.86-49.18,137.86-51.77,8.47-3.25,17.4-12.86,24.9-22.65,29.39,17.54,53,46.81,64.26,85.27-42.46,44.1-86.7,92.83-111.07,120l-60.3-22.14c-1.26,11.65-21.5,36.24-27.82,33.65C356.69,630.43,393.49,654.85,419.9,672.23Z"/><path class="cls-2" d="M567.22,554.08h0c0,3.11-.13,6.25-.28,9.43-2,38.93-9.64,69-22.32,92.21L504.53,641l-55.62-20.42c24.37-27.16,68.61-75.89,111.07-120A185,185,0,0,1,567.22,554.08Z"/><path class="cls-7" d="M292.26,672.23h-160C89.47,608.82,55.36,532,53.45,497.52l190.47-57.1h0L252,438S290.89,574.21,292.26,672.23Z"/><path class="cls-8" d="M660.53,408.22c-10.21,25.44-53.2,89-93.31,145.85h0c-24.8,35.11-48.49,67.62-62.68,86.94l-55.62-20.42c24.37-27.16,68.61-75.89,111.07-120C602.63,456.31,643.45,416.68,660.53,408.22Z"/><path class="cls-9" d="M533.9,672.23A119,119,0,0,1,502,701l-56.45-11.94s-11.28-7.38-25.62-16.82Z"/><path class="cls-10" d="M554.29,659.29l-10.12,12.94H419.9c-26.41-17.38-63.21-41.8-59.11-40.12,6.32,2.59,26.56-22,27.82-33.65l60.3,22.14L504.53,641l40.08,14.7Z"/><line class="cls-9" x1="132.26" y1="672.23" x2="53.45" y2="672.23"/><line class="cls-9" x1="701" y1="672.23" x2="544.17" y2="672.23"/><path class="cls-11" d="M442.65,463.91c11.29,26.64,30.46,92.33,80.28,69.78"/><path class="cls-11" d="M315,480.75c0,52,3.83,49-31.62,62.75"/><ellipse class="cls-12" cx="181.84" cy="587.61" rx="49.82" ry="56.86"/></g></g></svg>