<svg xmlns="http://www.w3.org/2000/svg" viewBox="0 0 684 723.26"><defs><style>.cls-1,.cls-2,.cls-6{fill:none;}.cls-2{stroke:#000;}.cls-2,.cls-3,.cls-4,.cls-5,.cls-6,.cls-7{stroke-miterlimit:10;}.cls-2,.cls-3,.cls-5,.cls-6,.cls-7{stroke-width:13px;}.cls-3{fill:#91c1ce;stroke:#698b93;}.cls-4{fill:#e0a275;stroke:#ad7e5e;stroke-width:14px;}.cls-5{fill:#dc932d;stroke:#996425;}.cls-6{stroke:#50696d;}.cls-7{fill:#50696d;stroke:#394a4c;}.cls-8{fill:#fbb03b;}.cls-9{fill:#3f2e1b;}</style></defs><title>avatarPrincess_13</title><g id="Слой_2" data-name="Слой 2"><g id="Слой_1-2" data-name="Слой 1"><path class="cls-1" d="M684,105.49v536a82,82,0,0,1-81.73,81.73H82.73A82,82,0,0,1,2.24,655.7,80.79,80.79,0,0,1,1,641.53v-536q0-1.41.06-2.82A82,82,0,0,1,82.73,23.76H602.27A82,82,0,0,1,684,105.49Z"/><path class="cls-2" d="M480.53,484.83a16.28,16.28,0,0,1-4.48-10.24C475.5,465.14,477,472.63,480.53,484.83Z"/><path class="cls-3" d="M518.67,527.75v87.94a113.05,113.05,0,0,1-17.8,60.9c-1,1.59-2,3.14-3.13,4.67H185.43c-1.09-1.53-2.13-3.08-3.13-4.67a113.05,113.05,0,0,1-17.8-60.9V527.75a113.92,113.92,0,0,1,29-75.74c-1.86,15.55-3.64,31.7-8,34.12-8.4,4.69-6,45.72,0,78.55s57.63-9.38,60-12.9,22.81,1.18,38.42,0c11.42-.85,15.76-87,20.56-140.1,1.17-12.89,2.36-23.82,3.69-31.13a59.33,59.33,0,0,0,26.69,10.31c17.32,2.12,34.36-3.73,49.15-15.39-3.86,3.2-8.33,17.76-12.1,36.2-6.17,30.07-10.52,70.44-7.55,88.52,4.8,29.3,37.22,65.65,52.82,52.76S434,514.27,464,538.89s55.22-1.17,37.21-15.24c-9.7-7.57-16.6-27.73-20.73-41.61,6.5,7,19.44,11.88,34.72,18.14A112.6,112.6,0,0,1,518.67,527.75Z"/><path class="cls-4" d="M429.2,285.5c-4.85,38.72-22.23,71.36-45,89.85l-.16.13c-14.79,12-31.83,18-49.15,15.79a58.5,58.5,0,0,1-26.69-10.58c-28.45-20.12-44.88-65.37-38.63-115.26,8-63.95,50.23-111.3,94.31-105.77S437.21,221.54,429.2,285.5Z"/><path class="cls-5" d="M480.53,484.83c-3.54-12.2-5-19.68-4.48-10.24a16.28,16.28,0,0,0,4.48,10.24c4.13,14.25,11,34.93,20.73,42.7,18,14.44-7.2,40.91-37.22,15.64s-31.22,1.2-46.82,14.44-48-24.06-52.83-54.14c-3-18.55,1.38-60,7.55-90.84,3.77-18.93,8.24-33.87,12.1-37.14l.16-.13c22.76-18.49,40.15-51.13,45-89.85,8-64-21.24-120.29-65.32-125.84s-86.3,41.82-94.31,105.77c-6.24,49.9,10.18,95.15,38.63,115.26-1.33,7.5-2.52,18.71-3.69,31.93-4.8,54.49-9.15,142.9-20.57,143.78-15.61,1.2-36-3.61-38.42,0s-54,46.92-60,13.23-8.4-75.8,0-80.61c4.33-2.48,6.11-19,8-35h0c1.75-15,3.57-29.41,7.64-31.15,8.4-3.61,7.2-68.58,18-78.21s-9.6-18-19.21-40.91,3.6-43.31,3.6-43.31-24-9.63-1.2-42.11,116.46-136,213.7-89c18-4.81,42-7.22,66,48.13,45.62,21.66-13.21,247.85,67.23,342.9-11.55-7.18-23.36-12.38-34-16.87C500,497,487,492.06,480.53,484.83Z"/><rect class="cls-1" width="683" height="684.47" rx="81.73" ry="81.73"/><line class="cls-6" x1="304" y1="528.13" x2="372" y2="589.26"/><line class="cls-6" x1="363" y1="522.12" x2="307" y2="568.22"/><line class="cls-6" x1="298" y1="594.27" x2="376" y2="650.39"/><line class="cls-6" x1="357" y1="606.3" x2="302" y2="657.41"/><path class="cls-7" d="M186.85,683h-97c-26.45,0-49.46-17.34-60.37-42.37,3.79-5.91,7.91-11.6,11.67-17.53,26-41.19,34.34-94.87,64.41-132.46C125,466.27,153,450.82,182,447.74l-.42,3.9h0a116.32,116.32,0,0,0-23.79,71.2v82.66C157.83,635.72,169,663.16,186.85,683Z"/><path class="cls-7" d="M656.5,592v17c0,39.58-31.16,72-69.25,72H487.33a106.39,106.39,0,0,0,29.94-74.28V527.4a107.7,107.7,0,0,0-2.9-24.87c9,3.94,19.05,8.51,28.84,14.82-12.84-15.73-21.49-35.55-27.32-57.48,16.49-.74,32.59,1.48,46.76,10,12.44,7.45,22,19.06,30.8,30.86C615.36,530.14,634.48,562.68,656.5,592Z"/><path class="cls-8" d="M188.72,90.85a295.06,295.06,0,0,0,71.63,87.64c3.18,2.64,6.67,5.32,10.79,5.72,3.39.34,6.71-.93,9.91-2.11a245.29,245.29,0,0,1,177.32,3.8c5.61,2.34,11.52,5,17.52,4,4.55-.71,8.52-3.39,12.32-6l65.57-45c10.29-7.06,22-17.94,17.89-29.75C536,105.4,500.87,135.2,466.78,124.2c-12.45-4-23.19-13.25-36.18-14.77-8-.94-16.08,1.2-24.08,2.48-21,3.36-42.47.75-63.6-1.86L187.35,90.8"/><path class="cls-9" d="M187.42,91.61a299,299,0,0,0,54.79,72.62c5.48,5.32,11.16,10.48,17.07,15.32,4.56,3.73,9.27,6.87,15.41,6,7.29-1,14.58-4.85,21.66-6.93a239.39,239.39,0,0,1,23.75-5.68,245.52,245.52,0,0,1,96.28,1.4c15.88,3.43,30.73,8.95,45.84,14.75,6.43,2.47,12.85,3.57,19.31.59,7.6-3.5,14.48-9.32,21.36-14q25-17.16,50-34.33c10.46-7.2,24.46-18.09,20.22-32.57a1.56,1.56,0,0,0-1.45-1.1c-22.25-2-42.95,7.64-63.9,13.48-10.76,3-22.1,5.17-33.27,3.38-11.87-1.9-21.52-9-32.43-13.48-11.56-4.71-22.19-2.9-34.1-.88-13.87,2.35-27.93,2.14-41.91,1-28.13-2.39-56.17-6.65-84.19-10.11L187.35,89.3c-1.91-.24-1.89,2.77,0,3,56,6.93,112,14.46,168.09,20.74,13.76,1.54,27.66,2.61,41.5,1.5,13.13-1.05,26.54-6.22,39.59-2.33,11.25,3.35,20.68,11,32,14.07,9.68,2.63,19.8,2.16,29.56.25,24.6-4.82,47.83-18.25,73.53-15.89l-1.45-1.1c4.57,15.59-14.88,26.47-25.4,33.68l-41,28.14c-6.64,4.56-13.16,9.43-20,13.65-8.72,5.36-16.26,3.07-25.06-.56a243.84,243.84,0,0,0-41.58-13,249.16,249.16,0,0,0-85.62-3.35,241.72,241.72,0,0,0-41.84,9.43c-7.44,2.4-16,7.59-23.57,3.36-6.19-3.46-11.7-9.3-16.88-14.1A296.17,296.17,0,0,1,190,90.09c-.92-1.7-3.51-.19-2.59,1.51Z"/></g></g></svg>