<svg xmlns="http://www.w3.org/2000/svg" xmlns:xlink="http://www.w3.org/1999/xlink" viewBox="0 0 726 726"><defs><style>.cls-1,.cls-2{fill:none;}.cls-2{stroke:#3f2e1b;stroke-width:43px;}.cls-2,.cls-4,.cls-5,.cls-6,.cls-7,.cls-8,.cls-9{stroke-miterlimit:10;}.cls-3{clip-path:url(#clip-path);}.cls-4{fill:#800;stroke:#600404;stroke-width:15px;}.cls-5,.cls-8{fill:gray;}.cls-5{stroke:#595959;}.cls-5,.cls-6{stroke-width:5px;}.cls-6{fill:#c69c6d;stroke:#c69c6d;}.cls-7{fill:#c97f66;stroke:#a56756;stroke-width:14px;}.cls-8{stroke:#606060;stroke-width:13px;}.cls-9{fill:#666;stroke:gray;stroke-width:0.75px;}</style><clipPath id="clip-path"><rect class="cls-1" x="38" y="36" width="651" height="659.45" rx="81.73" ry="81.73"/></clipPath></defs><title>avatarMonarh_1</title><g id="Слой_2" data-name="Слой 2"><g id="Слой_1-2" data-name="Слой 1"><rect class="cls-2" x="21.5" y="21.5" width="683" height="683" rx="81.73" ry="81.73"/><g class="cls-3"><polygon class="cls-4" points="710.45 695.93 270.88 695.93 439.58 392.31 363.98 256.23 119.69 695.93 17.51 695.93 363.98 214.72 462.34 351.34 710.45 695.93"/><polygon class="cls-5" points="439.58 392.31 270.88 695.93 119.69 695.93 363.98 256.23 439.58 392.31"/><polygon class="cls-6" points="608.27 695.93 270.88 695.93 439.58 392.31 608.27 695.93"/><ellipse class="cls-7" cx="375.41" cy="312.14" rx="118.19" ry="109.1"/><rect class="cls-8" x="191.93" y="142.69" width="343.13" height="129.38" rx="12" ry="12"/><rect class="cls-9" x="363.5" y="145.59" width="169.35" height="123.59" rx="12" ry="12"/></g></g></g></svg>