<svg xmlns="http://www.w3.org/2000/svg" xmlns:xlink="http://www.w3.org/1999/xlink" viewBox="0 0 546.55 654.26"><defs><style>.cls-1,.cls-5{fill:none;}.cls-2{clip-path:url(#clip-path);}.cls-3{fill:#ba4522;stroke:#842e1a;}.cls-3,.cls-4,.cls-5,.cls-6,.cls-7,.cls-8,.cls-9{stroke-miterlimit:10;}.cls-3,.cls-7{stroke-width:13px;}.cls-4,.cls-7{fill:#d9cbb1;stroke:gray;}.cls-4{stroke-width:15px;}.cls-5,.cls-8,.cls-9{stroke:#3f2e1b;}.cls-5{stroke-width:26px;}.cls-6{fill:#e0a275;stroke:#ad7e5e;stroke-width:14px;}.cls-8{fill:#683a20;stroke-width:12px;}.cls-9{fill:#eac18f;stroke-width:28px;}</style><clipPath id="clip-path" transform="translate(-44.98 -17.67)"><rect class="cls-1" width="683" height="683" rx="84.25" ry="84.25"/></clipPath></defs><title>avatarDwarf</title><g id="Слой_2" data-name="Слой 2"><g id="Слой_1-2" data-name="Слой 1"><g class="cls-2"><path class="cls-3" d="M550,658v.53H136.5V658c0-80.69,27.46-153,70.9-202.21,21.56,43.9,69.76,74.47,125.76,74.47,62,0,114.48-37.51,131.78-89.09C516.47,489.9,550,568.86,550,658Z" transform="translate(-44.98 -17.67)"/><path class="cls-4" d="M229.12,350.45c9.95,15.68,5.81,37.88-8.71,59.6-15.5-9.31-42-6.38-65.82,8.74-24.48,15.52-38.51,39-35.8,57.22-27.25,4.86-50.51-.66-60.87-17-10.64-16.78-5.16-41,11.9-64.13A27.47,27.47,0,0,0,74,409.7c11.82,18.64,45.3,18.59,74.79-.11s43.8-49,32-67.6a26.9,26.9,0,0,0-9.61-9C197.13,329,219.13,334.7,229.12,350.45Z" transform="translate(-44.98 -17.67)"/><line class="cls-5" x1="190.16" y1="566.83" x2="89.33" y2="366.01"/><path class="cls-6" d="M471,404.06a116.57,116.57,0,0,1-6,37.07c-17.3,51.58-69.75,89.09-131.78,89.09-56,0-104.19-30.56-125.76-74.47a116.77,116.77,0,0,1-12.06-51.69c0-36.63,17.06-69.62,44.3-92.66,28.3,16.73,61.46,28.76,97.55,34.6a308.59,308.59,0,0,0,37.9,3.74c4,.17,8.07.24,12.14.24a310.59,310.59,0,0,0,66.48-7.11A117.33,117.33,0,0,1,471,404.06Z" transform="translate(-44.98 -17.67)"/><path class="cls-7" d="M337.19,346c-36.09-5.84-69.25-17.87-97.55-34.6-58.5-34.56-96.25-89.18-96.25-150.65,0-50,25-95.43,65.73-129.25,0,70,35.32,131.17,87.78,163.87-19.78,16.32-32.12,39.43-32.12,65C264.78,300.65,295.25,334.71,337.19,346Z" transform="translate(-44.98 -17.67)"/><path class="cls-7" d="M584,272.51c-31.71,33.59-77.35,58.74-130.31,70.37A310.59,310.59,0,0,1,387.23,350c-4.07,0-8.12-.07-12.14-.24,53.3-3.33,95.36-42.06,95.36-89.34,0-20-7.54-38.51-20.28-53.42,33.95-14.77,62.62-40.66,82.17-73.48Z" transform="translate(-44.98 -17.67)"/><path class="cls-8" d="M469.66,277.75c-5.48,44.43-51.7,75.67-105,72.28a325.45,325.45,0,0,1-37.18-8.15c-40.32-15.75-66.61-51.47-62-89.28,3-24.07,17.89-44.27,39.41-57.18,20-12,45.85-17.76,73-14.41,33.55,4.14,61.69,21.16,77.75,44.07C466.64,240.65,472,258.94,469.66,277.75Z" transform="translate(-44.98 -17.67)"/><path class="cls-9" d="M407.87,638.08a11.19,11.19,0,0,1,14.91,4.23,10.44,10.44,0,0,1-4.64,14.32,11.19,11.19,0,0,1-14.91-4.23A10.44,10.44,0,0,1,407.87,638.08Z" transform="translate(-44.98 -17.67)"/><path class="cls-9" d="M362.89,549.63c7.11-3.68,15.91-1.18,19.65,5.57s1,15.21-6.11,18.88-15.91,1.18-19.65-5.57S355.77,553.3,362.89,549.63Z" transform="translate(-44.98 -17.67)"/><ellipse class="cls-3" cx="183.63" cy="610.61" rx="74.32" ry="44.49" transform="translate(-211.85 60.3) rotate(-16.61)"/></g></g></g></svg>