<svg xmlns="http://www.w3.org/2000/svg" viewBox="0 0 987.54 770.77"><defs><style>.cls-1{fill:#ba4522;}.cls-1,.cls-10,.cls-4,.cls-7{stroke:#3f2e1b;stroke-miterlimit:10;stroke-width:60px;}.cls-2,.cls-3{fill:#f15a24;}.cls-12,.cls-3,.cls-6,.cls-9{opacity:0.81;isolation:isolate;}.cls-4{fill:#333;}.cls-5,.cls-6{fill:#4d4d4d;}.cls-7{fill:#b90101;}.cls-8,.cls-9{fill:#800;}.cls-10{fill:#6fcd56;}.cls-11,.cls-12{fill:#55a055;}</style></defs><g id="Слой_2" data-name="Слой 2"><g id="Слой_1-2" data-name="Слой 1"><path class="cls-1" d="M483.64,580.84,690,682.31a53,53,0,0,0,71-24.19l191.11-388.7a53,53,0,0,0-24.18-71L721.54,97a53,53,0,0,0-71,24.18L459.46,509.87A53,53,0,0,0,483.64,580.84Z"/><path class="cls-2" d="M639.1,444.46a5.86,5.86,0,1,0,2.67,7.84A5.85,5.85,0,0,0,639.1,444.46Z"/><path class="cls-2" d="M805.29,444.1a18.18,18.18,0,1,0,8.26,24.33A18.16,18.16,0,0,0,805.29,444.1Z"/><path class="cls-2" d="M763.54,453.77a9.06,9.06,0,1,0,4.11,12.12A9,9,0,0,0,763.54,453.77Z"/><path class="cls-2" d="M794,486.19a12.3,12.3,0,1,0,5.61,16.47A12.31,12.31,0,0,0,794,486.19Z"/><path class="cls-3" d="M835.8,266.1a27.05,27.05,0,1,0,12.29,36.19A27,27,0,0,0,835.8,266.1Z"/><path class="cls-3" d="M803,233.53a14.76,14.76,0,1,0,6.68,19.73A14.73,14.73,0,0,0,803,233.53Z"/><path class="cls-3" d="M841.49,329.23a11.3,11.3,0,1,0,5.12,15.1A11.28,11.28,0,0,0,841.49,329.23Z"/><path class="cls-2" d="M797.24,359a18.18,18.18,0,1,0,8.26,24.32A18.16,18.16,0,0,0,797.24,359Z"/><path class="cls-2" d="M830.89,392.59A9.06,9.06,0,1,0,835,404.72,9.06,9.06,0,0,0,830.89,392.59Z"/><path class="cls-2" d="M787.72,404.17a12.3,12.3,0,1,0,5.61,16.46A12.31,12.31,0,0,0,787.72,404.17Z"/><path class="cls-2" d="M755,285.59a18.18,18.18,0,1,0,8.26,24.32A18.16,18.16,0,0,0,755,285.59Z"/><path class="cls-2" d="M714.5,292.61a9.06,9.06,0,1,0,4.11,12.12A9,9,0,0,0,714.5,292.61Z"/><path class="cls-2" d="M743.64,327.68a12.3,12.3,0,1,0,5.61,16.46A12.3,12.3,0,0,0,743.64,327.68Z"/><path class="cls-2" d="M751.77,169.41A26.83,26.83,0,1,0,764,205.29,26.81,26.81,0,0,0,751.77,169.41Z"/><path class="cls-2" d="M721.29,231.86a13.37,13.37,0,1,0,6.07,17.88A13.35,13.35,0,0,0,721.29,231.86Z"/><path class="cls-2" d="M685,176.18a18.14,18.14,0,1,0,8.27,24.28A18.14,18.14,0,0,0,685,176.18Z"/><path class="cls-2" d="M684.5,377.59a18.18,18.18,0,1,0,8.26,24.32A18.16,18.16,0,0,0,684.5,377.59Z"/><path class="cls-2" d="M642.75,387.25a9.07,9.07,0,1,0,4.11,12.12A9,9,0,0,0,642.75,387.25Z"/><path class="cls-2" d="M673.19,419.68a12.3,12.3,0,1,0,5.61,16.46A12.29,12.29,0,0,0,673.19,419.68Z"/><path class="cls-2" d="M709.88,484.31a17.22,17.22,0,1,0,7.8,23A17.19,17.19,0,0,0,709.88,484.31Z"/><path class="cls-2" d="M736.84,508.07A9.06,9.06,0,1,0,741,520.19,9.05,9.05,0,0,0,736.84,508.07Z"/><path class="cls-2" d="M715.17,445.8a12.3,12.3,0,1,0,5.61,16.46A12.29,12.29,0,0,0,715.17,445.8Z"/><path class="cls-2" d="M591.56,525.36a17.22,17.22,0,1,0,7.81,23A17.19,17.19,0,0,0,591.56,525.36Z"/><path class="cls-2" d="M594.59,489.66a9.06,9.06,0,1,0,4.12,12.12A9.05,9.05,0,0,0,594.59,489.66Z"/><path class="cls-2" d="M637.15,467.56a11.15,11.15,0,1,0,5.05,14.91A11.13,11.13,0,0,0,637.15,467.56Z"/><path class="cls-2" d="M630.31,498.19a8,8,0,1,0,3.63,10.66A8,8,0,0,0,630.31,498.19Z"/><path class="cls-3" d="M721.57,623.31a18.19,18.19,0,1,0,8.26,24.32A18.16,18.16,0,0,0,721.57,623.31Z"/><path class="cls-2" d="M695.68,600.71a9.07,9.07,0,1,0,4.11,12.13A9.07,9.07,0,0,0,695.68,600.71Z"/><path class="cls-2" d="M742.8,599.21a12.3,12.3,0,1,0,5.61,16.47A12.3,12.3,0,0,0,742.8,599.21Z"/><path class="cls-2" d="M657,542.28a16.61,16.61,0,1,0,21.05,10.38A16.6,16.6,0,0,0,657,542.28Z"/><path class="cls-2" d="M653.51,593.55a7.15,7.15,0,1,0,9.79-2.5A7.14,7.14,0,0,0,653.51,593.55Z"/><path class="cls-2" d="M628.29,548.1a9.7,9.7,0,1,0,4.43,13A9.71,9.71,0,0,0,628.29,548.1Z"/><path class="cls-2" d="M817.76,154.17l97.85,48.11c42.28,20.78,37.11,44.69,24.19,71L794.15,569.47C874.84,371.91,862.51,224.91,817.76,154.17Z"/><path class="cls-2" d="M593.12,624.25l-97.85-48.11c-33.43-13.14-41.95-37.07-26.52-66.21l148-301C536,406.51,548.37,553.51,593.12,624.25Z"/><path class="cls-4" d="M401.17,651.41l256.39,29A59.49,59.49,0,0,0,723.37,628l54.69-482.91a59.49,59.49,0,0,0-52.42-65.8l-256.39-29a59.49,59.49,0,0,0-65.8,52.41L348.76,585.61A59.47,59.47,0,0,0,401.17,651.41Z"/><path class="cls-5" d="M513.74,448.5a6.58,6.58,0,1,0,5.78,7.28A6.57,6.57,0,0,0,513.74,448.5Z"/><path class="cls-5" d="M689.14,385.21a20.4,20.4,0,1,0,17.93,22.56A20.37,20.37,0,0,0,689.14,385.21Z"/><path class="cls-5" d="M648.7,411.23a10.16,10.16,0,1,0,8.93,11.24A10.16,10.16,0,0,0,648.7,411.23Z"/><path class="cls-5" d="M693.13,434a13.8,13.8,0,1,0,12.16,15.26A13.8,13.8,0,0,0,693.13,434Z"/><path class="cls-6" d="M654,185.64a30.36,30.36,0,1,0,26.68,33.58A30.33,30.33,0,0,0,654,185.64Z"/><path class="cls-6" d="M607,163.66A16.56,16.56,0,1,0,621.54,182,16.52,16.52,0,0,0,607,163.66Z"/><path class="cls-6" d="M683.88,250.17a12.68,12.68,0,1,0,11.12,14A12.66,12.66,0,0,0,683.88,250.17Z"/><path class="cls-5" d="M648.42,298.38A20.4,20.4,0,1,0,666.35,321,20.38,20.38,0,0,0,648.42,298.38Z"/><path class="cls-5" d="M696.68,321.11a10.17,10.17,0,1,0,8.93,11.25A10.16,10.16,0,0,0,696.68,321.11Z"/><path class="cls-5" d="M655.45,349.69A13.8,13.8,0,1,0,667.61,365,13.79,13.79,0,0,0,655.45,349.69Z"/><path class="cls-5" d="M576,236.85a20.4,20.4,0,1,0,17.93,22.56A20.37,20.37,0,0,0,576,236.85Z"/><path class="cls-5" d="M535.88,259.57a10.17,10.17,0,1,0,8.94,11.25A10.15,10.15,0,0,0,535.88,259.57Z"/><path class="cls-5" d="M579.94,285.58a13.8,13.8,0,1,0,12.16,15.27A13.81,13.81,0,0,0,579.94,285.58Z"/><path class="cls-5" d="M528.6,115.34a30.1,30.1,0,1,0,26.46,33.29A30.06,30.06,0,0,0,528.6,115.34Z"/><path class="cls-5" d="M520.05,192.84a15,15,0,1,0,13.19,16.59A15,15,0,0,0,520.05,192.84Z"/><path class="cls-5" d="M460.63,147.77a20.36,20.36,0,1,0,17.94,22.52A20.37,20.37,0,0,0,460.63,147.77Z"/><path class="cls-5" d="M536.37,360.69a20.4,20.4,0,1,0,17.94,22.56A20.37,20.37,0,0,0,536.37,360.69Z"/><path class="cls-5" d="M495.93,386.7A10.17,10.17,0,1,0,504.87,398,10.15,10.15,0,0,0,495.93,386.7Z"/><path class="cls-5" d="M540.37,409.42a13.8,13.8,0,1,0,12.15,15.27A13.81,13.81,0,0,0,540.37,409.42Z"/><path class="cls-5" d="M603.58,463.8a19.32,19.32,0,1,0,16.95,21.36A19.29,19.29,0,0,0,603.58,463.8Z"/><path class="cls-5" d="M641.06,478.69A10.16,10.16,0,1,0,650,489.93,10.16,10.16,0,0,0,641.06,478.69Z"/><path class="cls-5" d="M594.59,421.12a13.8,13.8,0,1,0,12.16,15.26A13.79,13.79,0,0,0,594.59,421.12Z"/><path class="cls-5" d="M494.16,552a19.32,19.32,0,1,0,17,21.37A19.29,19.29,0,0,0,494.16,552Z"/><path class="cls-5" d="M483.84,513.1a10.17,10.17,0,1,0,8.94,11.24A10.16,10.16,0,0,0,483.84,513.1Z"/><path class="cls-5" d="M520.42,473.65a12.5,12.5,0,1,0,11,13.83A12.48,12.48,0,0,0,520.42,473.65Z"/><path class="cls-5" d="M524.79,508.59a8.93,8.93,0,1,0,7.87,9.88A8.93,8.93,0,0,0,524.79,508.59Z"/><path class="cls-6" d="M668.56,606.19a20.4,20.4,0,1,0,17.93,22.56A20.39,20.39,0,0,0,668.56,606.19Z"/><path class="cls-5" d="M632.65,592.13a10.16,10.16,0,1,0,8.94,11.24A10.15,10.15,0,0,0,632.65,592.13Z"/><path class="cls-5" d="M681.86,572.7A13.8,13.8,0,1,0,694,588,13.81,13.81,0,0,0,681.86,572.7Z"/><path class="cls-5" d="M569.71,545a18.64,18.64,0,1,0,26.17,3A18.62,18.62,0,0,0,569.71,545Z"/><path class="cls-5" d="M584.81,600.7a8.05,8.05,0,1,0,9.44-6.34A8,8,0,0,0,584.81,600.7Z"/><path class="cls-5" d="M541.56,562.07a10.89,10.89,0,1,0,9.59,12A10.89,10.89,0,0,0,541.56,562.07Z"/><path class="cls-5" d="M592.54,74.25,714.1,88c52.53,6,56.11,33.16,52.42,65.8l-41.68,368C735.27,282.62,666.59,132,592.54,74.25Z"/><path class="cls-5" d="M533.24,655.82,411.68,642.05c-40.29-1.23-58.34-23.27-53.08-59.9l42.34-373.92C390.52,447.45,459.19,598,533.24,655.82Z"/><path class="cls-7" d="M490.16,30.76,234.72,71.82a59.64,59.64,0,0,0-49.42,68.35l77.33,481.11A59.64,59.64,0,0,0,331,670.7l255.43-41.05a59.65,59.65,0,0,0,49.43-68.35L558.51,80.19A59.66,59.66,0,0,0,490.16,30.76Z"/><path class="cls-8" d="M283.2,365.56a20.46,20.46,0,1,0-23.4-17A20.43,20.43,0,0,0,283.2,365.56Z"/><path class="cls-8" d="M315.24,329.53a10.19,10.19,0,1,0-11.66-8.45A10.19,10.19,0,0,0,315.24,329.53Z"/><path class="cls-8" d="M266.21,319.56a13.84,13.84,0,1,0-15.86-11.46A13.83,13.83,0,0,0,266.21,319.56Z"/><path class="cls-9" d="M371,548.81a30.44,30.44,0,1,0-34.82-25.23A30.4,30.4,0,0,0,371,548.81Z"/><path class="cls-9" d="M422.21,557.39a16.61,16.61,0,1,0-19-13.77A16.58,16.58,0,0,0,422.21,557.39Z"/><path class="cls-9" d="M324.67,494.55A12.71,12.71,0,1,0,310.15,484,12.68,12.68,0,0,0,324.67,494.55Z"/><path class="cls-8" d="M345.92,438.44a20.46,20.46,0,1,0-23.4-17A20.43,20.43,0,0,0,345.92,438.44Z"/><path class="cls-8" d="M293.19,429.49A10.19,10.19,0,1,0,281.53,421,10.19,10.19,0,0,0,293.19,429.49Z"/><path class="cls-8" d="M325.3,390.78a13.84,13.84,0,1,0-15.86-11.46A13.83,13.83,0,0,0,325.3,390.78Z"/><path class="cls-8" d="M432.49,478.33a20.45,20.45,0,1,0-23.4-16.95A20.44,20.44,0,0,0,432.49,478.33Z"/><path class="cls-8" d="M465.06,445.59a10.19,10.19,0,1,0-11.66-8.45A10.19,10.19,0,0,0,465.06,445.59Z"/><path class="cls-8" d="M415.5,432.34a13.84,13.84,0,1,0-15.86-11.46A13.84,13.84,0,0,0,415.5,432.34Z"/><path class="cls-8" d="M511,582.92a30.18,30.18,0,1,0-34.52-25A30.16,30.16,0,0,0,511,582.92Z"/><path class="cls-8" d="M498.33,505.77a15,15,0,1,0-17.21-12.47A15,15,0,0,0,498.33,505.77Z"/><path class="cls-8" d="M567.87,533.28a20.41,20.41,0,1,0-23.39-16.91A20.41,20.41,0,0,0,567.87,533.28Z"/><path class="cls-8" d="M437.34,348.07a20.45,20.45,0,1,0-23.4-17A20.43,20.43,0,0,0,437.34,348.07Z"/><path class="cls-8" d="M469.38,312a10.19,10.19,0,1,0-11.66-8.45A10.19,10.19,0,0,0,469.38,312Z"/><path class="cls-8" d="M420.35,302.08a13.84,13.84,0,1,0-15.86-11.47A13.84,13.84,0,0,0,420.35,302.08Z"/><path class="cls-8" d="M344.65,266.6a19.37,19.37,0,1,0-22.14-16.06A19.34,19.34,0,0,0,344.65,266.6Z"/><path class="cls-8" d="M304.44,262.32a10.19,10.19,0,1,0-11.66-8.45A10.19,10.19,0,0,0,304.44,262.32Z"/><path class="cls-8" d="M364.83,305.4A13.84,13.84,0,1,0,349,293.93,13.84,13.84,0,0,0,364.83,305.4Z"/><path class="cls-8" d="M426.56,152a19.37,19.37,0,1,0-22.13-16.06A19.34,19.34,0,0,0,426.56,152Z"/><path class="cls-8" d="M447,186.72a10.19,10.19,0,1,0-11.66-8.45A10.18,10.18,0,0,0,447,186.72Z"/><path class="cls-8" d="M422.3,234.68A12.54,12.54,0,1,0,408,224.28,12.52,12.52,0,0,0,422.3,234.68Z"/><path class="cls-8" d="M435.53,257.16a6.6,6.6,0,1,0-7.55-5.47A6.59,6.59,0,0,0,435.53,257.16Z"/><path class="cls-8" d="M408.67,202.11a9,9,0,1,0-10.27-7.42A9,9,0,0,0,408.67,202.11Z"/><path class="cls-8" d="M243.52,146.59a20.45,20.45,0,1,0-23.4-17A20.43,20.43,0,0,0,243.52,146.59Z"/><path class="cls-8" d="M282,150.5a10.19,10.19,0,1,0-11.66-8.45A10.19,10.19,0,0,0,282,150.5Z"/><path class="cls-8" d="M239.7,182.52a13.84,13.84,0,1,0-15.86-11.46A13.83,13.83,0,0,0,239.7,182.52Z"/><path class="cls-8" d="M355.45,179a18.69,18.69,0,1,0-26.07,4.16A18.65,18.65,0,0,0,355.45,179Z"/><path class="cls-8" d="M325.36,129.66a8,8,0,1,0-7.37,8.66A8,8,0,0,0,325.36,129.66Z"/><path class="cls-8" d="M378.06,155a10.92,10.92,0,1,0-12.52-9A10.92,10.92,0,0,0,378.06,155Z"/><path class="cls-8" d="M459.74,639.92,338.63,659.38c-52.33,8.42-63.12-16.9-68.35-49.42L211.35,243.31C265.75,477.15,372.66,604.07,459.74,639.92Z"/><path class="cls-8" d="M360.83,62.2,481.94,42.74c39.23-9.67,62.61,6.75,67.4,43.54l59.88,372.53C554.82,225,447.91,98.05,360.83,62.2Z"/><path class="cls-10" d="M269.83,737.61l253.8-84.27a61.66,61.66,0,0,0,39.08-77.94L404,97.37A61.65,61.65,0,0,0,326,58.29L72.24,142.56A61.65,61.65,0,0,0,33.16,220.5l158.73,478A61.65,61.65,0,0,0,269.83,737.61Z"/><path class="cls-11" d="M425.43,361.69a21.14,21.14,0,1,0,26.69,13.42A21.12,21.12,0,0,0,425.43,361.69Z"/><path class="cls-11" d="M398.71,403.76a10.54,10.54,0,1,0,13.3,6.69A10.54,10.54,0,0,0,398.71,403.76Z"/><path class="cls-11" d="M450.39,405.8a14.3,14.3,0,1,0,18.08,9.06A14.3,14.3,0,0,0,450.39,405.8Z"/><path class="cls-12" d="M305.49,189.28a31.47,31.47,0,1,0,39.71,20A31.44,31.44,0,0,0,305.49,189.28Z"/><path class="cls-12" d="M251.76,189a17.17,17.17,0,1,0,21.63,10.9A17.13,17.13,0,0,0,251.76,189Z"/><path class="cls-12" d="M361.71,237a13.14,13.14,0,1,0,16.56,8.35A13.12,13.12,0,0,0,361.71,237Z"/><path class="cls-11" d="M349.34,297.74A21.15,21.15,0,1,0,376,311.16,21.13,21.13,0,0,0,349.34,297.74Z"/><path class="cls-11" d="M404.62,298.12a10.54,10.54,0,1,0,13.3,6.69A10.53,10.53,0,0,0,404.62,298.12Z"/><path class="cls-11" d="M378.28,342.94A14.3,14.3,0,1,0,396.36,352,14.3,14.3,0,0,0,378.28,342.94Z"/><path class="cls-11" d="M254.39,271.4a21.14,21.14,0,1,0,26.69,13.42A21.13,21.13,0,0,0,254.39,271.4Z"/><path class="cls-11" d="M226.59,310.22a10.54,10.54,0,1,0,13.3,6.68A10.51,10.51,0,0,0,226.59,310.22Z"/><path class="cls-11" d="M279.36,315.51a14.3,14.3,0,1,0,18.08,9.06A14.3,14.3,0,0,0,279.36,315.51Z"/><path class="cls-11" d="M157,177.72a31.2,31.2,0,1,0,39.38,19.79A31.16,31.16,0,0,0,157,177.72Z"/><path class="cls-11" d="M182.67,254.33a15.55,15.55,0,1,0,19.62,9.87A15.54,15.54,0,0,0,182.67,254.33Z"/><path class="cls-11" d="M107.15,237.81a21.1,21.1,0,1,0,26.68,13.37A21.09,21.09,0,0,0,107.15,237.81Z"/><path class="cls-11" d="M271.06,405.11a21.14,21.14,0,1,0,26.69,13.42A21.13,21.13,0,0,0,271.06,405.11Z"/><path class="cls-11" d="M244.35,447.18a10.54,10.54,0,1,0,13.3,6.69A10.52,10.52,0,0,0,244.35,447.18Z"/><path class="cls-11" d="M296,449.22a14.3,14.3,0,1,0,18.08,9.06A14.3,14.3,0,0,0,296,449.22Z"/><path class="cls-11" d="M379.15,472.85a20,20,0,1,0,25.25,12.72A20,20,0,0,0,379.15,472.85Z"/><path class="cls-11" d="M420.88,470.55a10.54,10.54,0,1,0,13.3,6.68A10.51,10.51,0,0,0,420.88,470.55Z"/><path class="cls-11" d="M352.12,436.62a14.3,14.3,0,1,0,18.09,9.06A14.3,14.3,0,0,0,352.12,436.62Z"/><path class="cls-11" d="M314.6,603.39a20,20,0,1,0,25.25,12.72A20,20,0,0,0,314.6,603.39Z"/><path class="cls-11" d="M288,571.34a10.54,10.54,0,1,0,13.3,6.69A10.53,10.53,0,0,0,288,571.34Z"/><path class="cls-11" d="M270.14,618.15a14.3,14.3,0,1,0,18.08,9.07A14.31,14.31,0,0,0,270.14,618.15Z"/><path class="cls-11" d="M305.22,518.31a13,13,0,1,0,16.34,8.23A12.93,12.93,0,0,0,305.22,518.31Z"/><path class="cls-11" d="M288,497.57a6.82,6.82,0,1,0,8.61,4.32A6.8,6.8,0,0,0,288,497.57Z"/><path class="cls-11" d="M324.54,549.27a9.26,9.26,0,1,0,11.7,5.87A9.26,9.26,0,0,0,324.54,549.27Z"/><path class="cls-11" d="M502.24,578.51a21.14,21.14,0,1,0,26.69,13.42A21.12,21.12,0,0,0,502.24,578.51Z"/><path class="cls-11" d="M462.35,580.9a10.54,10.54,0,1,0,13.3,6.69A10.53,10.53,0,0,0,462.35,580.9Z"/><path class="cls-11" d="M500.18,541.22a14.3,14.3,0,1,0,18.08,9.06A14.3,14.3,0,0,0,500.18,541.22Z"/><path class="cls-11" d="M382.66,564a19.32,19.32,0,1,0,25.91-8.58A19.3,19.3,0,0,0,382.66,564Z"/><path class="cls-11" d="M421.56,609.37a8.32,8.32,0,1,0,6.08-10.06A8.31,8.31,0,0,0,421.56,609.37Z"/><path class="cls-11" d="M363.59,592.28a11.28,11.28,0,1,0,14.26,7.15A11.28,11.28,0,0,0,363.59,592.28Z"/><path class="cls-11" d="M199.23,111.24,319.57,71.29c52-17.27,67.21,6.76,77.94,39.08l121,364.31C424.17,245.12,294,133.37,199.23,111.24Z"/><path class="cls-11" d="M396.56,684.08,276.23,724c-38.43,16.38-65,3.5-76-33.23L77.32,320.65C171.63,550.2,301.76,662,396.56,684.08Z"/></g></g></svg>