<svg xmlns="http://www.w3.org/2000/svg" viewBox="0 0 450.73 687"><defs><style>.cls-1{fill:#6fcd56;stroke:#3f2e1b;stroke-miterlimit:10;stroke-width:60px;}.cls-2,.cls-3{fill:#55a055;}.cls-3{opacity:0.81;isolation:isolate;}</style></defs><g id="Слой_2" data-name="Слой 2"><g id="Слой_1-2" data-name="Слой 1"><path class="cls-1" d="M91.65,657H359.08a61.65,61.65,0,0,0,61.65-61.65V91.65A61.65,61.65,0,0,0,359.08,30H91.65A61.65,61.65,0,0,0,30,91.65v503.7A61.65,61.65,0,0,0,91.65,657Z"/><path class="cls-2" d="M357.79,349.27a21.14,21.14,0,1,0,21.1,21.14A21.12,21.12,0,0,0,357.79,349.27Z"/><path class="cls-2" d="M319.18,380.78a10.54,10.54,0,1,0,10.51,10.53A10.52,10.52,0,0,0,319.18,380.78Z"/><path class="cls-2" d="M367.58,399a14.31,14.31,0,1,0,14.31,14.3A14.3,14.3,0,0,0,367.58,399Z"/><path class="cls-3" d="M298.29,147.85a31.47,31.47,0,1,0,31.4,31.46A31.43,31.43,0,0,0,298.29,147.85Z"/><path class="cls-3" d="M247.38,130.69a17.16,17.16,0,1,0,17.09,17.16A17.12,17.12,0,0,0,247.38,130.69Z"/><path class="cls-3" d="M336.62,210.81A13.14,13.14,0,1,0,349.71,224,13.11,13.11,0,0,0,336.62,210.81Z"/><path class="cls-2" d="M305.73,264.6a21.15,21.15,0,1,0,21.1,21.14A21.12,21.12,0,0,0,305.73,264.6Z"/><path class="cls-2" d="M358.08,282.38a10.54,10.54,0,1,0,10.51,10.54A10.53,10.53,0,0,0,358.08,282.38Z"/><path class="cls-2" d="M319,316.61a14.31,14.31,0,1,0,14.3,14.3A14.3,14.3,0,0,0,319,316.61Z"/><path class="cls-2" d="M223.92,209.68A21.15,21.15,0,1,0,245,230.82,21.12,21.12,0,0,0,223.92,209.68Z"/><path class="cls-2" d="M185.31,237.76a10.54,10.54,0,1,0,10.51,10.53A10.52,10.52,0,0,0,185.31,237.76Z"/><path class="cls-2" d="M233.72,259.4A14.31,14.31,0,1,0,248,273.71,14.31,14.31,0,0,0,233.72,259.4Z"/><path class="cls-2" d="M161,90.07a31.2,31.2,0,1,0,31.13,31.19A31.17,31.17,0,0,0,161,90.07Z"/><path class="cls-2" d="M161.23,170.87a15.55,15.55,0,1,0,15.51,15.55A15.54,15.54,0,0,0,161.23,170.87Z"/><path class="cls-2" d="M94.77,131.4a21.1,21.1,0,1,0,21.1,21.09A21.1,21.1,0,0,0,94.77,131.4Z"/><path class="cls-2" d="M197.61,341.83A21.15,21.15,0,1,0,218.71,363,21.13,21.13,0,0,0,197.61,341.83Z"/><path class="cls-2" d="M159,373.34a10.54,10.54,0,1,0,10.52,10.54A10.53,10.53,0,0,0,159,373.34Z"/><path class="cls-2" d="M207.4,391.55a14.31,14.31,0,1,0,14.3,14.31A14.31,14.31,0,0,0,207.4,391.55Z"/><path class="cls-2" d="M278.84,440.18a20,20,0,1,0,20,20A20,20,0,0,0,278.84,440.18Z"/><path class="cls-2" d="M319.18,451.14a10.54,10.54,0,1,0,10.51,10.54A10.53,10.53,0,0,0,319.18,451.14Z"/><path class="cls-2" d="M264.61,397.28a14.3,14.3,0,1,0,14.3,14.3A14.3,14.3,0,0,0,264.61,397.28Z"/><path class="cls-2" d="M176.44,543.73a20,20,0,1,0,20,20A20,20,0,0,0,176.44,543.73Z"/><path class="cls-2" d="M161.28,504.92a10.54,10.54,0,1,0,10.52,10.54A10.52,10.52,0,0,0,161.28,504.92Z"/><path class="cls-2" d="M129.6,543.73A14.3,14.3,0,1,0,143.9,558,14.3,14.3,0,0,0,129.6,543.73Z"/><path class="cls-2" d="M194.35,460a13,13,0,1,0,12.92,13A12.93,12.93,0,0,0,194.35,460Z"/><path class="cls-2" d="M184.54,434.91a6.82,6.82,0,1,0,6.8,6.82A6.81,6.81,0,0,0,184.54,434.91Z"/><path class="cls-2" d="M202.93,495.5a9.26,9.26,0,1,0,9.26,9.25A9.26,9.26,0,0,0,202.93,495.5Z"/><path class="cls-2" d="M362.37,579.24a21.15,21.15,0,1,0,21.1,21.15A21.13,21.13,0,0,0,362.37,579.24Z"/><path class="cls-2" d="M323.75,569a10.54,10.54,0,1,0,10.52,10.53A10.51,10.51,0,0,0,323.75,569Z"/><path class="cls-2" d="M372.16,543.2a14.31,14.31,0,1,0,14.3,14.3A14.3,14.3,0,0,0,372.16,543.2Z"/><path class="cls-2" d="M253.45,527.79a19.32,19.32,0,1,0,27.3,0A19.3,19.3,0,0,0,253.45,527.79Z"/><path class="cls-2" d="M276.07,583.1a8.32,8.32,0,1,0,8.94-7.63A8.31,8.31,0,0,0,276.07,583.1Z"/><path class="cls-2" d="M226.44,548.61a11.29,11.29,0,1,0,11.28,11.29A11.29,11.29,0,0,0,226.44,548.61Z"/><path class="cls-2" d="M222,40.3h126.8c54.79,0,61.65,27.6,61.65,61.65V485.82C393.33,238.24,305,91.17,222,40.3Z"/><path class="cls-2" d="M228.8,646.13H102c-41.63,3.43-62.8-17.16-61.66-55.49v-390C57.52,448.19,145.81,595.26,228.8,646.13Z"/></g></g></svg>