<svg xmlns="http://www.w3.org/2000/svg" viewBox="0 0 1086.84 762.07"><defs><style>.cls-1,.cls-13{fill:#333;}.cls-1,.cls-10,.cls-13,.cls-14,.cls-15,.cls-4,.cls-7{stroke:#3f2e1b;stroke-miterlimit:10;}.cls-1,.cls-4,.cls-7{stroke-width:36px;}.cls-2,.cls-3{fill:#4d4d4d;}.cls-12,.cls-3,.cls-6,.cls-9{opacity:0.81;isolation:isolate;}.cls-14,.cls-4{fill:#b90101;}.cls-5,.cls-6{fill:#800;}.cls-15,.cls-7{fill:#6fcd56;}.cls-8,.cls-9{fill:#55a055;}.cls-10{fill:#ba4522;}.cls-10,.cls-13,.cls-14,.cls-15{stroke-width:60px;}.cls-11,.cls-12{fill:#f15a24;}</style></defs><g id="Слой_2" data-name="Слой 2"><g id="Слой_1-2" data-name="Слой 1"><path class="cls-1" d="M416.06,641.08l243.2,86.21a59.49,59.49,0,0,0,75.94-36.2L897.57,233a59.49,59.49,0,0,0-36.19-75.95L618.18,70.87a59.49,59.49,0,0,0-75.94,36.2L379.87,565.13A59.49,59.49,0,0,0,416.06,641.08Z"/><path class="cls-2" d="M571.55,468.84a6.58,6.58,0,1,0,4,8.4A6.57,6.57,0,0,0,571.55,468.84Z"/><path class="cls-2" d="M756.72,446.81a20.4,20.4,0,1,0,12.37,26A20.39,20.39,0,0,0,756.72,446.81Z"/><path class="cls-2" d="M711.44,463a10.16,10.16,0,1,0,6.17,13A10.16,10.16,0,0,0,711.44,463Z"/><path class="cls-2" d="M749.6,495.19A13.8,13.8,0,1,0,758,512.81,13.79,13.79,0,0,0,749.6,495.19Z"/><path class="cls-3" d="M767.54,244.46A30.36,30.36,0,1,0,786,283.19,30.32,30.32,0,0,0,767.54,244.46Z"/><path class="cls-3" d="M726.77,212.44a16.56,16.56,0,1,0,10,21.12A16.53,16.53,0,0,0,726.77,212.44Z"/><path class="cls-3" d="M782.1,314.08a12.68,12.68,0,1,0,7.67,16.16A12.65,12.65,0,0,0,782.1,314.08Z"/><path class="cls-2" d="M736.67,353a20.4,20.4,0,1,0,12.37,26A20.37,20.37,0,0,0,736.67,353Z"/><path class="cls-2" d="M778.54,386.07a10.17,10.17,0,1,0,6.17,13A10.17,10.17,0,0,0,778.54,386.07Z"/><path class="cls-2" d="M731.93,404.6a13.8,13.8,0,1,0,8.4,17.61A13.8,13.8,0,0,0,731.93,404.6Z"/><path class="cls-2" d="M680,276.71a20.4,20.4,0,1,0,12.37,26A20.39,20.39,0,0,0,680,276.71Z"/><path class="cls-2" d="M635.81,289.8a10.17,10.17,0,1,0,6.16,13A10.16,10.16,0,0,0,635.81,289.8Z"/><path class="cls-2" d="M672.85,325.09a13.8,13.8,0,1,0,8.4,17.62A13.79,13.79,0,0,0,672.85,325.09Z"/><path class="cls-2" d="M661.3,147.65a30.1,30.1,0,1,0,18.25,38.4A30.06,30.06,0,0,0,661.3,147.65Z"/><path class="cls-2" d="M635.47,221.21a15,15,0,1,0,9.09,19.14A15,15,0,0,0,635.47,221.21Z"/><path class="cls-2" d="M587.76,163.89a20.35,20.35,0,1,0,12.38,26A20.36,20.36,0,0,0,587.76,163.89Z"/><path class="cls-2" d="M613.44,388.41a20.4,20.4,0,1,0,12.37,26A20.37,20.37,0,0,0,613.44,388.41Z"/><path class="cls-2" d="M568.17,404.62a10.17,10.17,0,1,0,6.16,13A10.16,10.16,0,0,0,568.17,404.62Z"/><path class="cls-2" d="M606.32,436.79a13.8,13.8,0,1,0,8.4,17.62A13.8,13.8,0,0,0,606.32,436.79Z"/><path class="cls-2" d="M655.61,504a19.32,19.32,0,1,0,11.7,24.64A19.29,19.29,0,0,0,655.61,504Z"/><path class="cls-2" d="M688.76,527a10.17,10.17,0,1,0,6.16,13A10.16,10.16,0,0,0,688.76,527Z"/><path class="cls-2" d="M656.5,460.43a13.8,13.8,0,1,0,8.4,17.62A13.82,13.82,0,0,0,656.5,460.43Z"/><path class="cls-2" d="M529.11,565.2a19.32,19.32,0,1,0,11.69,24.64A19.28,19.28,0,0,0,529.11,565.2Z"/><path class="cls-2" d="M527.83,525A10.17,10.17,0,1,0,534,538,10.17,10.17,0,0,0,527.83,525Z"/><path class="cls-2" d="M572.38,494.85A12.5,12.5,0,1,0,580,510.8,12.47,12.47,0,0,0,572.38,494.85Z"/><path class="cls-2" d="M568.74,529.87a8.93,8.93,0,1,0,5.44,11.4A8.93,8.93,0,0,0,568.74,529.87Z"/><path class="cls-2" d="M655,635.62a10.17,10.17,0,1,0,6.16,13A10.15,10.15,0,0,0,655,635.62Z"/><path class="cls-2" d="M707.27,627.81a13.8,13.8,0,1,0,8.39,17.62A13.8,13.8,0,0,0,707.27,627.81Z"/><path class="cls-2" d="M604.27,575.53a18.64,18.64,0,1,0,24.81,8.82A18.62,18.62,0,0,0,604.27,575.53Z"/><path class="cls-2" d="M606.41,633.17a8.05,8.05,0,1,0,10.63-4A8,8,0,0,0,606.41,633.17Z"/><path class="cls-2" d="M573,585.76a10.89,10.89,0,1,0,6.62,13.9A10.88,10.88,0,0,0,573,585.76Z"/><path class="cls-2" d="M732.87,122.07l115.31,40.87c49.82,17.67,47.17,45,36.19,75.95L760.62,588C824.83,357.3,792,195.09,732.87,122.07Z"/><path class="cls-2" d="M543.72,675.2,428.41,634.33c-39-10.3-51.58-35.85-38.18-70.34L516,209.3C451.76,440,484.64,602.19,543.72,675.2Z"/><path class="cls-4" d="M590.35,30H331.63A59.64,59.64,0,0,0,272,89.64V576.93a59.64,59.64,0,0,0,59.64,59.64H590.35A59.64,59.64,0,0,0,650,576.93V89.64A59.64,59.64,0,0,0,590.35,30Z"/><path class="cls-5" d="M332.88,327.71a20.46,20.46,0,1,0-20.41-20.46A20.44,20.44,0,0,0,332.88,327.71Z"/><path class="cls-5" d="M370.24,297.22A10.2,10.2,0,1,0,360.07,287,10.18,10.18,0,0,0,370.24,297.22Z"/><path class="cls-5" d="M323.41,279.6a13.84,13.84,0,1,0-13.84-13.83A13.83,13.83,0,0,0,323.41,279.6Z"/><path class="cls-6" d="M390.44,522.56a30.44,30.44,0,1,0-30.37-30.44A30.41,30.41,0,0,0,390.44,522.56Z"/><path class="cls-6" d="M439.69,539.17a16.61,16.61,0,1,0-16.53-16.61A16.57,16.57,0,0,0,439.69,539.17Z"/><path class="cls-6" d="M353.36,461.65a12.71,12.71,0,1,0-12.67-12.71A12.69,12.69,0,0,0,353.36,461.65Z"/><path class="cls-5" d="M383.24,409.62a20.46,20.46,0,1,0-20.41-20.46A20.43,20.43,0,0,0,383.24,409.62Z"/><path class="cls-5" d="M332.6,392.42a10.2,10.2,0,1,0-10.17-10.2A10.19,10.19,0,0,0,332.6,392.42Z"/><path class="cls-5" d="M370.45,359.3a13.84,13.84,0,1,0-13.84-13.84A13.84,13.84,0,0,0,370.45,359.3Z"/><path class="cls-5" d="M462.39,462.75A20.46,20.46,0,1,0,442,442.29,20.44,20.44,0,0,0,462.39,462.75Z"/><path class="cls-5" d="M499.74,435.58a10.2,10.2,0,1,0-10.17-10.19A10.18,10.18,0,0,0,499.74,435.58Z"/><path class="cls-5" d="M452.91,414.64a13.84,13.84,0,1,0-13.84-13.83A13.84,13.84,0,0,0,452.91,414.64Z"/><path class="cls-5" d="M523.27,578.46a30.18,30.18,0,1,0-30.11-30.18A30.14,30.14,0,0,0,523.27,578.46Z"/><path class="cls-5" d="M523,500.29a15,15,0,1,0-15-15.05A15,15,0,0,0,523,500.29Z"/><path class="cls-5" d="M587.33,538.48a20.41,20.41,0,1,0-20.41-20.41A20.41,20.41,0,0,0,587.33,538.48Z"/><path class="cls-5" d="M487.84,334.9a20.46,20.46,0,1,0-20.41-20.45A20.43,20.43,0,0,0,487.84,334.9Z"/><path class="cls-5" d="M525.2,304.42A10.2,10.2,0,1,0,515,294.22,10.19,10.19,0,0,0,525.2,304.42Z"/><path class="cls-5" d="M478.37,286.8A13.84,13.84,0,1,0,464.53,273,13.84,13.84,0,0,0,478.37,286.8Z"/><path class="cls-5" d="M409.25,239.75A19.37,19.37,0,1,0,390,220.38,19.34,19.34,0,0,0,409.25,239.75Z"/><path class="cls-5" d="M370.24,229.15A10.2,10.2,0,1,0,360.07,219,10.18,10.18,0,0,0,370.24,229.15Z"/><path class="cls-5" d="M423,281.26a13.84,13.84,0,1,0-13.83-13.83A13.83,13.83,0,0,0,423,281.26Z"/><path class="cls-5" d="M508.32,139.58A19.37,19.37,0,1,0,489,120.21,19.33,19.33,0,0,0,508.32,139.58Z"/><path class="cls-5" d="M523,177.13a10.2,10.2,0,1,0-10.18-10.2A10.19,10.19,0,0,0,523,177.13Z"/><path class="cls-5" d="M491,220.56A12.54,12.54,0,1,0,478.5,208,12.52,12.52,0,0,0,491,220.56Z"/><path class="cls-5" d="M500.49,244.86a6.6,6.6,0,1,0-6.59-6.6A6.6,6.6,0,0,0,500.49,244.86Z"/><path class="cls-5" d="M482.7,186.24a9,9,0,1,0-9-9A9,9,0,0,0,482.7,186.24Z"/><path class="cls-5" d="M365.81,115.19A10.2,10.2,0,1,0,355.64,105,10.19,10.19,0,0,0,365.81,115.19Z"/><path class="cls-5" d="M319,140.09a13.84,13.84,0,1,0-13.84-13.84A13.83,13.83,0,0,0,319,140.09Z"/><path class="cls-5" d="M433.82,155a18.69,18.69,0,1,0-26.4,0A18.67,18.67,0,0,0,433.82,155Z"/><path class="cls-5" d="M460,134.86A10.92,10.92,0,1,0,449,123.94,10.92,10.92,0,0,0,460,134.86Z"/><path class="cls-5" d="M463.65,626.61H341c-53,0-59.65-26.7-59.65-59.64V195.61C298,435.12,383.36,577.4,463.65,626.61Z"/><path class="cls-5" d="M457.66,40.52H580.33C620.6,37.19,641.08,57.12,640,94.2V471.51C623.37,232,538,89.73,457.66,40.52Z"/><path class="cls-7" d="M425.76,712.42l215.73-158a61.65,61.65,0,0,0,13.3-86.17L357.12,61.88A61.65,61.65,0,0,0,271,48.58l-215.73,158a61.65,61.65,0,0,0-13.3,86.17L339.59,699.12A61.65,61.65,0,0,0,425.76,712.42Z"/><path class="cls-8" d="M458.59,306.89a21.15,21.15,0,1,0,29.52,4.59A21.12,21.12,0,0,0,458.59,306.89Z"/><path class="cls-8" d="M446.06,355.13a10.54,10.54,0,1,0,14.71,2.29A10.53,10.53,0,0,0,446.06,355.13Z"/><path class="cls-8" d="M495.88,341.22a14.3,14.3,0,1,0,20,3.08A14.3,14.3,0,0,0,495.88,341.22Z"/><path class="cls-9" d="M291.56,179.57a31.46,31.46,0,1,0,43.93,6.83A31.44,31.44,0,0,0,291.56,179.57Z"/><path class="cls-9" d="M240.35,195.81a17.16,17.16,0,1,0,23.93,3.75A17.13,17.13,0,0,0,240.35,195.81Z"/><path class="cls-9" d="M359.69,207.71A13.14,13.14,0,1,0,378,210.58,13.12,13.12,0,0,0,359.69,207.71Z"/><path class="cls-8" d="M366.56,269.36A21.14,21.14,0,1,0,396.07,274,21.12,21.12,0,0,0,366.56,269.36Z"/><path class="cls-8" d="M419.29,252.77A10.54,10.54,0,1,0,434,255.05,10.52,10.52,0,0,0,419.29,252.77Z"/><path class="cls-8" d="M408,303.5a14.3,14.3,0,1,0,20,3.09A14.3,14.3,0,0,0,408,303.5Z"/><path class="cls-8" d="M268.11,273.4A21.14,21.14,0,1,0,297.62,278,21.12,21.12,0,0,0,268.11,273.4Z"/><path class="cls-8" d="M253.55,318.87a10.54,10.54,0,1,0,14.71,2.29A10.52,10.52,0,0,0,253.55,318.87Z"/><path class="cls-8" d="M305.4,307.72a14.3,14.3,0,1,0,20,3.09A14.3,14.3,0,0,0,305.4,307.72Z"/><path class="cls-8" d="M146.65,214.1a31.2,31.2,0,1,0,43.55,6.77A31.17,31.17,0,0,0,146.65,214.1Z"/><path class="cls-8" d="M194.6,279.15a15.55,15.55,0,1,0,21.71,3.37A15.52,15.52,0,0,0,194.6,279.15Z"/><path class="cls-8" d="M117.66,286.57a21.1,21.1,0,1,0,29.49,4.55A21.1,21.1,0,0,0,117.66,286.57Z"/><path class="cls-8" d="M325,395.56a21.14,21.14,0,1,0,29.51,4.58A21.12,21.12,0,0,0,325,395.56Z"/><path class="cls-8" d="M312.45,443.8a10.54,10.54,0,1,0,14.71,2.28A10.52,10.52,0,0,0,312.45,443.8Z"/><path class="cls-8" d="M362.26,429.88a14.31,14.31,0,1,0,20,3.09A14.3,14.3,0,0,0,362.26,429.88Z"/><path class="cls-8" d="M448.63,426.89a20,20,0,1,0,27.93,4.36A20,20,0,0,0,448.63,426.89Z"/><path class="cls-8" d="M487.65,411.9a10.54,10.54,0,1,0,14.7,2.28A10.52,10.52,0,0,0,487.65,411.9Z"/><path class="cls-8" d="M411.79,400.69a14.3,14.3,0,1,0,20,3.08A14.3,14.3,0,0,0,411.79,400.69Z"/><path class="cls-8" d="M427.22,570.94a20,20,0,1,0,27.93,4.36A20,20,0,0,0,427.22,570.94Z"/><path class="cls-8" d="M392.05,548.59a10.54,10.54,0,1,0,14.71,2.28A10.52,10.52,0,0,0,392.05,548.59Z"/><path class="cls-8" d="M389.43,598.62a14.3,14.3,0,1,0,20,3.08A14.31,14.31,0,0,0,389.43,598.62Z"/><path class="cls-8" d="M392.2,492.82a13,13,0,1,0,18.08,2.83A12.95,12.95,0,0,0,392.2,492.82Z"/><path class="cls-8" d="M369.44,478.37a6.82,6.82,0,1,0,9.52,1.47A6.81,6.81,0,0,0,369.44,478.37Z"/><path class="cls-8" d="M420.08,516.37a9.26,9.26,0,1,0,12.94,2A9.27,9.27,0,0,0,420.08,516.37Z"/><path class="cls-8" d="M598.19,489.71a21.14,21.14,0,1,0,29.52,4.59A21.12,21.12,0,0,0,598.19,489.71Z"/><path class="cls-8" d="M561,504.22a10.54,10.54,0,1,0,14.71,2.29A10.54,10.54,0,0,0,561,504.22Z"/><path class="cls-8" d="M584.79,454.85a14.3,14.3,0,1,0,20,3.08A14.3,14.3,0,0,0,584.79,454.85Z"/><path class="cls-8" d="M479.92,512.57a19.32,19.32,0,1,0,22-16.11A19.31,19.31,0,0,0,479.92,512.57Z"/><path class="cls-8" d="M530.85,543.82a8.32,8.32,0,1,0,2.71-11.43A8.31,8.31,0,0,0,530.85,543.82Z"/><path class="cls-8" d="M470.43,545.33a11.29,11.29,0,1,0,15.78,2.44A11.29,11.29,0,0,0,470.43,545.33Z"/><path class="cls-8" d="M166.49,137.87,268.78,62.94C313,30.56,334.83,48.77,355,76.24L581.8,385.9C421.64,196.32,263.51,129.86,166.49,137.87Z"/><path class="cls-8" d="M530,622.6,427.69,697.53c-31.56,27.37-60.8,23.27-82.53-8.33L114.67,374.57C274.82,564.15,433,630.61,530,622.6Z"/><path class="cls-10" d="M503.08,560,670.47,717.65a53,53,0,0,0,74.94-2.24l297-315.28a53,53,0,0,0-2.23-74.95L872.78,167.5a53,53,0,0,0-74.94,2.24L500.84,485A53,53,0,0,0,503.08,560Z"/><path class="cls-11" d="M691.78,475.34a5.86,5.86,0,1,0,.24,8.29A5.86,5.86,0,0,0,691.78,475.34Z"/><path class="cls-11" d="M850.72,523.9a18.18,18.18,0,1,0,.74,25.67A18.15,18.15,0,0,0,850.72,523.9Z"/><path class="cls-11" d="M808,520.85a9.06,9.06,0,1,0,.37,12.8A9,9,0,0,0,808,520.85Z"/><path class="cls-11" d="M827.53,560.79a12.3,12.3,0,1,0,.52,17.39A12.3,12.3,0,0,0,827.53,560.79Z"/><path class="cls-12" d="M932.25,362.74A27.06,27.06,0,1,0,933.34,401,27,27,0,0,0,932.25,362.74Z"/><path class="cls-12" d="M910.49,322a14.76,14.76,0,1,0,.58,20.83A14.72,14.72,0,0,0,910.49,322Z"/><path class="cls-12" d="M919.11,424.75a11.3,11.3,0,1,0,.45,15.94A11.27,11.27,0,0,0,919.11,424.75Z"/><path class="cls-11" d="M868.06,440.2a18.18,18.18,0,1,0,.74,25.68A18.16,18.16,0,0,0,868.06,440.2Z"/><path class="cls-11" d="M890.34,482.2a9.06,9.06,0,1,0,.37,12.79A9,9,0,0,0,890.34,482.2Z"/><path class="cls-11" d="M845.67,480.56a12.3,12.3,0,1,0,.52,17.38A12.3,12.3,0,0,0,845.67,480.56Z"/><path class="cls-11" d="M849.24,357.59a18.18,18.18,0,1,0,.73,25.67A18.17,18.17,0,0,0,849.24,357.59Z"/><path class="cls-11" d="M808.51,352.39a9.07,9.07,0,1,0,.37,12.8A9.06,9.06,0,0,0,808.51,352.39Z"/><path class="cls-11" d="M826.05,394.49a12.3,12.3,0,1,0,.52,17.38A12.3,12.3,0,0,0,826.05,394.49Z"/><path class="cls-11" d="M880.37,245.61a26.83,26.83,0,1,0,1.09,37.88A26.8,26.8,0,0,0,880.37,245.61Z"/><path class="cls-11" d="M832.87,296.33a13.37,13.37,0,1,0,.54,18.88A13.36,13.36,0,0,0,832.87,296.33Z"/><path class="cls-11" d="M814.55,232.43a18.15,18.15,0,1,0,.77,25.65A18.14,18.14,0,0,0,814.55,232.43Z"/><path class="cls-11" d="M754.84,424.79a18.18,18.18,0,1,0,.74,25.68A18.17,18.17,0,0,0,754.84,424.79Z"/><path class="cls-11" d="M712.09,421.74a9.06,9.06,0,1,0,.37,12.8A9.05,9.05,0,0,0,712.09,421.74Z"/><path class="cls-11" d="M731.65,461.69a12.3,12.3,0,1,0,.52,17.39A12.29,12.29,0,0,0,731.65,461.69Z"/><path class="cls-11" d="M747.7,534.25a17.22,17.22,0,1,0,.68,24.3A17.19,17.19,0,0,0,747.7,534.25Z"/><path class="cls-11" d="M766.48,564.89a9.07,9.07,0,1,0,.37,12.8A9.05,9.05,0,0,0,766.48,564.89Z"/><path class="cls-11" d="M764.09,499a12.3,12.3,0,1,0,.52,17.39A12.31,12.31,0,0,0,764.09,499Z"/><path class="cls-11" d="M622.55,538.69a17.22,17.22,0,1,0,.68,24.29A17.19,17.19,0,0,0,622.55,538.69Z"/><path class="cls-11" d="M635.94,505.45a9.07,9.07,0,1,0,.37,12.8A9.05,9.05,0,0,0,635.94,505.45Z"/><path class="cls-11" d="M683.12,496.85a11.15,11.15,0,1,0,.44,15.73A11.14,11.14,0,0,0,683.12,496.85Z"/><path class="cls-11" d="M667.57,524.11a8,8,0,1,0,.33,11.25A8,8,0,0,0,667.57,524.11Z"/><path class="cls-11" d="M699.88,641.33a9.06,9.06,0,1,0,.37,12.8A9,9,0,0,0,699.88,641.33Z"/><path class="cls-11" d="M680.14,574.11a16.62,16.62,0,1,0,17.07,16.11A16.59,16.59,0,0,0,680.14,574.11Z"/><path class="cls-11" d="M661.69,622.07a7.16,7.16,0,1,0,10.1.5A7.15,7.15,0,0,0,661.69,622.07Z"/><path class="cls-11" d="M651,571.22a9.71,9.71,0,1,0,.41,13.72A9.71,9.71,0,0,0,651,571.22Z"/><path class="cls-11" d="M947.93,250.46l79.37,74.76c34.29,32.3,22.32,53.63,2.24,74.94L803.19,640.44C938.43,475.35,969.89,331.24,947.93,250.46Z"/><path class="cls-11" d="M594.94,633.66l-79.36-74.77c-28.09-22.39-29.19-47.77-5.88-71.08l230-244.13C604.44,408.76,573,552.88,594.94,633.66Z"/><path class="cls-13" d="M416.06,641.08l243.2,86.21a59.49,59.49,0,0,0,75.94-36.2L897.57,233a59.49,59.49,0,0,0-36.19-75.95L618.18,70.87a59.49,59.49,0,0,0-75.94,36.2L379.87,565.13A59.49,59.49,0,0,0,416.06,641.08Z"/><path class="cls-2" d="M571.55,468.84a6.58,6.58,0,1,0,4,8.4A6.57,6.57,0,0,0,571.55,468.84Z"/><path class="cls-2" d="M756.72,446.81a20.4,20.4,0,1,0,12.37,26A20.39,20.39,0,0,0,756.72,446.81Z"/><path class="cls-2" d="M711.44,463a10.16,10.16,0,1,0,6.17,13A10.16,10.16,0,0,0,711.44,463Z"/><path class="cls-2" d="M749.6,495.19A13.8,13.8,0,1,0,758,512.81,13.79,13.79,0,0,0,749.6,495.19Z"/><path class="cls-3" d="M767.54,244.46A30.36,30.36,0,1,0,786,283.19,30.32,30.32,0,0,0,767.54,244.46Z"/><path class="cls-3" d="M726.77,212.44a16.56,16.56,0,1,0,10,21.12A16.53,16.53,0,0,0,726.77,212.44Z"/><path class="cls-3" d="M782.1,314.08a12.68,12.68,0,1,0,7.67,16.16A12.65,12.65,0,0,0,782.1,314.08Z"/><path class="cls-2" d="M736.67,353a20.4,20.4,0,1,0,12.37,26A20.37,20.37,0,0,0,736.67,353Z"/><path class="cls-2" d="M778.54,386.07a10.17,10.17,0,1,0,6.17,13A10.17,10.17,0,0,0,778.54,386.07Z"/><path class="cls-2" d="M731.93,404.6a13.8,13.8,0,1,0,8.4,17.61A13.8,13.8,0,0,0,731.93,404.6Z"/><path class="cls-2" d="M680,276.71a20.4,20.4,0,1,0,12.37,26A20.39,20.39,0,0,0,680,276.71Z"/><path class="cls-2" d="M635.81,289.8a10.17,10.17,0,1,0,6.16,13A10.16,10.16,0,0,0,635.81,289.8Z"/><path class="cls-2" d="M672.85,325.09a13.8,13.8,0,1,0,8.4,17.62A13.79,13.79,0,0,0,672.85,325.09Z"/><path class="cls-2" d="M661.3,147.65a30.1,30.1,0,1,0,18.25,38.4A30.06,30.06,0,0,0,661.3,147.65Z"/><path class="cls-2" d="M635.47,221.21a15,15,0,1,0,9.09,19.14A15,15,0,0,0,635.47,221.21Z"/><path class="cls-2" d="M587.76,163.89a20.35,20.35,0,1,0,12.38,26A20.36,20.36,0,0,0,587.76,163.89Z"/><path class="cls-2" d="M613.44,388.41a20.4,20.4,0,1,0,12.37,26A20.37,20.37,0,0,0,613.44,388.41Z"/><path class="cls-2" d="M568.17,404.62a10.17,10.17,0,1,0,6.16,13A10.16,10.16,0,0,0,568.17,404.62Z"/><path class="cls-2" d="M606.32,436.79a13.8,13.8,0,1,0,8.4,17.62A13.8,13.8,0,0,0,606.32,436.79Z"/><path class="cls-2" d="M655.61,504a19.32,19.32,0,1,0,11.7,24.64A19.29,19.29,0,0,0,655.61,504Z"/><path class="cls-2" d="M688.76,527a10.17,10.17,0,1,0,6.16,13A10.16,10.16,0,0,0,688.76,527Z"/><path class="cls-2" d="M656.5,460.43a13.8,13.8,0,1,0,8.4,17.62A13.82,13.82,0,0,0,656.5,460.43Z"/><path class="cls-2" d="M529.11,565.2a19.32,19.32,0,1,0,11.69,24.64A19.28,19.28,0,0,0,529.11,565.2Z"/><path class="cls-2" d="M527.83,525A10.17,10.17,0,1,0,534,538,10.17,10.17,0,0,0,527.83,525Z"/><path class="cls-2" d="M572.38,494.85A12.5,12.5,0,1,0,580,510.8,12.47,12.47,0,0,0,572.38,494.85Z"/><path class="cls-2" d="M568.74,529.87a8.93,8.93,0,1,0,5.44,11.4A8.93,8.93,0,0,0,568.74,529.87Z"/><path class="cls-2" d="M655,635.62a10.17,10.17,0,1,0,6.16,13A10.15,10.15,0,0,0,655,635.62Z"/><path class="cls-2" d="M707.27,627.81a13.8,13.8,0,1,0,8.39,17.62A13.8,13.8,0,0,0,707.27,627.81Z"/><path class="cls-2" d="M604.27,575.53a18.64,18.64,0,1,0,24.81,8.82A18.62,18.62,0,0,0,604.27,575.53Z"/><path class="cls-2" d="M606.41,633.17a8.05,8.05,0,1,0,10.63-4A8,8,0,0,0,606.41,633.17Z"/><path class="cls-2" d="M573,585.76a10.89,10.89,0,1,0,6.62,13.9A10.88,10.88,0,0,0,573,585.76Z"/><path class="cls-2" d="M732.87,122.07l115.31,40.87c49.82,17.67,47.17,45,36.19,75.95L760.62,588C824.83,357.3,792,195.09,732.87,122.07Z"/><path class="cls-2" d="M543.72,675.2,428.41,634.33c-39-10.3-51.58-35.85-38.18-70.34L516,209.3C451.76,440,484.64,602.19,543.72,675.2Z"/><path class="cls-14" d="M590.35,30H331.63A59.64,59.64,0,0,0,272,89.64V576.93a59.64,59.64,0,0,0,59.64,59.64H590.35A59.64,59.64,0,0,0,650,576.93V89.64A59.64,59.64,0,0,0,590.35,30Z"/><path class="cls-5" d="M332.88,327.71a20.46,20.46,0,1,0-20.41-20.46A20.44,20.44,0,0,0,332.88,327.71Z"/><path class="cls-5" d="M370.24,297.22A10.2,10.2,0,1,0,360.07,287,10.18,10.18,0,0,0,370.24,297.22Z"/><path class="cls-5" d="M323.41,279.6a13.84,13.84,0,1,0-13.84-13.83A13.83,13.83,0,0,0,323.41,279.6Z"/><path class="cls-6" d="M390.44,522.56a30.44,30.44,0,1,0-30.37-30.44A30.41,30.41,0,0,0,390.44,522.56Z"/><path class="cls-6" d="M439.69,539.17a16.61,16.61,0,1,0-16.53-16.61A16.57,16.57,0,0,0,439.69,539.17Z"/><path class="cls-6" d="M353.36,461.65a12.71,12.71,0,1,0-12.67-12.71A12.69,12.69,0,0,0,353.36,461.65Z"/><path class="cls-5" d="M383.24,409.62a20.46,20.46,0,1,0-20.41-20.46A20.43,20.43,0,0,0,383.24,409.62Z"/><path class="cls-5" d="M332.6,392.42a10.2,10.2,0,1,0-10.17-10.2A10.19,10.19,0,0,0,332.6,392.42Z"/><path class="cls-5" d="M370.45,359.3a13.84,13.84,0,1,0-13.84-13.84A13.84,13.84,0,0,0,370.45,359.3Z"/><path class="cls-5" d="M462.39,462.75A20.46,20.46,0,1,0,442,442.29,20.44,20.44,0,0,0,462.39,462.75Z"/><path class="cls-5" d="M499.74,435.58a10.2,10.2,0,1,0-10.17-10.19A10.18,10.18,0,0,0,499.74,435.58Z"/><path class="cls-5" d="M452.91,414.64a13.84,13.84,0,1,0-13.84-13.83A13.84,13.84,0,0,0,452.91,414.64Z"/><path class="cls-5" d="M523.27,578.46a30.18,30.18,0,1,0-30.11-30.18A30.14,30.14,0,0,0,523.27,578.46Z"/><path class="cls-5" d="M523,500.29a15,15,0,1,0-15-15.05A15,15,0,0,0,523,500.29Z"/><path class="cls-5" d="M587.33,538.48a20.41,20.41,0,1,0-20.41-20.41A20.41,20.41,0,0,0,587.33,538.48Z"/><path class="cls-5" d="M487.84,334.9a20.46,20.46,0,1,0-20.41-20.45A20.43,20.43,0,0,0,487.84,334.9Z"/><path class="cls-5" d="M525.2,304.42A10.2,10.2,0,1,0,515,294.22,10.19,10.19,0,0,0,525.2,304.42Z"/><path class="cls-5" d="M478.37,286.8A13.84,13.84,0,1,0,464.53,273,13.84,13.84,0,0,0,478.37,286.8Z"/><path class="cls-5" d="M409.25,239.75A19.37,19.37,0,1,0,390,220.38,19.34,19.34,0,0,0,409.25,239.75Z"/><path class="cls-5" d="M370.24,229.15A10.2,10.2,0,1,0,360.07,219,10.18,10.18,0,0,0,370.24,229.15Z"/><path class="cls-5" d="M423,281.26a13.84,13.84,0,1,0-13.83-13.83A13.83,13.83,0,0,0,423,281.26Z"/><path class="cls-5" d="M508.32,139.58A19.37,19.37,0,1,0,489,120.21,19.33,19.33,0,0,0,508.32,139.58Z"/><path class="cls-5" d="M523,177.13a10.2,10.2,0,1,0-10.18-10.2A10.19,10.19,0,0,0,523,177.13Z"/><path class="cls-5" d="M491,220.56A12.54,12.54,0,1,0,478.5,208,12.52,12.52,0,0,0,491,220.56Z"/><path class="cls-5" d="M500.49,244.86a6.6,6.6,0,1,0-6.59-6.6A6.6,6.6,0,0,0,500.49,244.86Z"/><path class="cls-5" d="M482.7,186.24a9,9,0,1,0-9-9A9,9,0,0,0,482.7,186.24Z"/><path class="cls-5" d="M365.81,115.19A10.2,10.2,0,1,0,355.64,105,10.19,10.19,0,0,0,365.81,115.19Z"/><path class="cls-5" d="M319,140.09a13.84,13.84,0,1,0-13.84-13.84A13.83,13.83,0,0,0,319,140.09Z"/><path class="cls-5" d="M433.82,155a18.69,18.69,0,1,0-26.4,0A18.67,18.67,0,0,0,433.82,155Z"/><path class="cls-5" d="M460,134.86A10.92,10.92,0,1,0,449,123.94,10.92,10.92,0,0,0,460,134.86Z"/><path class="cls-5" d="M463.65,626.61H341c-53,0-59.65-26.7-59.65-59.64V195.61C298,435.12,383.36,577.4,463.65,626.61Z"/><path class="cls-5" d="M457.66,40.52H580.33C620.6,37.19,641.08,57.12,640,94.2V471.51C623.37,232,538,89.73,457.66,40.52Z"/><path class="cls-15" d="M425.76,712.42l215.73-158a61.65,61.65,0,0,0,13.3-86.17L357.12,61.88A61.65,61.65,0,0,0,271,48.58l-215.73,158a61.65,61.65,0,0,0-13.3,86.17L339.59,699.12A61.65,61.65,0,0,0,425.76,712.42Z"/><path class="cls-8" d="M458.59,306.89a21.15,21.15,0,1,0,29.52,4.59A21.12,21.12,0,0,0,458.59,306.89Z"/><path class="cls-8" d="M446.06,355.13a10.54,10.54,0,1,0,14.71,2.29A10.53,10.53,0,0,0,446.06,355.13Z"/><path class="cls-8" d="M495.88,341.22a14.3,14.3,0,1,0,20,3.08A14.3,14.3,0,0,0,495.88,341.22Z"/><path class="cls-9" d="M291.56,179.57a31.46,31.46,0,1,0,43.93,6.83A31.44,31.44,0,0,0,291.56,179.57Z"/><path class="cls-9" d="M240.35,195.81a17.16,17.16,0,1,0,23.93,3.75A17.13,17.13,0,0,0,240.35,195.81Z"/><path class="cls-9" d="M359.69,207.71A13.14,13.14,0,1,0,378,210.58,13.12,13.12,0,0,0,359.69,207.71Z"/><path class="cls-8" d="M366.56,269.36A21.14,21.14,0,1,0,396.07,274,21.12,21.12,0,0,0,366.56,269.36Z"/><path class="cls-8" d="M419.29,252.77A10.54,10.54,0,1,0,434,255.05,10.52,10.52,0,0,0,419.29,252.77Z"/><path class="cls-8" d="M408,303.5a14.3,14.3,0,1,0,20,3.09A14.3,14.3,0,0,0,408,303.5Z"/><path class="cls-8" d="M268.11,273.4A21.14,21.14,0,1,0,297.62,278,21.12,21.12,0,0,0,268.11,273.4Z"/><path class="cls-8" d="M253.55,318.87a10.54,10.54,0,1,0,14.71,2.29A10.52,10.52,0,0,0,253.55,318.87Z"/><path class="cls-8" d="M305.4,307.72a14.3,14.3,0,1,0,20,3.09A14.3,14.3,0,0,0,305.4,307.72Z"/><path class="cls-8" d="M146.65,214.1a31.2,31.2,0,1,0,43.55,6.77A31.17,31.17,0,0,0,146.65,214.1Z"/><path class="cls-8" d="M194.6,279.15a15.55,15.55,0,1,0,21.71,3.37A15.52,15.52,0,0,0,194.6,279.15Z"/><path class="cls-8" d="M117.66,286.57a21.1,21.1,0,1,0,29.49,4.55A21.1,21.1,0,0,0,117.66,286.57Z"/><path class="cls-8" d="M325,395.56a21.14,21.14,0,1,0,29.51,4.58A21.12,21.12,0,0,0,325,395.56Z"/><path class="cls-8" d="M312.45,443.8a10.54,10.54,0,1,0,14.71,2.28A10.52,10.52,0,0,0,312.45,443.8Z"/><path class="cls-8" d="M362.26,429.88a14.31,14.31,0,1,0,20,3.09A14.3,14.3,0,0,0,362.26,429.88Z"/><path class="cls-8" d="M448.63,426.89a20,20,0,1,0,27.93,4.36A20,20,0,0,0,448.63,426.89Z"/><path class="cls-8" d="M487.65,411.9a10.54,10.54,0,1,0,14.7,2.28A10.52,10.52,0,0,0,487.65,411.9Z"/><path class="cls-8" d="M411.79,400.69a14.3,14.3,0,1,0,20,3.08A14.3,14.3,0,0,0,411.79,400.69Z"/><path class="cls-8" d="M427.22,570.94a20,20,0,1,0,27.93,4.36A20,20,0,0,0,427.22,570.94Z"/><path class="cls-8" d="M392.05,548.59a10.54,10.54,0,1,0,14.71,2.28A10.52,10.52,0,0,0,392.05,548.59Z"/><path class="cls-8" d="M389.43,598.62a14.3,14.3,0,1,0,20,3.08A14.31,14.31,0,0,0,389.43,598.62Z"/><path class="cls-8" d="M392.2,492.82a13,13,0,1,0,18.08,2.83A12.95,12.95,0,0,0,392.2,492.82Z"/><path class="cls-8" d="M369.44,478.37a6.82,6.82,0,1,0,9.52,1.47A6.81,6.81,0,0,0,369.44,478.37Z"/><path class="cls-8" d="M420.08,516.37a9.26,9.26,0,1,0,12.94,2A9.27,9.27,0,0,0,420.08,516.37Z"/><path class="cls-8" d="M598.19,489.71a21.14,21.14,0,1,0,29.52,4.59A21.12,21.12,0,0,0,598.19,489.71Z"/><path class="cls-8" d="M561,504.22a10.54,10.54,0,1,0,14.71,2.29A10.54,10.54,0,0,0,561,504.22Z"/><path class="cls-8" d="M584.79,454.85a14.3,14.3,0,1,0,20,3.08A14.3,14.3,0,0,0,584.79,454.85Z"/><path class="cls-8" d="M479.92,512.57a19.32,19.32,0,1,0,22-16.11A19.31,19.31,0,0,0,479.92,512.57Z"/><path class="cls-8" d="M530.85,543.82a8.32,8.32,0,1,0,2.71-11.43A8.31,8.31,0,0,0,530.85,543.82Z"/><path class="cls-8" d="M470.43,545.33a11.29,11.29,0,1,0,15.78,2.44A11.29,11.29,0,0,0,470.43,545.33Z"/><path class="cls-8" d="M166.49,137.87,268.78,62.94C313,30.56,334.83,48.77,355,76.24L581.8,385.9C421.64,196.32,263.51,129.86,166.49,137.87Z"/><path class="cls-8" d="M530,622.6,427.69,697.53c-31.56,27.37-60.8,23.27-82.53-8.33L114.67,374.57C274.82,564.15,433,630.61,530,622.6Z"/></g></g></svg>