<svg xmlns="http://www.w3.org/2000/svg" viewBox="0 0 667.73 727.87"><defs><style>.cls-1{fill:#ba4522;}.cls-1,.cls-10,.cls-4,.cls-7{stroke:#3f2e1b;stroke-miterlimit:10;stroke-width:60px;}.cls-2,.cls-3{fill:#f15a24;}.cls-12,.cls-3,.cls-6,.cls-9{opacity:0.81;isolation:isolate;}.cls-4{fill:#333;}.cls-5,.cls-6{fill:#4d4d4d;}.cls-7{fill:#b90101;}.cls-8,.cls-9{fill:#800;}.cls-10{fill:#6fcd56;}.cls-11,.cls-12{fill:#55a055;}</style></defs><g id="Слой_2" data-name="Слой 2"><g id="Слой_1-2" data-name="Слой 1"><path class="cls-1" d="M303.35,592.39l228.61,25a53,53,0,0,0,58.46-47l47-430.58a53,53,0,0,0-47-58.45l-228.6-25a53,53,0,0,0-58.46,46.95l-47,430.59A53,53,0,0,0,303.35,592.39Z"/><path class="cls-2" d="M402.94,411.15a5.86,5.86,0,1,0,5.18,6.46A5.86,5.86,0,0,0,402.94,411.15Z"/><path class="cls-2" d="M559,354.1a18.18,18.18,0,1,0,16.06,20A18.17,18.17,0,0,0,559,354.1Z"/><path class="cls-2" d="M523.09,377.43a9.06,9.06,0,1,0,8,10A9.07,9.07,0,0,0,523.09,377.43Z"/><path class="cls-2" d="M562.77,397.52a12.3,12.3,0,1,0,10.89,13.56A12.31,12.31,0,0,0,562.77,397.52Z"/><path class="cls-3" d="M527,176.37a27.05,27.05,0,1,0,23.9,29.82A27,27,0,0,0,527,176.37Z"/><path class="cls-3" d="M485.05,157a14.76,14.76,0,1,0,13,16.26A14.73,14.73,0,0,0,485.05,157Z"/><path class="cls-3" d="M553.86,233.77a11.3,11.3,0,1,0,10,12.45A11.27,11.27,0,0,0,553.86,233.77Z"/><path class="cls-2" d="M522.43,276.87a18.18,18.18,0,1,0,16.07,20A18.15,18.15,0,0,0,522.43,276.87Z"/><path class="cls-2" d="M565.52,297a9.06,9.06,0,1,0,8,10A9.05,9.05,0,0,0,565.52,297Z"/><path class="cls-2" d="M528.89,322.56a12.3,12.3,0,1,0,10.89,13.56A12.3,12.3,0,0,0,528.89,322.56Z"/><path class="cls-2" d="M457.63,222.28a18.18,18.18,0,1,0,16.06,20.05A18.17,18.17,0,0,0,457.63,222.28Z"/><path class="cls-2" d="M422,242.68a9.06,9.06,0,1,0,8,10A9.07,9.07,0,0,0,422,242.68Z"/><path class="cls-2" d="M461.36,265.71a12.3,12.3,0,1,0,10.89,13.56A12.29,12.29,0,0,0,461.36,265.71Z"/><path class="cls-2" d="M415,114.16a26.83,26.83,0,1,0,23.69,29.57A26.8,26.8,0,0,0,415,114.16Z"/><path class="cls-2" d="M407.65,183.26A13.37,13.37,0,1,0,419.46,198,13.36,13.36,0,0,0,407.65,183.26Z"/><path class="cls-2" d="M354.52,143.31a18.14,18.14,0,1,0,16.07,20A18.15,18.15,0,0,0,354.52,143.31Z"/><path class="cls-2" d="M422.8,332.8a18.18,18.18,0,1,0,16.06,20A18.16,18.16,0,0,0,422.8,332.8Z"/><path class="cls-2" d="M386.85,356.13a9.06,9.06,0,1,0,8,10A9,9,0,0,0,386.85,356.13Z"/><path class="cls-2" d="M426.53,376.22a12.3,12.3,0,1,0,10.89,13.56A12.3,12.3,0,0,0,426.53,376.22Z"/><path class="cls-2" d="M483.07,424.45a17.22,17.22,0,1,0,15.19,19A17.2,17.2,0,0,0,483.07,424.45Z"/><path class="cls-2" d="M516.52,437.59a9.06,9.06,0,1,0,8,10A9,9,0,0,0,516.52,437.59Z"/><path class="cls-2" d="M474.9,386.45A12.3,12.3,0,1,0,485.79,400,12.3,12.3,0,0,0,474.9,386.45Z"/><path class="cls-2" d="M385.87,503.42a17.22,17.22,0,1,0,15.19,19A17.19,17.19,0,0,0,385.87,503.42Z"/><path class="cls-2" d="M376.53,468.82a9.06,9.06,0,1,0,8,10A9.05,9.05,0,0,0,376.53,468.82Z"/><path class="cls-2" d="M409,433.53a11.15,11.15,0,1,0,9.83,12.29A11.12,11.12,0,0,0,409,433.53Z"/><path class="cls-2" d="M413,464.66a8,8,0,1,0,7.05,8.77A8,8,0,0,0,413,464.66Z"/><path class="cls-3" d="M541.49,551.12a18.18,18.18,0,1,0,16.06,20A18.17,18.17,0,0,0,541.49,551.12Z"/><path class="cls-2" d="M509.44,538.72a9.06,9.06,0,1,0,8,10A9.05,9.05,0,0,0,509.44,538.72Z"/><path class="cls-2" d="M553.23,521.23a12.3,12.3,0,1,0,10.89,13.56A12.29,12.29,0,0,0,553.23,521.23Z"/><path class="cls-2" d="M453.18,497a16.61,16.61,0,1,0,23.33,2.57A16.59,16.59,0,0,0,453.18,497Z"/><path class="cls-2" d="M467.36,546.37a7.15,7.15,0,1,0,8.35-5.69A7.14,7.14,0,0,0,467.36,546.37Z"/><path class="cls-2" d="M428.15,512.26a9.7,9.7,0,1,0,8.59,10.7A9.7,9.7,0,0,0,428.15,512.26Z"/><path class="cls-2" d="M471.82,77.31,580.21,89.14c46.84,5.12,50.13,29.35,46.95,58.46L591.35,475.75C599.78,262.5,538,128.54,471.82,77.31Z"/><path class="cls-2" d="M421.07,595.84,312.68,584c-35.91-1-52.08-20.53-47.52-53.19l36.39-333.41C293.12,410.65,354.87,544.61,421.07,595.84Z"/><path class="cls-4" d="M240.13,646.69l258,5.17a59.48,59.48,0,0,0,60.67-58.28l9.74-485.89A59.48,59.48,0,0,0,510.23,47l-258-5.18a59.49,59.49,0,0,0-60.67,58.28L181.84,586A59.49,59.49,0,0,0,240.13,646.69Z"/><path class="cls-5" d="M333.42,434.23a6.58,6.58,0,1,0,6.43,6.71A6.56,6.56,0,0,0,333.42,434.23Z"/><path class="cls-5" d="M502.21,355a20.4,20.4,0,1,0,19.94,20.8A20.38,20.38,0,0,0,502.21,355Z"/><path class="cls-5" d="M464.35,384.62A10.17,10.17,0,1,0,474.28,395,10.14,10.14,0,0,0,464.35,384.62Z"/><path class="cls-5" d="M510.69,403.12a13.8,13.8,0,1,0,13.52,14.08A13.8,13.8,0,0,0,510.69,403.12Z"/><path class="cls-6" d="M448.71,159.51a30.36,30.36,0,1,0,29.68,31A30.34,30.34,0,0,0,448.71,159.51Z"/><path class="cls-6" d="M399.93,142a16.56,16.56,0,1,0,16.15,16.89A16.54,16.54,0,0,0,399.93,142Z"/><path class="cls-6" d="M484.47,221a12.68,12.68,0,1,0,12.37,12.93A12.67,12.67,0,0,0,484.47,221Z"/><path class="cls-5" d="M453.62,272.28a20.4,20.4,0,1,0,19.95,20.81A20.39,20.39,0,0,0,453.62,272.28Z"/><path class="cls-5" d="M503.78,290.45a10.17,10.17,0,1,0,9.94,10.37A10.15,10.15,0,0,0,503.78,290.45Z"/><path class="cls-5" d="M465.38,322.71a13.8,13.8,0,1,0,13.52,14.08A13.81,13.81,0,0,0,465.38,322.71Z"/><path class="cls-5" d="M375.77,217.72a20.4,20.4,0,1,0,19.94,20.81A20.37,20.37,0,0,0,375.77,217.72Z"/><path class="cls-5" d="M338,244.06a10.17,10.17,0,1,0,9.94,10.37A10.15,10.15,0,0,0,338,244.06Z"/><path class="cls-5" d="M384.26,265.88A13.8,13.8,0,1,0,397.78,280,13.8,13.8,0,0,0,384.26,265.88Z"/><path class="cls-5" d="M317.37,101.12a30.1,30.1,0,1,0,29.43,30.69A30.07,30.07,0,0,0,317.37,101.12Z"/><path class="cls-5" d="M316,179.07a15,15,0,1,0,14.66,15.3A15,15,0,0,0,316,179.07Z"/><path class="cls-5" d="M252.7,139.7a20.36,20.36,0,1,0,19.94,20.77A20.38,20.38,0,0,0,252.7,139.7Z"/><path class="cls-5" d="M347.83,344.69a20.4,20.4,0,1,0,19.94,20.81A20.38,20.38,0,0,0,347.83,344.69Z"/><path class="cls-5" d="M310,374.34a10.17,10.17,0,1,0,9.94,10.37A10.15,10.15,0,0,0,310,374.34Z"/><path class="cls-5" d="M356.31,392.85a13.8,13.8,0,1,0,13.52,14.07A13.8,13.8,0,0,0,356.31,392.85Z"/><path class="cls-5" d="M424.29,441.14a19.32,19.32,0,1,0,18.86,19.7A19.29,19.29,0,0,0,424.29,441.14Z"/><path class="cls-5" d="M463,452.49a10.17,10.17,0,1,0,9.94,10.37A10.15,10.15,0,0,0,463,452.49Z"/><path class="cls-5" d="M411.39,399.48a13.8,13.8,0,1,0,13.52,14.07A13.79,13.79,0,0,0,411.39,399.48Z"/><path class="cls-5" d="M323.5,539.05a19.32,19.32,0,1,0,18.86,19.7A19.29,19.29,0,0,0,323.5,539.05Z"/><path class="cls-5" d="M309.63,501.32a10.17,10.17,0,1,0,9.94,10.36A10.15,10.15,0,0,0,309.63,501.32Z"/><path class="cls-5" d="M342.4,458.64a12.51,12.51,0,1,0,12.21,12.76A12.49,12.49,0,0,0,342.4,458.64Z"/><path class="cls-5" d="M350,493a8.93,8.93,0,1,0,8.75,9.11A8.93,8.93,0,0,0,350,493Z"/><path class="cls-6" d="M502.17,576.9a20.4,20.4,0,1,0,19.94,20.81A20.38,20.38,0,0,0,502.17,576.9Z"/><path class="cls-5" d="M465.12,566.22a10.17,10.17,0,1,0,9.94,10.37A10.16,10.16,0,0,0,465.12,566.22Z"/><path class="cls-5" d="M512.32,542.33a13.8,13.8,0,1,0,13.52,14.07A13.8,13.8,0,0,0,512.32,542.33Z"/><path class="cls-5" d="M398.09,525.16a18.64,18.64,0,1,0,26.33.56A18.62,18.62,0,0,0,398.09,525.16Z"/><path class="cls-5" d="M418.28,579.19a8.05,8.05,0,1,0,8.81-7.19A8,8,0,0,0,418.28,579.19Z"/><path class="cls-5" d="M371.64,544.73a10.89,10.89,0,1,0,10.66,11.1A10.89,10.89,0,0,0,371.64,544.73Z"/><path class="cls-5" d="M377.23,54.29l122.32,2.45c52.85,1.06,58.94,27.82,58.28,60.67l-7.43,370.3C538.64,248.55,456.31,105,377.23,54.29Z"/><path class="cls-5" d="M372,638.84l-122.31-2.45c-40.23,2.51-60.25-17.77-58.4-54.72l7.54-376.24C210.63,444.58,293,588.17,372,638.84Z"/><path class="cls-7" d="M443.9,47.19,185.28,53.84A59.64,59.64,0,0,0,127.19,115l12.53,487.12a59.64,59.64,0,0,0,61.16,58.09l258.63-6.65A59.64,59.64,0,0,0,517.6,592.4L505.06,105.28A59.64,59.64,0,0,0,443.9,47.19Z"/><path class="cls-8" d="M194.18,351.42a20.46,20.46,0,1,0-20.93-19.92A20.43,20.43,0,0,0,194.18,351.42Z"/><path class="cls-8" d="M230.74,320a10.19,10.19,0,1,0-10.43-9.93A10.18,10.18,0,0,0,230.74,320Z"/><path class="cls-8" d="M183.47,303.57a13.83,13.83,0,1,0-14.19-13.47A13.84,13.84,0,0,0,183.47,303.57Z"/><path class="cls-9" d="M256.73,544.73a30.44,30.44,0,1,0-31.14-29.65A30.4,30.4,0,0,0,256.73,544.73Z"/><path class="cls-9" d="M306.4,560.06a16.61,16.61,0,1,0-17-16.17A16.58,16.58,0,0,0,306.4,560.06Z"/><path class="cls-9" d="M218.1,484.79a12.71,12.71,0,1,0-13-12.38A12.68,12.68,0,0,0,218.1,484.79Z"/><path class="cls-8" d="M246.63,432a20.45,20.45,0,1,0-20.93-19.92A20.43,20.43,0,0,0,246.63,432Z"/><path class="cls-8" d="M195.57,416.11a10.19,10.19,0,1,0-10.43-9.93A10.18,10.18,0,0,0,195.57,416.11Z"/><path class="cls-8" d="M232.55,382a13.83,13.83,0,1,0-14.19-13.47A13.83,13.83,0,0,0,232.55,382Z"/><path class="cls-8" d="M327.12,483.08a20.46,20.46,0,1,0-20.93-19.92A20.43,20.43,0,0,0,327.12,483.08Z"/><path class="cls-8" d="M363.76,455A10.2,10.2,0,1,0,353.33,445,10.19,10.19,0,0,0,363.76,455Z"/><path class="cls-8" d="M316.41,435.24a13.84,13.84,0,1,0-14.19-13.48A13.83,13.83,0,0,0,316.41,435.24Z"/><path class="cls-8" d="M391,597.19a30.18,30.18,0,1,0-30.88-29.39A30.16,30.16,0,0,0,391,597.19Z"/><path class="cls-8" d="M388.72,519.05a15,15,0,1,0-15.4-14.65A15,15,0,0,0,388.72,519.05Z"/><path class="cls-8" d="M454,555.57A20.41,20.41,0,1,0,433,535.69,20.41,20.41,0,0,0,454,555.57Z"/><path class="cls-8" d="M349.28,354.62a20.45,20.45,0,1,0-20.93-19.92A20.43,20.43,0,0,0,349.28,354.62Z"/><path class="cls-8" d="M385.84,323.19a10.19,10.19,0,1,0-10.43-9.93A10.2,10.2,0,0,0,385.84,323.19Z"/><path class="cls-8" d="M338.57,306.78a13.83,13.83,0,1,0-14.19-13.48A13.83,13.83,0,0,0,338.57,306.78Z"/><path class="cls-8" d="M268.27,261.53a19.37,19.37,0,1,0-19.8-18.87A19.35,19.35,0,0,0,268.27,261.53Z"/><path class="cls-8" d="M229,251.93A10.19,10.19,0,1,0,218.56,242,10.18,10.18,0,0,0,229,251.93Z"/><path class="cls-8" d="M283.1,302.67a13.83,13.83,0,1,0-14.19-13.48A13.85,13.85,0,0,0,283.1,302.67Z"/><path class="cls-8" d="M364.72,158.84A19.37,19.37,0,1,0,344.93,140,19.33,19.33,0,0,0,364.72,158.84Z"/><path class="cls-8" d="M380.35,196a10.2,10.2,0,1,0-10.43-9.93A10.2,10.2,0,0,0,380.35,196Z"/><path class="cls-8" d="M349.48,240.24A12.54,12.54,0,1,0,336.67,228,12.52,12.52,0,0,0,349.48,240.24Z"/><path class="cls-8" d="M359.6,264.28a6.6,6.6,0,1,0-6.75-6.42A6.59,6.59,0,0,0,359.6,264.28Z"/><path class="cls-8" d="M340.31,206.15a9,9,0,1,0-9.18-8.73A9,9,0,0,0,340.31,206.15Z"/><path class="cls-8" d="M184,129.12A20.45,20.45,0,1,0,163.1,109.2,20.43,20.43,0,0,0,184,129.12Z"/><path class="cls-8" d="M221.63,138.12a10.19,10.19,0,1,0-10.43-9.93A10.18,10.18,0,0,0,221.63,138.12Z"/><path class="cls-8" d="M175.45,164.22a13.83,13.83,0,1,0-14.18-13.47A13.83,13.83,0,0,0,175.45,164.22Z"/><path class="cls-8" d="M290.64,176.17a18.69,18.69,0,1,0-26.39.65A18.66,18.66,0,0,0,290.64,176.17Z"/><path class="cls-8" d="M267.39,123.24a8,8,0,1,0-8.45,7.6A8,8,0,0,0,267.39,123.24Z"/><path class="cls-8" d="M316.25,155.36a10.92,10.92,0,1,0-11.2-10.63A10.92,10.92,0,0,0,316.25,155.36Z"/><path class="cls-8" d="M332.6,646.86,210,650c-53,1.37-60.31-25.16-61.16-58.09l-9.56-371.23C162,459.69,251.07,599.73,332.6,646.86Z"/><path class="cls-8" d="M311.53,61.11,434.16,58c40.17-4.36,61.16,15,61,52.13l9.71,377.18C482.11,248.27,393.07,108.24,311.53,61.11Z"/><path class="cls-10" d="M196.46,696.79l262.79-49.58a61.65,61.65,0,0,0,49.16-72L415,80.24a61.66,61.66,0,0,0-72-49.16L80.24,80.65a61.67,61.67,0,0,0-49.16,72l93.37,495A61.65,61.65,0,0,0,196.46,696.79Z"/><path class="cls-11" d="M400.94,345.05a21.15,21.15,0,1,0,24.66,16.87A21.12,21.12,0,0,0,400.94,345.05Z"/><path class="cls-11" d="M368.84,383.17a10.54,10.54,0,1,0,12.28,8.41A10.53,10.53,0,0,0,368.84,383.17Z"/><path class="cls-11" d="M419.79,392.1a14.3,14.3,0,1,0,16.7,11.4A14.3,14.3,0,0,0,419.79,392.1Z"/><path class="cls-12" d="M305.14,158.15a31.47,31.47,0,1,0,36.69,25.1A31.44,31.44,0,0,0,305.14,158.15Z"/><path class="cls-12" d="M251.93,150.73a17.16,17.16,0,1,0,20,13.69A17.12,17.12,0,0,0,251.93,150.73Z"/><path class="cls-12" d="M354.48,212.92a13.14,13.14,0,1,0,15.3,10.49A13.12,13.12,0,0,0,354.48,212.92Z"/><path class="cls-11" d="M334.09,271.5a21.15,21.15,0,1,0,24.65,16.87A21.11,21.11,0,0,0,334.09,271.5Z"/><path class="cls-11" d="M388.83,279.27a10.54,10.54,0,1,0,12.28,8.41A10.52,10.52,0,0,0,388.83,279.27Z"/><path class="cls-11" d="M356.73,320.16a14.3,14.3,0,1,0,16.71,11.4A14.3,14.3,0,0,0,356.73,320.16Z"/><path class="cls-11" d="M243.52,232.7a21.14,21.14,0,1,0,24.65,16.86A21.11,21.11,0,0,0,243.52,232.7Z"/><path class="cls-11" d="M210.78,267.45a10.54,10.54,0,1,0,12.29,8.4A10.52,10.52,0,0,0,210.78,267.45Z"/><path class="cls-11" d="M262.36,279.75a14.3,14.3,0,1,0,16.71,11.4A14.3,14.3,0,0,0,262.36,279.75Z"/><path class="cls-11" d="M159.5,126.83a31.2,31.2,0,1,0,36.37,24.88A31.15,31.15,0,0,0,159.5,126.83Z"/><path class="cls-11" d="M174.72,206.19a15.55,15.55,0,1,0,18.13,12.4A15.52,15.52,0,0,0,174.72,206.19Z"/><path class="cls-11" d="M102.1,179.71a21.1,21.1,0,1,0,24.64,16.82A21.11,21.11,0,0,0,102.1,179.71Z"/><path class="cls-11" d="M242.16,367.44a21.14,21.14,0,1,0,24.65,16.86A21.11,21.11,0,0,0,242.16,367.44Z"/><path class="cls-11" d="M210.05,405.56a10.54,10.54,0,1,0,12.29,8.4A10.54,10.54,0,0,0,210.05,405.56Z"/><path class="cls-11" d="M261,414.48a14.3,14.3,0,1,0,16.71,11.41A14.31,14.31,0,0,0,261,414.48Z"/><path class="cls-11" d="M340.22,449a20,20,0,1,0,23.32,16A20,20,0,0,0,340.22,449Z"/><path class="cls-11" d="M381.88,452.32a10.54,10.54,0,1,0,12.29,8.41A10.54,10.54,0,0,0,381.88,452.32Z"/><path class="cls-11" d="M318.28,409.5A14.3,14.3,0,1,0,335,420.9,14.31,14.31,0,0,0,318.28,409.5Z"/><path class="cls-11" d="M258.79,569.76a20,20,0,1,0,23.32,16A20,20,0,0,0,258.79,569.76Z"/><path class="cls-11" d="M236.69,534.43A10.54,10.54,0,1,0,249,542.84,10.55,10.55,0,0,0,236.69,534.43Z"/><path class="cls-11" d="M212.76,578.44a14.3,14.3,0,1,0,16.7,11.41A14.31,14.31,0,0,0,212.76,578.44Z"/><path class="cls-11" d="M260.87,484.18A13,13,0,1,0,276,494.53,12.95,12.95,0,0,0,260.87,484.18Z"/><path class="cls-11" d="M246.57,461.32a6.82,6.82,0,1,0,8,5.44A6.82,6.82,0,0,0,246.57,461.32Z"/><path class="cls-11" d="M275.87,517.45a9.26,9.26,0,1,0,10.81,7.38A9.27,9.27,0,0,0,275.87,517.45Z"/><path class="cls-11" d="M448.07,570.19a21.15,21.15,0,1,0,24.66,16.87A21.13,21.13,0,0,0,448.07,570.19Z"/><path class="cls-11" d="M408.22,567.23a10.54,10.54,0,1,0,12.28,8.41A10.53,10.53,0,0,0,408.22,567.23Z"/><path class="cls-11" d="M451,533a14.3,14.3,0,1,0,16.7,11.4A14.31,14.31,0,0,0,451,533Z"/><path class="cls-11" d="M331.51,539.82a19.32,19.32,0,1,0,26.82-5A19.3,19.3,0,0,0,331.51,539.82Z"/><path class="cls-11" d="M364,590a8.32,8.32,0,1,0,7.37-9.15A8.31,8.31,0,0,0,364,590Z"/><path class="cls-11" d="M308.82,565.29a11.29,11.29,0,1,0,13.18,9A11.29,11.29,0,0,0,308.82,565.29Z"/><path class="cls-11" d="M210.27,66.6l124.6-23.5c53.84-10.16,65.7,15.69,72,49.15L478,469.46C415.28,229.36,301.26,101.2,210.27,66.6Z"/><path class="cls-11" d="M329.22,660.68,204.63,684.19c-40.28,11.09-64.9-5.23-70.88-43.11L61.45,257.82C124.21,497.92,238.23,626.08,329.22,660.68Z"/></g></g></svg>