<svg xmlns="http://www.w3.org/2000/svg" viewBox="0 0 720 1132"><defs><style>.cls-1{fill:#eac18f;}.cls-1,.cls-2{stroke:#3f2e1b;stroke-miterlimit:10;stroke-width:36px;}.cls-2{fill:#1e1412;}.cls-3{fill:#997858;}</style></defs><title>Ресурс 10</title><g id="Слой_2" data-name="Слой 2"><g id="Слой_1-2" data-name="Слой 1"><rect class="cls-1" x="18" y="18" width="683" height="1096" rx="107.77" ry="107.77"/><path class="cls-2" d="M594.33,929H126.87A107.77,107.77,0,0,1,21.65,844.43l-2.65.19v156.61A107.77,107.77,0,0,0,126.77,1109H594.23A107.77,107.77,0,0,0,702,1001.23V825.74A107.77,107.77,0,0,1,594.33,929Z"/><path class="cls-3" d="M104.5,38H201a1,1,0,0,1,1,1V910a1,1,0,0,1-1,1H119.5A83.5,83.5,0,0,1,36,827.5v-721A68.5,68.5,0,0,1,104.5,38Z"/><path class="cls-3" d="M602.5,38H684a1,1,0,0,1,1,1V910a1,1,0,0,1-1,1H587.5A68.5,68.5,0,0,1,519,842.5v-721A83.5,83.5,0,0,1,602.5,38Z" transform="translate(1204 949) rotate(-180)"/></g></g></svg>