<svg xmlns="http://www.w3.org/2000/svg" viewBox="0 0 719 1132"><defs><style>.cls-1{fill:#eac18f;stroke-width:36px;}.cls-1,.cls-2,.cls-3{stroke:#3f2e1b;}.cls-1,.cls-2,.cls-3,.cls-4{stroke-miterlimit:10;}.cls-2,.cls-3{fill:#3f2e1b;}.cls-2{stroke-width:2px;}.cls-3,.cls-4{stroke-width:3px;}.cls-4{fill:none;stroke:#704f1b;}</style></defs><g id="Слой_2" data-name="Слой 2"><g id="Слой_1-2" data-name="Слой 1"><rect class="cls-1" x="18" y="18" width="683" height="1096" rx="107.77" transform="translate(719 1132) rotate(-180)"/><polygon class="cls-2" points="347 291 353.93 262 392 272.92 347 291"/><rect class="cls-2" x="337.7" y="272.77" width="87.1" height="83.19" transform="translate(708.07 684.98) rotate(-170.92)"/><rect class="cls-2" x="325.5" y="251.5" width="133" height="21" rx="10.5" transform="translate(696.53 621.96) rotate(-163.99)"/><ellipse class="cls-2" cx="331.25" cy="268.75" rx="24.75" ry="22.25"/><polygon class="cls-2" points="347.5 290.5 331.5 341.5 311.5 290.5 347.5 290.5"/><polygon class="cls-2" points="418 361.62 406.68 402 319.5 348.5 418 361.62"/><ellipse class="cls-2" cx="349" cy="395.5" rx="19.5" ry="19"/><polygon class="cls-2" points="470.5 456.5 350.26 407.5 246.5 464.5 470.5 456.5"/><polygon class="cls-2" points="462.96 456.77 404.5 621.5 315.5 625.5 243.5 464.5 462.96 456.77"/><polygon class="cls-2" points="473.5 456.5 482.5 551.5 455.5 562.5 417.5 473.5 473.5 456.5"/><path class="cls-2" d="M482.5,552.5c2,4,5,30,5,36-7,4-15,6-23,7,0,0-11-27-8-31l5-20Z"/><polygon class="cls-2" points="241.5 468.5 231.06 529.74 276.29 564.5 292.5 497.5 243.5 464.5 241.5 468.5"/><line class="cls-3" x1="367" y1="407" x2="334.5" y2="408.5"/><line class="cls-3" x1="346.07" y1="392.17" x2="355.43" y2="423.33"/><line class="cls-3" x1="477" y1="541.72" x2="449.5" y2="542.99"/><line class="cls-3" x1="459.29" y1="529.17" x2="467.21" y2="555.54"/><path class="cls-2" d="M274.5,565.5l-11,32s-5,12-34-10c0-12,2-57,2-57l28-3,15,36.63"/><g id="Правая_рука" data-name="Правая рука"><rect class="cls-2" x="475.26" y="597.03" width="17.23" height="36.69" rx="6" transform="translate(1137.51 1046.15) rotate(161.57)"/><rect class="cls-2" x="499.5" y="630.5" width="8" height="21" rx="4" transform="translate(1227.38 1015.68) rotate(155.52)"/><rect class="cls-2" x="494.5" y="635.5" width="5" height="19" rx="2.5" transform="matrix(-0.94, 0.34, -0.34, -0.94, 1181.98, 1085.26)"/><rect class="cls-2" x="486.5" y="637.5" width="7" height="23" rx="3.5" transform="translate(1098.46 1188.52) rotate(168.62)"/><rect class="cls-2" x="475.5" y="629.5" width="9" height="19" rx="4.5" transform="translate(824.12 1360.32) rotate(-168.59)"/><ellipse class="cls-2" cx="490.5" cy="631.5" rx="12" ry="10"/></g><g id="Левая_рука" data-name="Левая рука"><path class="cls-2" d="M245.28,638.67l-6.25.26c-3.75.16-6.91-2.41-7-5.71L231.09,608c-.12-3.3,2.85-6.13,6.61-6.29l6.24-.26c3.75-.16,6.92,2.41,7,5.72l.91,25.27C252,635.69,249,638.52,245.28,638.67Z"/><path class="cls-2" d="M232,664.53h-.14a4.3,4.3,0,0,1-3.87-4.69l1-14.76a4.37,4.37,0,0,1,4.49-4.17h.13a4.29,4.29,0,0,1,3.87,4.69l-1,14.76A4.36,4.36,0,0,1,232,664.53Z"/><path class="cls-2" d="M241,664.49h-.08a2.68,2.68,0,0,1-2.68-2.68L238,646.16a2.72,2.72,0,0,1,2.59-2.8h.09a2.67,2.67,0,0,1,2.67,2.68l.24,15.66A2.72,2.72,0,0,1,241,664.49Z"/><path class="cls-2" d="M251.12,667.56l-.11,0a3.68,3.68,0,0,1-4.15-3.13l-2.81-17.39a3.71,3.71,0,0,1,2.94-4.31h.11a3.67,3.67,0,0,1,4.15,3.13l2.82,17.38A3.72,3.72,0,0,1,251.12,667.56Z"/><path class="cls-2" d="M263.37,648.61l-.12.11a5,5,0,0,1-7.07-.3l-7.4-8.38a5,5,0,0,1,.6-7l.12-.1a5,5,0,0,1,7.08.3l7.4,8.37A5,5,0,0,1,263.37,648.61Z"/><ellipse class="cls-2" cx="242.09" cy="637.84" rx="12.32" ry="10.16" transform="translate(-208.58 125.64) rotate(-20.56)"/></g><line class="cls-3" x1="270" y1="523.72" x2="242.5" y2="524.99"/><line class="cls-3" x1="252.29" y1="511.17" x2="260.21" y2="537.54"/><rect class="cls-2" x="314.5" y="622.5" width="97" height="13" rx="6.5" transform="translate(726 1258) rotate(180)"/><path class="cls-2" d="M382.5,614.5l29,21,27,112s13,21-48,5c-7-22-30-120-30-120Z"/><path class="cls-2" d="M372.5,628.5s-11.17,124.72-26,127c-13,2-3.83,13-40.67-8.45a7.28,7.28,0,0,1-3.53-7.45c3.48-21.28,16.94-104.74,15.2-109.1-2-5,27-19,27-19Z"/><polygon class="cls-2" points="416.5 730.5 428.5 744.5 454.5 852.5 414.5 852.5 394.5 743.5 416.5 730.5"/><polygon class="cls-2" points="329.5 727.5 340.74 751.05 317.5 848.5 290.5 848.5 311.5 737.14 329.5 727.5"/><path class="cls-3" d="M292.3,838.94l31.2-.44,42,33s3,6-7,8-35,0-35,0l-39-33S283.11,839.38,292.3,838.94Z"/><polygon class="cls-3" points="413 832 421.46 857.19 454 845 451 832 413 832"/><path class="cls-3" d="M423.17,844.94l38.28-.29L513,865.8s3.68,3.85-8.59,5.13-42.94,0-42.94,0l-47.86-21.15S411.88,845.22,423.17,844.94Z"/><rect class="cls-3" x="413" y="852" width="54" height="19" transform="translate(880 1723) rotate(-180)"/><line class="cls-4" x1="663.33" y1="44.35" x2="18.33" y2="384.35"/><line class="cls-4" x1="701.33" y1="464.35" x2="18.33" y2="838.35"/><line class="cls-4" x1="701.33" y1="871.35" x2="243.33" y2="1114.35"/></g></g></svg>