<svg width="719" height="1132" viewBox="0 0 719 1132" fill="none" xmlns="http://www.w3.org/2000/svg">
<path d="M125.77 18H593.23C652.75 18 701 66.2503 701 125.77V1006.23C701 1065.75 652.75 1114 593.23 1114H125.77C66.2504 1114 18.0001 1065.75 18.0001 1006.23V125.77C18.0001 66.2503 66.2504 18 125.77 18Z" fill="#EAC18F" stroke="#3F2E1B" stroke-width="36" stroke-miterlimit="10"/>
<path d="M347 291L353.93 262L392 272.92L347 291Z" fill="#3F2E1B" stroke="#3F2E1B" stroke-width="2" stroke-miterlimit="10"/>
<path d="M344.831 266.448L430.84 280.193L417.711 362.341L331.703 348.595L344.831 266.448Z" fill="#3F2E1B" stroke="#3F2E1B" stroke-width="2" stroke-miterlimit="10"/>
<path d="M341.07 236.472L448.726 267.362C454.3 268.961 457.522 274.777 455.923 280.351C454.324 285.925 448.508 289.147 442.934 287.548L335.278 256.657C329.704 255.058 326.482 249.243 328.082 243.669C329.681 238.095 335.496 234.873 341.07 236.472Z" fill="#3F2E1B" stroke="#3F2E1B" stroke-width="2" stroke-miterlimit="10"/>
<path d="M331.25 291C317.581 291 306.5 281.038 306.5 268.75C306.5 256.462 317.581 246.5 331.25 246.5C344.919 246.5 356 256.462 356 268.75C356 281.038 344.919 291 331.25 291Z" fill="#3F2E1B" stroke="#3F2E1B" stroke-width="2" stroke-miterlimit="10"/>
<path d="M347.5 290.5L331.5 341.5L311.5 290.5H347.5Z" fill="#3F2E1B" stroke="#3F2E1B" stroke-width="2" stroke-miterlimit="10"/>
<path d="M418 361.62L406.68 402L319.5 348.5L418 361.62Z" fill="#3F2E1B" stroke="#3F2E1B" stroke-width="2" stroke-miterlimit="10"/>
<path d="M349 414.5C338.231 414.5 329.5 405.993 329.5 395.5C329.5 385.007 338.231 376.5 349 376.5C359.77 376.5 368.5 385.007 368.5 395.5C368.5 405.993 359.77 414.5 349 414.5Z" fill="#3F2E1B" stroke="#3F2E1B" stroke-width="2" stroke-miterlimit="10"/>
<path d="M470.5 456.5L350.26 407.5L246.5 464.5L470.5 456.5Z" fill="#3F2E1B" stroke="#3F2E1B" stroke-width="2" stroke-miterlimit="10"/>
<path d="M462.96 456.77L404.5 621.5L315.5 625.5L243.5 464.5L462.96 456.77Z" fill="#3F2E1B" stroke="#3F2E1B" stroke-width="2" stroke-miterlimit="10"/>
<path d="M473.5 456.5L482.5 551.5L455.5 562.5L417.5 473.5L473.5 456.5Z" fill="#3F2E1B" stroke="#3F2E1B" stroke-width="2" stroke-miterlimit="10"/>
<path d="M482.5 552.5C484.5 556.5 487.5 582.5 487.5 588.5C480.5 592.5 472.5 594.5 464.5 595.5C464.5 595.5 453.5 568.5 456.5 564.5L461.5 544.5L482.5 552.5Z" fill="#3F2E1B" stroke="#3F2E1B" stroke-width="2" stroke-miterlimit="10"/>
<path d="M241.5 468.5L231.06 529.74L276.29 564.5L292.5 497.5L243.5 464.5L241.5 468.5Z" fill="#3F2E1B" stroke="#3F2E1B" stroke-width="2" stroke-miterlimit="10"/>
<path d="M367 407L334.5 408.5" stroke="#3F2E1B" stroke-width="3" stroke-miterlimit="10"/>
<path d="M346.07 392.17L355.43 423.33" stroke="#3F2E1B" stroke-width="3" stroke-miterlimit="10"/>
<path d="M477 541.72L449.5 542.99" stroke="#3F2E1B" stroke-width="3" stroke-miterlimit="10"/>
<path d="M459.29 529.17L467.21 555.54" stroke="#3F2E1B" stroke-width="3" stroke-miterlimit="10"/>
<path d="M274.5 565.5L263.5 597.5C263.5 597.5 258.5 609.5 229.5 587.5C229.5 575.5 231.5 530.5 231.5 530.5L259.5 527.5L274.5 564.13" fill="#3F2E1B"/>
<path d="M274.5 565.5L263.5 597.5C263.5 597.5 258.5 609.5 229.5 587.5C229.5 575.5 231.5 530.5 231.5 530.5L259.5 527.5L274.5 564.13" stroke="#3F2E1B" stroke-width="2" stroke-miterlimit="10"/>
<path d="M475.533 598.792L480.494 597.139C483.638 596.091 487.036 597.791 488.084 600.934L495.889 624.358C496.937 627.502 495.238 630.899 492.094 631.947L487.132 633.601C483.988 634.648 480.59 632.949 479.543 629.805L471.737 606.382C470.69 603.238 472.389 599.84 475.533 598.792Z" fill="#3F2E1B" stroke="#3F2E1B" stroke-width="2" stroke-miterlimit="10"/>
<path d="M497.113 636.748C496.198 634.737 497.085 632.365 499.096 631.45C501.107 630.534 503.479 631.422 504.394 633.433L509.781 645.264C510.696 647.275 509.808 649.647 507.798 650.562C505.787 651.477 503.415 650.59 502.5 648.579L497.113 636.748Z" fill="#3F2E1B" stroke="#3F2E1B" stroke-width="2" stroke-miterlimit="10"/>
<path d="M492.246 639.249C491.782 637.949 492.46 636.518 493.76 636.054C495.061 635.59 496.491 636.267 496.955 637.568L501.663 650.752C502.127 652.053 501.45 653.483 500.149 653.948C498.849 654.412 497.419 653.734 496.954 652.434L492.246 639.249Z" fill="#3F2E1B" stroke="#3F2E1B" stroke-width="2" stroke-miterlimit="10"/>
<path d="M484.95 641.844C484.569 639.949 485.796 638.103 487.691 637.722C489.586 637.341 491.431 638.568 491.812 640.463L494.969 656.148C495.351 658.043 494.124 659.888 492.229 660.27C490.334 660.651 488.489 659.424 488.107 657.529L484.95 641.844Z" fill="#3F2E1B" stroke="#3F2E1B" stroke-width="2" stroke-miterlimit="10"/>
<path d="M476.569 633.199C477.061 630.763 479.434 629.186 481.871 629.678C484.307 630.17 485.883 632.543 485.391 634.979L483.413 644.782C482.921 647.218 480.548 648.794 478.112 648.303C475.676 647.811 474.099 645.437 474.591 643.001L476.569 633.199Z" fill="#3F2E1B" stroke="#3F2E1B" stroke-width="2" stroke-miterlimit="10"/>
<path d="M490.5 641.5C483.873 641.5 478.5 637.023 478.5 631.5C478.5 625.977 483.873 621.5 490.5 621.5C497.128 621.5 502.5 625.977 502.5 631.5C502.5 637.023 497.128 641.5 490.5 641.5Z" fill="#3F2E1B" stroke="#3F2E1B" stroke-width="2" stroke-miterlimit="10"/>
<path d="M245.28 638.67L239.03 638.93C235.28 639.09 232.12 636.52 232.03 633.22L231.12 607.95C231 604.65 233.97 601.82 237.73 601.66L243.97 601.4C247.72 601.24 250.89 603.81 250.97 607.12L251.88 632.39C252 635.69 249 638.52 245.28 638.67Z" fill="#3F2E1B" stroke="#3F2E1B" stroke-width="2" stroke-miterlimit="10"/>
<path d="M232 664.53H231.86C230.725 664.421 229.68 663.866 228.954 662.986C228.228 662.107 227.881 660.975 227.99 659.84L228.99 645.08C229.042 643.935 229.542 642.856 230.382 642.076C231.222 641.296 232.334 640.877 233.48 640.91H233.61C234.173 640.963 234.719 641.126 235.219 641.39C235.718 641.655 236.16 642.015 236.52 642.451C236.879 642.887 237.149 643.389 237.314 643.93C237.479 644.47 237.535 645.038 237.48 645.6L236.48 660.36C236.431 661.504 235.933 662.583 235.095 663.363C234.257 664.143 233.145 664.563 232 664.53V664.53Z" fill="#3F2E1B" stroke="#3F2E1B" stroke-width="2" stroke-miterlimit="10"/>
<path d="M241 664.49H240.92C240.209 664.49 239.528 664.208 239.025 663.705C238.522 663.202 238.24 662.521 238.24 661.81L238.01 646.16C237.988 645.447 238.248 644.754 238.732 644.23C239.217 643.706 239.887 643.394 240.6 643.36H240.69C241.042 643.36 241.39 643.429 241.714 643.564C242.039 643.699 242.334 643.897 242.582 644.146C242.83 644.395 243.026 644.69 243.16 645.015C243.293 645.34 243.361 645.689 243.36 646.04L243.6 661.7C243.619 662.413 243.357 663.105 242.871 663.627C242.385 664.149 241.713 664.459 241 664.49Z" fill="#3F2E1B" stroke="#3F2E1B" stroke-width="2" stroke-miterlimit="10"/>
<path d="M251.12 667.56H251.01C250.045 667.694 249.066 667.44 248.288 666.853C247.51 666.266 246.996 665.395 246.86 664.43L244 647.06C243.824 646.099 244.034 645.108 244.585 644.301C245.135 643.494 245.981 642.937 246.94 642.75H247.05C247.528 642.682 248.015 642.71 248.483 642.83C248.95 642.951 249.389 643.163 249.775 643.454C250.16 643.744 250.485 644.108 250.729 644.525C250.974 644.941 251.134 645.402 251.2 645.88L254.02 663.26C254.192 664.213 253.985 665.196 253.443 665.999C252.901 666.802 252.068 667.362 251.12 667.56V667.56Z" fill="#3F2E1B" stroke="#3F2E1B" stroke-width="2" stroke-miterlimit="10"/>
<path d="M263.37 648.61L263.25 648.72C262.766 649.165 262.2 649.51 261.582 649.736C260.965 649.962 260.31 650.064 259.653 650.036C258.996 650.008 258.352 649.851 257.756 649.574C257.16 649.296 256.624 648.904 256.18 648.42L248.78 640.04C247.94 639.029 247.531 637.727 247.643 636.417C247.756 635.107 248.38 633.893 249.38 633.04L249.5 632.94C249.984 632.494 250.551 632.147 251.17 631.92C251.788 631.694 252.445 631.591 253.102 631.619C253.76 631.647 254.406 631.805 255.003 632.083C255.6 632.361 256.136 632.754 256.58 633.24L263.98 641.61C264.82 642.623 265.226 643.925 265.112 645.235C264.998 646.545 264.372 647.758 263.37 648.61Z" fill="#3F2E1B" stroke="#3F2E1B" stroke-width="2" stroke-miterlimit="10"/>
<path d="M230.557 642.175C228.586 636.922 232.153 630.725 238.524 628.336C244.895 625.946 251.657 628.268 253.627 633.522C255.598 638.776 252.031 644.972 245.66 647.362C239.29 649.751 232.528 647.429 230.557 642.175Z" fill="#3F2E1B" stroke="#3F2E1B" stroke-width="2" stroke-miterlimit="10"/>
<path d="M270 523.72L242.5 524.99" stroke="#3F2E1B" stroke-width="3" stroke-miterlimit="10"/>
<path d="M252.29 511.17L260.21 537.54" stroke="#3F2E1B" stroke-width="3" stroke-miterlimit="10"/>
<path d="M321 622.5H405C408.59 622.5 411.5 625.41 411.5 629C411.5 632.59 408.59 635.5 405 635.5H321C317.41 635.5 314.5 632.59 314.5 629C314.5 625.41 317.41 622.5 321 622.5Z" fill="#3F2E1B" stroke="#3F2E1B" stroke-width="2" stroke-miterlimit="10"/>
<path d="M382.5 614.5L411.5 635.5L438.5 747.5C438.5 747.5 451.5 768.5 390.5 752.5C383.5 730.5 360.5 632.5 360.5 632.5L382.5 614.5Z" fill="#3F2E1B" stroke="#3F2E1B" stroke-width="2" stroke-miterlimit="10"/>
<path d="M372.5 628.5C372.5 628.5 361.33 753.22 346.5 755.5C333.5 757.5 342.67 768.5 305.83 747.05C304.558 746.311 303.539 745.203 302.909 743.873C302.279 742.543 302.066 741.053 302.3 739.6C305.78 718.32 319.24 634.86 317.5 630.5C315.5 625.5 344.5 611.5 344.5 611.5L372.5 628.5Z" fill="#3F2E1B" stroke="#3F2E1B" stroke-width="2" stroke-miterlimit="10"/>
<path d="M416.5 730.5L428.5 744.5L454.5 852.5H414.5L394.5 743.5L416.5 730.5Z" fill="#3F2E1B" stroke="#3F2E1B" stroke-width="2" stroke-miterlimit="10"/>
<path d="M329.5 727.5L340.74 751.05L317.5 848.5H290.5L311.5 737.14L329.5 727.5Z" fill="#3F2E1B" stroke="#3F2E1B" stroke-width="2" stroke-miterlimit="10"/>
<path d="M292.3 838.94L323.5 838.5L365.5 871.5C365.5 871.5 368.5 877.5 358.5 879.5C348.5 881.5 323.5 879.5 323.5 879.5L284.5 846.5C284.5 846.5 283.11 839.38 292.3 838.94Z" fill="#3F2E1B" stroke="#3F2E1B" stroke-width="3" stroke-miterlimit="10"/>
<path d="M413 832L421.46 857.19L454 845L451 832H413Z" fill="#3F2E1B" stroke="#3F2E1B" stroke-width="3" stroke-miterlimit="10"/>
<path d="M423.17 844.94L461.45 844.65L513 865.8C513 865.8 516.68 869.65 504.41 870.93C492.14 872.21 461.47 870.93 461.47 870.93L413.61 849.78C413.61 849.78 411.88 845.22 423.17 844.94Z" fill="#3F2E1B" stroke="#3F2E1B" stroke-width="3" stroke-miterlimit="10"/>
<path d="M413 852H467V871H413V852Z" fill="#3F2E1B" stroke="#3F2E1B" stroke-width="3" stroke-miterlimit="10"/>
<path d="M663.33 44.3501L18.3301 384.35" stroke="#704F1B" stroke-width="3" stroke-miterlimit="10"/>
<path d="M701.33 464.35L18.3301 838.35" stroke="#704F1B" stroke-width="3" stroke-miterlimit="10"/>
<path d="M701.33 871.35L243.33 1114.35" stroke="#704F1B" stroke-width="3" stroke-miterlimit="10"/>
</svg>
