<svg xmlns="http://www.w3.org/2000/svg" viewBox="0 0 719 1132"><defs><style>.cls-1{fill:#6fcd56;stroke:#3f2e1b;stroke-width:36px;}.cls-1,.cls-8{stroke-miterlimit:10;}.cls-2,.cls-3{fill:#55a055;}.cls-3{opacity:0.81;}.cls-4{fill:#800;}.cls-5{fill:#b90101;}.cls-6{fill:#d33;}.cls-7{fill:#ffc9c9;}.cls-8{fill:#703c00;stroke:#260704;stroke-width:3px;}.cls-9{fill:#885516;}.cls-10{fill:#560000;}.cls-11{fill:#fff;}.cls-12{fill:#107400;}.cls-13{fill:#329900;}.cls-14{fill:#003700;}</style></defs><g id="Слой_2" data-name="Слой 2"><g id="Слой_1-2" data-name="Слой 1"><rect class="cls-1" x="18" y="18" width="683" height="1096" rx="107.77"/><ellipse class="cls-2" cx="128.02" cy="518.96" rx="36.88" ry="36.96"/><ellipse class="cls-2" cx="195.52" cy="482.42" rx="18.38" ry="18.42"/><circle class="cls-2" cx="110.9" cy="444" r="25"/><ellipse class="cls-3" cx="232.02" cy="853" rx="54.88" ry="55"/><ellipse class="cls-3" cx="321.02" cy="908" rx="29.88" ry="30"/><ellipse class="cls-3" cx="165.02" cy="774.97" rx="22.88" ry="22.97"/><ellipse class="cls-2" cx="219.02" cy="666.96" rx="36.88" ry="36.96"/><ellipse class="cls-2" cx="127.52" cy="654.42" rx="18.38" ry="18.42"/><circle class="cls-2" cx="195.9" cy="588" r="25"/><ellipse class="cls-2" cx="362.02" cy="762.96" rx="36.88" ry="36.96"/><ellipse class="cls-2" cx="429.52" cy="732.42" rx="18.38" ry="18.42"/><circle class="cls-2" cx="344.9" cy="688" r="25"/><ellipse class="cls-2" cx="472.03" cy="954.47" rx="54.41" ry="54.53"/><ellipse class="cls-2" cx="471.61" cy="840.57" rx="27.12" ry="27.18"/><circle class="cls-2" cx="587.78" cy="899.88" r="36.88"/><ellipse class="cls-2" cx="408.02" cy="531.96" rx="36.88" ry="36.96"/><ellipse class="cls-2" cx="475.52" cy="495.42" rx="18.38" ry="18.42"/><circle class="cls-2" cx="390.9" cy="457" r="25"/><ellipse class="cls-2" cx="266.02" cy="362" rx="34.88" ry="35"/><ellipse class="cls-2" cx="195.52" cy="359.42" rx="18.38" ry="18.42"/><circle class="cls-2" cx="290.9" cy="447" r="25"/><ellipse class="cls-2" cx="445.02" cy="181" rx="34.88" ry="35"/><ellipse class="cls-2" cx="471.52" cy="265.42" rx="18.38" ry="18.42"/><circle class="cls-2" cx="526.9" cy="191" r="25"/><path class="cls-4" d="M528.2,581.44c0,44.69-15.41,85-40.12,113.53-12.76,31.94-42,54.25-76,54.25a76.87,76.87,0,0,1-38.17-10.14,87.8,87.8,0,0,1-43.88,12c-39.94,0-75.11-28.1-95.8-70.84C213,653.49,200,617.39,200,577.75a178.75,178.75,0,0,1,3.68-36.14c.82,80.35,60.7,146.32,137.58,155,5.06-2.81,12.58-4.54,21-4.54,7.63,0,14.49,1.44,19.5,3.76C456.33,684.47,513.45,619,513.45,540a159.19,159.19,0,0,0-6.16-44C520.53,520.52,528.2,549.87,528.2,581.44Z"/><path class="cls-5" d="M513.45,540c0,79-57.12,144.52-131.68,155.87-5-2.32-11.87-3.76-19.5-3.76-8.41,0-15.93,1.73-21,4.54-76.88-8.67-136.76-74.64-137.58-155,13.57-65,62.91-113.2,121.69-113.2a106.2,106.2,0,0,1,31.75,4.83,108,108,0,0,1,42-8.52c45.28,0,85.14,28.32,108.15,71.2A159.19,159.19,0,0,1,513.45,540Z"/><path class="cls-6" d="M249.8,485.56C242.42,504,212.92,592.5,275.61,658.87c7.37-77.43,55.31-129.06,55.31-129.06Z"/><polygon class="cls-6" points="271.92 492.94 341.98 522.44 353.05 511.38 271.92 492.94"/><path class="cls-7" d="M389.92,500.31c7.38-3.68,36.88-22.12,47.94-22.12S412.05,504,404.67,504H393.61Z"/><path class="cls-7" d="M441.55,470.81s0-18.43,14.75-18.43c3.68,7.37,0,14.75,0,14.75l-7.38,7.37Z"/><path class="cls-7" d="M415.73,437.63l25.82,14.75s11.06-3.69-3.69-11.07Z"/><path class="cls-4" d="M286.67,467.13s66.38,11.06,73.75,14.75c7.38-7.38,51.63-25.82,55.31-25.82s-59-14.75-125.37,7.38"/><path class="cls-7" d="M253.49,496.63s-25.82,70.06,3.68,110.62c0-33.19,25.81-92.19,25.81-92.19"/><path class="cls-8" d="M363.09,476.34c17.41-62.68,45.27-81.12,45.27-81.12l-20.9-18.44s-41.79,25.81-41.79,95.88"/><path class="cls-9" d="M386.7,386.34a33.86,33.86,0,0,0-5.3,5.85l-5.13,6.52c-1.79,2.28-3.6,4.55-5.38,6.84a20,20,0,0,0-3.52,5.88c-.84,2.55-.56,5.32-1.38,7.88-.74,2.31-2.49,4.06-3.72,6.1a17.45,17.45,0,0,0-2.08,7.14c-.27,2.24-.15,4.56-.58,6.78-.48,2.48-2.12,4-3.62,5.9a8,8,0,0,0-1.88,5.61c.05,1,1.55,1,1.5,0a7.08,7.08,0,0,1,2-5.24,14.7,14.7,0,0,0,3.05-4.42,22.51,22.51,0,0,0,.81-6.28,20.89,20.89,0,0,1,1.49-7.63c1-2.1,2.66-3.78,3.74-5.82s1.25-4.44,1.52-6.76c.65-5.43,4.8-9.45,8-13.57l5.74-7.3a37.34,37.34,0,0,1,5.75-6.42c.75-.6-.32-1.65-1.06-1.06Z"/><path class="cls-10" d="M308.8,470.81s47.93,11.07,51.62,11.07,22.13-14.75,33.19-18.44-29.5-3.69-36.88,11.06c-11.06-3.69-36.87-7.37-44.25-3.69"/><path class="cls-11" d="M260.4,621.21a.75.75,0,0,0,0-1.5.75.75,0,0,0,0,1.5Z"/><path class="cls-11" d="M262.76,629.1a1.43,1.43,0,0,0-.16.58,1.12,1.12,0,0,0,.06.44,1.33,1.33,0,0,0,1.62.92,1.46,1.46,0,0,0,.83-.61.75.75,0,0,0-.27-1,1.6,1.6,0,0,0-1.35-.11,1.79,1.79,0,0,0-1.07,1,1.68,1.68,0,0,0,2.31,2,2.88,2.88,0,0,0,.67-.49.76.76,0,0,0,0-1.06,4.84,4.84,0,0,0-2.65-1.51.83.83,0,0,0-.58.07.79.79,0,0,0-.35.45.77.77,0,0,0,.53.92,4.84,4.84,0,0,1,.82.25l-.18-.07a4.34,4.34,0,0,1,.93.54l-.15-.12a4.71,4.71,0,0,1,.57.53v-1.06l-.23.2.15-.12a1.75,1.75,0,0,1-.29.18l.18-.08-.21.06.2,0h-.21l.2,0-.25-.07.18.07a1.09,1.09,0,0,1-.23-.14l.15.12-.19-.19.12.15a.82.82,0,0,1-.12-.2l.08.18a.76.76,0,0,1-.06-.2l0,.2a1.48,1.48,0,0,1,0-.21l0,.2a.83.83,0,0,1,.06-.21l-.08.18a1.18,1.18,0,0,1,.11-.19l-.11.15a1,1,0,0,1,.18-.17l-.16.11a2,2,0,0,1,.25-.14l-.18.08.24-.07-.2,0h.25l-.2,0,.21.06-.18-.08.08,0-.27-1,0,0,.11-.15a.52.52,0,0,1-.1.11l.15-.12-.13.07.17-.07a.47.47,0,0,1-.17,0l.2,0h-.15l.2,0-.15,0,.18.07-.13-.07.15.11-.1-.1.12.15-.08-.13.08.18a.61.61,0,0,1-.05-.18l0,.2a.76.76,0,0,1,0-.15l0,.2a.8.8,0,0,1,0-.15l-.07.18v0a.9.9,0,0,0,.08-.58.76.76,0,0,0-.35-.45.78.78,0,0,0-.58-.08.7.7,0,0,0-.44.35Z"/><path class="cls-11" d="M269.46,642.42a.75.75,0,0,0,0-1.5.75.75,0,0,0,0,1.5Z"/><path class="cls-12" d="M349.36,437.63c-3.69-36.88-55.31-125.38-158.56-55.32,29.5,11.07,70.06,110.63,158.56,62.69"/><path class="cls-13" d="M201.86,372c16.78,22.21,46.16,62.18,121.69,53.3C315.15,376.44,311,332,210.25,372"/><path class="cls-14" d="M261.51,387.75A251.31,251.31,0,0,1,295,406.63c11,7.34,21.27,15.62,31.61,23.81l17.79,14.06c.28.23.89.16,1.22.13.08,0,.89-.13.69-.29-10.64-8.41-21.21-16.91-31.94-25.19a283.85,283.85,0,0,0-32.08-21.76q-9.33-5.36-19.1-9.9a2.51,2.51,0,0,0-1.36,0c-.15,0-.72.13-.35.3Z"/><path class="cls-14" d="M193.06,383.51c6.22.5,10.86,5.56,14.13,10.43,3.52,5.26,6.43,10.7,11.18,15,4.6,4.18,10,7.38,14.9,11.11a146,146,0,0,1,13.39,11.84c8.55,8.26,17.14,16.66,28.19,21.49,10.65,4.66,22.48,6,34,5.28A100.37,100.37,0,0,0,326.17,456c5.49-1.33,11.25-2.87,16.23-5.59a17.26,17.26,0,0,0,5.9-4.93A16.28,16.28,0,0,0,351,437a38,38,0,0,0-3.65-18.58c-2.78-5.88-6.88-11.21-10.56-16.55s-7.53-10.67-11.69-15.71c-7.82-9.49-17-18.08-28-23.69a57.58,57.58,0,0,0-16-5.47,74.52,74.52,0,0,0-20.18-.45c-6.86.66-13.66,1.89-20.45,3l-10.65,1.77a35,35,0,0,0-7.57,1.82,9.77,9.77,0,0,0-5,4.15c-.08.13.72.19.73.19a59.21,59.21,0,0,0,24.87-4.14c.5-.2-.77-.31-.86-.31-8.33.16-16.38,2.34-24.18,5.13-3.78,1.35-7.54,2.78-11.25,4.32a49.81,49.81,0,0,0-8.79,4.48,20.16,20.16,0,0,0-7.2,8s1.76.43,2,0c2.75-5.82,8.52-9.15,14.19-11.61A157.09,157.09,0,0,1,228,365.65a57.75,57.75,0,0,1,13.94-2.15l-.86-.31a53.83,53.83,0,0,1-22.64,3.89l.73.19c2.86-5,10-5.3,15-6.13,6.58-1.1,13.16-2.26,19.77-3.23,7-1,14.08-1.77,21.14-1.15a54.22,54.22,0,0,1,17.24,4.54c10.74,4.77,19.89,12.53,27.64,21.24a176,176,0,0,1,11.67,14.85c3.73,5.23,7.45,10.51,10.88,15.95a41.08,41.08,0,0,1,6.34,17.32c.67,5.83.34,12.38-4.16,16.68-4,3.81-9.74,5.5-14.9,7a99.41,99.41,0,0,1-17.33,3.54c-11.59,1.28-23.53.27-34.4-4.13s-19.4-12.27-27.7-20.3c-4.08-4-8.16-7.92-12.56-11.52-4.58-3.74-9.64-6.83-14.3-10.47a46.76,46.76,0,0,1-6.19-5.66,56,56,0,0,1-5.55-7.86c-3-4.8-6.08-9.81-11.08-12.75a15.55,15.55,0,0,0-6.63-2.1c-.42,0-2.22.3-1,.4Z"/><ellipse class="cls-2" cx="413.71" cy="339.66" rx="22.58" ry="22.66"/><ellipse class="cls-2" cx="430.87" cy="394.3" rx="11.9" ry="11.92"/><circle class="cls-2" cx="398.72" cy="284.13" r="16.18"/><ellipse class="cls-2" cx="120.02" cy="116.96" rx="36.88" ry="36.96"/><ellipse class="cls-2" cx="187.52" cy="153.5" rx="18.38" ry="18.42"/><circle class="cls-2" cx="102.9" cy="191.92" r="25"/><ellipse class="cls-2" cx="286.53" cy="219.98" rx="33.7" ry="33.77" transform="translate(-71.63 267.04) rotate(-45)"/><ellipse class="cls-2" cx="256.39" cy="146.04" rx="14.51" ry="14.54" transform="translate(90.8 390.27) rotate(-85.53)"/><circle class="cls-2" cx="357.63" cy="187.73" r="19.73"/><path class="cls-2" d="M365.31,1096H143.67C47.9,1096,35.9,1047.75,35.9,988.23v-671C65.9,750,220.23,1007.08,365.31,1096Z"/><path class="cls-2" d="M353.49,37H575.13C647.9,31,684.9,67,682.9,134V815.76C652.9,383,498.57,125.92,353.49,37Z"/></g></g></svg>