<svg xmlns="http://www.w3.org/2000/svg" viewBox="0 0 719 1132"><defs><style>.cls-1{fill:#ba4522;stroke:#3f2e1b;stroke-width:36px;}.cls-1,.cls-12{stroke-miterlimit:10;}.cls-2,.cls-3{fill:#f15a24;}.cls-3{opacity:0.81;}.cls-4{fill:#97938a;}.cls-5{fill:#59564f;}.cls-6{fill:#76736b;}.cls-7{fill:#7b7871;}.cls-8{fill:#a7a49d;}.cls-9{fill:none;}.cls-10{fill:#683a20;}.cls-11{fill:#3f2e1b;}.cls-12{fill:gray;stroke:gray;}.cls-13{fill:#d9cbb1;}.cls-14{fill:#999;}</style></defs><g id="Слой_2" data-name="Слой 2"><g id="Слой_1-2" data-name="Слой 1"><rect class="cls-1" x="18" y="18" width="683" height="1096" rx="107.77"/><ellipse class="cls-2" cx="431.97" cy="394.3" rx="11.9" ry="11.92"/><ellipse class="cls-2" cx="129.12" cy="518.96" rx="36.88" ry="36.96"/><ellipse class="cls-2" cx="196.62" cy="482.42" rx="18.38" ry="18.42"/><circle class="cls-2" cx="112" cy="444" r="25"/><ellipse class="cls-3" cx="233.12" cy="853" rx="54.88" ry="55"/><ellipse class="cls-3" cx="322.12" cy="908" rx="29.88" ry="30"/><ellipse class="cls-3" cx="166.12" cy="774.97" rx="22.88" ry="22.97"/><ellipse class="cls-2" cx="220.12" cy="666.96" rx="36.88" ry="36.96"/><ellipse class="cls-2" cx="128.62" cy="654.42" rx="18.38" ry="18.42"/><circle class="cls-2" cx="197" cy="588" r="25"/><ellipse class="cls-2" cx="363.12" cy="762.96" rx="36.88" ry="36.96"/><ellipse class="cls-2" cx="430.62" cy="732.42" rx="18.38" ry="18.42"/><circle class="cls-2" cx="346" cy="688" r="25"/><ellipse class="cls-2" cx="473.13" cy="954.47" rx="54.41" ry="54.53"/><ellipse class="cls-2" cx="472.72" cy="840.57" rx="27.12" ry="27.18"/><circle class="cls-2" cx="588.88" cy="899.88" r="36.88"/><ellipse class="cls-2" cx="409.12" cy="531.96" rx="36.88" ry="36.96"/><ellipse class="cls-2" cx="476.62" cy="495.42" rx="18.38" ry="18.42"/><circle class="cls-2" cx="392" cy="457" r="25"/><ellipse class="cls-2" cx="267.12" cy="362" rx="34.88" ry="35"/><ellipse class="cls-2" cx="196.62" cy="359.42" rx="18.38" ry="18.42"/><circle class="cls-2" cx="292" cy="447" r="25"/><ellipse class="cls-2" cx="446.12" cy="181" rx="34.88" ry="35"/><ellipse class="cls-2" cx="472.62" cy="265.42" rx="18.38" ry="18.42"/><ellipse class="cls-2" cx="414.81" cy="339.66" rx="22.58" ry="22.66"/><circle class="cls-2" cx="399.82" cy="284.13" r="16.18"/><ellipse class="cls-3" cx="121.12" cy="116.96" rx="36.88" ry="36.96"/><ellipse class="cls-2" cx="188.62" cy="153.5" rx="18.38" ry="18.42"/><circle class="cls-2" cx="104" cy="191.92" r="25"/><ellipse class="cls-2" cx="287.64" cy="219.98" rx="33.7" ry="33.77" transform="translate(-71.3 267.82) rotate(-45)"/><ellipse class="cls-2" cx="257.49" cy="146.04" rx="14.51" ry="14.54" transform="translate(91.81 391.37) rotate(-85.53)"/><circle class="cls-2" cx="358.73" cy="187.73" r="19.73"/><path class="cls-2" d="M366.41,1096H144.77C49,1096,37,1047.75,37,988.23v-671C67,750,221.33,1007.08,366.41,1096Z"/><path class="cls-2" d="M354.59,37H576.23C649,31,686,67,684,134V815.76C654,383,499.67,125.92,354.59,37Z"/><path class="cls-4" d="M255.79,671.38c6.31-8,13.55-15.15,20.28-22.77,3.86-4.37,7.69-8.79,11.78-13,1.73-1.76,1.95-3.35,1.52-5.62-5.21-27.55,3-50.42,24.22-68.66a11.34,11.34,0,0,1,5.16-2.82,6,6,0,0,0,4,.33q37.77-5.86,75.55-11.71a21.81,21.81,0,0,0,9.27-3.56q13.69-9.39,27.65-18.41c2.82-1.82,4.44-3.87,3.9-7.29,10.71-1.86,20.42,1,28.7,7.52,21.05,16.5,41.76,33.42,62.61,50.18l0,.8-.74.74.06,0-1.54.77h0a20.08,20.08,0,0,0-3.22.87c-9.75,4.45-19.45,9-29.2,13.42-8.05,3.65-15.86,7.95-24.41,10.32-14.57,4-29.46,2.15-44.24,1.89-7.44-.13-14.88-1-22.3.33l-3.06-.67c-1,.19-2,.32-2.93.57L327.94,623.1q-16.83,4.38-33.65,8.79c-.9.24-2.26.2-2.32,1.46-.05,1,1.16,1.12,1.92,1.47l60.94,27.64c3.27,1.48,6.78,2.48,9.59,4.87-10.08.36-20.16.7-30.23,1.08Z"/><path class="cls-5" d="M574.4,629.45c-1.89,13.06-3.73,26.13-5.67,39.19-3,20-6.07,39.91-9,59.88A5.24,5.24,0,0,1,556.5,733q-33.53,16.51-67,33.21a10.61,10.61,0,0,1-5.37,1.26q-45.37-2.09-90.75-4.12c-.75,0-1.48-.17-2.22-.26.27-3.61,2.47-6.48,3.83-9.66,7.74-18.08,15.62-36.1,23.41-54.15a7,7,0,0,1,3.28-3.86c4.88-2.47,9.69-5.1,14.56-7.61q28.37-14.67,56.75-29.29c4.76.64,8.26,3.89,12.21,6.11,12.22,6.87,24.3,14,36.43,21,2.46,2.43,4,1.93,5.48-1.21,8.18-17.32,16.52-34.57,24.8-51.84C572.53,631.37,573,630.05,574.4,629.45Z"/><path class="cls-6" d="M493,658.51q-28.38,14.64-56.75,29.29c-4.87,2.51-9.68,5.14-14.56,7.61a7,7,0,0,0-3.28,3.86c-7.79,18.05-15.67,36.07-23.41,54.15-1.36,3.18-3.56,6.05-3.83,9.66-8.67-2.19-16.9-5.69-25.3-8.65-13.56-4.77-27-9.74-40.55-14.62a17.24,17.24,0,0,1,1.05-2.79c9.7-17.12,19.52-34.18,29.11-51.37,3.32-5.95,7.53-11.45,9.57-18.08,3.2-2.46,4.32-6.29,6.2-9.58,10.24-17.93,20.36-35.94,30.52-53.93l3.06.67-.14.15a4.91,4.91,0,0,0,2.4,2.23q41.33,24.23,82.64,48.46C491,656.33,492.36,657.05,493,658.51Z"/><path class="cls-7" d="M365.07,667.57c-2,6.63-6.25,12.13-9.57,18.08-9.59,17.19-19.41,34.25-29.11,51.37a17.24,17.24,0,0,0-1.05,2.79L277.51,723c-4.57-1.61-9.11-3.3-13.7-4.85-1.54-.52-2.46-1.12-2.7-3-1.84-14.29-3.84-28.55-5.76-42.83,0-.29.29-.62.44-.94l78.4-3c10.07-.38,20.15-.72,30.23-1.08Z"/><path class="cls-6" d="M574.4,629.45c-1.4.6-1.87,1.92-2.46,3.15-8.28,17.27-16.62,34.52-24.8,51.84-1.49,3.14-3,3.64-5.48,1.21a5.4,5.4,0,0,0-1.47-3.34q-13.82-15.67-27.6-31.38t-27.18-31.26l0,0q19.68,1.54,39.38,3.09,24.9,1.92,49.79,3.78C574.54,627.49,574.47,628.47,574.4,629.45Z"/><path class="cls-7" d="M574.6,626.51q-24.89-1.89-49.79-3.78-19.69-1.51-39.38-3.09c.85-.9,1.67-1.84,2.57-2.69q18.67-17.64,37.38-35.25c1.15-1.09,2.54-2.05,2.84-3.8h0l1.54-.77-.06,0,.74-.74,0-.8c6.67,6.3,12.19,13.63,18.31,20.42,8.37,9.3,16.44,18.85,24.65,28.28C574,625,574.71,625.49,574.6,626.51Z"/><path class="cls-8" d="M439.12,517.92c.54,3.42-1.08,5.47-3.9,7.29q-14,9-27.65,18.41a21.81,21.81,0,0,1-9.27,3.56q-37.79,5.8-75.55,11.71a6,6,0,0,1-4-.33c23.09-9.14,46-18.88,69.35-27.2,15.39-5.48,31.51-8.94,47.32-13.24A16.76,16.76,0,0,1,439.12,517.92Z"/><path class="cls-8" d="M365.07,667.57l-.65-.24c-2.81-2.39-6.32-3.39-9.59-4.87l-60.94-27.64c-.76-.35-2-.45-1.92-1.47.06-1.26,1.42-1.22,2.32-1.46q16.81-4.42,33.65-8.79l70.92-18.47c1-.25,1.95-.38,2.93-.57-10.16,18-20.28,36-30.52,53.93C369.39,661.28,368.27,665.11,365.07,667.57Z"/><path class="cls-8" d="M528.22,577.9c-.3,1.75-1.69,2.71-2.84,3.8Q506.7,599.34,488,617c-.9.85-1.72,1.79-2.57,2.69l0,0c-16.62-3.12-33.22-6.33-49.87-9.32-10.27-1.84-20.45-4.23-30.83-5.47l.14-.15c7.42-1.31,14.86-.46,22.3-.33,14.78.26,29.67,2.15,44.24-1.89,8.55-2.37,16.36-6.67,24.41-10.32,9.75-4.42,19.45-9,29.2-13.42A20.08,20.08,0,0,1,528.22,577.9Z"/><path class="cls-8" d="M529.72,577.13l-1.54.77Z"/><path class="cls-8" d="M530.4,576.42l-.74.74Z"/><path class="cls-7" d="M404.71,604.88c10.38,1.24,20.56,3.63,30.83,5.47,16.65,3,33.25,6.2,49.87,9.32Q499,635.3,512.59,650.93t27.6,31.38a5.4,5.4,0,0,1,1.47,3.34c-12.13-7-24.21-14.16-36.43-21-4-2.22-7.45-5.47-12.21-6.11-.66-1.46-2-2.18-3.27-2.94q-41.31-24.24-82.64-48.46A4.91,4.91,0,0,1,404.71,604.88Z"/><path class="cls-9" d="M291.66,636.67S274.25,591,317.78,558.31c23.94-8.7,110.73-46,133.72-40.39S576.79,625.78,576.79,625.78L559,730.79l-64.93,36.47-102.3-4.35L263.37,717.2l-8.71-45.71Z"/><path class="cls-10" d="M153,698.17c2.17-30.86,159.12-233.63,159.12-233.63l62.05-81.73s52.34-16.54,38.5,35.87S190.46,754.79,190.46,754.79,148.59,760.09,153,698.17Z"/><path class="cls-11" d="M172.89,703.42c4.36-24.95,129.76-187.92,129.76-187.92l49.72-65.69s37.05-13,22.76,29.29S193,749.5,193,749.5,164.14,753.49,172.89,703.42Z"/><path class="cls-12" d="M142.21,373.48c95.28-27.86,375.55-2.26,351.65,245-20.34-30.72-97.83-178-351.65-245"/><path class="cls-13" d="M161.15,380.17c79.59-17.64,317,9.75,304.31,191.26-18.1-23.26-88-134.14-304.31-191.26"/><rect class="cls-14" x="335.62" y="394.74" width="67.39" height="83.25" rx="12" transform="translate(347.16 -134.88) rotate(38.02)"/><rect class="cls-13" x="344.21" y="412.43" width="50.08" height="61.86" rx="12" transform="translate(351.45 -133.35) rotate(38.02)"/></g></g></svg>