<svg xmlns="http://www.w3.org/2000/svg" viewBox="0 0 773 1186"><defs><style>.cls-1{fill:#b90101;stroke:#3f2e1b;stroke-miterlimit:10;stroke-width:90px;}.cls-2,.cls-3{fill:#800;}.cls-3{opacity:0.81;}</style></defs><g id="Слой_2" data-name="Слой 2"><g id="Слой_1-2" data-name="Слой 1"><rect class="cls-1" x="45" y="45" width="683" height="1096" rx="107.77"/><ellipse class="cls-2" cx="155.02" cy="545.96" rx="36.88" ry="36.96"/><ellipse class="cls-2" cx="222.52" cy="509.42" rx="18.38" ry="18.42"/><circle class="cls-2" cx="137.9" cy="471" r="25"/><ellipse class="cls-3" cx="259.02" cy="880" rx="54.88" ry="55"/><ellipse class="cls-3" cx="348.02" cy="935" rx="29.88" ry="30"/><ellipse class="cls-3" cx="192.02" cy="801.97" rx="22.88" ry="22.97"/><ellipse class="cls-2" cx="246.02" cy="693.96" rx="36.88" ry="36.96"/><ellipse class="cls-2" cx="154.52" cy="681.42" rx="18.38" ry="18.42"/><circle class="cls-2" cx="222.9" cy="615" r="25"/><ellipse class="cls-2" cx="389.02" cy="789.96" rx="36.88" ry="36.96"/><ellipse class="cls-2" cx="456.52" cy="759.42" rx="18.38" ry="18.42"/><circle class="cls-2" cx="371.9" cy="715" r="25"/><ellipse class="cls-2" cx="499.03" cy="981.47" rx="54.41" ry="54.53"/><ellipse class="cls-2" cx="498.61" cy="867.57" rx="27.12" ry="27.18"/><circle class="cls-2" cx="614.78" cy="926.88" r="36.88"/><ellipse class="cls-2" cx="435.02" cy="558.96" rx="36.88" ry="36.96"/><ellipse class="cls-2" cx="502.52" cy="522.42" rx="18.38" ry="18.42"/><circle class="cls-2" cx="417.9" cy="484" r="25"/><ellipse class="cls-2" cx="293.02" cy="389" rx="34.88" ry="35"/><ellipse class="cls-2" cx="222.52" cy="386.42" rx="18.38" ry="18.42"/><circle class="cls-2" cx="317.9" cy="474" r="25"/><ellipse class="cls-2" cx="472.02" cy="208" rx="34.88" ry="35"/><ellipse class="cls-2" cx="498.52" cy="292.42" rx="18.38" ry="18.42"/><ellipse class="cls-2" cx="440.71" cy="366.66" rx="22.58" ry="22.66"/><ellipse class="cls-2" cx="457.87" cy="421.3" rx="11.9" ry="11.92"/><circle class="cls-2" cx="425.72" cy="311.13" r="16.18"/><ellipse class="cls-2" cx="147.02" cy="143.96" rx="36.88" ry="36.96"/><ellipse class="cls-2" cx="214.52" cy="180.5" rx="18.38" ry="18.42"/><circle class="cls-2" cx="129.9" cy="218.92" r="25"/><ellipse class="cls-2" cx="313.53" cy="246.98" rx="33.7" ry="33.77" transform="translate(-82.81 294.04) rotate(-45)"/><ellipse class="cls-2" cx="283.39" cy="173.04" rx="14.51" ry="14.54" transform="translate(88.78 442.08) rotate(-85.53)"/><circle class="cls-2" cx="384.63" cy="214.73" r="19.73"/><path class="cls-2" d="M391.31,1123H169.67C73.9,1123,61.9,1074.75,61.9,1015.23v-671C91.9,777,246.23,1034.08,391.31,1123Z"/><path class="cls-2" d="M380.49,64H602.13C674.9,58,711.9,94,709.9,161V842.76C679.9,410,525.57,152.92,380.49,64Z"/></g></g></svg>