<svg xmlns="http://www.w3.org/2000/svg" viewBox="0 0 719 1132"><defs><style>.cls-1{fill:#b90101;stroke:#3f2e1b;stroke-miterlimit:10;stroke-width:36px;}.cls-2,.cls-3{fill:#800;}.cls-3{opacity:0.81;}.cls-4{fill:#2b1f14;}.cls-5{fill:#3f2e1b;}.cls-6{fill:#19120c;}.cls-7{fill:#42210b;}.cls-8{fill:#54260d;}.cls-9{fill:none;}.cls-10{fill:gray;}.cls-11{fill:#4d4d4d;}.cls-12{fill:#333;}.cls-13{fill:#3a3a3a;}.cls-14{fill:#666;}</style></defs><g id="Слой_2" data-name="Слой 2"><g id="Слой_1-2" data-name="Слой 1"><rect class="cls-1" x="18" y="18" width="683" height="1096" rx="107.77"/><ellipse class="cls-2" cx="128.02" cy="518.96" rx="36.88" ry="36.96"/><ellipse class="cls-2" cx="195.52" cy="482.42" rx="18.38" ry="18.42"/><circle class="cls-2" cx="110.9" cy="444" r="25"/><ellipse class="cls-3" cx="232.02" cy="853" rx="54.88" ry="55"/><ellipse class="cls-3" cx="321.02" cy="908" rx="29.88" ry="30"/><ellipse class="cls-3" cx="165.02" cy="774.97" rx="22.88" ry="22.97"/><ellipse class="cls-2" cx="219.02" cy="666.96" rx="36.88" ry="36.96"/><ellipse class="cls-2" cx="127.52" cy="654.42" rx="18.38" ry="18.42"/><circle class="cls-2" cx="195.9" cy="588" r="25"/><ellipse class="cls-2" cx="362.02" cy="762.96" rx="36.88" ry="36.96"/><ellipse class="cls-2" cx="429.52" cy="732.42" rx="18.38" ry="18.42"/><circle class="cls-2" cx="344.9" cy="688" r="25"/><ellipse class="cls-2" cx="472.03" cy="954.47" rx="54.41" ry="54.53"/><ellipse class="cls-2" cx="471.61" cy="840.57" rx="27.12" ry="27.18"/><circle class="cls-2" cx="587.78" cy="899.88" r="36.88"/><ellipse class="cls-2" cx="408.02" cy="531.96" rx="36.88" ry="36.96"/><ellipse class="cls-2" cx="475.52" cy="495.42" rx="18.38" ry="18.42"/><circle class="cls-2" cx="390.9" cy="457" r="25"/><ellipse class="cls-2" cx="266.02" cy="362" rx="34.88" ry="35"/><ellipse class="cls-2" cx="195.52" cy="359.42" rx="18.38" ry="18.42"/><circle class="cls-2" cx="290.9" cy="447" r="25"/><ellipse class="cls-2" cx="445.02" cy="181" rx="34.88" ry="35"/><ellipse class="cls-2" cx="471.52" cy="265.42" rx="18.38" ry="18.42"/><ellipse class="cls-2" cx="413.71" cy="339.66" rx="22.58" ry="22.66"/><ellipse class="cls-2" cx="430.87" cy="394.3" rx="11.9" ry="11.92"/><circle class="cls-2" cx="398.72" cy="284.13" r="16.18"/><ellipse class="cls-2" cx="120.02" cy="116.96" rx="36.88" ry="36.96"/><ellipse class="cls-2" cx="187.52" cy="153.5" rx="18.38" ry="18.42"/><circle class="cls-2" cx="102.9" cy="191.92" r="25"/><ellipse class="cls-2" cx="286.53" cy="219.98" rx="33.7" ry="33.77" transform="translate(-71.63 267.04) rotate(-45)"/><ellipse class="cls-2" cx="256.39" cy="146.04" rx="14.51" ry="14.54" transform="translate(90.8 390.27) rotate(-85.53)"/><circle class="cls-2" cx="357.63" cy="187.73" r="19.73"/><path class="cls-2" d="M364.31,1096H142.67C46.9,1096,34.9,1047.75,34.9,988.23v-671C64.9,750,219.23,1007.08,364.31,1096Z"/><path class="cls-2" d="M353.49,37H575.13C647.9,31,684.9,67,682.9,134V815.76C652.9,383,498.57,125.92,353.49,37Z"/><path class="cls-4" d="M569.52,663.78c-16.22,4.58-42.77,16.13-70.69,30-51.25,25.37-107.13,58.4-112.31,70-8,18-43,82-45,89s-47-23-59-22-23-3-28,0c-3.79,2.27-27.06-60.81-73.74-110.24-15-15.86-32.34-30.31-52.26-40.76-29-22-29-44-19-65,10,16,77,69,227,91,16-7,38-3,40,0s13.53-17.76,18-20c10-5,55-19,55-19C491.52,656.78,568.52,663.78,569.52,663.78Z"/><path class="cls-5" d="M568.93,664.74a31.86,31.86,0,0,1,3.85-.41,8.26,8.26,0,0,0-.26-2.55c-14-54-52-53-63-56s-19-9-36-28c-182-79-359,16-364,31l-2.1,6.94c.48.5,1,1,1.42,1.52.22-.49.44-1,.68-1.46,10,16,77,69,227,91,16-7,38-3,40,0s13.53-17.76,18-20c10-5,55-19,55-19C489.65,658.22,561.73,664.19,568.93,664.74Z"/><path class="cls-6" d="M338.52,852.78l48-94.67L459.64,712l-47.12,78S357.52,853.77,338.52,852.78Z"/><polygon class="cls-7" points="114.02 554.28 294.01 382.28 326.01 349.28 338.01 428.28 158.01 589.28 114.02 554.28"/><polygon class="cls-8" points="112.02 550.92 271.93 401.03 300.36 372.28 336.51 411.78 151.1 581.42 112.02 550.92"/><polygon class="cls-9" points="110.02 553.69 294.84 378.83 327.69 345.28 340.01 425.59 155.19 589.28 110.02 553.69"/><path class="cls-10" d="M206,281.28s106-7,125,0,135,124,131,136-77,60-77,60l-8-8"/><path class="cls-11" d="M203,281.28l171,182,46-34s-74-126-127-133"/><path class="cls-12" d="M420,429.28l42-12s-67,59-77,60c-5-5-12-13-12-13Z"/><path class="cls-11" d="M318,640.28c-11-3.14,7,7,11,8s67-8,71-57c-17,4-27,12-27,12C364,615.28,325,642.28,318,640.28Z"/><path class="cls-13" d="M303.52,632.78c2-13,35-43,64-42,4-3,17-18,17-18-6-5-16-8-21-4S275.52,600.78,303.52,632.78Z"/><path class="cls-12" d="M391,563.28c32-68,27-76,39-90s151.64-140.36,170-122c.5.5,32.5,2.5-125.5,112.5-26,21-60,98-60,98Z"/><path class="cls-11" d="M408.52,581.78c24-5,68-36,69-38s124-166,138-172c-18,1-58,22-103,94-26,26-95,98-95,98Z"/><ellipse class="cls-14" cx="391.02" cy="581.78" rx="27.5" ry="14" transform="translate(-282.73 388.34) rotate(-40.08)"/><path class="cls-9" d="M462,418.71c-4,12.11-77,60.57-77,60.57l-8-8.08-80-88.78L206.56,282l-.54-.59s106-7.07,125,0S466,406.59,462,418.71Z"/></g></g></svg>