<svg xmlns="http://www.w3.org/2000/svg" xmlns:xlink="http://www.w3.org/1999/xlink" viewBox="0 0 719 1132"><defs><style>.cls-1{fill:#333;stroke:#3f2e1b;stroke-width:36px;}.cls-1,.cls-4,.cls-5,.cls-6{stroke-miterlimit:10;}.cls-2,.cls-3{fill:#4d4d4d;}.cls-3{opacity:0.81;}.cls-4{stroke:#1d1d1b;fill:url(#Безымянный_градиент_17);}.cls-4,.cls-5,.cls-6{stroke-width:5px;}.cls-5{fill:#3f2e1b;stroke:#231910;}.cls-6{stroke:#1d1e1b;fill:url(#Безымянный_градиент_55);}</style><linearGradient id="Безымянный_градиент_17" x1="27.21" y1="419.2" x2="587.07" y2="664.39" gradientUnits="userSpaceOnUse"><stop offset="0.08" stop-color="#fff"/><stop offset="0.1" stop-color="#fff"/><stop offset="0.21" stop-color="#fff"/><stop offset="1"/></linearGradient><linearGradient id="Безымянный_градиент_55" x1="193.63" y1="372.57" x2="444.68" y2="482.53" gradientUnits="userSpaceOnUse"><stop offset="0.01" stop-color="#fff"/><stop offset="0.05" stop-color="#a1f0f0"/><stop offset="0.25" stop-color="#9cc5c4"/><stop offset="1"/></linearGradient></defs><g id="Слой_2" data-name="Слой 2"><g id="Слой_1-2" data-name="Слой 1"><rect class="cls-1" x="18" y="18" width="683" height="1096" rx="107.77"/><ellipse class="cls-2" cx="431.97" cy="394.3" rx="11.9" ry="11.92"/><ellipse class="cls-2" cx="129.12" cy="518.96" rx="36.88" ry="36.96"/><ellipse class="cls-2" cx="196.62" cy="482.42" rx="18.38" ry="18.42"/><circle class="cls-2" cx="112" cy="444" r="25"/><ellipse class="cls-3" cx="233.12" cy="853" rx="54.88" ry="55"/><ellipse class="cls-3" cx="322.12" cy="908" rx="29.88" ry="30"/><ellipse class="cls-3" cx="166.12" cy="774.97" rx="22.88" ry="22.97"/><ellipse class="cls-2" cx="220.12" cy="666.96" rx="36.88" ry="36.96"/><ellipse class="cls-2" cx="128.62" cy="654.42" rx="18.38" ry="18.42"/><circle class="cls-2" cx="197" cy="588" r="25"/><ellipse class="cls-2" cx="363.12" cy="762.96" rx="36.88" ry="36.96"/><ellipse class="cls-2" cx="430.62" cy="732.42" rx="18.38" ry="18.42"/><circle class="cls-2" cx="346" cy="688" r="25"/><ellipse class="cls-2" cx="473.13" cy="954.47" rx="54.41" ry="54.53"/><ellipse class="cls-2" cx="472.72" cy="840.57" rx="27.12" ry="27.18"/><circle class="cls-2" cx="588.88" cy="899.88" r="36.88"/><ellipse class="cls-2" cx="409.12" cy="531.96" rx="36.88" ry="36.96"/><ellipse class="cls-2" cx="476.62" cy="495.42" rx="18.38" ry="18.42"/><circle class="cls-2" cx="392" cy="457" r="25"/><ellipse class="cls-2" cx="267.12" cy="362" rx="34.88" ry="35"/><ellipse class="cls-2" cx="196.62" cy="359.42" rx="18.38" ry="18.42"/><circle class="cls-2" cx="292" cy="447" r="25"/><ellipse class="cls-2" cx="446.12" cy="181" rx="34.88" ry="35"/><ellipse class="cls-2" cx="472.62" cy="265.42" rx="18.38" ry="18.42"/><ellipse class="cls-2" cx="414.81" cy="339.66" rx="22.58" ry="22.66"/><circle class="cls-2" cx="399.82" cy="284.13" r="16.18"/><ellipse class="cls-3" cx="121.12" cy="116.96" rx="36.88" ry="36.96"/><ellipse class="cls-2" cx="188.62" cy="153.5" rx="18.38" ry="18.42"/><circle class="cls-2" cx="104" cy="191.92" r="25"/><ellipse class="cls-2" cx="287.64" cy="219.98" rx="33.7" ry="33.77" transform="translate(-71.3 267.82) rotate(-45)"/><ellipse class="cls-2" cx="257.49" cy="146.04" rx="14.51" ry="14.54" transform="matrix(0.08, -1, 1, 0.08, 91.81, 391.37)"/><circle class="cls-2" cx="358.73" cy="187.73" r="19.73"/><path class="cls-2" d="M366.41,1096H144.77C49,1096,37,1047.75,37,988.23v-671C67,750,221.33,1007.08,366.41,1096Z"/><path class="cls-2" d="M354.59,37H576.23C649,31,686,67,684,134V815.76C654,383,499.67,125.92,354.59,37Z"/><path class="cls-4" d="M236.49,701.29C295.56,641.48,297.1,526.36,180,478.11c39-44.24,59.58-76.41,59.58-76.41,97.58,50.27,177.7,33.18,223.92,18.1,31.84,29.15,61.12,42.72,75.5,43.73-78.07,105.56-118.64,109.08-62.14,237.76C476.34,719.89,352.05,754.07,236.49,701.29Z"/><path class="cls-5" d="M336.65,601.26,443.47,533.9s39-6,30.82,6-133.54,75.4-133.54,75.4Z"/><path class="cls-5" d="M394.68,583.67c2.06,3,26.71,52.28,26.71,52.28l28.76-10.06s-17.46-38.2-27.74-55.29"/><path class="cls-6" d="M377.64,575.41C364.89,552.5,238.55,270,238.55,270S409.82,513.18,414.06,552.45"/></g></g></svg>