<svg xmlns="http://www.w3.org/2000/svg" viewBox="0 0 773 1186"><defs><style>.cls-1{fill:#333;stroke:#3f2e1b;stroke-miterlimit:10;stroke-width:90px;}.cls-2,.cls-3{fill:#4d4d4d;}.cls-3{opacity:0.81;}</style></defs><g id="Слой_2" data-name="Слой 2"><g id="Слой_1-2" data-name="Слой 1"><rect class="cls-1" x="45" y="45" width="683" height="1096" rx="107.77"/><ellipse class="cls-2" cx="458.97" cy="421.3" rx="11.9" ry="11.92"/><ellipse class="cls-2" cx="156.12" cy="545.96" rx="36.88" ry="36.96"/><ellipse class="cls-2" cx="223.62" cy="509.42" rx="18.38" ry="18.42"/><circle class="cls-2" cx="139" cy="471" r="25"/><ellipse class="cls-3" cx="260.12" cy="880" rx="54.88" ry="55"/><ellipse class="cls-3" cx="349.12" cy="935" rx="29.88" ry="30"/><ellipse class="cls-3" cx="193.12" cy="801.97" rx="22.88" ry="22.97"/><ellipse class="cls-2" cx="247.12" cy="693.96" rx="36.88" ry="36.96"/><ellipse class="cls-2" cx="155.62" cy="681.42" rx="18.38" ry="18.42"/><circle class="cls-2" cx="224" cy="615" r="25"/><ellipse class="cls-2" cx="390.12" cy="789.96" rx="36.88" ry="36.96"/><ellipse class="cls-2" cx="457.62" cy="759.42" rx="18.38" ry="18.42"/><circle class="cls-2" cx="373" cy="715" r="25"/><ellipse class="cls-2" cx="500.13" cy="981.47" rx="54.41" ry="54.53"/><ellipse class="cls-2" cx="499.72" cy="867.57" rx="27.12" ry="27.18"/><circle class="cls-2" cx="615.88" cy="926.88" r="36.88"/><ellipse class="cls-2" cx="436.12" cy="558.96" rx="36.88" ry="36.96"/><ellipse class="cls-2" cx="503.62" cy="522.42" rx="18.38" ry="18.42"/><circle class="cls-2" cx="419" cy="484" r="25"/><ellipse class="cls-2" cx="294.12" cy="389" rx="34.88" ry="35"/><ellipse class="cls-2" cx="223.62" cy="386.42" rx="18.38" ry="18.42"/><circle class="cls-2" cx="319" cy="474" r="25"/><ellipse class="cls-2" cx="473.12" cy="208" rx="34.88" ry="35"/><ellipse class="cls-2" cx="499.62" cy="292.42" rx="18.38" ry="18.42"/><ellipse class="cls-2" cx="441.81" cy="366.66" rx="22.58" ry="22.66"/><circle class="cls-2" cx="426.82" cy="311.13" r="16.18"/><ellipse class="cls-3" cx="148.12" cy="143.96" rx="36.88" ry="36.96"/><ellipse class="cls-2" cx="215.62" cy="180.5" rx="18.38" ry="18.42"/><circle class="cls-2" cx="131" cy="218.92" r="25"/><ellipse class="cls-2" cx="314.64" cy="246.98" rx="33.7" ry="33.77" transform="translate(-82.49 294.82) rotate(-45)"/><ellipse class="cls-2" cx="284.49" cy="173.04" rx="14.51" ry="14.54" transform="matrix(0.08, -1, 1, 0.08, 89.79, 443.18)"/><circle class="cls-2" cx="385.73" cy="214.73" r="19.73"/><path class="cls-2" d="M393.41,1123H171.77C76,1123,64,1074.75,64,1015.23v-671C94,777,248.33,1034.08,393.41,1123Z"/><path class="cls-2" d="M381.59,64H603.23C676,58,713,94,711,161V842.76C681,410,526.67,152.92,381.59,64Z"/></g></g></svg>