<svg xmlns="http://www.w3.org/2000/svg" viewBox="0 0 719 1132"><defs><style>.cls-1{fill:#333;stroke:#3f2e1b;stroke-miterlimit:10;stroke-width:36px;}.cls-2,.cls-3{fill:#4d4d4d;}.cls-3{opacity:0.81;}</style></defs><title>Ресурс 15</title><g id="Слой_2" data-name="Слой 2"><g id="Слой_1-2" data-name="Слой 1"><rect class="cls-1" x="18" y="18" width="683" height="1096" rx="107.77" ry="107.77"/><ellipse class="cls-2" cx="431.97" cy="394.3" rx="11.9" ry="11.92"/><ellipse class="cls-2" cx="129.12" cy="518.96" rx="36.88" ry="36.96"/><ellipse class="cls-2" cx="196.62" cy="482.42" rx="18.38" ry="18.42"/><circle class="cls-2" cx="112" cy="444" r="25"/><ellipse class="cls-3" cx="233.12" cy="853" rx="54.88" ry="55"/><ellipse class="cls-3" cx="322.12" cy="908" rx="29.88" ry="30"/><ellipse class="cls-3" cx="166.12" cy="774.97" rx="22.88" ry="22.97"/><ellipse class="cls-2" cx="220.12" cy="666.96" rx="36.88" ry="36.96"/><ellipse class="cls-2" cx="128.62" cy="654.42" rx="18.38" ry="18.42"/><circle class="cls-2" cx="197" cy="588" r="25"/><ellipse class="cls-2" cx="363.12" cy="762.96" rx="36.88" ry="36.96"/><ellipse class="cls-2" cx="430.62" cy="732.42" rx="18.38" ry="18.42"/><circle class="cls-2" cx="346" cy="688" r="25"/><ellipse class="cls-2" cx="473.13" cy="954.47" rx="54.41" ry="54.53"/><ellipse class="cls-2" cx="472.72" cy="840.57" rx="27.12" ry="27.18"/><circle class="cls-2" cx="588.88" cy="899.88" r="36.88"/><ellipse class="cls-2" cx="409.12" cy="531.96" rx="36.88" ry="36.96"/><ellipse class="cls-2" cx="476.62" cy="495.42" rx="18.38" ry="18.42"/><circle class="cls-2" cx="392" cy="457" r="25"/><ellipse class="cls-2" cx="267.12" cy="362" rx="34.88" ry="35"/><ellipse class="cls-2" cx="196.62" cy="359.42" rx="18.38" ry="18.42"/><circle class="cls-2" cx="292" cy="447" r="25"/><ellipse class="cls-2" cx="446.12" cy="181" rx="34.88" ry="35"/><ellipse class="cls-2" cx="472.62" cy="265.42" rx="18.38" ry="18.42"/><ellipse class="cls-2" cx="414.81" cy="339.66" rx="22.58" ry="22.66"/><circle class="cls-2" cx="399.82" cy="284.13" r="16.18"/><ellipse class="cls-3" cx="121.12" cy="116.96" rx="36.88" ry="36.96"/><ellipse class="cls-2" cx="188.62" cy="153.5" rx="18.38" ry="18.42"/><circle class="cls-2" cx="104" cy="191.92" r="25"/><ellipse class="cls-2" cx="287.64" cy="219.98" rx="33.7" ry="33.77" transform="translate(-71.3 267.82) rotate(-45)"/><ellipse class="cls-2" cx="257.49" cy="146.04" rx="14.51" ry="14.54" transform="matrix(0.08, -1, 1, 0.08, 91.81, 391.37)"/><circle class="cls-2" cx="358.73" cy="187.73" r="19.73"/><path class="cls-2" d="M366.41,1096H144.77C49,1096,37,1047.75,37,988.23v-671C67,750,221.33,1007.08,366.41,1096Z"/><path class="cls-2" d="M354.59,37H576.23C649,31,686,67,684,134V815.76C654,383,499.67,125.92,354.59,37Z"/></g></g></svg>