<svg xmlns="http://www.w3.org/2000/svg" xmlns:xlink="http://www.w3.org/1999/xlink" viewBox="0 0 292 696.03"><defs><style>.cls-1,.cls-15{fill:none;}.cls-2{fill:#b90101;stroke:#800;}.cls-10,.cls-11,.cls-12,.cls-13,.cls-14,.cls-15,.cls-16,.cls-2,.cls-3,.cls-4,.cls-5,.cls-6,.cls-8,.cls-9{stroke-miterlimit:10;}.cls-2,.cls-4,.cls-5,.cls-6{stroke-width:2px;}.cls-3{fill:#e3ae6a;stroke:#75593b;}.cls-4,.cls-9{fill:#d9cbb1;}.cls-4{stroke:#aa9e8a;}.cls-5{fill:#e6e6e6;}.cls-5,.cls-6{stroke:#1c140d;}.cls-6{fill:#1c140d;}.cls-7{fill:#8c6842;}.cls-12,.cls-15,.cls-16,.cls-8{stroke:#21180f;}.cls-10,.cls-12,.cls-13,.cls-14,.cls-15,.cls-16,.cls-8{stroke-width:5px;}.cls-14,.cls-8{fill:url(#Новый_образец_узора_4);}.cls-9{stroke:#a59884;}.cls-10{fill:#353a5e;stroke:#22273d;}.cls-11,.cls-16{fill:#3f2e1b;}.cls-11{stroke:#000;stroke-width:3px;}.cls-12,.cls-17{fill:#21180f;}.cls-13{fill:#4b8c4b;stroke:#2b512b;}.cls-14{stroke:url(#Новый_образец_узора_4);}</style><pattern id="Новый_образец_узора_4" data-name="Новый образец узора 4" width="16" height="16" patternUnits="userSpaceOnUse" viewBox="0 0 16 16"><rect class="cls-1" width="16" height="16"/><rect class="cls-2" x="1" y="1" width="14" height="14"/></pattern></defs><title>asset_f</title><g id="Слой_2" data-name="Слой 2"><g id="Слой_1-2" data-name="Слой 1"><rect class="cls-3" x="90.21" y="86.91" width="87.1" height="83.19" transform="matrix(0.99, -0.16, 0.16, 0.99, -18.61, 22.73)"/><path class="cls-4" d="M189,104.64h14.52l-20,51-16-51S159,93.57,159,82.89c0-2.24-86.93,18.79-86.93,18.79a10.53,10.53,0,0,1-13-7.2,10.3,10.3,0,0,1-.41-2.89,10.54,10.54,0,0,1,7.6-10.1L173.94,50.6a10.48,10.48,0,0,1,13.39,10.07,1.34,1.34,0,0,1,0,.2c12,1.55,21.19,10.82,21.19,22C208.51,93.57,200.15,102.49,189,104.64Z"/><polygon class="cls-4" points="97 175.76 108.33 216.14 195.5 162.64 97 175.76"/><circle class="cls-5" cx="128.68" cy="117.49" r="7.5"/><rect class="cls-4" x="117.52" y="102.45" width="6.55" height="14.39" transform="translate(157.38 -49.33) rotate(60.73)"/><rect class="cls-4" x="129.27" y="102.26" width="6.55" height="11.65" transform="translate(285.48 31.53) rotate(114.21)"/><circle class="cls-6" cx="126.68" cy="118.49" r="3.5"/><rect class="cls-4" x="102.67" y="129.23" width="6.85" height="33" transform="translate(12.86 300) rotate(-112.8)"/><path class="cls-7" d="M129.18,155c0,6.63-9.63,12-21.5,12a32.75,32.75,0,0,1-14-2.88c4.81,1.49,11.75.87,18.67-2.09,7.08-3,12.4-7.75,14.55-12.36A8,8,0,0,1,129.18,155Z"/><polygon class="cls-8" points="277.5 283.64 287.95 344.88 242.71 379.64 226.5 312.64 275.5 279.64 277.5 283.64"/><path class="cls-8" d="M244.5,380.64l11,32s5,12,34-10c0-12-2-57-2-57l-28-3-15,36.63"/><g id="Левая_рука" data-name="Левая рука"><path class="cls-3" d="M273.73,453.81l6.24.26c3.75.16,6.92-2.41,7-5.71l.9-25.27c.12-3.3-2.85-6.13-6.6-6.29l-6.25-.26c-3.75-.16-6.91,2.41-7,5.71l-.91,25.27C267,450.83,270,453.65,273.73,453.81Z"/><path class="cls-3" d="M287,479.67h.13A4.29,4.29,0,0,0,291,475l-1-14.75a4.37,4.37,0,0,0-4.5-4.17h-.13a4.29,4.29,0,0,0-3.87,4.69l1,14.75A4.37,4.37,0,0,0,287,479.67Z"/><path class="cls-3" d="M278,479.63h.08a2.67,2.67,0,0,0,2.68-2.68L281,461.3a2.73,2.73,0,0,0-2.6-2.8h-.08a2.68,2.68,0,0,0-2.68,2.68l-.23,15.66A2.71,2.71,0,0,0,278,479.63Z"/><path class="cls-3" d="M267.88,482.7l.11,0a3.68,3.68,0,0,0,4.15-3.13L275,462.2a3.71,3.71,0,0,0-2.95-4.31l-.11,0a3.69,3.69,0,0,0-4.15,3.14l-2.81,17.38A3.7,3.7,0,0,0,267.88,482.7Z"/><path class="cls-3" d="M255.63,463.75l.12.11a5,5,0,0,0,7.08-.31l7.4-8.37a5,5,0,0,0-.61-7l-.12-.1a5,5,0,0,0-7.07.3l-7.4,8.37A5,5,0,0,0,255.63,463.75Z"/><ellipse class="cls-3" cx="276.91" cy="452.98" rx="10.16" ry="12.32" transform="translate(-244.46 553.18) rotate(-69.44)"/></g><polygon class="cls-8" points="44.68 269.49 35.68 364.49 62.68 375.49 100.68 286.49 44.68 269.49"/><path class="cls-8" d="M35.68,365.49c-2,4-5,30-5,36,7,4,15,6,23,7,0,0,11-27,8-31l-5-20Z"/><g id="Правая_рука" data-name="Правая рука"><rect class="cls-3" x="25.69" y="410.01" width="17.23" height="36.69" rx="6" ry="6" transform="translate(137.22 11.13) rotate(18.43)"/><rect class="cls-3" x="10.68" y="443.49" width="8" height="21" rx="4" ry="4" transform="translate(189.48 34.74) rotate(24.48)"/><rect class="cls-3" x="18.68" y="448.49" width="5" height="19" rx="2.5" ry="2.5" transform="translate(155.27 19.56) rotate(19.65)"/><rect class="cls-3" x="24.68" y="450.49" width="7" height="23" rx="3.5" ry="3.5" transform="translate(91.74 3.53) rotate(11.38)"/><rect class="cls-3" x="33.68" y="442.49" width="9" height="19" rx="4.5" ry="4.5" transform="translate(-88.65 16.48) rotate(-11.41)"/><ellipse class="cls-3" cx="27.68" cy="444.49" rx="12" ry="10"/></g><path class="cls-9" d="M121.51,559.64,102.3,664.32c-.37-.87-1.37-1.9-3.86-2.56L103,648.14H66.45l21.06-87.5,12-14Z"/><path class="cls-10" d="M133.5,430.64l-29,21-27,112s-13,21,48,5c7-22,30-120,30-120Z"/><polygon class="cls-11" points="66.45 648.14 63.38 660.86 63.21 661.59 62.01 661.14 62.08 660.85 65.01 648.14 66.45 648.14"/><polygon class="cls-11" points="63.38 660.86 63.21 661.59 62.01 661.14 62.08 660.85 63.38 660.86"/><path class="cls-12" d="M101.6,668.14H103v19H52.75c-6.75.25-30.66,1-41.14-.07C-.66,685.79,3,681.94,3,681.94l51.54-21.15,7.52.06-.07.29,1.2.45.17-.73,3.07-12.72H103l-4.57,13.62c2.49.66,3.49,1.69,3.86,2.56a2.29,2.29,0,0,1,.11,1.6l-.44.19Z"/><polygon class="cls-9" points="186.5 540.64 175.26 564.19 198.5 661.64 225.5 661.64 204.5 550.28 186.5 540.64"/><path class="cls-10" d="M143.5,441.64s11.18,124.72,26,127c13,2,3.83,13,40.68-8.45a7.28,7.28,0,0,0,3.52-7.46c-3.47-21.27-16.94-104.73-15.2-109.09,2-5-27-19-27-19Z"/><path class="cls-12" d="M223.7,652.08l-31.2-.44-42,33s-3,6,7,8,35,0,35,0l39-33S232.9,652.52,223.7,652.08Z"/><polygon class="cls-13" points="267.51 271.64 195.76 268.94 267.19 271.45 267.51 271.64"/><polygon class="cls-14" points="267.19 271.45 195.76 268.94 55.18 263.64 169.16 214.64 267.19 271.45"/><polygon class="cls-14" points="272.51 271.64 200.51 432.64 111.51 428.64 53.05 263.91 195.76 268.94 267.51 271.64 267.19 271.45 272.51 271.64"/><line class="cls-15" x1="48.68" y1="263.49" x2="108.68" y2="430.49"/><line class="cls-15" x1="200.68" y1="432.49" x2="274.68" y2="271.49"/><path class="cls-16" d="M222.37,372.69c-18.57,11.36-40.56,12.8-61.81,11.8-22.88-1.08-47.09-3.09-68.25-12.5-5.83-2.59-10.92,6-5,8.63,22.89,10.19,48.51,12.7,73.3,13.87,23,1.08,46.82-.91,66.86-13.17C232.9,378,227.88,369.32,222.37,372.69Z"/><rect class="cls-16" x="106.18" y="430.99" width="97" height="13" rx="6.5" ry="6.5"/><circle class="cls-16" cx="161.18" cy="304.99" r="9.5"/><circle class="cls-16" cx="160.18" cy="341.99" r="9.5"/><line class="cls-15" x1="168.68" y1="214.49" x2="274.68" y2="271.49"/><line class="cls-15" x1="48.68" y1="263.49" x2="168.68" y2="214.49"/><ellipse class="cls-14" cx="162.51" cy="201.99" rx="12.83" ry="12.5"/><polygon class="cls-14" points="132.99 205.1 154.31 219.99 156.54 194.08 132.99 205.1"/><polygon class="cls-14" points="193.25 205.41 171.66 219.91 169.9 193.97 193.25 205.41"/><line class="cls-15" x1="127.68" y1="204.49" x2="155.68" y2="224.49"/><line class="cls-15" x1="170.68" y1="224.49" x2="197.68" y2="206.49"/><line class="cls-15" x1="130.68" y1="204.49" x2="147.68" y2="195.49"/><line class="cls-15" x1="175.68" y1="194.49" x2="196.68" y2="205.49"/><path class="cls-17" d="M148.4,197.05c.92-1.56,2.78-1.77,4.1-2.87,1.73-1.44,1.95-2.58,4.26-3.7,3.07-1.49,18.07-2.29,17.72,3.6-.12,1.93,2.88,1.92,3,0,.47-7.83-11-7.62-16.36-7.67-3,0-5.76.2-8.1,2.25-1.5,1.32-2.46,3-4.14,4.15-1.46,1-2.18,1.21-3.07,2.73a1.5,1.5,0,0,0,2.59,1.51Z"/><path class="cls-17" d="M157.87,223.32a13.38,13.38,0,0,1,1.14-6.6l-2.35.3c2.42,2.54,5.64,2.68,9,2.29a8.12,8.12,0,0,0,3.87-1.15c.47-.33,1.9-2.27,1.46-2h-1.51a35.14,35.14,0,0,0-.27,3.79,14.36,14.36,0,0,0,.58,3.73c.55,1.84,3.45,1.06,2.89-.8-.78-2.65.84-7.57-1.69-9.31a1.44,1.44,0,0,0-1.51,0c-1.43,1-1.86,2.43-3.82,2.7-2.42.34-5,.49-6.84-1.41a1.52,1.52,0,0,0-2.36.3,16.71,16.71,0,0,0-1.55,8.12c.12,1.92,3.13,1.93,3,0Z"/><path class="cls-17" d="M145.79,197a217.71,217.71,0,0,1,5.78,26.72c.27,1.91,3.17,1.1,2.9-.79a219.74,219.74,0,0,0-5.78-26.73,1.51,1.51,0,0,0-2.9.8Z"/><path class="cls-17" d="M173.63,221.48a55.81,55.81,0,0,1,6.48-13.67c2.37-3.59,4.91-6.75,5.56-11.1.28-1.89-2.61-2.71-2.89-.8-.77,5.1-4.48,8.84-7,13.18a59.48,59.48,0,0,0-5,11.6c-.59,1.84,2.3,2.63,2.89.79Z"/><path class="cls-10" d="M89.5,69.75c8.91-30.34,45.18-46.4,81-35.88s57.67,43.66,48.76,74S80.59,100.09,89.5,69.75Z"/><path class="cls-10" d="M123,46.63c8.76-30.39,34.87-49.53,58.33-42.77S216.71,40.73,208,71.12,114.25,77,123,46.63Z"/></g></g></svg>