<svg xmlns="http://www.w3.org/2000/svg" viewBox="0 0 287 693.03"><defs><style>.cls-1{fill:#e3ae6a;stroke:#75593b;}.cls-1,.cls-10,.cls-11,.cls-2,.cls-3,.cls-4,.cls-6,.cls-7,.cls-8,.cls-9{stroke-miterlimit:10;}.cls-2{fill:#ba4522;stroke:#96311a;}.cls-2,.cls-3,.cls-4{stroke-width:2px;}.cls-3{fill:#e6e6e6;}.cls-3,.cls-4{stroke:#1c140d;}.cls-4{fill:#1c140d;}.cls-5{fill:#8c6842;}.cls-6{fill:#4b8c4b;stroke:#2b512b;}.cls-10,.cls-11,.cls-6,.cls-8{stroke-width:5px;}.cls-7{fill:#d9cbb1;stroke:#a59884;}.cls-8{fill:#2b512b;stroke:#1b301b;}.cls-9{fill:#3f2e1b;stroke:#000;stroke-width:3px;}.cls-10{fill:#683a20;stroke:#3f2e1b;}.cls-11{fill:#f7931e;stroke:#cc731b;}</style></defs><title>Ресурс 21</title><g id="Слой_2" data-name="Слой 2"><g id="Слой_1-2" data-name="Слой 1"><rect class="cls-1" x="95.21" y="90.91" width="87.1" height="83.19" transform="matrix(0.99, -0.16, 0.16, 0.99, -19.18, 23.57)"/><path class="cls-2" d="M194,108.64h14.52l-20,51-16-51S164,97.57,164,86.89c0-2.24-86.93,18.79-86.93,18.79a10.53,10.53,0,0,1-13-7.2,10.3,10.3,0,0,1-.41-2.89,10.54,10.54,0,0,1,7.6-10.1L178.94,54.6a10.48,10.48,0,0,1,13.39,10.07,1.34,1.34,0,0,1,0,.2c12,1.55,21.19,10.82,21.19,22C213.51,97.57,205.15,106.49,194,108.64Z"/><polygon class="cls-2" points="102 179.76 113.33 220.14 200.5 166.64 102 179.76"/><circle class="cls-3" cx="133.68" cy="121.49" r="7.5"/><rect class="cls-2" x="122.52" y="106.45" width="6.55" height="14.39" transform="translate(163.42 -51.65) rotate(60.73)"/><rect class="cls-2" x="134.27" y="106.26" width="6.55" height="11.65" transform="translate(296.18 32.61) rotate(114.21)"/><circle class="cls-4" cx="131.68" cy="122.49" r="3.5"/><rect class="cls-2" x="107.67" y="133.23" width="6.85" height="33" transform="translate(16.11 310.16) rotate(-112.8)"/><path class="cls-5" d="M134.18,159c0,6.63-9.63,12-21.5,12a32.75,32.75,0,0,1-14-2.88c4.81,1.49,11.75.87,18.67-2.09,7.08-3,12.4-7.75,14.55-12.36A8,8,0,0,1,134.18,159Z"/><path class="cls-6" d="M90.5,69.75c8.91-30.34,45.18-46.4,81-35.88s57.67,43.66,48.76,74S81.59,100.09,90.5,69.75Z"/><path class="cls-6" d="M124,46.63c8.76-30.39,34.87-49.53,58.33-42.77S217.71,40.73,209,71.12,115.25,77,124,46.63Z"/><polygon class="cls-6" points="272.5 281.64 282.95 342.88 237.71 377.64 221.5 310.64 270.5 277.64 272.5 281.64"/><path class="cls-6" d="M239.5,378.64l11,32s5,12,34-10c0-12-2-57-2-57l-28-3-15,36.63"/><g id="Левая_рука" data-name="Левая рука"><path class="cls-1" d="M268.73,451.81l6.24.26c3.75.16,6.92-2.41,7-5.71l.9-25.27c.12-3.3-2.85-6.13-6.6-6.29l-6.25-.26c-3.75-.16-6.91,2.41-7,5.71l-.91,25.27C262,448.83,265,451.65,268.73,451.81Z"/><path class="cls-1" d="M282,477.67h.13A4.29,4.29,0,0,0,286,473l-1-14.75a4.37,4.37,0,0,0-4.5-4.17h-.13a4.29,4.29,0,0,0-3.87,4.69l1,14.75A4.37,4.37,0,0,0,282,477.67Z"/><path class="cls-1" d="M273,477.63h.08a2.67,2.67,0,0,0,2.68-2.68L276,459.3a2.73,2.73,0,0,0-2.6-2.8h-.08a2.68,2.68,0,0,0-2.68,2.68l-.23,15.66A2.71,2.71,0,0,0,273,477.63Z"/><path class="cls-1" d="M262.88,480.7l.11,0a3.68,3.68,0,0,0,4.15-3.13L270,460.2a3.71,3.71,0,0,0-2.95-4.31l-.11,0a3.69,3.69,0,0,0-4.15,3.14l-2.81,17.38A3.7,3.7,0,0,0,262.88,480.7Z"/><path class="cls-1" d="M250.63,461.75l.12.11a5,5,0,0,0,7.08-.31l7.4-8.37a5,5,0,0,0-.61-7l-.12-.1a5,5,0,0,0-7.07.3l-7.4,8.37A5,5,0,0,0,250.63,461.75Z"/><ellipse class="cls-1" cx="271.91" cy="450.98" rx="10.16" ry="12.32" transform="translate(-245.83 547.2) rotate(-69.44)"/></g><polygon class="cls-6" points="42.68 269.49 33.68 364.49 60.68 375.49 98.68 286.49 42.68 269.49"/><path class="cls-6" d="M33.68,365.49c-2,4-5,30-5,36,7,4,15,6,23,7,0,0,11-27,8-31l-5-20Z"/><g id="Правая_рука" data-name="Правая рука"><rect class="cls-1" x="23.69" y="410.01" width="17.23" height="36.69" rx="6" ry="6" transform="translate(137.12 11.77) rotate(18.43)"/><rect class="cls-1" x="8.68" y="443.49" width="8" height="21" rx="4" ry="4" transform="translate(189.3 35.57) rotate(24.48)"/><rect class="cls-1" x="16.68" y="448.49" width="5" height="19" rx="2.5" ry="2.5" transform="translate(155.15 20.23) rotate(19.65)"/><rect class="cls-1" x="22.68" y="450.49" width="7" height="23" rx="3.5" ry="3.5" transform="translate(91.7 3.92) rotate(11.38)"/><rect class="cls-1" x="31.68" y="442.49" width="9" height="19" rx="4.5" ry="4.5" transform="translate(-88.69 16.09) rotate(-11.41)"/><ellipse class="cls-1" cx="25.68" cy="444.49" rx="12" ry="10"/></g><path class="cls-7" d="M121.51,558.64,102.3,663.32c-.37-.87-1.37-1.9-3.86-2.56L103,647.14H66.45l21.06-87.5,12-14Z"/><path class="cls-8" d="M133.5,429.64l-29,21-27,112s-13,21,48,5c7-22,30-120,30-120Z"/><polygon class="cls-9" points="66.45 647.14 63.38 659.86 63.21 660.59 62.01 660.14 62.08 659.85 65.01 647.14 66.45 647.14"/><polygon class="cls-9" points="63.38 659.86 63.21 660.59 62.01 660.14 62.08 659.85 63.38 659.86"/><path class="cls-8" d="M101.6,667.14H103v19H52.75c-6.75.25-30.66,1-41.14-.07C-.66,684.79,3,680.94,3,680.94l51.54-21.15,7.52.06-.07.29,1.2.45.17-.73,3.07-12.72H103l-4.57,13.62c2.49.66,3.49,1.69,3.86,2.56a2.29,2.29,0,0,1,.11,1.6l-.44.19Z"/><polygon class="cls-7" points="185.5 537.64 174.26 561.19 197.5 658.64 224.5 658.64 203.5 547.28 185.5 537.64"/><path class="cls-8" d="M142.5,438.64s11.18,124.72,26,127c13,2,3.83,13,40.68-8.45a7.28,7.28,0,0,0,3.52-7.46c-3.47-21.27-16.94-104.73-15.2-109.09,2-5-27-19-27-19Z"/><path class="cls-8" d="M222.7,649.08l-31.2-.44-42,33s-3,6,7,8,35,0,35,0l39-33S231.9,649.52,222.7,649.08Z"/><polygon class="cls-6" points="261.51 276.64 189.76 273.94 261.19 276.45 261.51 276.64"/><polygon class="cls-6" points="261.19 276.45 189.76 273.94 49.18 268.64 163.16 219.64 261.19 276.45"/><polygon class="cls-6" points="266.51 276.64 194.51 437.64 105.51 433.64 47.05 268.91 189.76 273.94 261.51 276.64 261.19 276.45 266.51 276.64"/><polygon class="cls-6" points="261.51 276.64 189.76 273.94 261.19 276.45 261.51 276.64"/><path class="cls-10" d="M216.37,377.69c-18.57,11.36-40.56,12.8-61.81,11.8-22.88-1.08-47.09-3.09-68.25-12.5-5.83-2.59-10.92,6-5,8.63,22.89,10.19,48.51,12.7,73.3,13.87,23,1.08,46.82-.91,66.86-13.17C226.9,383,221.88,374.32,216.37,377.69Z"/><rect class="cls-6" x="100.18" y="435.99" width="97" height="13" rx="6.5" ry="6.5"/><circle class="cls-11" cx="155.18" cy="309.99" r="9.5"/><circle class="cls-11" cx="154.18" cy="346.99" r="9.5"/><ellipse class="cls-11" cx="163.25" cy="209.1" rx="15.4" ry="15"/><polygon class="cls-11" points="134.83 195.19 135.06 226.4 161.97 210.6 134.83 195.19"/><polygon class="cls-11" points="193.18 195.19 192.95 226.4 166.04 210.6 193.18 195.19"/></g></g></svg>