<svg xmlns="http://www.w3.org/2000/svg" viewBox="0 0 287.5 694.03"><defs><style>.cls-1{fill:#db9b56;stroke:#75593b;}.cls-1,.cls-10,.cls-11,.cls-12,.cls-2,.cls-3,.cls-4,.cls-6,.cls-7,.cls-8,.cls-9{stroke-miterlimit:10;}.cls-2{fill:#444;stroke:#444;}.cls-2,.cls-3,.cls-4{stroke-width:2px;}.cls-3{fill:#e6e6e6;}.cls-3,.cls-4{stroke:#1c140d;}.cls-4{fill:#1c140d;}.cls-5{fill:#8c6842;}.cls-6{fill:#727272;stroke:#3f3f3f;stroke-width:6px;}.cls-7{fill:#f15a24;}.cls-10,.cls-7{stroke:#a34123;}.cls-10,.cls-11,.cls-12,.cls-7,.cls-9{stroke-width:5px;}.cls-8{fill:#3f2e1b;stroke:#000;stroke-width:3px;}.cls-9{fill:#4b8c4b;stroke:#2b512b;}.cls-10{fill:#a34123;}.cls-11{fill:#683a20;stroke:#3f2e1b;}.cls-12{fill:#f7931e;stroke:#cc731b;}</style></defs><title>asset</title><g id="Слой_2" data-name="Слой 2"><g id="Слой_1-2" data-name="Слой 1"><rect class="cls-1" x="133.18" y="200.99" width="53" height="31"/><rect class="cls-1" x="95.71" y="91.41" width="87.1" height="83.19" transform="matrix(0.99, -0.16, 0.16, 0.99, -19.25, 23.66)"/><path class="cls-2" d="M194.49,109.14H209l-20,51-16-51s-8.5-11.07-8.5-21.75c0-2.24-86.93,18.79-86.93,18.79a10.53,10.53,0,0,1-13-7.2,10.3,10.3,0,0,1-.41-2.89A10.54,10.54,0,0,1,71.78,86L179.44,55.1a10.48,10.48,0,0,1,13.39,10.07,1.34,1.34,0,0,1,0,.2c12,1.55,21.19,10.82,21.19,22C214,98.07,205.65,107,194.49,109.14Z"/><polygon class="cls-2" points="102.5 180.26 113.83 220.64 201 167.14 102.5 180.26"/><circle class="cls-3" cx="134.18" cy="121.99" r="7.5"/><rect class="cls-2" x="123.02" y="106.95" width="6.55" height="14.39" transform="translate(164.11 -51.83) rotate(60.73)"/><rect class="cls-2" x="134.77" y="106.76" width="6.55" height="11.65" transform="translate(297.34 32.86) rotate(114.21)"/><circle class="cls-4" cx="132.18" cy="122.99" r="3.5"/><rect class="cls-2" x="108.17" y="133.73" width="6.85" height="33" transform="translate(16.34 311.32) rotate(-112.8)"/><path class="cls-5" d="M134.68,159.49c0,6.63-9.63,12-21.5,12a32.75,32.75,0,0,1-14-2.88c4.81,1.49,11.75.87,18.67-2.09,7.08-3,12.4-7.75,14.55-12.36A8,8,0,0,1,134.68,159.49Z"/><path class="cls-6" d="M91,70.25c8.91-30.34,45.18-46.4,81-35.88s57.67,43.66,48.76,74S82.09,100.59,91,70.25Z"/><path class="cls-6" d="M124.51,47.13c8.76-30.39,34.87-49.53,58.33-42.77s35.37,36.87,26.61,67.26S115.75,77.51,124.51,47.13Z"/><polygon class="cls-7" points="273 282.14 283.45 343.38 238.21 378.14 222 311.14 271 278.14 273 282.14"/><path class="cls-7" d="M240,379.14l11,32s5,12,34-10c0-12-2-57-2-57l-28-3-15,36.63"/><g id="Левая_рука" data-name="Левая рука"><path class="cls-1" d="M269.23,452.31l6.24.26c3.75.16,6.92-2.41,7-5.71l.9-25.27c.12-3.3-2.85-6.13-6.6-6.29l-6.25-.26c-3.75-.16-6.91,2.41-7,5.71L262.62,446C262.5,449.33,265.48,452.15,269.23,452.31Z"/><path class="cls-1" d="M282.49,478.17h.13a4.29,4.29,0,0,0,3.87-4.69l-1-14.75a4.37,4.37,0,0,0-4.5-4.17h-.13a4.29,4.29,0,0,0-3.87,4.69L278,474A4.37,4.37,0,0,0,282.49,478.17Z"/><path class="cls-1" d="M273.48,478.13h.08a2.67,2.67,0,0,0,2.68-2.68l.24-15.65a2.73,2.73,0,0,0-2.6-2.8h-.08a2.68,2.68,0,0,0-2.68,2.68l-.23,15.66A2.71,2.71,0,0,0,273.48,478.13Z"/><path class="cls-1" d="M263.38,481.2l.11,0a3.68,3.68,0,0,0,4.15-3.13l2.82-17.39a3.71,3.71,0,0,0-2.95-4.31l-.11,0a3.69,3.69,0,0,0-4.15,3.14l-2.81,17.38A3.7,3.7,0,0,0,263.38,481.2Z"/><path class="cls-1" d="M251.13,462.25l.12.11a5,5,0,0,0,7.08-.31l7.4-8.37a5,5,0,0,0-.61-7l-.12-.1a5,5,0,0,0-7.07.3l-7.4,8.37A5,5,0,0,0,251.13,462.25Z"/><ellipse class="cls-1" cx="272.41" cy="451.48" rx="10.16" ry="12.32" transform="translate(-245.98 548) rotate(-69.44)"/></g><polygon class="cls-7" points="43.18 269.99 34.18 364.99 61.18 375.99 99.18 286.99 43.18 269.99"/><path class="cls-7" d="M34.18,366c-2,4-5,30-5,36,7,4,15,6,23,7,0,0,11-27,8-31l-5-20Z"/><g id="Правая_рука" data-name="Правая рука"><rect class="cls-1" x="24.19" y="410.51" width="17.23" height="36.69" rx="6" ry="6" transform="translate(137.3 11.63) rotate(18.43)"/><rect class="cls-1" x="9.18" y="443.99" width="8" height="21" rx="4" ry="4" transform="translate(189.55 35.41) rotate(24.48)"/><rect class="cls-1" x="17.18" y="448.99" width="5" height="19" rx="2.5" ry="2.5" transform="translate(155.35 20.09) rotate(19.65)"/><rect class="cls-1" x="23.18" y="450.99" width="7" height="23" rx="3.5" ry="3.5" transform="translate(91.81 3.83) rotate(11.38)"/><rect class="cls-1" x="32.18" y="442.99" width="9" height="19" rx="4.5" ry="4.5" transform="translate(-88.78 16.2) rotate(-11.41)"/><ellipse class="cls-1" cx="26.18" cy="444.99" rx="12" ry="10"/></g><path class="cls-1" d="M122,559.14,102.8,663.82c-.37-.87-1.37-1.9-3.86-2.56l4.57-13.62H67L88,560.14l12-14Z"/><path class="cls-6" d="M134,430.14l-29,21-27,112s-13,21,48,5c7-22,30-120,30-120Z"/><polygon class="cls-8" points="66.95 647.64 63.88 660.36 63.71 661.09 62.51 660.64 62.58 660.35 65.51 647.64 66.95 647.64"/><polygon class="cls-8" points="63.88 660.36 63.71 661.09 62.51 660.64 62.58 660.35 63.88 660.36"/><path class="cls-6" d="M102.1,667.64h1.41v19H53.25c-6.75.25-30.66,1-41.14-.07-12.27-1.28-8.59-5.13-8.59-5.13l51.54-21.15,7.52.06-.07.29,1.2.45.17-.73L67,647.64h36.56l-4.57,13.62c2.49.66,3.49,1.69,3.86,2.56a2.29,2.29,0,0,1,.11,1.6l-.44.19Z"/><polygon class="cls-1" points="186 538.14 174.76 561.69 198 659.14 225 659.14 204 547.78 186 538.14"/><path class="cls-6" d="M143,439.14s11.18,124.72,26,127c13,2,3.83,13,40.68-8.45a7.28,7.28,0,0,0,3.52-7.46C209.73,529,196.26,445.5,198,441.14c2-5-27-19-27-19Z"/><path class="cls-6" d="M223.2,649.58l-31.2-.44-42,33s-3,6,7,8,35,0,35,0l39-33S232.4,650,223.2,649.58Z"/><polygon class="cls-9" points="262.01 277.14 190.26 274.44 261.69 276.95 262.01 277.14"/><polygon class="cls-10" points="261.69 276.95 190.26 274.44 49.68 269.14 163.66 220.14 261.69 276.95"/><polygon class="cls-10" points="267.01 277.14 195.01 438.14 106.01 434.14 47.55 269.41 190.26 274.44 262.01 277.14 261.69 276.95 267.01 277.14"/><path class="cls-11" d="M216.87,378.19C198.3,389.55,176.31,391,155.06,390c-22.88-1.08-47.09-3.09-68.25-12.5-5.83-2.59-10.92,6-5,8.63,22.89,10.19,48.51,12.7,73.3,13.87,23,1.08,46.82-.91,66.86-13.17C227.4,383.47,222.38,374.82,216.87,378.19Z"/><rect class="cls-11" x="100.68" y="436.49" width="97" height="13" rx="6.5" ry="6.5"/><circle class="cls-12" cx="155.68" cy="310.49" r="9.5"/><circle class="cls-12" cx="154.68" cy="347.49" r="9.5"/></g></g></svg>