<svg xmlns="http://www.w3.org/2000/svg" viewBox="0 0 288 684.03"><defs><style>.cls-1{fill:#8d704e;stroke:#5e4934;}.cls-1,.cls-10,.cls-12,.cls-2,.cls-3,.cls-4,.cls-5,.cls-8,.cls-9{stroke-miterlimit:10;}.cls-1,.cls-12,.cls-3{stroke-width:5px;}.cls-2{fill:#e3ae6a;stroke:#75593b;}.cls-12,.cls-3{fill:#2c3b36;}.cls-3{stroke:#1b2320;}.cls-4,.cls-8{fill:#3f2e1b;}.cls-4{stroke:#000;}.cls-4,.cls-5{stroke-width:3px;}.cls-5,.cls-6{fill:#992f21;}.cls-5{stroke:#681f19;}.cls-10,.cls-7{fill:#1c140d;}.cls-10,.cls-8,.cls-9{stroke:#1c140d;stroke-width:2px;}.cls-9{fill:#e6e6e6;}.cls-11{fill:#8c6842;}.cls-12{stroke:#19211e;}</style></defs><title>Ресурс 23</title><g id="Слой_2" data-name="Слой 2"><g id="Слой_1-2" data-name="Слой 1"><polygon class="cls-1" points="273.5 270.64 283.95 331.88 238.71 366.64 222.5 299.64 271.5 266.64 273.5 270.64"/><path class="cls-1" d="M240.5,367.64l11,32s5,12,34-10c0-12-2-57-2-57l-28-3-15,36.63"/><g id="Левая_рука" data-name="Левая рука"><path class="cls-2" d="M269.73,440.81l6.24.26c3.75.16,6.92-2.41,7-5.71l.9-25.27c.12-3.3-2.85-6.13-6.6-6.29l-6.25-.26c-3.75-.16-6.91,2.41-7,5.71l-.91,25.27C263,437.83,266,440.65,269.73,440.81Z"/><path class="cls-2" d="M283,466.67h.13A4.29,4.29,0,0,0,287,462l-1-14.75a4.37,4.37,0,0,0-4.5-4.17h-.13a4.29,4.29,0,0,0-3.87,4.69l1,14.75A4.37,4.37,0,0,0,283,466.67Z"/><path class="cls-2" d="M274,466.63h.08a2.67,2.67,0,0,0,2.68-2.68L277,448.3a2.73,2.73,0,0,0-2.6-2.8h-.08a2.68,2.68,0,0,0-2.68,2.68l-.23,15.66A2.71,2.71,0,0,0,274,466.63Z"/><path class="cls-2" d="M263.88,469.7l.11,0a3.68,3.68,0,0,0,4.15-3.13L271,449.2a3.71,3.71,0,0,0-2.95-4.31l-.11,0a3.69,3.69,0,0,0-4.15,3.14l-2.81,17.38A3.7,3.7,0,0,0,263.88,469.7Z"/><path class="cls-2" d="M251.63,450.75l.12.11a5,5,0,0,0,7.08-.31l7.4-8.37a5,5,0,0,0-.61-7l-.12-.1a5,5,0,0,0-7.07.3l-7.4,8.37A5,5,0,0,0,251.63,450.75Z"/><ellipse class="cls-2" cx="272.91" cy="439.98" rx="10.16" ry="12.32" transform="translate(-234.89 541) rotate(-69.44)"/></g><polygon class="cls-1" points="41.68 258.49 32.68 353.49 59.68 364.49 97.68 275.49 41.68 258.49"/><path class="cls-1" d="M32.68,354.49c-2,4-5,30-5,36,7,4,15,6,23,7,0,0,11-27,8-31l-5-20Z"/><g id="Правая_рука" data-name="Правая рука"><rect class="cls-2" x="22.69" y="399.01" width="17.23" height="36.69" rx="6" ry="6" transform="translate(133.59 11.52) rotate(18.43)"/><rect class="cls-2" x="7.68" y="432.49" width="8" height="21" rx="4" ry="4" transform="translate(184.65 35) rotate(24.48)"/><rect class="cls-2" x="15.68" y="437.49" width="5" height="19" rx="2.5" ry="2.5" transform="translate(151.4 19.93) rotate(19.65)"/><rect class="cls-2" x="21.68" y="439.49" width="7" height="23" rx="3.5" ry="3.5" transform="translate(89.51 3.9) rotate(11.38)"/><rect class="cls-2" x="30.68" y="431.49" width="9" height="19" rx="4.5" ry="4.5" transform="translate(-86.53 15.67) rotate(-11.41)"/><ellipse class="cls-2" cx="24.68" cy="433.49" rx="12" ry="10"/></g><path class="cls-2" d="M120.51,547.64,101.3,652.32c-.37-.87-1.37-1.9-3.86-2.56L102,636.14H65.45l21.06-87.5,12-14Z"/><path class="cls-3" d="M132.5,418.64l-29,21-27,112s-13,21,48,5c7-22,30-120,30-120Z"/><path class="cls-4" d="M100.6,656.14H102v19H51.75c-6.75.25-30.66,1-41.14-.07C-1.66,673.79,2,669.94,2,669.94l51.54-21.15,7.52.06-.07.29,1.2.45.17-.73,3.07-12.72H102l-4.57,13.62c2.49.66,3.49,1.69,3.86,2.56a2.29,2.29,0,0,1,.11,1.6l-.44.19Z"/><polygon class="cls-2" points="184.5 529.64 173.26 553.19 196.5 650.64 223.5 650.64 202.5 539.28 184.5 529.64"/><path class="cls-3" d="M141.5,430.64s11.18,124.72,26,127c13,2,3.83,13,40.68-8.45a7.28,7.28,0,0,0,3.52-7.46c-3.47-21.27-16.94-104.73-15.2-109.09,2-5-27-19-27-19Z"/><path class="cls-4" d="M221.7,641.08l-31.2-.44-42,33s-3,6,7,8,35,0,35,0l39-33S230.9,641.52,221.7,641.08Z"/><ellipse class="cls-5" cx="160.18" cy="202.49" rx="19.5" ry="19"/><polygon class="cls-1" points="50.55 255.41 109 420.14 198 424.14 270 263.14 50.55 255.41"/><path class="cls-5" d="M262,260.69c-9,.56-15.9-5.22-24.8-3.41l-4.14.83a6.22,6.22,0,0,0-5.74.95c-.91.13-1.82.24-2.72.32-.11-.57-.22-1.13-.32-1.69-.75-4.11-5.72-4.29-8.36-2.21l-3.82,3a27.3,27.3,0,0,1-3.48-1.24l-.14-.06a5,5,0,0,0-4.82-4.36,5.23,5.23,0,0,0-7.67-.25c-2.15-1.49-5.42-1.44-7,.9-1.53-2.83-5.29-4.49-7.89-1.54q-2.33,2.66-4.44,5.45c-.89-3.15-5.37-4.17-7.84-2.29-1.65-2.59-5.45-4-7.72-1.14-.77.95-1.49,1.91-2.19,2.88-1.26-3.26-5.71-4.82-8.2-2.13-2.09-1.58-5.66-1.33-7.26.89l-.31-2.73c-.52-4.53-6.72-7.29-9.32-2.52-.16.3-.32.61-.49.91-1.55,0-3.12.18-4.57.32-.64-1.19-1.3-2.36-2-3.53-2.7-4.54-8.87-2.2-9.32,2.53,0,.54-.09,1.08-.14,1.63-1.63.05-3.26.09-4.88.11-1.73-1.36-4.29-1.94-6.07-.5A17.92,17.92,0,0,0,98,251.2c-1.4-3.91-7.2-5.3-9.1-1.34a4.71,4.71,0,0,0-5.14.72c-3.09-.47-6.19-1-9.28-1.74a5,5,0,0,0-6,3.79,5.14,5.14,0,0,0-4.43.73,15.32,15.32,0,0,0-1.39-1.26c-1.85-1.48-4.89-2-6.77-.42a4.71,4.71,0,0,0-5.19-.23c-2.11,1.25-3.43,4.67-1.79,6.84a21.25,21.25,0,0,1,4.59,13.51c-.06,6.44,9.92,6.44,10,0,0-.77,0-1.54,0-2.31,0-.11,0-.2,0-.3a4.11,4.11,0,0,0,2.71-.42,4.29,4.29,0,0,0,4.3,1.39l.27,1.5a4.48,4.48,0,0,0,3.45,3.41q-.15,6.66.07,13.31c.19,5.35,8.85,7.14,9.82,1.33q1.2-7.06,2.74-14c2,1.15,4.56,1.11,6-.7A4.87,4.87,0,0,0,98,274.7c2,2.4,5.9,3.11,7.89.23,2,2.26,6.42,1.77,8.13-.92.37-.58.73-1.17,1.09-1.76a5.78,5.78,0,0,0,.91.23q-.19,4.9-.27,9.81c-.05,4.08,5.69,6.94,8.54,3.54a76.59,76.59,0,0,0,5.45-7.43c2.26,1.67,5.82,1.48,7.34-1.35.36-.67.74-1.38,1.12-2.11a4,4,0,0,0,5.5-.88l.83-1.09a5.41,5.41,0,0,0,5.83,1.33c1,5.11,7.71,5.46,9.7.54.14-.34.29-.67.43-1,.89,4.08,7.09,6.29,9.21,1.77l.63-1.34c2.14,2.26,5.87,2.81,7.77-.68q1.45-2.67,3.07-5.2l.51,4.32c.57,4.84,6.41,6.92,9.32,2.53l.58-.88a4.87,4.87,0,0,0,4.19-2.37c.21-.35.43-.7.64-1.06a5.08,5.08,0,0,0,5.06,3c1.82,1.85,5,1.75,7.14,0s4.15-3.27,6.22-4.91c.58.08,1.16.15,1.75.2.46,1.74,1,3.46,1.62,5.16,1.57,4.22,6.54,4.76,9.14,1.2l.31-.43c1.42,2.7,5.9,3.19,8,1l1.19-1.29c0,.69.09,1.39.13,2.09.21,3.82,5.66,7.24,8.54,3.53.89-1.15,3-2.92,4.34-4.54l.09.07c2,1.68,5.16,2.15,7.07,0a26.34,26.34,0,0,1,7.59-6C268.86,267.74,267,260.38,262,260.69Z"/><polygon class="cls-6" points="43 255.14 163.25 206.14 267 263.14 43 255.14"/><path class="cls-7" d="M219.87,364.19C201.3,375.55,179.31,377,158.06,376c-22.88-1.08-47.09-3.09-68.25-12.5-5.83-2.59-10.92,6-5,8.63,22.89,10.19,48.51,12.7,73.3,13.87,23,1.08,46.82-.91,66.86-13.17C230.4,369.47,225.38,360.82,219.87,364.19Z"/><rect class="cls-1" x="103.68" y="422.49" width="97" height="13" rx="6.5" ry="6.5"/><circle class="cls-7" cx="158.68" cy="296.49" r="9.5"/><circle class="cls-7" cx="157.68" cy="333.49" r="9.5"/><rect class="cls-2" x="100.21" y="90.91" width="87.1" height="83.19" transform="matrix(0.99, -0.16, 0.16, 0.99, -19.12, 24.36)"/><path class="cls-8" d="M199,108.64h14.52l-20,51-16-51S169,97.57,169,86.89c0-2.24-86.93,18.79-86.93,18.79a10.53,10.53,0,0,1-13-7.2,10.3,10.3,0,0,1-.41-2.89,10.54,10.54,0,0,1,7.6-10.1L183.94,54.6a10.48,10.48,0,0,1,13.39,10.07,1.34,1.34,0,0,1,0,.2c12,1.55,21.19,10.82,21.19,22C218.51,97.57,210.15,106.49,199,108.64Z"/><polygon class="cls-8" points="107 179.76 118.33 220.14 205.5 166.64 107 179.76"/><circle class="cls-9" cx="138.68" cy="121.49" r="7.5"/><rect class="cls-8" x="127.52" y="106.45" width="6.55" height="14.39" transform="translate(165.98 -56.01) rotate(60.73)"/><rect class="cls-8" x="139.27" y="106.26" width="6.55" height="11.65" transform="translate(303.23 28.05) rotate(114.21)"/><circle class="cls-10" cx="136.68" cy="122.49" r="3.5"/><rect class="cls-8" x="112.67" y="133.23" width="6.85" height="33" transform="translate(23.05 314.77) rotate(-112.8)"/><path class="cls-11" d="M139.18,159c0,6.63-9.63,12-21.5,12a32.75,32.75,0,0,1-14-2.88c4.81,1.49,11.75.87,18.67-2.09,7.08-3,12.4-7.75,14.55-12.36A8,8,0,0,1,139.18,159Z"/><path class="cls-12" d="M95.5,69.75c8.91-30.34,45.18-46.4,81-35.88s57.67,43.66,48.76,74S86.59,100.09,95.5,69.75Z"/><path class="cls-12" d="M129,46.63c8.76-30.39,34.87-49.53,58.33-42.77S222.71,40.73,214,71.12,120.25,77,129,46.63Z"/></g></g></svg>