<svg viewBox="0 0 616 989" fill="none" xmlns="http://www.w3.org/2000/svg">
<g filter="url(#filter0_i)">
<path d="M518.802 0H97.1981C43.5171 0 0 43.5171 0 97.1981V891.288C0 944.969 43.5171 988.486 97.1981 988.486H518.802C572.483 988.486 616 944.969 616 891.288V97.1981C616 43.5171 572.483 0 518.802 0Z" fill="#975631"/>
</g>
<path d="M317.48 217.841L311.23 191.686L276.894 201.534L317.48 217.841Z" fill="#AF6439"/>
<path d="M319.436 195.697L241.864 208.094L253.705 282.183L331.276 269.786L319.436 195.697Z" fill="#AF6439"/>
<path d="M322.828 168.661L225.733 196.521C220.706 197.963 217.8 203.208 219.242 208.235C220.685 213.263 225.93 216.169 230.957 214.726L328.052 186.866C333.079 185.424 335.985 180.179 334.543 175.152C333.1 170.125 327.856 167.218 322.828 168.661Z" fill="#AF6439"/>
<path d="M331.685 217.841C344.013 217.841 354.007 208.856 354.007 197.773C354.007 186.691 344.013 177.706 331.685 177.706C319.357 177.706 309.363 186.691 309.363 197.773C309.363 208.856 319.357 217.841 331.685 217.841Z" fill="#AF6439"/>
<path d="M317.029 217.389L331.459 263.386L349.497 217.389H317.029Z" fill="#AF6439"/>
<path d="M253.445 281.533L263.654 317.952L342.282 269.7L253.445 281.533Z" fill="#AF6439"/>
<path d="M315.676 329.224C325.389 329.224 333.263 321.552 333.263 312.088C333.263 302.624 325.389 294.952 315.676 294.952C305.963 294.952 298.089 302.624 298.089 312.088C298.089 321.552 305.963 329.224 315.676 329.224Z" fill="#AF6439"/>
<path d="M206.095 367.105L314.54 322.912L408.121 374.321L206.095 367.105Z" fill="#AF6439"/>
<path d="M212.895 367.348L265.62 515.918L345.89 519.526L410.827 374.319L212.895 367.348Z" fill="#AF6439"/>
<path d="M203.389 367.105L195.272 452.786L219.623 462.707L253.896 382.438L203.389 367.105Z" fill="#AF6439"/>
<path d="M195.272 453.688C193.468 457.295 190.763 480.745 190.763 486.156C197.076 489.764 204.291 491.568 211.506 492.47C211.506 492.47 221.427 468.118 218.722 464.511L214.212 446.473L195.272 453.688Z" fill="#AF6439"/>
<path d="M412.631 377.928L422.047 433.16L381.254 464.511L366.634 404.083L410.827 374.32L412.631 377.928Z" fill="#AF6439"/>
<path d="M382.868 465.413L392.789 494.274C392.789 494.274 397.298 505.097 423.453 485.255C423.453 474.432 421.65 433.846 421.65 433.846L396.396 431.141L382.868 464.177" fill="#AF6439"/>
<path d="M201.556 495.439L197.081 493.948C194.245 493.003 191.181 494.536 190.236 497.371L183.196 518.497C182.251 521.332 183.784 524.397 186.619 525.342L191.094 526.833C193.93 527.778 196.994 526.245 197.939 523.41L204.979 502.284C205.924 499.449 204.391 496.384 201.556 495.439Z" fill="#AF6439"/>
<path d="M182.092 529.672C182.918 527.858 182.117 525.719 180.304 524.893C178.49 524.068 176.351 524.868 175.526 526.682L170.667 537.353C169.842 539.166 170.642 541.305 172.456 542.131C174.269 542.956 176.408 542.156 177.234 540.342L182.092 529.672Z" fill="#AF6439"/>
<path d="M186.481 531.927C186.9 530.754 186.289 529.464 185.116 529.045C183.943 528.627 182.653 529.238 182.234 530.411L177.988 542.302C177.57 543.475 178.181 544.765 179.354 545.184C180.526 545.602 181.817 544.991 182.235 543.818L186.481 531.927Z" fill="#AF6439"/>
<path d="M193.062 534.267C193.406 532.558 192.3 530.894 190.591 530.55C188.882 530.206 187.217 531.312 186.873 533.021L184.026 547.168C183.682 548.877 184.789 550.542 186.498 550.886C188.207 551.23 189.871 550.123 190.215 548.414L193.062 534.267Z" fill="#AF6439"/>
<path d="M200.621 526.47C200.178 524.273 198.037 522.851 195.84 523.295C193.642 523.738 192.221 525.879 192.664 528.076L194.448 536.917C194.892 539.114 197.033 540.536 199.23 540.092C201.427 539.649 202.849 537.508 202.405 535.311L200.621 526.47Z" fill="#AF6439"/>
<path d="M188.057 533.958C194.034 533.958 198.88 529.92 198.88 524.939C198.88 519.958 194.034 515.92 188.057 515.92C182.079 515.92 177.234 519.958 177.234 524.939C177.234 529.92 182.079 533.958 188.057 533.958Z" fill="#AF6439"/>
<path d="M409.222 531.403L414.859 531.638C418.241 531.782 421.091 529.464 421.172 526.488L421.993 503.697C422.101 500.721 419.422 498.168 416.031 498.024L410.403 497.79C407.021 497.645 404.162 499.963 404.09 502.948L403.269 525.74C403.161 528.716 405.867 531.268 409.222 531.403Z" fill="#AF6439"/>
<path d="M421.199 554.727H421.325C422.349 554.629 423.292 554.128 423.947 553.335C424.601 552.542 424.914 551.521 424.816 550.498L423.914 537.185C423.867 536.153 423.416 535.18 422.659 534.476C421.901 533.773 420.898 533.395 419.864 533.424H419.747C419.24 533.472 418.747 533.619 418.296 533.858C417.846 534.096 417.447 534.421 417.123 534.814C416.799 535.207 416.555 535.661 416.407 536.148C416.258 536.635 416.207 537.147 416.257 537.654L417.159 550.966C417.203 551.998 417.652 552.971 418.408 553.675C419.164 554.379 420.167 554.757 421.199 554.727V554.727Z" fill="#AF6439"/>
<path d="M413.082 554.69H413.154C413.795 554.69 414.41 554.435 414.863 553.982C415.317 553.529 415.571 552.914 415.571 552.273L415.779 538.158C415.798 537.515 415.565 536.89 415.128 536.417C414.691 535.945 414.086 535.663 413.443 535.633H413.362C413.045 535.633 412.731 535.695 412.438 535.817C412.145 535.939 411.88 536.117 411.656 536.341C411.432 536.566 411.255 536.832 411.134 537.126C411.014 537.419 410.952 537.733 410.954 538.05L410.737 552.174C410.72 552.817 410.956 553.441 411.395 553.912C411.833 554.382 412.439 554.662 413.082 554.69Z" fill="#AF6439"/>
<path d="M403.955 557.459H404.054C404.924 557.58 405.807 557.35 406.509 556.821C407.211 556.292 407.674 555.506 407.797 554.636L410.376 538.97C410.535 538.103 410.346 537.209 409.849 536.481C409.353 535.754 408.589 535.251 407.725 535.083H407.625C407.194 535.021 406.755 535.046 406.333 535.155C405.912 535.264 405.516 535.455 405.168 535.717C404.82 535.979 404.528 536.308 404.307 536.683C404.087 537.059 403.942 537.474 403.883 537.905L401.339 553.581C401.184 554.44 401.371 555.326 401.86 556.051C402.348 556.775 403.1 557.28 403.955 557.459V557.459Z" fill="#AF6439"/>
<path d="M392.906 540.368L393.015 540.467C393.451 540.869 393.962 541.18 394.519 541.384C395.075 541.587 395.667 541.679 396.259 541.654C396.851 541.629 397.433 541.487 397.97 541.237C398.508 540.987 398.99 540.634 399.391 540.197L406.065 532.639C406.823 531.727 407.192 530.553 407.09 529.371C406.989 528.189 406.426 527.095 405.524 526.325L405.416 526.235C404.979 525.833 404.468 525.52 403.91 525.316C403.353 525.111 402.76 525.019 402.167 525.044C401.574 525.069 400.991 525.211 400.453 525.462C399.915 525.713 399.431 526.068 399.03 526.506L392.356 534.055C391.599 534.968 391.232 536.143 391.335 537.324C391.438 538.506 392.003 539.6 392.906 540.368Z" fill="#AF6439"/>
<path d="M422.501 534.565C424.278 529.826 421.061 524.238 415.315 522.083C409.569 519.928 403.47 522.022 401.693 526.76C399.916 531.499 403.133 537.087 408.879 539.242C414.625 541.397 420.723 539.303 422.501 534.565Z" fill="#AF6439"/>
<path d="M340.929 516.821H265.17C261.932 516.821 259.307 519.446 259.307 522.684C259.307 525.921 261.932 528.546 265.17 528.546H340.929C344.167 528.546 346.792 525.921 346.792 522.684C346.792 519.446 344.167 516.821 340.929 516.821Z" fill="#AF6439"/>
<path d="M285.462 509.605L259.307 528.545L234.956 629.559C234.956 629.559 223.231 648.499 278.247 634.068C284.561 614.226 305.304 525.84 305.304 525.84L285.462 509.605Z" fill="#AF6439"/>
<path d="M294.481 522.233C294.481 522.233 304.556 634.718 317.931 636.774C329.656 638.578 321.385 648.499 354.611 629.153C355.759 628.486 356.678 627.487 357.246 626.288C357.814 625.088 358.006 623.745 357.795 622.434C354.656 603.242 342.517 527.969 344.086 524.037C345.89 519.527 319.735 506.9 319.735 506.9L294.481 522.233Z" fill="#AF6439"/>
<path d="M254.798 614.227L243.975 626.853L220.525 724.259H256.602L274.64 625.951L254.798 614.227Z" fill="#AF6439"/>
<path d="M333.263 611.521L323.126 632.76L344.086 720.651H368.438L349.498 620.215L333.263 611.521Z" fill="#AF6439"/>
<path d="M366.814 712.03L338.674 711.633L300.795 741.396C300.795 741.396 298.089 746.807 307.108 748.611C316.127 750.415 338.674 748.611 338.674 748.611L373.849 718.848C373.849 718.848 375.102 712.426 366.814 712.03Z" fill="#AF6439"/>
<path d="M257.954 705.77L250.324 728.488L220.976 717.494L223.682 705.77H257.954Z" fill="#AF6439"/>
<path d="M248.782 717.44L214.257 717.179L167.764 736.254C167.764 736.254 164.445 739.726 175.511 740.881C186.578 742.035 214.239 740.881 214.239 740.881L257.404 721.805C257.404 721.805 258.964 717.693 248.782 717.44Z" fill="#AF6439"/>
<path d="M257.954 723.808H209.251V740.944H257.954V723.808Z" fill="#AF6439"/>
<defs>
<filter id="filter0_i" x="0" y="0" width="616" height="992.486" filterUnits="userSpaceOnUse" color-interpolation-filters="sRGB">
<feFlood flood-opacity="0" result="BackgroundImageFix"/>
<feBlend mode="normal" in="SourceGraphic" in2="BackgroundImageFix" result="shape"/>
<feColorMatrix in="SourceAlpha" type="matrix" values="0 0 0 0 0 0 0 0 0 0 0 0 0 0 0 0 0 0 127 0" result="hardAlpha"/>
<feOffset dy="4"/>
<feGaussianBlur stdDeviation="2"/>
<feComposite in2="hardAlpha" operator="arithmetic" k2="-1" k3="1"/>
<feColorMatrix type="matrix" values="0 0 0 0 0 0 0 0 0 0 0 0 0 0 0 0 0 0 0.25 0"/>
<feBlend mode="normal" in2="shape" result="effect1_innerShadow"/>
</filter>
</defs>
</svg>
