<svg xmlns="http://www.w3.org/2000/svg" viewBox="0 0 106.78 104.49"><defs><style>.cls-1{fill:#ebeaea;}.cls-2{fill:#ac0129;}.cls-3{fill:#d90022;}.cls-4{fill:#890019;}.cls-5{fill:#700010;}.cls-6{fill:#faf9f9;}.cls-7{fill:#ededed;}.cls-8{fill:#e45961;}.cls-9{fill:#e45960;}.cls-10{fill:#e2838c;}</style></defs><title>Ресурс 25</title><g id="Слой_2" data-name="Слой 2"><g id="Слой_1-2" data-name="Слой 1"><path d="M71.66.28c.62-.49,1.21-.24,1.82,0a4.9,4.9,0,0,0,.61.21,19.79,19.79,0,0,0,2.43.91,2.82,2.82,0,0,0,.94.36.27.27,0,0,0,.28.1.43.43,0,0,0,.37.13c1.06.51,2.17.88,3.27,1.28a23.18,23.18,0,0,0,2.45.91.4.4,0,0,0,.33.13,17.84,17.84,0,0,0,2.1.81,23.52,23.52,0,0,0,2.42.91c.45.18.88.4,1.34.54A2.59,2.59,0,0,1,91.5,7.73c.94,1.37,1.93,2.7,2.89,4a21,21,0,0,0,1.46,2l.16.24q1.68,2.47,3.48,4.88a16.08,16.08,0,0,0,1.37,1.93,1.14,1.14,0,0,0,.35.49c1.1,1.66,2.26,3.27,3.45,4.86a9.72,9.72,0,0,0,1.06,1.48,5.17,5.17,0,0,0,.74,1.06c.47.47.3,1,.27,1.6,0,.24,0,.48,0,.73a17.82,17.82,0,0,0-.14,2.43,19.86,19.86,0,0,0-.18,2.43l-.15,2.44a22,22,0,0,0-.15,2.43,16.3,16.3,0,0,0-.15,2.42,20,20,0,0,0-.17,2.44,18.16,18.16,0,0,0-.15,2.44l0,.61a4.68,4.68,0,0,0-.1,1.35c-.17,1.66-.27,3.33-.3,5l-4,5a1,1,0,0,0-.34.42c-.68.7-1.3,1.45-1.91,2.21a2,2,0,0,0-.52.6L96.93,65,96,66a12.67,12.67,0,0,0-1.45,1.57,6.34,6.34,0,0,0-1,1.07,9.22,9.22,0,0,0-1.18,1.24l-3.84,4-.83.84-3.94,3.93c-1.66,1.65-3.31,3.31-5,5l-.88.85c-1.35,1.27-2.68,2.57-4,3.9a6.23,6.23,0,0,0-1,1c-1.34,1.23-2.63,2.5-3.9,3.8A7.87,7.87,0,0,0,68,94.18a10,10,0,0,0-1.19,1.16,12.33,12.33,0,0,0-1.46,1.43,8.24,8.24,0,0,0-1.12,1.09,5.75,5.75,0,0,0-1,1l-.14.13h0c-.95.87-1.89,1.75-2.75,2.7a5.06,5.06,0,0,0-.87.86,13.86,13.86,0,0,0-1.59,1.57c-.28.09-.39.63-.83.33a1,1,0,0,0-.47-.35,17.66,17.66,0,0,0-2-1.48,7,7,0,0,0-1.24-.93l-1.19-.91-4.89-3.68L47,96.77A18.43,18.43,0,0,0,45,95.31q-3.66-2.86-7.42-5.59a.71.71,0,0,0-.35-.26,20,20,0,0,0-2.09-1.57,7.66,7.66,0,0,0-1.33-1,5,5,0,0,0-1.1-.84q-2.29-1.83-4.7-3.54a1.92,1.92,0,0,0-.64-.49,15.82,15.82,0,0,0-1.79-1.35q-3.68-2.87-7.45-5.6l-.26-.2a18.72,18.72,0,0,0-2.16-1.62l0,0,0,0-.15-.12a4.51,4.51,0,0,0-1-.71,10.14,10.14,0,0,0-1.37-1.05L8.42,67.74l-.24-.17A23.71,23.71,0,0,0,6,65.9a5.12,5.12,0,0,0-1-.77,9.69,9.69,0,0,0-1.41-1.07c-.47-.51-1.17-.76-1.57-1.35a19.71,19.71,0,0,0-.17-2.43,18.11,18.11,0,0,0-.2-2.44,19.85,19.85,0,0,0-.17-2.43,13.4,13.4,0,0,0-.19-2.19V53a18.07,18.07,0,0,0-.16-2.44,21.92,21.92,0,0,0-.21-2.43,22,22,0,0,0-.16-2.44l-.2-2.43c0-.81-.1-1.62-.17-2.43l-.2-2.43L0,35.94A19.79,19.79,0,0,0,.78,33.7l1.73-5,.84-2.45C4,24.61,4.52,23,5,21.35A20.57,20.57,0,0,0,5.83,19l.28-.84.56-1.59.86-2.55c.09-.23.17-.45.26-.67.17-.4.17-.88.63-1.11a5.53,5.53,0,0,0,1.23-.64A4.81,4.81,0,0,0,10.84,11c1.65-.78,3.27-1.63,4.88-2.51a34.79,34.79,0,0,0,3.14-1.65A9.68,9.68,0,0,0,20.56,6c1.65-.8,3.28-1.63,4.87-2.53l.38-.19.09,0a15.9,15.9,0,0,0,2-1A.67.67,0,0,0,28.23,2a1.14,1.14,0,0,1,1.22,0,32.82,32.82,0,0,0,3.12,1.61Q35,5,37.59,6.16a8,8,0,0,0,1.46.73c1.1.65,2.25,1.2,3.4,1.75q2.4,1.3,4.88,2.48a5.57,5.57,0,0,0,1.22.61c.37.18.67.62,1.17.34l2.49-1.36,4.86-2.62a26.37,26.37,0,0,0,2.46-1.31,25.22,25.22,0,0,0,2.4-1.29,17.7,17.7,0,0,0,2.14-1.16.81.81,0,0,0,.46-.23A19.91,19.91,0,0,0,66.8,2.87,8.28,8.28,0,0,0,68.38,2a2.21,2.21,0,0,0,.73-.38l.15-.09h0A22.86,22.86,0,0,0,71.66.28ZM15.56,12.13c-1.43.42-2.85.86-4.28,1.25a1.36,1.36,0,0,0-1.06,1.15c-.17.07-.21.23-.26.39-.21.65-.43,1.3-.66,1.94C8.53,19.05,7.74,21.23,7,23.41S5.4,27.7,4.71,29.87s-1.94,4.44-2.08,6.91c-.08,1.3-.34,2.59-.31,3.91a7.9,7.9,0,0,0,0,1.09c.3,1.61.4,3.24.58,4.86.24,2.07.43,4.14.65,6.2.27,2.47.58,4.93.8,7.4.08.9.26,1.64,1.21,2a8,8,0,0,1,.89.53,24.2,24.2,0,0,0,2.66,1.54l.23.15a1.41,1.41,0,0,0,.18.23c1.84,1.55,3.68,3.08,5.51,4.63s3.43,2.94,5.16,4.4,3.45,2.92,5.19,4.35a12.82,12.82,0,0,0,1.84,1.46,4.68,4.68,0,0,0,.38.39L35.72,86l9.32,7c1.21.91,2.37,1.88,3.63,2.72l1.61,1.08,6.7,4.49c.27.18.45.2.65-.09s.61-.81.92-1.21l9.83-9.82a.59.59,0,0,0,.24-.41,9.88,9.88,0,0,0,2-1.79c2.57-2.37,5.09-4.8,7.62-7.21l8.82-8.43c.17-.16.4-.3.41-.57.28,0,.41-.25.57-.43,1.19-1.34,2.34-2.71,3.54-4,1.82-2,3.6-4.09,5.33-6.18a9.18,9.18,0,0,0,1.63-1.94.9.9,0,0,0,.2-.14l3.8-4.5a1.27,1.27,0,0,0,.24-.73c.14-1.55.29-3.09.44-4.64.11-.82.08-1.65.13-2.48.12-1.89.12-3.79.16-5.69,0-.17,0-.33,0-.49l.33-8.28c0-.2.07-.4.12-.6a2.38,2.38,0,0,0-.51-2.52A8.57,8.57,0,0,1,102.6,28q-3.73-5-7.49-10c-.67-.88-1.27-1.82-2-2.64-.87-1.26-1.85-2.45-2.8-3.65-.65-1-1.3-1.9-1.93-2.86a1.41,1.41,0,0,0-.67-.49C85,7.26,82.23,6.12,79.5,5a23.28,23.28,0,0,0-3.09-1.21,2.13,2.13,0,0,0-.75-.38c-.78-.29-1.56-.57-2.31-.91a1.13,1.13,0,0,0-1.14.05c-1.58.9-3.16,1.8-4.75,2.66C63.27,7.51,59.07,9.76,54.89,12a22,22,0,0,0-2.82,1.63,18.75,18.75,0,0,0-2.44,1.06,1.08,1.08,0,0,1-1,0l-12.08-6a30,30,0,0,0-3.4-1.58c0-.07,0-.17-.1-.21L29.44,4.63a.45.45,0,0,0-.51,0q-3.53,2-7.06,4Z"/><path class="cls-1" d="M69.26,1.55l-.15.09Z"/><path class="cls-2" d="M9.36,64.44l-.23-.15v-.11a7.1,7.1,0,0,0,1.15-2.11c1.45-3,2.84-6,4.26-9l3.69-7.74c.72-1.5,1.47-3,2.15-4.48C21,39.6,21.67,38.37,22.15,37c.17-.14.09-.28,0-.43q-.29-.7-.54-1.41l-2.3-6.41c-.52-1.47-1.1-2.93-1.59-4.41s-1-3-1.6-4.42-1-2.93-1.67-4.33v-.25a3.93,3.93,0,0,1,.48.06l5.37,1.4,9.83,2.5c2,.51,4,1,5.95,1.58a4.06,4.06,0,0,1,1.49.43c0,.31-.27.44-.45.62l-12.94,13c-.61.61-1.21,1.24-1.81,1.86-.07.33.18.53.33.75q3.78,5.67,7.59,11.33C31,49.92,31.76,51,32.49,52L33,54.67l2.19,11.79,0,0c-1.18-.16-2.37-.2-3.56-.28q-2.89-.21-5.78-.48c-1.21-.11-2.41-.2-3.62-.27-1.79-.1-3.58-.3-5.36-.45l-3.44-.27Z"/><path class="cls-3" d="M103.25,49.23c-.15,1.55-.3,3.09-.44,4.64a1.27,1.27,0,0,1-.24.73l-3.8,4.5a.9.9,0,0,1-.2.14,2,2,0,0,0-.35,0l-7.39,1.6-12.6,2.68H78.1q1.26-6.34,2.51-12.69c0-.17.15-.38,0-.5s-.25.15-.4.19c-.1-.14-.2-.11-.29,0s0,.18,0,.25a.85.85,0,0,1-.37.38A4.2,4.2,0,0,1,79.16,50c0-.4.07-.94-.65-.67a.23.23,0,0,1-.16-.08c-.21-.34-.08-.79-.38-1.12-.13-.14.14-.26.16-.42a1.24,1.24,0,0,1,.46.42c0,.12-.08.43.26.23a1.21,1.21,0,0,1,.47.43c.07.17.09.39.37.32a2.34,2.34,0,0,1,.62.55.2.2,0,0,0,.17.16c.4.27.42-.12.52-.32,1.55-3.27,3.09-6.55,4.65-9.83,1-2.1,2-4.19,3-6.29C90.21,34.79,91.51,36.45,93,38c1.88,2,3.69,4.07,5.53,6.11,1,1.14,2,2.31,3.09,3.42A11.38,11.38,0,0,0,103.25,49.23Z"/><path class="cls-4" d="M48.67,95.8C47.41,95,46.25,94,45,93.08l-9.32-7-8.1-6.14a4.68,4.68,0,0,1-.38-.39c.51-.86,1-1.73,1.54-2.58C30,75,31.22,73,32.39,71c.9-1.52,1.83-3,2.76-4.52l0,0,4.39,2.34,8.83,4.7C50.59,74.67,52.8,75.81,55,77l.23.11a1.38,1.38,0,0,1,.12.34c.09,1.25.18,2.51.24,3.77a1.79,1.79,0,0,0,.26,1c-.54,0-.61.48-.86.79-1.6,1.93-2.94,4-4.5,6-.2.25-.49.49-.48.87a37.23,37.23,0,0,0-1.09,4.67A3.24,3.24,0,0,0,48.67,95.8Z"/><path class="cls-2" d="M55.85,82.16a1.79,1.79,0,0,1-.26-1c-.06-1.26-.15-2.52-.24-3.77a1.38,1.38,0,0,0-.12-.34l.37-.1.13-.16h0A.21.21,0,0,0,56,76.7h0a2.58,2.58,0,0,0,.39-.14L68.94,69l9.16-5.47h.13c0,.26.21.38.37.53,2,1.76,4,3.54,6,5.28a28.44,28.44,0,0,0,2.9,2.47c0,.27-.24.41-.41.57l-8.82,8.43c-2.53,2.41-5,4.84-7.62,7.21a9.88,9.88,0,0,1-2,1.79c-.05-.06-.08-.15-.15-.18L63.18,86.5c-1.47-.88-2.92-1.8-4.4-2.64C57.8,83.3,56.89,82.63,55.85,82.16Z"/><path class="cls-5" d="M22.15,37c-.48,1.33-1.19,2.56-1.77,3.85-.68,1.51-1.43,3-2.15,4.48l-3.69,7.74c-1.42,3-2.81,6-4.26,9a7.1,7.1,0,0,1-1.15,2.11C8.55,62.08,8,60,7.39,57.89L3.85,45c-.35-1.27-.7-2.53-1.06-3.79-.07-.24-.08-.56-.47-.51,0-1.32.23-2.61.31-3.91.14-2.47,1.35-4.62,2.08-6.91S6.2,25.56,7,23.41s1.57-4.36,2.34-6.55c.23-.64.45-1.29.66-1.94,0-.16.09-.32.26-.39a5.83,5.83,0,0,1,.83.08,24.84,24.84,0,0,0,3.31.55.22.22,0,0,0,.12.22v.25c-.14,0-.19.09-.25.22-.6,1.25-1.22,2.49-1.82,3.74-1.12,2.37-2.24,4.75-3.34,7.13-.92,2-1.81,3.94-2.72,5.91C5.2,35.08,4,37.53,2.87,40a.43.43,0,0,0,0,.35c.08.14.2.09.32.07,2.55-.33,5.05-1,7.59-1.37,1.09-.16,2.17-.43,3.25-.64,2.34-.43,4.67-.85,7-1.26C21.38,37.06,21.75,36.78,22.15,37Z"/><path class="cls-2" d="M76.41,3.82A23.28,23.28,0,0,1,79.5,5C82.23,6.12,85,7.26,87.68,8.38a1.41,1.41,0,0,1,.67.49c.63,1,1.28,1.91,1.93,2.86a1.46,1.46,0,0,0-.65.14c-1.73.72-3.45,1.45-5.19,2.15-1.47.59-3,1.07-4.44,1.72-2.11,1-4.31,1.68-6.42,2.63-1,.42-2,.72-2.89,1.22l-.24,0c-.15-.27-.43-.29-.68-.33-2-.38-3.94-1-5.92-1.45-2.67-.62-5.31-1.32-8-2-.16,0-.42,0-.45-.22s.22-.26.37-.34l7.88-4.37Q67.86,8.61,72,6.28C73.5,5.47,75,4.73,76.41,3.82Z"/><path class="cls-4" d="M14.48,15.38a.22.22,0,0,1-.12-.22l.13-.14a.5.5,0,0,0,.57,0c.79-.4,1.65-.66,2.43-1,1.71-.85,3.48-1.55,5.23-2.29,2-.84,4-1.74,6.07-2.58,1.45-.6,2.91-1.2,4.33-1.88a30,30,0,0,1,3.4,1.58l12.08,6a1.08,1.08,0,0,0,1,0,18.75,18.75,0,0,1,2.44-1.06A7.35,7.35,0,0,0,53.44,15c.44.34.44.46,0,.67-1.08.45-2.19.82-3.29,1.22-1.41.53-2.85,1-4.27,1.53-2,.73-4.08,1.43-6.11,2.19-.59.23-1.29.26-1.75.81l-.37-.1a4.06,4.06,0,0,0-1.49-.43c-2-.55-4-1.07-5.95-1.58l-9.83-2.5L15,15.44A3.93,3.93,0,0,0,14.48,15.38Z"/><path class="cls-5" d="M38,21.45c.46-.55,1.16-.58,1.75-.81,2-.76,4.07-1.46,6.11-2.19,1.42-.52,2.86-1,4.27-1.53,1.1-.4,2.21-.77,3.29-1.22.49-.21.49-.33,0-.67a7.35,7.35,0,0,1-1.37-1.36A22,22,0,0,1,54.89,12c4.18-2.28,8.38-4.53,12.57-6.8,1.59-.86,3.17-1.76,4.75-2.66a1.13,1.13,0,0,1,1.14-.05c.75.34,1.53.62,2.31.91a2.13,2.13,0,0,1,.75.38C75,4.73,73.5,5.47,72,6.28q-4.17,2.33-8.35,4.64L55.8,15.29c-.15.08-.42.11-.37.34s.29.18.45.22c2.66.68,5.3,1.38,8,2,2,.46,3.92,1.07,5.92,1.45.25,0,.53.06.68.33Q63.54,22.81,56.6,26a6.12,6.12,0,0,1-2,.77L44.55,23.52C42.36,22.81,40.19,22.06,38,21.45Z"/><path class="cls-3" d="M70.69,19.59c.92-.5,1.93-.8,2.89-1.22,2.11-.95,4.31-1.68,6.42-2.63,1.45-.65,3-1.13,4.44-1.72,1.74-.7,3.46-1.43,5.19-2.15a1.46,1.46,0,0,1,.65-.14c1,1.2,1.93,2.39,2.8,3.65a25.51,25.51,0,0,0-.85,3.31c-1,4-2,8-3,11.94a13.74,13.74,0,0,0-.54,2.53l0,.15-.33-.2a8.71,8.71,0,0,0-1.85-1.53c-2.69-2.07-5.41-4.1-8.12-6.15Z"/><path class="cls-5" d="M35.15,66.5c-.93,1.5-1.86,3-2.76,4.52C31.22,73,30,75,28.78,76.93c-.52.85-1,1.72-1.54,2.58a12.82,12.82,0,0,1-1.84-1.46c-1.74-1.43-3.47-2.89-5.19-4.35s-3.43-2.94-5.16-4.4-3.67-3.08-5.51-4.63a1.41,1.41,0,0,1-.18-.23l4,.31,3.44.27c1.78.15,3.57.35,5.36.45,1.21.07,2.41.16,3.62.27q2.88.27,5.78.48C32.78,66.3,34,66.34,35.15,66.5Z"/><path class="cls-5" d="M55.85,82.16c1,.47,1.95,1.14,2.93,1.7,1.48.84,2.93,1.76,4.4,2.64l5.29,3.16c.07,0,.1.12.15.18a.59.59,0,0,1-.24.41l-9.83,9.82a.75.75,0,0,0-.16-.45c-1-1-1.79-2.12-2.69-3.18C54.45,95,53.21,93.49,52,92A19.32,19.32,0,0,0,50,89.83c0-.38.28-.62.48-.87,1.56-2,2.9-4.08,4.5-6C55.24,82.64,55.31,82.14,55.85,82.16Z"/><path class="cls-2" d="M88.71,33.16a13.74,13.74,0,0,1,.54-2.53c1-4,2-8,3-11.94a25.51,25.51,0,0,1,.85-3.31c.76.82,1.36,1.76,2,2.64q3.77,5,7.49,10a8.57,8.57,0,0,0,.89,1.15,2.38,2.38,0,0,1,.51,2.52c0,.2-.08.4-.12.6a21.66,21.66,0,0,1-3,.22c-2.06.11-4.13.27-6.19.37S90.7,33.21,88.71,33.16Z"/><path class="cls-4" d="M88.71,33.16c2,.05,4-.19,6-.28s4.13-.26,6.19-.37a21.66,21.66,0,0,0,3-.22l-.33,8.28c0,.16,0,.32,0,.49,0,1.9,0,3.8-.16,5.69,0,.83,0,1.66-.13,2.48a11.38,11.38,0,0,1-1.68-1.72c-1.07-1.11-2.06-2.28-3.09-3.42C96.64,42.05,94.83,40,93,38c-1.44-1.53-2.74-3.19-4.29-4.62v0l0,0Z"/><path class="cls-5" d="M87.5,71.84a28.44,28.44,0,0,1-2.9-2.47c-2-1.74-4-3.52-6-5.28-.16-.15-.37-.27-.37-.53l12.6-2.68,7.39-1.6a2,2,0,0,1,.35,0,9.18,9.18,0,0,1-1.63,1.94c-1.73,2.09-3.51,4.16-5.33,6.18-1.2,1.34-2.35,2.71-3.54,4C87.91,71.59,87.78,71.82,87.5,71.84Z"/><path class="cls-5" d="M33.12,7.21c-1.42.68-2.88,1.28-4.33,1.88-2,.84-4,1.74-6.07,2.58C21,12.41,19.2,13.11,17.49,14c-.78.39-1.64.65-2.43,1a.5.5,0,0,1-.57,0,22.76,22.76,0,0,0,1.07-2.89l6.31-3.49q3.54-2,7.06-4a.45.45,0,0,1,.51,0L33,7S33.09,7.14,33.12,7.21Z"/><path class="cls-2" d="M2.32,40.69c.39,0,.4.27.47.51.36,1.26.71,2.52,1.06,3.79l3.54,12.9C8,60,8.55,62.08,9.13,64.18v.11a24.2,24.2,0,0,1-2.66-1.54,8,8,0,0,0-.89-.53c-1-.34-1.13-1.08-1.21-2-.22-2.47-.53-4.93-.8-7.4-.22-2.06-.41-4.13-.65-6.2-.18-1.62-.28-3.25-.58-4.86A7.9,7.9,0,0,1,2.32,40.69Z"/><path class="cls-2" d="M50,89.83A19.32,19.32,0,0,1,52,92c1.26,1.46,2.5,2.94,3.75,4.41.9,1.06,1.71,2.19,2.69,3.18a.75.75,0,0,1,.16.45c-.31.4-.63.79-.92,1.21s-.38.27-.65.09l-6.7-4.49L48.67,95.8a3.24,3.24,0,0,1,.25-1.3A37.23,37.23,0,0,1,50,89.83Z"/><path class="cls-2" d="M15.56,12.13A22.76,22.76,0,0,1,14.49,15l-.13.14a24.84,24.84,0,0,1-3.31-.55,5.83,5.83,0,0,0-.83-.08,1.36,1.36,0,0,1,1.06-1.15C12.71,13,14.13,12.55,15.56,12.13Z"/><path class="cls-6" d="M25.81,3.27a.11.11,0,0,1,.09,0Z"/><path class="cls-7" d="M63.26,98.81l-.14.13Z"/><path class="cls-1" d="M15.74,73.26l-.15-.12Z"/><path class="cls-3" d="M55.6,77l-.37.1L55,77a24.36,24.36,0,0,0-2.19-2.35c-3.63-3.75-7.39-7.39-11-11.15-2.73-2.83-5.54-5.58-8.32-8.36-.15-.16-.33-.29-.49-.44L32.49,52l5.95-6.72c1.74-2,3.5-3.92,5.25-5.89q3.24-3.65,6.47-7.31l4.26-4.82c.15-.17.29-.35.55-.3q7.81,7,15.62,14c2.52,2.25,5,4.52,7.54,6.78,0,.16-.29.28-.16.42.3.33.17.78.38,1.12a.23.23,0,0,0,.16.08c.72-.27.63.27.65.67a4.2,4.2,0,0,0,.41,1.19,2.69,2.69,0,0,1-.31.44q-2.94,3.15-5.89,6.28c-1.65,1.76-3.28,3.53-4.93,5.28q-4,4.23-7.94,8.45l-4.2,4.46c-.16.18-.35.35-.33.62h0a.2.2,0,0,0-.25.12h0Z"/><path class="cls-8" d="M55,27c-.26-.05-.4.13-.55.3l-4.26,4.82q-3.22,3.66-6.47,7.31c-1.75,2-3.51,3.92-5.25,5.89L32.49,52c-.73-1-1.46-2.07-2.17-3.13q-3.81-5.65-7.59-11.33c-.15-.22-.4-.42-.33-.75l12.39-3.85,15.06-4.66c1.6-.49,3.19-1,4.79-1.53a6.12,6.12,0,0,0,2-.77q6.93-3.15,13.85-6.34l.24,0,7.68,5.84c2.71,2.05,5.43,4.08,8.12,6.15a8.71,8.71,0,0,1,1.85,1.53c-1.83-.23-3.62-.65-5.42-1q-13.74-2.61-27.47-5.25C55.29,26.84,55.09,26.72,55,27Z"/><path class="cls-4" d="M22.15,37c-.4-.26-.77,0-1.14.08-2.34.41-4.67.83-7,1.26-1.08.21-2.16.48-3.25.64-2.54.4-5,1-7.59,1.37-.12,0-.24.07-.32-.07a.43.43,0,0,1,0-.35C4,37.53,5.2,35.08,6.35,32.63c.91-2,1.8-3.94,2.72-5.91,1.1-2.38,2.22-4.76,3.34-7.13.6-1.25,1.22-2.49,1.82-3.74.06-.13.11-.21.25-.22.67,1.4,1.11,2.89,1.67,4.33s1.12,2.93,1.6,4.42,1.07,2.94,1.59,4.41l2.3,6.41q.25.7.54,1.41C22.24,36.76,22.32,36.9,22.15,37Z"/><path class="cls-3" d="M54.64,26.74c-1.6.51-3.19,1-4.79,1.53L34.79,32.93,22.4,36.78c.6-.62,1.2-1.25,1.81-1.86L37.15,22c.18-.18.43-.31.45-.62l.37.1c2.22.61,4.39,1.36,6.58,2.07Z"/><path class="cls-9" d="M33,54.67c.16.15.34.28.49.44,2.78,2.78,5.59,5.53,8.32,8.36,3.63,3.76,7.39,7.4,11,11.15A24.36,24.36,0,0,1,55,77c-2.2-1.16-4.41-2.3-6.61-3.47l-8.83-4.7-4.39-2.34Z"/><path class="cls-10" d="M55,27c.12-.23.32-.11.48-.08q13.72,2.63,27.47,5.25c1.8.34,3.59.76,5.42,1l.33.2,0,0v0c-1,2.1-2,4.19-3,6.29-1.56,3.28-3.1,6.56-4.65,9.83-.1.2-.12.59-.52.32l-.17-.16a2.34,2.34,0,0,0-.62-.55.69.69,0,0,0-.37-.32,1.21,1.21,0,0,0-.47-.43.4.4,0,0,0-.26-.23,1.24,1.24,0,0,0-.46-.42c-2.51-2.26-5-4.53-7.54-6.78Q62.79,33.92,55,27Z"/><path class="cls-9" d="M56,76.7c0-.27.17-.44.33-.62l4.2-4.46q4-4.23,7.94-8.45c1.65-1.75,3.28-3.52,4.93-5.28q2.94-3.14,5.89-6.28a2.69,2.69,0,0,0,.31-.44.85.85,0,0,0,.37-.38l.24-.24c.15,0,.24-.3.4-.19s.07.33,0,.5q-1.24,6.35-2.51,12.69L68.94,69,56.36,76.56A2.58,2.58,0,0,1,56,76.7Z"/><path class="cls-3" d="M80.18,50.55l-.24.24c-.1-.07-.13-.15,0-.25S80.08,50.41,80.18,50.55Z"/><path class="cls-3" d="M79.32,48.77a.69.69,0,0,1,.37.32C79.41,49.16,79.39,48.94,79.32,48.77Z"/><path class="cls-3" d="M78.59,48.11a.4.4,0,0,1,.26.23C78.51,48.54,78.64,48.23,78.59,48.11Z"/><path class="cls-3" d="M80.31,49.64l.17.16A.2.2,0,0,1,80.31,49.64Z"/><path class="cls-9" d="M55.72,76.82A.2.2,0,0,1,56,76.7.21.21,0,0,1,55.72,76.82Z"/><path class="cls-9" d="M55.6,77l.13-.16Z"/></g></g></svg>