<svg xmlns="http://www.w3.org/2000/svg" viewBox="0 0 199.12 171.98"><defs><style>.cls-1,.cls-3{fill:#6a6a6a;}.cls-2{fill:#b8b8b8;}.cls-3{stroke:#6a6a6a;stroke-miterlimit:10;}</style></defs><title>hunger</title><g id="Слой_2" data-name="Слой 2"><g id="Слой_1-2" data-name="Слой 1"><path class="cls-1" d="M6.78,25.26c-3,.48-5,3.51-5.4,6.51s.58,6,1.53,8.87c4,12.22,8.36,24.4,14.69,35.6,1.46,2.58,3.1,5.19,5.57,6.84,7.87,5.22,20.48-1.28,27,5.52,3.3,3.43,3.35,8.75,3.29,13.51A357.55,357.55,0,0,0,55,139.43c.51,5.46,1.15,11,3.09,16.12a47.42,47.42,0,0,0,9,14.13,2.3,2.3,0,0,0,1.3.92c1.29.2,1.87-1.55,1.92-2.86.9-21.16-3.12-42.2-4.12-63.36-.38-8.09-.07-16.95,5.12-23.17,4.66-5.57,12.43-7.94,16.7-13.81a31.79,31.79,0,0,0,4-8.61l5-14.58c1.22-3.55,2.45-7.21,2.25-11-.24-4.56-2.56-8.7-4.87-12.63-1.68-2.85-3.7-5.92-6.91-6.73-3.38-.85-7,1.31-8.8,4.27s-2.33,6.55-2.65,10a155.19,155.19,0,0,0,.22,30.93c.28,2.53.55,5.33-.92,7.41a9.57,9.57,0,0,1-4.35,2.93c-2.52,1.05-5.69,1.83-7.77.05-1.87-1.61-1.84-4.45-1.77-6.91.37-11.75-1.54-23.45-4-34.93-.93-4.32-2-8.7-4.28-12.47S47,8.3,42.56,7.86a6.46,6.46,0,0,0-3.92.7,6.93,6.93,0,0,0-2.74,3.85c-2.23,6.51.36,13.71,4,19.56s8.36,11.07,11,17.42a24.4,24.4,0,0,1,1.47,15.2A17.63,17.63,0,0,1,43,76.35a4.94,4.94,0,0,1-2.75.56,5.31,5.31,0,0,1-2.63-1.55C25.53,64.09,25.14,45.22,17.57,30.51c-1.28-2.47-2.89-5-5.38-6.19s-6-.68-7.3,1.8"/><path d="M6.39,23.82C-4,26.82.84,39.32,3.21,46.27c3.87,11.38,8,24,15.07,33.89C23.9,88,32,86.34,40.52,86.74c7.92.37,11.2,4.63,11.48,12.47.23,6.53,0,13.08.18,19.61.42,12.48.09,27,5.07,38.69,1.2,2.83,8.87,18.91,13.54,13.28,2.29-2.75,1.1-9.52,1-12.66-.14-7-.69-14.09-1.36-21.11-1.21-12.82-3.35-25.89-3-38.8.19-6.1,1.35-12.47,5.75-17,3.72-3.86,8.81-6,12.79-9.58,3.37-3,5.23-6.75,6.75-10.93,2.37-6.46,4.85-13,6.71-19.67a21.56,21.56,0,0,0-.58-14.71c-1.75-4.21-4.26-9.49-8-12.28-7.35-5.45-14.38,2.29-15.84,9.3-1.11,5.34-1.19,11-1.29,16.46-.12,6.94,1.27,14,1,20.87-.13,3.67-2.49,8.38-7,8.23-6.4-.23-4.9-6.33-4.92-10A128.22,128.22,0,0,0,61.18,40c-1.56-9.9-2.64-23.49-11-30.37-6-5-14.21-4.42-16.2,3.86-3,12.44,7.6,22.32,13.27,32,4,6.88,6.05,15.49,2,22.85-2,3.59-6.52,8.7-11.06,5.37-2.29-1.68-4-4.6-5.4-7-6-10.19-7.49-22.26-12.08-33-1.71-4-3.83-9-8.12-10.86a7.12,7.12,0,0,0-9,2.48c-1.12,1.58,1.48,3.08,2.59,1.52,3.79-5.38,8.55,1.51,10.08,4.39a57,57,0,0,1,2.79,6.36c1.75,4.64,3.06,9.43,4.51,14.17,2.4,7.8,5.16,15.71,10.54,22,2,2.32,4.4,5.11,7.77,4.5s6.61-3.59,8.6-6.27c5-6.78,4.93-15.87,1.73-23.41C48.12,39,39.09,31.79,37,21.27,35.54,14.21,38.74,5.6,47.22,11.15c5.62,3.69,7.29,10.77,8.64,16.91a170.7,170.7,0,0,1,4,35.17c.08,7.25,4.45,10.47,11.45,7.68,9.44-3.77,6-13.25,5.64-21.44-.28-6.32-2-39.4,11-33.34,4.49,2.1,8.13,9.52,9.29,14.18,1.73,7-2,14.31-4.22,20.79C91.09,56.5,89.76,63,86,67.47c-3.16,3.71-7.7,5.88-11.53,8.78-6.69,5.09-9.37,12.2-9.86,20.42-.67,11.47,1.18,23.21,2.33,34.59.58,5.75,1.14,11.5,1.5,17.27q.25,3.84.37,7.68c.08,2.78,1,8.34-.06,10.88-.77,1.79.26,2-1.75.25a21.38,21.38,0,0,1-2.84-3.7,40.7,40.7,0,0,1-4-7.13c-2.61-6-3.24-12.57-3.8-19-1.15-13.25-.52-26.5-1.36-39.73-.54-8.5-5.23-13.52-13.77-14-4.66-.26-9.59.75-14.14-.58C20.43,81.25,17.37,73,14.69,67.33A193.13,193.13,0,0,1,7.3,49c-1.94-5.51-8.94-19.69-.12-22.24,1.85-.54,1.07-3.43-.79-2.89Z"/><path class="cls-1" d="M144.14,2.82c-7.09,1.5-13.39,5.89-18,11.52a52.12,52.12,0,0,0-9.43,19.44c-2.73,10.07-3.15,21.51,2.49,30.29,5.78,9,16.53,13.29,26.65,16.8,2.13.74,4.47,1.66,5.41,3.7a8.39,8.39,0,0,1,.53,3.19c.64,19.06.23,38.17,1.93,57.16.56,6.32,1.38,12.69,3.69,18.59a12.91,12.91,0,0,0,3.24,5.17,5.62,5.62,0,0,0,5.71,1.23,6.69,6.69,0,0,0,2.29-1.81c4.47-5.08,4.85-12.47,4.86-19.24A499.41,499.41,0,0,0,170.65,94c-.48-4.37-.83-9.33,2.1-12.6,3.74-4.16,10.5-3.18,15.56-5.56,3.85-1.82,6.53-5.58,7.87-9.63a38,38,0,0,0,1.4-12.63c-.3-15-4-31.07-15.5-40.72-8.74-7.36-20.56-9.79-31.91-11.09-2.62-.3-5.54-.47-7.57,1.2"/><path d="M143.75,1.37c-13.55,3.29-22.49,14.5-27,27.21C112.44,41,111,56.27,119.64,67.17c3.79,4.76,9,8.12,14.47,10.67,2.59,1.21,5.24,2.26,7.92,3.25,1.57.58,4.43,1.09,5.66,2.11,2.84,2.37,2.7,6.22,2.78,9.49.46,18.27.13,36.62,2,54.82.7,6.64,1.51,14.54,5.4,20.19,2.69,3.92,7.6,5.49,11.32,2,4.48-4.23,5.48-11,5.74-16.87.4-8.8,0-17.7-.38-26.5s-1-17.63-1.84-26.42c-.38-3.86-1.19-7.94-.89-11.83.47-5.94,4.84-7.87,10-8.89,5.86-1.17,10.61-2.93,13.85-8.27,3.64-6,3.63-13.52,3.28-20.29-.73-14.33-4.81-29.9-16.46-39.28-5.94-4.78-13.17-7.52-20.57-9.15C156.1.9,147.3-1.75,141.84,1.71c-1.63,1-.12,3.63,1.51,2.59,5-3.13,14.1-.15,19.4,1.14C169.83,7.17,176.69,10,182.14,15c9.44,8.57,12.89,21.88,13.74,34.15.46,6.72.8,14.31-2.78,20.28C189,76.3,182,75,175.65,77.7c-10.65,4.61-6.12,19.22-5.37,28.05A435.66,435.66,0,0,1,172,150.43,38.24,38.24,0,0,1,170.8,161c-1.48,4.84-6.73,11.36-11.45,3.2-3.78-6.52-3.87-15.87-4.42-23.19-1.13-15.09-1.06-30.22-1.39-45.34-.1-4.54,1.09-10.85-2.88-14.11s-10.52-4.17-15-6.29c-6.34-3-12.42-7-15.9-13.27-3.9-7-4-15.48-2.6-23.19,2.81-15.16,11.45-30.65,27.41-34.53,1.88-.45,1.08-3.34-.79-2.89Z"/><ellipse class="cls-2" cx="152.41" cy="39.46" rx="25.25" ry="25"/><circle class="cls-3" cx="156.16" cy="41.46" r="25"/><path class="cls-2" d="M80.8,21.3a90.57,90.57,0,0,0-3.38,26c0,1.93,3,1.94,3,0A87.52,87.52,0,0,1,83.7,22.1a1.51,1.51,0,0,0-2.9-.8Z"/><path class="cls-2" d="M35.66,18.66a51.76,51.76,0,0,0,6,14.74,1.5,1.5,0,0,0,2.59-1.52,48.67,48.67,0,0,1-5.7-14c-.45-1.87-3.34-1.08-2.9.8Z"/><path class="cls-2" d="M6.28,39.42a138.79,138.79,0,0,1,9.3,28c.41,1.88,3.31,1.09,2.89-.8A142.55,142.55,0,0,0,8.87,37.9c-.79-1.75-3.38-.23-2.59,1.52Z"/></g></g></svg>