<svg xmlns="http://www.w3.org/2000/svg" viewBox="0 0 107.79 105.49"><defs><style>.cls-1{fill:none;stroke:#000;stroke-miterlimit:10;}</style></defs><title>Ресурс 31</title><g id="Слой_2" data-name="Слой 2"><g id="Слой_1-2" data-name="Слой 1"><path class="cls-1" d="M72.17.78C72.78.29,73.38.54,74,.8A4.52,4.52,0,0,0,74.6,1,19.06,19.06,0,0,0,77,1.92a2.82,2.82,0,0,0,.94.36.29.29,0,0,0,.29.1.41.41,0,0,0,.36.13c1.06.51,2.17.88,3.27,1.28a24,24,0,0,0,2.45.91.43.43,0,0,0,.34.13,16.58,16.58,0,0,0,2.1.81,22.68,22.68,0,0,0,2.42.91c.44.18.88.4,1.34.54A2.63,2.63,0,0,1,92,8.23c.93,1.37,1.92,2.7,2.89,4a19.33,19.33,0,0,0,1.45,2l.17.24Q98.19,17,100,19.43a18.7,18.7,0,0,0,1.37,1.93,1.16,1.16,0,0,0,.36.49c1.09,1.66,2.26,3.27,3.44,4.86a10.46,10.46,0,0,0,1.06,1.48,5.59,5.59,0,0,0,.74,1.06c.47.47.3,1,.27,1.6,0,.24,0,.48,0,.73a16.35,16.35,0,0,0-.15,2.43,19.85,19.85,0,0,0-.17,2.43c-.05.82-.1,1.63-.16,2.44a19.8,19.8,0,0,0-.14,2.43,14,14,0,0,0-.15,2.42,20,20,0,0,0-.18,2.44,22.19,22.19,0,0,0-.15,2.44l0,.61a4.68,4.68,0,0,0-.1,1.35c-.17,1.66-.27,3.33-.31,5l-4,5a1,1,0,0,0-.33.42,28.53,28.53,0,0,0-1.91,2.21,2,2,0,0,0-.52.6l-1.49,1.65-.94,1.05a14.42,14.42,0,0,0-1.45,1.57,6.29,6.29,0,0,0-1,1.07,9.29,9.29,0,0,0-1.19,1.24l-3.84,4-.82.84-3.95,3.93-5,5-.87.85q-2,1.91-4,3.9a6.23,6.23,0,0,0-1,1q-2,1.84-3.89,3.8a7.87,7.87,0,0,0-1.09,1.07,8.71,8.71,0,0,0-1.19,1.16,12.41,12.41,0,0,0-1.47,1.43,8.17,8.17,0,0,0-1.11,1.09,5.81,5.81,0,0,0-1,1l-.14.13h0c-1,.87-1.89,1.75-2.76,2.7A5,5,0,0,0,60,103a13.1,13.1,0,0,0-1.59,1.57c-.29.09-.39.63-.84.33a1,1,0,0,0-.46-.35,17.77,17.77,0,0,0-2-1.48,7.36,7.36,0,0,0-1.23-.93l-1.2-.91-4.88-3.68-.38-.28a18.56,18.56,0,0,0-1.94-1.46q-3.66-2.86-7.42-5.59a.71.71,0,0,0-.35-.26,18.88,18.88,0,0,0-2.08-1.57,8.06,8.06,0,0,0-1.33-1,5.53,5.53,0,0,0-1.1-.84c-1.54-1.22-3.1-2.4-4.7-3.54a2.07,2.07,0,0,0-.65-.49,16.66,16.66,0,0,0-1.78-1.35q-3.67-2.87-7.45-5.6l-.27-.2a19.51,19.51,0,0,0-2.15-1.62l0,0,0,0-.15-.12a4.44,4.44,0,0,0-.95-.71,10.81,10.81,0,0,0-1.37-1.05L8.93,68.24l-.25-.17a22.33,22.33,0,0,0-2.2-1.67,4.92,4.92,0,0,0-1-.77A9.1,9.1,0,0,0,4,64.56c-.48-.51-1.17-.76-1.58-1.35a17.92,17.92,0,0,0-.16-2.43,22.09,22.09,0,0,0-.2-2.44,22,22,0,0,0-.17-2.43,16,16,0,0,0-.19-2.19v-.24A18.08,18.08,0,0,0,1.56,51a21.91,21.91,0,0,0-.2-2.43,19.87,19.87,0,0,0-.17-2.44L1,43.74a19.85,19.85,0,0,0-.17-2.43l-.2-2.43L.51,36.44a18,18,0,0,0,.77-2.24l1.74-5,.84-2.45C4.45,25.11,5,23.5,5.51,21.85a18.77,18.77,0,0,0,.82-2.32l.28-.84.56-1.59L8,14.55c.08-.23.16-.45.26-.67.17-.4.17-.88.63-1.11a5.75,5.75,0,0,0,1.23-.64,4.75,4.75,0,0,0,1.18-.62C13,10.73,14.62,9.88,16.22,9a33.5,33.5,0,0,0,3.14-1.65,10.14,10.14,0,0,0,1.71-.86c1.64-.8,3.27-1.63,4.87-2.53l.37-.19.1,0a16.5,16.5,0,0,0,2-1,.66.66,0,0,0,.37-.21A1.13,1.13,0,0,1,30,2.5a33,33,0,0,0,3.13,1.61c1.64.9,3.32,1.75,5,2.55a7.66,7.66,0,0,0,1.46.73C40.66,8,41.8,8.59,43,9.14q2.41,1.3,4.89,2.48a5.36,5.36,0,0,0,1.22.61c.37.18.66.62,1.17.34l2.49-1.36,4.85-2.62A24.07,24.07,0,0,0,60,7.28,25.38,25.38,0,0,0,62.44,6a16.85,16.85,0,0,0,2.13-1.16A.78.78,0,0,0,65,4.6a19.22,19.22,0,0,0,2.28-1.23,8.92,8.92,0,0,0,1.58-.85,2.17,2.17,0,0,0,.72-.38l.16-.09h0A23.89,23.89,0,0,0,72.17.78ZM16.06,12.63c-1.42.42-2.84.86-4.28,1.25A1.37,1.37,0,0,0,10.72,15c-.17.07-.2.23-.25.39-.22.65-.43,1.3-.66,1.94C9,19.55,8.24,21.73,7.47,23.91S5.9,28.2,5.21,30.37s-1.93,4.44-2.08,6.91c-.08,1.3-.33,2.59-.3,3.91a5.66,5.66,0,0,0,0,1.09c.3,1.61.4,3.24.58,4.86.23,2.07.42,4.14.65,6.2.26,2.47.57,4.93.8,7.4.08.9.26,1.64,1.21,2a7.9,7.9,0,0,1,.88.53,25.3,25.3,0,0,0,2.67,1.54l.22.15a1.06,1.06,0,0,0,.19.23c1.83,1.55,3.67,3.08,5.51,4.63l5.15,4.4c1.73,1.46,3.45,2.92,5.2,4.35A11.81,11.81,0,0,0,27.75,80a2.79,2.79,0,0,0,.38.39q4,3.07,8.1,6.14l9.31,7c1.21.91,2.37,1.88,3.63,2.72l1.61,1.08,6.71,4.49c.27.18.45.2.65-.09s.61-.81.91-1.21l9.84-9.82c.11-.12.24-.23.24-.41a10.15,10.15,0,0,0,2-1.79c2.56-2.37,5.08-4.8,7.61-7.21l8.83-8.43c.17-.16.39-.3.41-.57.28,0,.41-.25.56-.43,1.19-1.34,2.35-2.71,3.55-4,1.81-2,3.59-4.09,5.33-6.18a8.84,8.84,0,0,0,1.62-1.94.72.72,0,0,0,.2-.14l3.8-4.5a1.14,1.14,0,0,0,.24-.73l.45-4.64c.1-.82.08-1.65.13-2.48.11-1.89.11-3.79.16-5.69,0-.17,0-.33,0-.49l.33-8.28.12-.6a2.36,2.36,0,0,0-.5-2.52,7.82,7.82,0,0,1-.89-1.15c-2.5-3.33-5-6.67-7.49-10-.67-.88-1.28-1.82-2-2.64-.88-1.26-1.85-2.45-2.81-3.65-.64-1-1.29-1.9-1.93-2.86a1.37,1.37,0,0,0-.67-.49C85.46,7.76,82.74,6.62,80,5.53a23.41,23.41,0,0,0-3.1-1.21,2,2,0,0,0-.75-.38c-.77-.29-1.55-.57-2.31-.91a1.13,1.13,0,0,0-1.14.05C71.13,4,69.56,4.88,68,5.74c-4.18,2.27-8.38,4.52-12.57,6.8a21.85,21.85,0,0,0-2.81,1.63,17.63,17.63,0,0,0-2.44,1.06,1.1,1.1,0,0,1-1,0L37,9.29a30.12,30.12,0,0,0-3.41-1.58c0-.07,0-.17-.1-.21L30,5.13a.47.47,0,0,0-.52,0q-3.53,2-7.06,4Z"/><path class="cls-1" d="M69.77,2.05l-.16.09Z"/><path class="cls-1" d="M9.86,64.94l-.22-.15a.41.41,0,0,0,0-.11,7.1,7.1,0,0,0,1.15-2.11c1.45-3,2.85-6,4.27-9q1.83-3.88,3.69-7.74c.71-1.5,1.46-3,2.15-4.48.58-1.29,1.29-2.52,1.77-3.85.17-.14.08-.28,0-.43-.18-.47-.36-.94-.53-1.41-.77-2.14-1.54-4.27-2.3-6.41-.53-1.47-1.11-2.93-1.59-4.41s-1-3-1.61-4.42-1-2.93-1.67-4.33v-.25a3.7,3.7,0,0,1,.48.06l5.38,1.4,9.83,2.5c2,.51,4,1,5.95,1.58a4,4,0,0,1,1.48.43c0,.31-.27.44-.45.62l-12.93,13c-.61.61-1.21,1.24-1.82,1.86-.07.33.18.53.33.75l7.59,11.33c.71,1.06,1.45,2.09,2.17,3.13l.49,2.68L35.67,67v0c-1.19-.16-2.38-.2-3.56-.28q-2.89-.21-5.79-.48c-1.2-.11-2.41-.2-3.62-.27-1.79-.1-3.57-.3-5.36-.45-1.14-.1-2.29-.18-3.44-.27Z"/><path class="cls-1" d="M103.76,49.73l-.45,4.64a1.14,1.14,0,0,1-.24.73l-3.8,4.5a.72.72,0,0,1-.2.14,2.21,2.21,0,0,0-.35,0l-7.39,1.6L78.74,64.06h-.13q1.24-6.34,2.51-12.69c0-.17.14-.38,0-.5s-.25.15-.41.19c-.09-.14-.19-.11-.28,0s-.06.18,0,.25a.9.9,0,0,1-.37.38,4.56,4.56,0,0,1-.42-1.19c0-.4.08-.94-.65-.67a.19.19,0,0,1-.15-.08c-.22-.34-.08-.79-.39-1.12-.12-.14.15-.26.17-.42a1.24,1.24,0,0,1,.46.42c0,.12-.08.43.25.23a1.24,1.24,0,0,1,.48.43c.06.17.09.39.36.32a2.38,2.38,0,0,1,.63.55.2.2,0,0,0,.17.16c.4.27.42-.12.51-.32l4.65-9.83c1-2.1,2-4.19,3-6.29C90.72,35.29,92,37,93.45,38.48c1.88,2,3.7,4.07,5.53,6.11,1,1.14,2,2.31,3.09,3.42A11.94,11.94,0,0,0,103.76,49.73Z"/><path class="cls-1" d="M49.17,96.3c-1.26-.84-2.42-1.81-3.63-2.72l-9.31-7q-4.06-3.06-8.1-6.14a2.79,2.79,0,0,1-.38-.39c.51-.86,1-1.73,1.54-2.58,1.2-2,2.44-3.92,3.61-5.91.89-1.52,1.82-3,2.76-4.52v0l4.4,2.34q4.41,2.36,8.83,4.7c2.2,1.17,4.4,2.31,6.6,3.47l.23.11a1.09,1.09,0,0,1,.13.34c.09,1.25.18,2.51.24,3.77a1.79,1.79,0,0,0,.26,1c-.55,0-.61.48-.87.79-1.59,1.93-2.94,4-4.5,6-.19.25-.48.49-.48.87A39,39,0,0,0,49.43,95,3.43,3.43,0,0,0,49.17,96.3Z"/><path class="cls-1" d="M56.36,82.66a1.79,1.79,0,0,1-.26-1c-.06-1.26-.15-2.52-.24-3.77a1.09,1.09,0,0,0-.13-.34l.37-.1.13-.16h0a.21.21,0,0,0,.25-.12h0a2.24,2.24,0,0,0,.39-.14l12.59-7.54,9.16-5.47h.13c0,.26.2.38.37.53,2,1.76,4,3.54,6,5.28A27.51,27.51,0,0,0,88,72.34c0,.27-.24.41-.41.57l-8.83,8.43c-2.53,2.41-5,4.84-7.61,7.21a10.15,10.15,0,0,1-2,1.79c0-.06-.09-.15-.15-.18-1.77-1.06-3.54-2.1-5.3-3.16-1.47-.88-2.91-1.8-4.4-2.64C58.3,83.8,57.39,83.13,56.36,82.66Z"/><path class="cls-1" d="M22.66,37.54c-.48,1.33-1.19,2.56-1.77,3.85-.69,1.51-1.44,3-2.15,4.48q-1.86,3.85-3.69,7.74c-1.42,3-2.82,6-4.27,9a7.1,7.1,0,0,1-1.15,2.11L7.89,58.39q-1.77-6.45-3.53-12.9C4,44.22,3.65,43,3.29,41.7c-.07-.24-.07-.56-.46-.51,0-1.32.22-2.61.3-3.91.15-2.47,1.35-4.62,2.08-6.91s1.5-4.31,2.26-6.46S9,19.55,9.81,17.36c.23-.64.44-1.29.66-1.94,0-.16.08-.32.25-.39a6,6,0,0,1,.84.08,24.58,24.58,0,0,0,3.31.55.22.22,0,0,0,.11.22v.25c-.13,0-.19.09-.25.22-.6,1.25-1.22,2.49-1.81,3.74q-1.68,3.56-3.35,7.13c-.91,2-1.8,3.94-2.72,5.91Q5.13,36.8,3.38,40.47a.37.37,0,0,0,0,.35c.07.14.19.09.31.07,2.56-.33,5.05-1,7.6-1.37,1.09-.16,2.16-.43,3.25-.64,2.33-.43,4.67-.85,7-1.26C21.89,37.56,22.26,37.28,22.66,37.54Z"/><path class="cls-1" d="M76.91,4.32A23.41,23.41,0,0,1,80,5.53c2.73,1.09,5.45,2.23,8.17,3.35a1.37,1.37,0,0,1,.67.49c.64,1,1.29,1.91,1.93,2.86a1.42,1.42,0,0,0-.64.14c-1.73.72-3.45,1.45-5.19,2.15-1.48.59-3,1.07-4.44,1.72-2.12,1-4.31,1.68-6.42,2.63-1,.42-2,.72-2.9,1.22l-.24,0c-.14-.27-.43-.29-.67-.33-2-.38-4-1-5.93-1.45-2.66-.62-5.31-1.32-8-2-.17,0-.42,0-.46-.22s.22-.26.37-.34l7.89-4.37,8.35-4.64C74,6,75.5,5.23,76.91,4.32Z"/><path class="cls-1" d="M15,15.88a.22.22,0,0,1-.11-.22l.12-.14a.5.5,0,0,0,.57,0c.79-.4,1.65-.66,2.44-1,1.71-.85,3.48-1.55,5.23-2.29,2-.84,4-1.74,6.06-2.58,1.45-.6,2.91-1.2,4.33-1.88A30.12,30.12,0,0,1,37,9.29l12.07,6a1.1,1.1,0,0,0,1,0,17.63,17.63,0,0,1,2.44-1.06,7.3,7.3,0,0,0,1.36,1.36c.45.34.45.46,0,.67-1.08.45-2.2.82-3.29,1.22-1.42.53-2.85,1-4.28,1.53-2,.73-4.08,1.43-6.1,2.19-.6.23-1.3.26-1.76.81l-.37-.1a4,4,0,0,0-1.48-.43c-2-.55-4-1.07-5.95-1.58l-9.83-2.5-5.38-1.4A3.7,3.7,0,0,0,15,15.88Z"/><path class="cls-1" d="M38.48,22c.45-.55,1.15-.58,1.75-.81,2-.76,4.07-1.46,6.1-2.19,1.43-.52,2.86-1,4.28-1.53,1.09-.4,2.21-.77,3.29-1.22.49-.21.49-.33,0-.67a7.3,7.3,0,0,1-1.36-1.36,21.85,21.85,0,0,1,2.81-1.63C59.58,10.26,63.78,8,68,5.74c1.6-.86,3.17-1.76,4.75-2.66A1.13,1.13,0,0,1,73.85,3c.76.34,1.54.62,2.31.91a2,2,0,0,1,.75.38C75.5,5.23,74,6,72.54,6.78l-8.35,4.64L56.3,15.79c-.15.08-.41.11-.37.34s.29.18.46.22c2.65.68,5.3,1.38,8,2,2,.46,3.93,1.07,5.93,1.45.24,0,.53.06.67.33Q64,23.31,57.11,26.47a6.08,6.08,0,0,1-2,.77L45.05,24C42.87,23.31,40.69,22.56,38.48,22Z"/><path class="cls-1" d="M71.19,20.09c.93-.5,1.94-.8,2.9-1.22,2.11-.95,4.3-1.68,6.42-2.63,1.44-.65,3-1.13,4.44-1.72,1.74-.7,3.46-1.43,5.19-2.15a1.42,1.42,0,0,1,.64-.14c1,1.2,1.93,2.39,2.81,3.65a24,24,0,0,0-.86,3.31c-1,4-2,8-3,11.94a14.64,14.64,0,0,0-.55,2.53l0,.15-.33-.2A8.71,8.71,0,0,0,87,32.08C84.3,30,81.58,28,78.87,25.93Z"/><path class="cls-1" d="M35.66,67c-.94,1.5-1.87,3-2.76,4.52-1.17,2-2.41,3.94-3.61,5.91-.53.85-1,1.72-1.54,2.58a11.81,11.81,0,0,1-1.84-1.46c-1.75-1.43-3.47-2.89-5.2-4.35l-5.15-4.4c-1.84-1.55-3.68-3.08-5.51-4.63a1.06,1.06,0,0,1-.19-.23l4,.31c1.15.09,2.3.17,3.44.27,1.79.15,3.57.35,5.36.45,1.21.07,2.42.16,3.62.27q2.89.27,5.79.48C33.28,66.8,34.47,66.84,35.66,67Z"/><path class="cls-1" d="M56.36,82.66c1,.47,1.94,1.14,2.92,1.7,1.49.84,2.93,1.76,4.4,2.64,1.76,1.06,3.53,2.1,5.3,3.16.06,0,.1.12.15.18s-.13.29-.24.41l-9.84,9.82a.69.69,0,0,0-.16-.45c-1-1-1.79-2.12-2.69-3.18-1.25-1.47-2.49-3-3.75-4.41a17.56,17.56,0,0,0-1.94-2.2c0-.38.29-.62.48-.87,1.56-2,2.91-4.08,4.5-6C55.75,83.14,55.81,82.64,56.36,82.66Z"/><path class="cls-1" d="M89.21,33.66a14.64,14.64,0,0,1,.55-2.53c.95-4,1.95-8,3-11.94a24,24,0,0,1,.86-3.31c.75.82,1.36,1.76,2,2.64,2.51,3.33,5,6.67,7.49,10a7.82,7.82,0,0,0,.89,1.15,2.36,2.36,0,0,1,.5,2.52l-.12.6a21.52,21.52,0,0,1-3,.22c-2.07.11-4.13.27-6.2.37S91.21,33.71,89.21,33.66Z"/><path class="cls-1" d="M89.21,33.66c2,.05,4-.19,6-.28s4.13-.26,6.2-.37a21.52,21.52,0,0,0,3-.22l-.33,8.28c0,.16,0,.32,0,.49,0,1.9,0,3.8-.16,5.69,0,.83,0,1.66-.13,2.48A11.94,11.94,0,0,1,102.07,48C101,46.9,100,45.73,99,44.59c-1.83-2-3.65-4.11-5.53-6.11C92,37,90.72,35.29,89.17,33.86v0l0,0Z"/><path class="cls-1" d="M88,72.34a27.51,27.51,0,0,1-2.91-2.47c-2-1.74-4-3.52-6-5.28-.17-.15-.37-.27-.37-.53l12.59-2.68,7.39-1.6a2.21,2.21,0,0,1,.35,0,8.84,8.84,0,0,1-1.62,1.94c-1.74,2.09-3.52,4.16-5.33,6.18-1.2,1.34-2.36,2.71-3.55,4C88.42,72.09,88.29,72.32,88,72.34Z"/><path class="cls-1" d="M33.62,7.71C32.2,8.39,30.74,9,29.29,9.59c-2,.84-4,1.74-6.06,2.58-1.75.74-3.52,1.44-5.23,2.29-.79.39-1.65.65-2.44,1a.5.5,0,0,1-.57,0,20.06,20.06,0,0,0,1.07-2.89l6.31-3.49q3.54-2,7.06-4a.47.47,0,0,1,.52,0L33.52,7.5C33.58,7.54,33.59,7.64,33.62,7.71Z"/><path class="cls-1" d="M2.83,41.19c.39,0,.39.27.46.51C3.65,43,4,44.22,4.36,45.49q1.77,6.45,3.53,12.9l1.74,6.29a.41.41,0,0,1,0,.11A25.3,25.3,0,0,1,7,63.25a7.9,7.9,0,0,0-.88-.53c-1-.34-1.13-1.08-1.21-2-.23-2.47-.54-4.93-.8-7.4-.23-2.06-.42-4.13-.65-6.2-.18-1.62-.28-3.25-.58-4.86A5.66,5.66,0,0,1,2.83,41.19Z"/><path class="cls-1" d="M50.51,90.33a17.56,17.56,0,0,1,1.94,2.2C53.71,94,55,95.47,56.2,96.94c.9,1.06,1.72,2.19,2.69,3.18a.69.69,0,0,1,.16.45c-.3.4-.62.79-.91,1.21s-.38.27-.65.09l-6.71-4.49L49.17,96.3a3.43,3.43,0,0,1,.26-1.3A39,39,0,0,1,50.51,90.33Z"/><path class="cls-1" d="M16.06,12.63A20.06,20.06,0,0,1,15,15.52l-.12.14a24.58,24.58,0,0,1-3.31-.55,6,6,0,0,0-.84-.08,1.37,1.37,0,0,1,1.06-1.15C13.22,13.49,14.64,13.05,16.06,12.63Z"/><path class="cls-1" d="M26.31,3.77a.14.14,0,0,1,.1,0Z"/><path class="cls-1" d="M63.76,99.31l-.14.13Z"/><path class="cls-1" d="M16.24,73.76l-.15-.12Z"/><path class="cls-1" d="M56.1,77.48l-.37.1-.23-.11a23.07,23.07,0,0,0-2.18-2.35c-3.64-3.75-7.39-7.39-11-11.15-2.73-2.83-5.54-5.58-8.32-8.36-.16-.16-.33-.29-.5-.44L33,52.49l5.95-6.72c1.75-2,3.51-3.92,5.25-5.89,2.17-2.43,4.32-4.87,6.48-7.31q2.13-2.4,4.25-4.82c.15-.17.29-.35.55-.3l15.63,14,7.54,6.78c0,.16-.29.28-.17.42.31.33.17.78.39,1.12a.19.19,0,0,0,.15.08c.73-.27.63.27.65.67a4.56,4.56,0,0,0,.42,1.19,3.47,3.47,0,0,1-.31.44c-2,2.1-3.94,4.19-5.9,6.28-1.64,1.76-3.28,3.53-4.93,5.28L61,72.12c-1.4,1.49-2.81,3-4.2,4.46a.87.87,0,0,0-.34.62h0c-.12,0-.21,0-.25.12h0Z"/><path class="cls-1" d="M55.47,27.45c-.26-.05-.4.13-.55.3q-2.12,2.41-4.25,4.82c-2.16,2.44-4.31,4.88-6.48,7.31-1.74,2-3.5,3.92-5.25,5.89L33,52.49c-.72-1-1.46-2.07-2.17-3.13L23.23,38c-.15-.22-.4-.42-.33-.75l12.39-3.85,15.06-4.66c1.6-.49,3.2-1,4.79-1.53a6.08,6.08,0,0,0,2-.77Q64,23.32,71,20.13l.24,0,7.68,5.84C81.58,28,84.3,30,87,32.08a8.71,8.71,0,0,1,1.85,1.53c-1.83-.23-3.62-.65-5.43-1Q69.68,30,56,27.37C55.79,27.34,55.6,27.22,55.47,27.45Z"/><path class="cls-1" d="M22.66,37.54c-.4-.26-.77,0-1.15.08-2.33.41-4.67.83-7,1.26-1.09.21-2.16.48-3.25.64-2.55.4-5,1-7.6,1.37-.12,0-.24.07-.31-.07a.37.37,0,0,1,0-.35q1.74-3.66,3.47-7.34c.92-2,1.81-3.94,2.72-5.91q1.66-3.57,3.35-7.13c.59-1.25,1.21-2.49,1.81-3.74.06-.13.12-.21.25-.22.68,1.4,1.11,2.89,1.67,4.33s1.12,2.93,1.61,4.42,1.06,2.94,1.59,4.41c.76,2.14,1.53,4.27,2.3,6.41.17.47.35.94.53,1.41C22.74,37.26,22.83,37.4,22.66,37.54Z"/><path class="cls-1" d="M55.14,27.24c-1.59.51-3.19,1-4.79,1.53L35.29,33.43,22.9,37.28c.61-.62,1.21-1.25,1.82-1.86l12.93-13c.18-.18.44-.31.45-.62l.37.1c2.22.61,4.4,1.36,6.58,2.07Z"/><path class="cls-1" d="M33.48,55.17c.17.15.34.28.5.44,2.78,2.78,5.59,5.53,8.32,8.36,3.63,3.76,7.38,7.4,11,11.15a23.07,23.07,0,0,1,2.18,2.35c-2.2-1.16-4.4-2.3-6.6-3.47q-4.42-2.34-8.83-4.7L35.67,67Z"/><path class="cls-1" d="M55.47,27.45c.13-.23.32-.11.48-.08Q69.69,30,83.42,32.62c1.81.34,3.6.76,5.43,1l.33.2,0,0v0c-1,2.1-2,4.19-3,6.29L81.5,50c-.09.2-.11.59-.51.32l-.17-.16a2.38,2.38,0,0,0-.63-.55.7.7,0,0,0-.36-.32,1.24,1.24,0,0,0-.48-.43.38.38,0,0,0-.25-.23,1.24,1.24,0,0,0-.46-.42L71.1,41.41Z"/><path class="cls-1" d="M56.47,77.2a.87.87,0,0,1,.34-.62c1.39-1.49,2.8-3,4.2-4.46l7.93-8.45c1.65-1.75,3.29-3.52,4.93-5.28,2-2.09,3.94-4.18,5.9-6.28a3.47,3.47,0,0,0,.31-.44.9.9,0,0,0,.37-.38l.23-.24c.16,0,.24-.3.41-.19s.06.33,0,.5q-1.26,6.35-2.51,12.69l-9.16,5.47L56.86,77.06A2.24,2.24,0,0,1,56.47,77.2Z"/><path class="cls-1" d="M80.68,51.05l-.23.24c-.11-.07-.13-.15,0-.25S80.59,50.91,80.68,51.05Z"/><path class="cls-1" d="M79.83,49.27a.7.7,0,0,1,.36.32C79.92,49.66,79.89,49.44,79.83,49.27Z"/><path class="cls-1" d="M79.1,48.61a.38.38,0,0,1,.25.23C79,49,79.14,48.73,79.1,48.61Z"/><path class="cls-1" d="M80.82,50.14l.17.16A.2.2,0,0,1,80.82,50.14Z"/><path class="cls-1" d="M56.23,77.32c0-.12.13-.14.25-.12A.21.21,0,0,1,56.23,77.32Z"/><path class="cls-1" d="M56.1,77.48l.13-.16Z"/></g></g></svg>