<svg xmlns="http://www.w3.org/2000/svg" viewBox="0 0 126.82 140.01"><defs><style>.cls-1{fill:#683a20;}.cls-2{fill:#3f2e1b;}.cls-3{fill:gray;stroke:gray;stroke-miterlimit:10;}.cls-4{fill:#d9cbb1;}.cls-5{fill:#999;}</style></defs><title>pickaxe</title><g id="Слой_2" data-name="Слой 2"><g id="Слой_1-2" data-name="Слой 1"><path class="cls-1" d="M4,119.74c.77-11,56.86-83.5,56.86-83.5L83,7s18.7-5.92,13.76,12.81S17.38,140,17.38,140,2.42,141.86,4,119.74Z"/><path class="cls-2" d="M11.1,121.61c1.56-8.92,46.38-67.15,46.38-67.15L75.25,31s13.24-4.65,8.13,10.47S18.3,138.08,18.3,138.08,8,139.51,11.1,121.61Z"/><path class="cls-3" d="M.14,3.7c34.05-10,134.21-.81,125.67,87.55-7.27-11-35-63.6-125.67-87.55"/><path class="cls-4" d="M6.91,6.09C35.35-.21,120.19,9.58,115.66,74.44,109.19,66.13,84.22,26.5,6.91,6.09"/><rect class="cls-5" x="69.26" y="11.3" width="24.08" height="29.75" rx="12" ry="12" transform="translate(33.38 -44.52) rotate(38.02)"/><rect class="cls-4" x="72.33" y="17.62" width="17.9" height="22.11" rx="8.95" ry="8.95" transform="translate(34.91 -43.98) rotate(38.02)"/></g></g></svg>