<svg xmlns="http://www.w3.org/2000/svg" viewBox="0 0 434.72 403.45"><defs><style>.cls-1{fill:#97938a;}.cls-2{fill:#59564f;}.cls-3{fill:#76736b;}.cls-4{fill:#7b7871;}.cls-5{fill:#a7a49d;}.cls-6{fill:none;}.cls-7{fill:#683a20;}.cls-8{fill:#3f2e1b;}.cls-9{fill:gray;stroke:gray;stroke-miterlimit:10;}.cls-10{fill:#d9cbb1;}.cls-11{fill:#999;}</style></defs><g id="Слой_2" data-name="Слой 2"><g id="Слой_1-2" data-name="Слой 1"><path class="cls-1" d="M113.72,307.36c6.31-8,13.54-15.16,20.28-22.77,3.86-4.38,7.69-8.79,11.78-12.95,1.73-1.76,1.95-3.35,1.52-5.63-5.21-27.55,3-50.42,24.22-68.66a11.34,11.34,0,0,1,5.16-2.82,6,6,0,0,0,4,.34q37.77-5.88,75.55-11.71a21.83,21.83,0,0,0,9.27-3.57c9.13-6.25,18.34-12.41,27.65-18.4,2.82-1.82,4.44-3.88,3.9-7.3,10.71-1.85,20.42,1,28.7,7.53,21.05,16.49,41.76,33.42,62.61,50.17l0,.8-.74.75.06,0-1.55.78h0a19.09,19.09,0,0,0-3.22.87c-9.75,4.44-19.45,9-29.2,13.41-8.05,3.65-15.86,8-24.41,10.33-14.57,4-29.46,2.14-44.24,1.88-7.44-.13-14.88-1-22.3.34l-3.06-.67c-1,.18-2,.31-2.93.56l-70.93,18.48q-16.81,4.38-33.64,8.78c-.9.24-2.26.2-2.32,1.47-.05,1,1.16,1.11,1.92,1.46l60.94,27.64c3.27,1.49,6.78,2.48,9.59,4.87-10.08.36-20.16.7-30.23,1.08Q152.91,305.85,113.72,307.36Z"/><path class="cls-2" d="M432.33,265.42c-1.89,13.07-3.73,26.14-5.67,39.19-3,20-6.07,39.91-9,59.88a5.23,5.23,0,0,1-3.23,4.47q-33.53,16.52-67,33.22a10.61,10.61,0,0,1-5.37,1.26q-45.37-2.1-90.75-4.13c-.75,0-1.48-.17-2.22-.25.27-3.62,2.47-6.49,3.83-9.67,7.74-18.07,15.61-36.09,23.41-54.15a7,7,0,0,1,3.28-3.86c4.88-2.47,9.69-5.1,14.56-7.61q28.37-14.65,56.75-29.28c4.76.64,8.26,3.88,12.21,6.1,12.22,6.88,24.3,14,36.43,21,2.46,2.43,4,1.94,5.47-1.21,8.19-17.31,16.53-34.56,24.81-51.84C430.46,267.34,430.93,266,432.33,265.42Z"/><path class="cls-3" d="M351,294.49q-28.38,14.64-56.75,29.28c-4.87,2.51-9.68,5.14-14.56,7.61a7,7,0,0,0-3.28,3.86c-7.8,18.06-15.67,36.08-23.41,54.15-1.36,3.18-3.56,6.05-3.83,9.67-8.67-2.19-16.9-5.7-25.3-8.65-13.56-4.77-27-9.74-40.55-14.63a18,18,0,0,1,1-2.79c9.7-17.12,19.52-34.18,29.11-51.36,3.32-6,7.53-11.46,9.57-18.09,3.2-2.45,4.32-6.28,6.2-9.57C239.44,276,249.56,258,259.72,240l3.06.67-.14.14a4.93,4.93,0,0,0,2.4,2.24q41.32,24.21,82.64,48.46A7,7,0,0,1,351,294.49Z"/><path class="cls-4" d="M223,303.54c-2,6.63-6.25,12.13-9.57,18.09C203.84,338.81,194,355.87,184.32,373a18,18,0,0,0-1,2.79L135.44,359c-4.57-1.61-9.11-3.3-13.71-4.86-1.53-.52-2.45-1.12-2.69-3-1.84-14.28-3.84-28.55-5.76-42.82,0-.29.29-.63.44-.94q39.19-1.5,78.4-3c10.07-.38,20.15-.72,30.23-1.08Z"/><path class="cls-3" d="M432.33,265.42c-1.4.6-1.87,1.92-2.46,3.15-8.28,17.28-16.62,34.53-24.81,51.84-1.48,3.15-3,3.64-5.47,1.21a5.45,5.45,0,0,0-1.47-3.34q-13.81-15.67-27.61-31.37-13.62-15.6-27.17-31.27v0q19.69,1.56,39.39,3.1,24.9,1.91,49.79,3.77C432.47,263.46,432.4,264.44,432.33,265.42Z"/><path class="cls-4" d="M432.53,262.48q-24.9-1.89-49.79-3.77-19.69-1.51-39.38-3.1c.85-.9,1.66-1.84,2.57-2.69q18.68-17.62,37.38-35.25c1.15-1.09,2.54-2,2.84-3.79h0l1.55-.78-.06,0,.74-.75,0-.8c6.67,6.3,12.19,13.63,18.31,20.43,8.37,9.29,16.44,18.84,24.65,28.28C431.88,260.94,432.64,261.47,432.53,262.48Z"/><path class="cls-5" d="M297.05,153.89c.54,3.42-1.08,5.48-3.9,7.3-9.31,6-18.52,12.15-27.65,18.4a21.83,21.83,0,0,1-9.27,3.57q-37.79,5.81-75.55,11.71a6,6,0,0,1-4-.34c23.09-9.13,46-18.87,69.35-27.2,15.39-5.48,31.51-8.94,47.32-13.24A17.39,17.39,0,0,1,297.05,153.89Z"/><path class="cls-5" d="M223,303.54l-.65-.24c-2.81-2.39-6.32-3.38-9.59-4.87l-60.94-27.64c-.76-.35-2-.44-1.92-1.46.06-1.27,1.42-1.23,2.32-1.47q16.82-4.42,33.64-8.78l70.93-18.48c1-.25,1.95-.38,2.93-.56-10.16,18-20.28,36-30.52,53.93C227.32,297.26,226.2,301.09,223,303.54Z"/><path class="cls-5" d="M386.15,213.88c-.3,1.75-1.69,2.7-2.84,3.79q-18.68,17.64-37.38,35.25c-.91.85-1.72,1.79-2.57,2.69l0,0c-16.62-3.12-33.22-6.34-49.87-9.33-10.27-1.84-20.45-4.23-30.83-5.47l.14-.14c7.42-1.31,14.86-.47,22.3-.34,14.78.26,29.67,2.16,44.24-1.88,8.55-2.38,16.36-6.68,24.41-10.33,9.75-4.42,19.45-9,29.2-13.41A19.09,19.09,0,0,1,386.15,213.88Z"/><path class="cls-5" d="M387.65,213.1l-1.55.78Z"/><path class="cls-5" d="M388.33,212.39l-.74.75Z"/><path class="cls-4" d="M262.64,240.85c10.38,1.24,20.56,3.63,30.83,5.47,16.65,3,33.25,6.21,49.87,9.33q13.57,15.63,27.17,31.26,13.75,15.72,27.61,31.37a5.45,5.45,0,0,1,1.47,3.34c-12.13-7-24.21-14.15-36.43-21-4-2.22-7.45-5.46-12.21-6.1a7,7,0,0,0-3.27-2.94Q306.37,267.31,265,243.09A4.93,4.93,0,0,1,262.64,240.85Z"/><path class="cls-6" d="M149.59,272.64s-17.41-45.71,26.12-78.35c23.94-8.71,110.73-46,133.72-40.4S434.72,261.76,434.72,261.76l-17.78,105L352,403.23l-102.3-4.35L121.3,353.17l-8.71-45.7Z"/><path class="cls-7" d="M10.88,334.14C13.05,303.28,170,100.52,170,100.52l62.05-81.73s52.34-16.55,38.5,35.86S48.39,390.77,48.39,390.77,6.52,396.06,10.88,334.14Z"/><path class="cls-8" d="M30.82,339.4c4.36-25,129.76-187.92,129.76-187.92L210.3,85.79s37-13,22.76,29.28S51,385.48,51,385.48,22.07,389.47,30.82,339.4Z"/><path class="cls-9" d="M.14,9.46c95.28-27.86,375.55-2.27,351.65,245C331.45,223.71,254,76.47.14,9.46"/><path class="cls-10" d="M19.08,16.15c79.59-17.64,317,9.75,304.31,191.26-18.1-23.27-88-134.15-304.31-191.26"/><rect class="cls-11" x="193.55" y="30.72" width="67.39" height="83.25" rx="12" transform="translate(92.78 -124.62) rotate(38.02)"/><rect class="cls-10" x="202.14" y="48.41" width="50.08" height="61.86" rx="12" transform="translate(97.08 -123.09) rotate(38.02)"/></g></g></svg>