<svg xmlns="http://www.w3.org/2000/svg" viewBox="0 0 512.03 575.67"><defs><style>.cls-1{fill:#2b1f14;}.cls-2{fill:#3f2e1b;}.cls-3{fill:#19120c;}.cls-4{fill:#42210b;}.cls-5{fill:#54260d;}.cls-6{fill:none;}.cls-7{fill:gray;}.cls-8{fill:#4d4d4d;}.cls-9{fill:#333;}.cls-10{fill:#3a3a3a;}.cls-11{fill:#666;}</style></defs><g id="Слой_2" data-name="Слой 2"><g id="Слой_1-2" data-name="Слой 1"><path class="cls-1" d="M466,385.61c-16.22,4.58-42.77,16.13-70.69,29.95C344.09,440.93,288.21,474,283,485.61c-8,18-43,82-45,89s-47-23-59-22-23-3-28,0c-3.79,2.27-27.06-60.81-73.74-110.24C62.33,426.51,45,412.06,25,401.61c-29-22-29-44-19-65,10,16,77,69,227,91,16-7,38-3,40,0s13.53-17.76,18-20c10-5,55-19,55-19C388,378.61,465,385.61,466,385.61Z"/><path class="cls-2" d="M465.45,386.57a31.62,31.62,0,0,1,3.85-.4,8.69,8.69,0,0,0-.27-2.56c-14-54-52-53-63-56s-19-9-36-28c-182-79-359,16-364,31l-2.09,6.94c.47.51.95,1,1.42,1.53.22-.49.44-1,.67-1.47,10,16,77,69,227,91,16-7,38-3,40,0s13.53-17.76,18-20c10-5,55-19,55-19C386.16,380.06,458.25,386,465.45,386.57Z"/><path class="cls-3" d="M235,574.61l48-94.67,73.13-46.1-47.13,78S254,575.61,235,574.61Z"/><polygon class="cls-4" points="10.53 276.11 190.53 104.11 222.53 71.11 234.53 150.11 54.53 311.11 10.53 276.11"/><polygon class="cls-5" points="8.53 272.75 168.44 122.87 196.87 94.11 233.03 133.61 47.62 303.25 8.53 272.75"/><polygon class="cls-6" points="6.53 275.53 191.35 100.66 224.21 67.11 236.53 147.43 51.71 311.11 6.53 275.53"/><path class="cls-7" d="M102.53,3.11s106-7,125,0,135,124,131,136-77,60-77,60l-8-8"/><path class="cls-8" d="M99.53,3.11l171,182,46-34s-74-126-127-133"/><path class="cls-9" d="M316.53,151.11l42-12s-67,59-77,60c-5-5-12-13-12-13Z"/><path class="cls-8" d="M214.53,362.11c-11-3.13,7,7,11,8s67-8,71-57c-17,4-27,12-27,12C260.53,337.11,221.53,364.11,214.53,362.11Z"/><path class="cls-10" d="M200,354.61c2-13,35-43,64-42,4-3,17-18,17-18-6-5-16-8-21-4S172,322.61,200,354.61Z"/><path class="cls-9" d="M287.53,285.11c32-68,27-76,39-90s151.64-140.36,170-122c.5.5,32.5,2.5-125.5,112.5-26,21-60,98-60,98Z"/><path class="cls-8" d="M305,303.61c24-5,68-36,69-38s124-166,138-172c-18,1-58,22-103,94-26,26-95,98-95,98Z"/><ellipse class="cls-11" cx="287.53" cy="303.61" rx="27.5" ry="14" transform="translate(-127.95 256.4) rotate(-40.08)"/><path class="cls-6" d="M358.53,140.54c-4,12.12-77,60.57-77,60.57l-8-8.07-80-88.79L103.07,3.85l-.54-.6s106-7.06,125,0S362.53,128.43,358.53,140.54Z"/></g></g></svg>