<svg xmlns="http://www.w3.org/2000/svg" xmlns:xlink="http://www.w3.org/1999/xlink" viewBox="0 0 367.91 463.39"><defs><style>.cls-1{stroke:#1d1d1b;fill:url(#Безымянный_градиент_17);}.cls-1,.cls-2,.cls-3{stroke-miterlimit:10;stroke-width:5px;}.cls-2{fill:#3f2e1b;stroke:#231910;}.cls-3{stroke:#1d1e1b;fill:url(#Безымянный_градиент_55);}</style><linearGradient id="Безымянный_градиент_17" x1="-148.59" y1="150.64" x2="411.27" y2="395.83" gradientUnits="userSpaceOnUse"><stop offset="0.08" stop-color="#fff"/><stop offset="0.1" stop-color="#fff"/><stop offset="0.21" stop-color="#fff"/><stop offset="1"/></linearGradient><linearGradient id="Безымянный_градиент_55" x1="17.82" y1="104.01" x2="268.88" y2="213.97" gradientUnits="userSpaceOnUse"><stop offset="0.01" stop-color="#fff"/><stop offset="0.05" stop-color="#a1f0f0"/><stop offset="0.25" stop-color="#9cc5c4"/><stop offset="1"/></linearGradient></defs><g id="Слой_2" data-name="Слой 2"><g id="Слой_1-2" data-name="Слой 1"><path class="cls-1" d="M60.69,432.73c59.06-59.81,60.6-174.93-56.5-223.18,39-44.24,59.58-76.41,59.58-76.41,97.58,50.27,177.7,33.18,223.93,18.1C319.54,180.39,348.81,194,363.19,195c-78.06,105.56-118.63,109.08-62.14,237.76C300.54,451.33,176.25,485.51,60.69,432.73Z"/><path class="cls-2" d="M160.84,332.7l106.83-67.36s39-6,30.81,6S165,346.78,165,346.78Z"/><path class="cls-2" d="M218.88,315.11c2.05,3,26.7,52.28,26.7,52.28l28.76-10.06s-17.46-38.2-27.73-55.29"/><path class="cls-3" d="M201.84,306.85C189.09,283.94,62.74,1.44,62.74,1.44S234,244.62,238.26,283.89"/></g></g></svg>