<svg xmlns="http://www.w3.org/2000/svg" xmlns:xlink="http://www.w3.org/1999/xlink" viewBox="0 0 110.91 134.48"><defs><style>.cls-1,.cls-2,.cls-3{stroke:#1d1d1b;stroke-miterlimit:10;stroke-width:5px;}.cls-1{fill:url(#Безымянный_градиент_17);}.cls-2{fill:#3f2e1b;}.cls-3{fill:url(#Безымянный_градиент_55);}</style><linearGradient id="Безымянный_градиент_17" x1="-39.22" y1="43.83" x2="119.85" y2="113.5" gradientUnits="userSpaceOnUse"><stop offset="0.08" stop-color="#fff"/><stop offset="0.1" stop-color="#fff"/><stop offset="0.21" stop-color="#fff"/><stop offset="1"/></linearGradient><linearGradient id="Безымянный_градиент_55" x1="8.07" y1="30.58" x2="79.4" y2="61.82" gradientUnits="userSpaceOnUse"><stop offset="0.01" stop-color="#fff"/><stop offset="0.05" stop-color="#a1f0f0"/><stop offset="0.25" stop-color="#9cc5c4"/><stop offset="1"/></linearGradient></defs><title>Ресурс 32</title><g id="Слой_2" data-name="Слой 2"><g id="Слой_1-2" data-name="Слой 1"><path class="cls-1" d="M20.25,124C37,107,37.47,74.28,4.19,60.57A197.42,197.42,0,0,0,21.12,38.86C48.85,53.14,71.61,48.28,84.74,44c9.05,8.28,17.37,12.14,21.45,12.43-22.18,30-33.7,31-17.65,67.55C88.39,129.26,53.08,139,20.25,124Z"/><path class="cls-2" d="M48.7,95.56,79.05,76.42s11.09-1.71,8.76,1.71S49.87,99.56,49.87,99.56Z"/><path class="cls-2" d="M65.19,90.56c.58.86,7.59,14.85,7.59,14.85L81,102.56S76,91.7,73.07,86.85"/><path class="cls-3" d="M60.35,88.21C56.73,81.7,20.83,1.44,20.83,1.44S69.49,70.53,70.7,81.69"/></g></g></svg>