<svg xmlns="http://www.w3.org/2000/svg" viewBox="0 0 161.25 130.48"><defs><style>.cls-1{fill:#29a0c1;}.cls-2{fill:#66b7d3;}.cls-3{fill:#58b0e0;}.cls-4{fill:#3b83a3;}.cls-5{fill:none;stroke:#000;stroke-miterlimit:10;stroke-width:5px;}</style></defs><title>diamond</title><g id="Слой_2" data-name="Слой 2"><g id="Слой_1-2" data-name="Слой 1"><polygon class="cls-1" points="141.76 27.26 156.94 60.45 123.2 53.73 141.76 27.26"/><polygon class="cls-2" points="156.94 60.45 72.79 124.19 122.96 53.68 123.2 53.73 156.94 60.45"/><polygon class="cls-1" points="92.28 15.66 123.05 53.55 122.96 53.68 47.88 38.74 92.28 15.66"/><polygon class="cls-3" points="122.96 53.68 72.79 124.19 72.21 124.63 46.16 38.4 47.88 38.74 122.96 53.68"/><polygon class="cls-2" points="92.17 15.52 141.15 25.93 141.76 27.26 123.05 53.55 92.28 15.66 92.17 15.52"/><polygon class="cls-2" points="92.17 15.52 92.28 15.66 47.88 38.74 46.16 38.4 35.66 3.62 35.76 3.53 92.17 15.52"/><polygon class="cls-4" points="46.16 38.4 72.21 124.63 72.11 124.71 5.64 30.33 46.16 38.4"/><polygon class="cls-1" points="35.66 3.62 46.16 38.4 5.64 30.33 35.66 3.62"/><polyline class="cls-5" points="47.88 38.74 122.96 53.68 123.2 53.73 156.94 60.45 141.76 27.26 141.15 25.93 92.17 15.52 35.76 3.53 35.66 3.62 5.64 30.33"/><polygon class="cls-5" points="72.79 124.19 72.29 124.89 72.21 124.63 46.16 38.4 35.66 3.62 35.57 3.34 92.17 15.52 92.28 15.66 123.05 53.55 123.2 53.73 141.76 27.26 123.05 53.55 122.96 53.68 72.79 124.19"/><polyline class="cls-5" points="92.31 15.65 92.28 15.66 47.88 38.74 46.16 38.4 5.64 30.33 72.11 124.71 72.21 124.63 72.79 124.19 156.94 60.45"/></g></g></svg>