<svg xmlns="http://www.w3.org/2000/svg" viewBox="0 0 88.85 103.45"><defs><style>.cls-1{fill:#800;}.cls-2{fill:#b90101;}.cls-3{fill:#d33;}.cls-4{fill:#ffc9c9;}.cls-5{fill:#703c00;stroke:#260704;stroke-miterlimit:10;stroke-width:3px;}.cls-6{fill:#885516;}.cls-7{fill:#560000;}.cls-8{fill:#fff;}.cls-9{fill:#107400;}.cls-10{fill:#329900;}.cls-11{fill:#003700;}</style></defs><title>Ресурс 30</title><g id="Слой_2" data-name="Слой 2"><g id="Слой_1-2" data-name="Слой 1"><path class="cls-1" d="M88,58.71c0,11.56-4,22-10.37,29.36-3.3,8.26-10.86,14-19.66,14a20,20,0,0,1-9.87-2.62,22.71,22.71,0,0,1-11.35,3.09c-10.32,0-19.42-7.26-24.77-18.31a42.72,42.72,0,0,1-8.84-26.5,46.18,46.18,0,0,1,1-9.35c.2,20.78,15.69,37.84,35.57,40.08a11.66,11.66,0,0,1,5.43-1.17,12.33,12.33,0,0,1,5,1C69.45,85.35,84.22,68.42,84.22,48A41.13,41.13,0,0,0,82.63,36.6,46.71,46.71,0,0,1,88,58.71Z" transform="translate(0 -0.3)"/><path class="cls-2" d="M84.22,48c0,20.43-14.77,37.36-34,40.3a12.33,12.33,0,0,0-5-1,11.66,11.66,0,0,0-5.43,1.17C19.82,86.25,4.33,69.19,4.13,48.41,7.63,31.6,20.39,19.14,35.59,19.14a27.45,27.45,0,0,1,8.21,1.25,28,28,0,0,1,10.86-2.2c11.71,0,22,7.32,28,18.41A41.13,41.13,0,0,1,84.22,48Z" transform="translate(0 -0.3)"/><path class="cls-3" d="M16,33.92c-1.9,4.77-9.53,27.65,6.68,44.82A62,62,0,0,1,37,45.36Z" transform="translate(0 -0.3)"/><polygon class="cls-3" points="21.77 35.53 39.88 43.16 42.74 40.3 21.77 35.53"/><path class="cls-4" d="M52.28,37.74c1.9-1,9.53-5.73,12.39-5.73S58,38.69,56.09,38.69H53.23Z" transform="translate(0 -0.3)"/><path class="cls-4" d="M65.63,30.11s0-4.77,3.81-4.77a4.61,4.61,0,0,1,0,3.81l-1.91,1.91Z" transform="translate(0 -0.3)"/><path class="cls-4" d="M59,21.53l6.68,3.81s2.86-.95-1-2.86Z" transform="translate(0 -0.3)"/><path class="cls-1" d="M25.58,29.15S42.74,32,44.65,33C46.56,31.06,58,26.29,59,26.29S43.7,22.48,26.53,28.2" transform="translate(0 -0.3)"/><path class="cls-4" d="M17,36.78S10.32,54.9,18,65.39c0-8.58,6.68-23.84,6.68-23.84" transform="translate(0 -0.3)"/><path class="cls-5" d="M45.34,31.54c4.5-16.21,11.71-21,11.71-21L51.64,5.79s-10.8,6.68-10.8,24.79" transform="translate(0 -0.3)"/><path class="cls-6" d="M51.05,7.87a33.57,33.57,0,0,0-3.94,4.79,14.06,14.06,0,0,0-1.72,3.95A32.36,32.36,0,0,0,44,20.44c-.39,1.48-1.26,2.81-1.52,4.3-.16,1,1.28,1.35,1.45.4s1.16-2,1.42-3c.13-.53.07-1.12.18-1.65a18.43,18.43,0,0,1,1.3-3c.66-1.74.84-3.08,2-4.62a34.44,34.44,0,0,1,3.24-3.89c.7-.66-.36-1.72-1.06-1.06Z" transform="translate(0 -0.3)"/><path class="cls-7" d="M31.3,30.11S43.7,33,44.65,33s5.72-3.82,8.58-4.77-7.63-.95-9.53,2.86c-2.86-.95-9.54-1.91-11.45-.95" transform="translate(0 -0.3)"/><path class="cls-8" d="M18.79,69.55a.75.75,0,0,0,0-1.5.75.75,0,0,0,0,1.5Z" transform="translate(0 -0.3)"/><path class="cls-8" d="M18.81,71.13a.9.9,0,0,0,1.4.8A.76.76,0,0,0,20,70.56a1,1,0,0,0-1.25,1.22,1,1,0,0,0,1.69.36.75.75,0,0,0,0-1.06,2,2,0,0,0-.93-.53.75.75,0,0,0-.4,1.44.43.43,0,0,1,.27.15V71.06l.38-.1h-.12l.38.1.14.2v.4l-.28.31h-.4l.12,0-.18-1.37-.1.06.38-.1h-.11l.53.22-.07-.09.22.53v-.12c.05-1-1.45-1-1.5,0Z" transform="translate(0 -0.3)"/><path class="cls-8" d="M21.13,75a.75.75,0,0,0,0-1.5.75.75,0,0,0,0,1.5Z" transform="translate(0 -0.3)"/><path class="cls-9" d="M41.79,21.53C40.84,12,27.49-10.89.79,7.22c7.63,2.86,18.11,28.61,41,16.21" transform="translate(0 -0.3)"/><path class="cls-10" d="M3.65,4.56C8,10.3,15.58,20.63,35.11,18.34,32.94,5.7,31.86-5.78,5.82,4.56" transform="translate(0 -0.3)"/><path class="cls-11" d="M18.44,8.73C26.34,12.51,33,18,39.81,23.36c.41.33,1.95-.12,1.91-.16-6.9-5.45-13.59-10.92-21.57-14.73-.37-.18-2.08.08-1.71.26Z" transform="translate(0 -0.3)"/><path class="cls-11" d="M.65,7.61c3.3.9,4,3.88,6.13,6.11,1.79,1.87,4.16,3.12,6.09,4.84,3.72,3.3,6.84,6.86,11.86,8.07,4.46,1.08,15,1.24,17.69-3.36,2.34-4-1.72-9.07-3.91-12.11C35.5,7,32,2.94,27,1.19A20.19,20.19,0,0,0,18.07.48C14.92.82,9.28.81,6.9,3.31c-.2.21.93.25,1,.25a20.77,20.77,0,0,0,7-1.17c.49-.17-1-.3-1.13-.29C9.23,2.46,2.6,3.83,0,7.87c-.1.17,1.67.46,1.92.07C4,4.73,8.74,3.64,12,2.37,17.32.29,24.21.09,29.18,3.48a31.44,31.44,0,0,1,7.42,7.84c1.9,2.64,4.73,6,4.39,9.52-.74,7.54-14.11,6.6-18.81,3.88-2.62-1.52-4.62-3.81-6.84-5.82S10.13,15.33,8.14,13,5.56,8.23,2.36,7.35C2,7.24.32,7.52.65,7.61Z" transform="translate(0 -0.3)"/><path d="M18.05,24.17A52.84,52.84,0,0,0,2.82,50.57C.44,60.5,3.83,70.13,8.35,79c8.14,15.89,25.36,34.46,42.77,19,1.08-1-.51-2.55-1.59-1.59C32.16,111.8,15.6,89.72,8.77,74.68c-3.85-8.49-5.85-16.8-3.12-26a50.71,50.71,0,0,1,14-22.95c1.06-1-.54-2.58-1.59-1.59Z" transform="translate(0 -0.3)"/><path d="M49.39,100.23c7.87,3.87,17.71,2.59,23.78-4,3.6-3.9,6.39-9,9-13.6C85.07,77.55,87.79,72,88.6,66.1c.76-5.49-.4-11.6-1.15-17.07a39.64,39.64,0,0,0-6-15.77c-2.67-4.32-5.32-8.79-9.84-11.36a47.49,47.49,0,0,0-17.79-5.34c-1.44-.18-1.42,2.08,0,2.25,5.68.68,11.67,2.12,16.65,5,4.55,2.66,7.28,7.51,9.89,11.95,4.72,8,6.23,18.12,6.14,27.4-.1,9.8-6.53,19.06-11.72,27-5.51,8.37-14.63,12.89-24.3,8.13-1.3-.64-2.44,1.3-1.14,1.94Z" transform="translate(0 -0.3)"/></g></g></svg>