<svg xmlns="http://www.w3.org/2000/svg" viewBox="0 0 152.31 118.84"><defs><style>.cls-1{fill:#97938a;}.cls-2{fill:#59564f;}.cls-3{fill:#76736b;}.cls-4{fill:#7b7871;}.cls-5{fill:#a7a49d;}.cls-6{fill:none;stroke:#000;stroke-miterlimit:10;stroke-width:4px;}</style></defs><title>stone</title><g id="Слой_2" data-name="Слой 2"><g id="Слой_1-2" data-name="Слой 1"><path class="cls-1" d="M2.69,72.77c2.9-3.67,6.22-7,9.31-10.46,1.78-2,3.54-4,5.42-6a2.57,2.57,0,0,0,.7-2.59c-2.4-12.65,1.36-23.16,11.12-31.54a5.32,5.32,0,0,1,2.37-1.3,2.84,2.84,0,0,0,1.84.16q17.36-2.7,34.71-5.38a10,10,0,0,0,4.26-1.64q6.3-4.32,12.71-8.46c1.29-.83,2-1.78,1.79-3.35a16.3,16.3,0,0,1,13.19,3.46c9.67,7.58,19.18,15.35,28.76,23.05v.37l-.34.34,0,0-.71.36h0a9.23,9.23,0,0,0-1.48.4c-4.47,2-8.93,4.13-13.41,6.16-3.7,1.68-7.29,3.66-11.22,4.75-6.69,1.85-13.53,1-20.32.86-3.42-.06-6.84-.44-10.25.16l-1.4-.31c-.45.08-.91.14-1.35.26L35.83,50.59l-15.45,4c-.42.11-1,.1-1.07.68s.53.51.89.67l28,12.7a17.46,17.46,0,0,1,4.41,2.24l-13.89.49Z"/><path class="cls-2" d="M149.07,53.5c-.86,6-1.71,12-2.6,18-1.37,9.17-2.79,18.33-4.14,27.51a2.39,2.39,0,0,1-1.48,2q-15.4,7.59-30.77,15.26a4.89,4.89,0,0,1-2.47.58L65.92,115c-.35,0-.68-.08-1-.12.12-1.66,1.13-3,1.76-4.44,3.55-8.31,7.17-16.58,10.75-24.88a3.21,3.21,0,0,1,1.51-1.77c2.24-1.14,4.45-2.35,6.69-3.5l26.07-13.45c2.19.29,3.8,1.78,5.61,2.8,5.62,3.16,11.17,6.43,16.74,9.66,1.13,1.12,1.83.89,2.52-.55,3.76-8,7.59-15.88,11.39-23.82C148.21,54.38,148.43,53.78,149.07,53.5Z"/><path class="cls-3" d="M111.68,66.86,85.61,80.31c-2.24,1.15-4.45,2.36-6.69,3.5a3.21,3.21,0,0,0-1.51,1.77c-3.58,8.3-7.2,16.57-10.75,24.88-.63,1.46-1.64,2.78-1.76,4.44-4-1-7.77-2.62-11.63-4-6.23-2.19-12.42-4.48-18.63-6.72a8.88,8.88,0,0,1,.48-1.28c4.46-7.87,9-15.71,13.38-23.61C50,76.59,52,74.06,52.9,71c1.47-1.13,2-2.89,2.84-4.4,4.71-8.24,9.36-16.52,14-24.78l1.4.31-.06.06a2.21,2.21,0,0,0,1.1,1l38,22.26A3.25,3.25,0,0,1,111.68,66.86Z"/><path class="cls-4" d="M52.9,71c-.94,3-2.88,5.57-4.4,8.3-4.4,7.9-8.92,15.74-13.38,23.61a8.88,8.88,0,0,0-.48,1.28l-22-7.73c-2.1-.74-4.19-1.51-6.3-2.23-.71-.24-1.13-.51-1.24-1.37C4.28,86.31,3.37,79.76,2.49,73.2c0-.13.13-.29.2-.43l36-1.37,13.89-.49Z"/><path class="cls-3" d="M149.07,53.5c-.64.28-.86.88-1.13,1.45-3.8,7.94-7.63,15.86-11.39,23.82-.69,1.44-1.39,1.67-2.52.55a2.54,2.54,0,0,0-.67-1.53q-6.36-7.2-12.69-14.42T108.19,49h0l18.1,1.42,22.88,1.73Z"/><path class="cls-4" d="M149.17,52.15l-22.88-1.73L108.19,49c.4-.42.77-.85,1.18-1.24q8.59-8.1,17.18-16.2c.53-.5,1.17-.94,1.3-1.74h0l.71-.36,0,0c.11-.11.22-.23.34-.34v-.37c3.06,2.9,5.6,6.26,8.41,9.38,3.85,4.27,7.56,8.66,11.33,13C148.87,51.44,149.22,51.69,149.17,52.15Z"/><path class="cls-5" d="M86.92,2.26c.25,1.57-.5,2.52-1.79,3.35q-6.42,4.14-12.71,8.46a10,10,0,0,1-4.26,1.64q-17.35,2.66-34.71,5.38a2.84,2.84,0,0,1-1.84-.16c10.61-4.2,21.12-8.67,31.87-12.49C70.55,5.92,78,4.33,85.22,2.35A7.94,7.94,0,0,1,86.92,2.26Z"/><path class="cls-5" d="M52.9,71l-.3-.11a17.46,17.46,0,0,0-4.41-2.24L20.2,56c-.36-.16-.91-.2-.89-.67s.65-.57,1.07-.68l15.45-4L68.42,42.1c.44-.12.9-.18,1.35-.26-4.67,8.26-9.32,16.54-14,24.78C54.88,68.13,54.37,69.89,52.9,71Z"/><path class="cls-5" d="M127.85,29.82c-.13.8-.77,1.24-1.3,1.74q-8.58,8.11-17.18,16.2c-.41.39-.78.82-1.18,1.24h0c-7.64-1.43-15.27-2.91-22.92-4.28-4.71-.85-9.39-1.95-14.16-2.52l.06-.06c3.41-.6,6.83-.22,10.25-.16,6.79.12,13.63,1,20.32-.86,3.93-1.09,7.52-3.07,11.22-4.75,4.48-2,8.94-4.12,13.41-6.16A9.23,9.23,0,0,1,127.85,29.82Z"/><path class="cls-5" d="M128.54,29.46l-.71.36Z"/><path class="cls-5" d="M128.86,29.14c-.12.11-.23.23-.34.34Z"/><path class="cls-4" d="M71.11,42.21c4.77.57,9.45,1.67,14.16,2.52,7.65,1.37,15.28,2.85,22.92,4.28q6.24,7.18,12.48,14.36t12.69,14.42a2.54,2.54,0,0,1,.67,1.53c-5.57-3.23-11.12-6.5-16.74-9.66-1.81-1-3.42-2.51-5.61-2.8a3.25,3.25,0,0,0-1.5-1.36l-38-22.26A2.21,2.21,0,0,1,71.11,42.21Z"/><path class="cls-6" d="M19.17,56.82s-8-21,12-36C42.17,16.82,82-.3,92.61,2.26s57.56,49.56,57.56,49.56L142,100.06l-29.83,16.76-47-2-59-21-4-21Z"/></g></g></svg>