<svg width="568" height="568" viewBox="0 0 568 568" fill="none" xmlns="http://www.w3.org/2000/svg">
<path d="M494.14 3H74.36C34.949 3 3 34.949 3 74.36V494.14C3 533.551 34.949 565.5 74.36 565.5H494.14C533.551 565.5 565.5 533.551 565.5 494.14V74.36C565.5 34.949 533.551 3 494.14 3Z" fill="#1E1412"/>
<path d="M494.14 3H74.36C34.949 3 3 34.949 3 74.36V494.14C3 533.551 34.949 565.5 74.36 565.5H494.14C533.551 565.5 565.5 533.551 565.5 494.14V74.36C565.5 34.949 533.551 3 494.14 3Z" stroke="black" stroke-width="5" stroke-miterlimit="10"/>
<path fill-rule="evenodd" clip-rule="evenodd" d="M559.69 158.642V70.54C559.69 63.5202 558.619 56.7505 556.632 50.3854C552.856 55.5762 549.765 61.1065 547.84 67.1197C541.821 85.889 548.045 110.71 553.339 131.82C554.667 137.119 555.937 142.183 556.94 146.86C557.802 150.801 558.719 154.728 559.69 158.642ZM523.084 10.4843C520.488 9.14443 517.794 7.96797 515.015 6.96849C514.748 11.7358 514.548 16.4954 514.414 21.2504C517.143 17.5492 520.053 13.9722 523.084 10.4843ZM529.761 234.393C539.124 257.239 547.167 277.785 543.3 304.22C540.714 321.884 535.408 339.011 530.109 356.116C526.906 366.455 523.706 376.785 521.11 387.22C509.278 434.844 509.342 483.373 514.241 531.645C507.319 534.039 499.887 535.34 492.15 535.34H467.904C477.317 515.008 481.735 491.889 486.085 469.124C488.918 454.297 491.722 439.619 495.86 425.959C510.86 376.249 523.48 327.209 527.98 275.269C529.167 261.58 529.721 247.964 529.761 234.393ZM466.3 104.429C461.794 70.15 461.246 36.6632 463.521 3H357.49C358.612 20.1362 357.708 37.3111 356.741 54.7699C355.081 84.6999 359.151 111.94 364.691 141.25C369.821 168.35 373.581 195.24 369.591 222.78C366.326 245.314 358.522 266.416 350.693 287.586L350.692 287.588L350.691 287.59C348.952 292.291 347.213 296.996 345.521 301.72C335.927 328.43 328.686 355.928 323.881 383.9C315.362 433.82 315.672 485.375 323.902 535.34H408.324C408.934 533.082 409.943 530.922 411.41 528.949C424.081 511.901 427.625 492.336 431.336 471.854L431.52 470.839C435.91 446.729 442.31 423.429 449.52 400.029C464.07 352.829 474.87 305.459 477.38 255.979C479.854 207.172 473.614 159.878 467.265 111.751C466.943 109.313 466.621 106.872 466.3 104.429ZM305.902 3C307.494 17.9954 306.43 33.1547 305.367 48.2953V48.2955V48.2957C304.62 58.9375 303.874 69.57 304.051 80.1299C304.387 100.104 307.884 119.577 311.357 138.909C317.3 171.996 323.169 204.67 312.981 238.73C309.179 251.45 304.566 263.895 299.952 276.34L299.952 276.341C295.233 289.07 290.514 301.8 286.661 314.83C278.994 341.317 273.446 368.373 270.071 395.74C264.056 442.276 264.897 489.093 271.615 535.34H252.217C251.785 526.962 251.265 518.588 250.746 510.212L250.746 510.21V510.209L250.745 510.206C248.995 481.991 247.242 453.755 248.83 425.3C249.705 409.63 250.904 393.985 252.102 378.346C255.07 339.624 258.034 300.946 256.06 262.06C254.455 230.008 250.271 198.214 246.087 166.42C243.392 145.94 240.696 125.46 238.69 104.91C235.387 71.0196 234.548 36.9602 236.169 3H305.902ZM176.939 3H184.195C183.134 25.1406 183.124 47.3244 184.166 69.4763C183.55 65.0312 182.886 60.5508 182.218 56.0467L182.218 56.0464C179.616 38.4974 176.96 20.5874 176.939 3ZM189.609 451.964C192.104 445.921 194.569 439.951 196.47 434.102C195.423 456.821 195.271 479.545 196.79 502.27C197.275 509.465 197.856 516.646 198.436 523.821L198.437 523.834C198.747 527.67 199.057 531.505 199.353 535.34H190.573C189.992 533.801 189.404 532.262 188.816 530.721C185.472 521.957 182.099 513.12 179.691 503.66C175.333 486.544 182.591 468.964 189.609 451.964ZM125.777 3C126.085 19.6875 128.169 36.3425 130.275 53.1662L130.275 53.1685L130.275 53.1709L130.275 53.1717C130.471 54.7329 130.666 56.2956 130.861 57.8599C138.601 120.1 145.801 182.45 151.621 244.86C157.011 302.58 162.531 364.18 146.381 420.68C144.09 428.686 141.123 436.454 138.171 444.184L138.167 444.194L138.166 444.196C137.472 446.013 136.779 447.828 136.096 449.643C134.581 442.456 133.578 435.195 133.391 427.84C132.9 408.367 137.062 389.442 141.223 370.526C143.085 362.059 144.947 353.593 146.391 345.08C151.391 315.44 150.481 287.99 144.311 258.6C140.119 238.648 138.908 219.098 137.68 199.283C137.13 190.405 136.577 181.474 135.751 172.43C133.051 142.89 123.461 119.27 109.011 93.7597C91.6869 63.1746 93.54 32.6507 103.249 3H125.777ZM87.7703 270.53C86.8706 260.43 87.2014 250.904 88.232 241.581L88.2708 241.85C89.4076 249.661 90.8878 257.31 92.3565 264.899C96.2107 284.815 99.9861 304.323 97.2708 325.3C96.8529 328.519 96.369 331.725 95.8357 334.922C94.9058 327.374 93.8715 319.84 92.8374 312.308C90.9289 298.406 89.0209 284.508 87.7703 270.53ZM97.8404 535.34C98.404 525.895 98.9164 516.447 99.3605 506.997C102.538 516.245 105.728 525.75 107.991 535.34H97.8404ZM28.3042 59.1645C27.677 62.8627 27.3503 66.6632 27.3503 70.54V467.8C27.3503 486.392 34.8626 503.229 47.0172 515.443C48.2608 491.122 49.0854 466.782 49.2003 442.42C49.3403 413.41 48.4803 384.39 46.1003 355.47C44.8919 340.773 42.8728 326.188 40.8542 311.606C38.9638 297.951 37.0738 284.298 35.8503 270.56C33.2808 241.748 39.0349 215.761 45.1855 187.984L45.6203 186.02C51.6503 158.77 46.0703 136.12 39.0703 109.68C34.5937 93.0143 31.003 76.1524 28.3042 59.1645Z" fill="#3C2722"/>
<path d="M370.509 26.6067C376.509 74.7548 386.289 122.368 392.899 170.41C396.259 194.773 398.229 219.288 399.239 243.821C400.239 267.499 403.059 293.35 398.989 316.823C395.539 336.786 382.449 354.139 374.639 372.694C366.049 393.103 355.329 412.344 348.949 433.519C336.629 474.496 337.199 517.388 362.359 554.472C379.619 579.923 424.529 556.699 407.189 531.124C355.989 455.637 449.189 380.275 451.869 305.75C455.249 211.324 433.999 119.972 422.439 26.6512C420.899 14.2423 411.599 3.49023 396.439 3.49023C383.599 3.49023 368.929 14.1265 370.439 26.6512L370.509 26.6067Z" fill="#1E1412"/>
<path d="M494.14 3H74.36C34.949 3 3 34.949 3 74.36V494.14C3 533.551 34.949 565.5 74.36 565.5H494.14C533.551 565.5 565.5 533.551 565.5 494.14V74.36C565.5 34.949 533.551 3 494.14 3Z" fill="#1E1412"/>
<path d="M494.14 3H74.36C34.949 3 3 34.949 3 74.36V494.14C3 533.551 34.949 565.5 74.36 565.5H494.14C533.551 565.5 565.5 533.551 565.5 494.14V74.36C565.5 34.949 533.551 3 494.14 3Z" stroke="black" stroke-width="5" stroke-miterlimit="10"/>
<path fill-rule="evenodd" clip-rule="evenodd" d="M559.69 158.642V70.54C559.69 63.5202 558.619 56.7505 556.632 50.3854C552.856 55.5762 549.765 61.1065 547.84 67.1197C541.821 85.889 548.045 110.71 553.339 131.82C554.667 137.119 555.937 142.183 556.94 146.86C557.802 150.801 558.719 154.728 559.69 158.642ZM523.084 10.4843C520.488 9.14443 517.794 7.96797 515.015 6.96849C514.748 11.7358 514.548 16.4954 514.414 21.2504C517.143 17.5492 520.053 13.9722 523.084 10.4843ZM529.761 234.393C539.124 257.239 547.167 277.785 543.3 304.22C540.714 321.884 535.408 339.011 530.109 356.116C526.906 366.455 523.706 376.785 521.11 387.22C509.278 434.844 509.342 483.373 514.241 531.645C507.319 534.039 499.887 535.34 492.15 535.34H467.904C477.317 515.008 481.735 491.889 486.085 469.124C488.918 454.297 491.722 439.619 495.86 425.959C510.86 376.249 523.48 327.209 527.98 275.269C529.167 261.58 529.721 247.964 529.761 234.393ZM466.3 104.429C461.794 70.15 461.246 36.6632 463.521 3H357.49C358.612 20.1362 357.708 37.3111 356.741 54.7699C355.081 84.6999 359.151 111.94 364.691 141.25C369.821 168.35 373.581 195.24 369.591 222.78C366.326 245.314 358.522 266.416 350.693 287.586L350.692 287.588L350.691 287.59C348.952 292.291 347.213 296.996 345.521 301.72C335.927 328.43 328.686 355.928 323.881 383.9C315.362 433.82 315.672 485.375 323.902 535.34H408.324C408.934 533.082 409.943 530.922 411.41 528.949C424.081 511.901 427.625 492.336 431.336 471.854L431.52 470.839C435.91 446.729 442.31 423.429 449.52 400.029C464.07 352.829 474.87 305.459 477.38 255.979C479.854 207.172 473.614 159.878 467.265 111.751C466.943 109.313 466.621 106.872 466.3 104.429ZM305.902 3C307.494 17.9954 306.43 33.1547 305.367 48.2953V48.2955V48.2957C304.62 58.9375 303.874 69.57 304.051 80.1299C304.387 100.104 307.884 119.577 311.357 138.909C317.3 171.996 323.169 204.67 312.981 238.73C309.179 251.45 304.566 263.895 299.952 276.34L299.952 276.341C295.233 289.07 290.514 301.8 286.661 314.83C278.994 341.317 273.446 368.373 270.071 395.74C264.056 442.276 264.897 489.093 271.615 535.34H252.217C251.785 526.962 251.265 518.588 250.746 510.212L250.746 510.21V510.209L250.745 510.206C248.995 481.991 247.242 453.755 248.83 425.3C249.705 409.63 250.904 393.985 252.102 378.346C255.07 339.624 258.034 300.946 256.06 262.06C254.455 230.008 250.271 198.214 246.087 166.42C243.392 145.94 240.696 125.46 238.69 104.91C235.387 71.0196 234.548 36.9602 236.169 3H305.902ZM176.939 3H184.195C183.134 25.1406 183.124 47.3244 184.166 69.4763C183.55 65.0312 182.886 60.5508 182.218 56.0467L182.218 56.0464C179.616 38.4974 176.96 20.5874 176.939 3ZM189.609 451.964C192.104 445.921 194.569 439.951 196.47 434.102C195.423 456.821 195.271 479.545 196.79 502.27C197.275 509.465 197.856 516.646 198.436 523.821L198.437 523.834C198.747 527.67 199.057 531.505 199.353 535.34H190.573C189.992 533.801 189.404 532.262 188.816 530.721C185.472 521.957 182.099 513.12 179.691 503.66C175.333 486.544 182.591 468.964 189.609 451.964ZM125.777 3C126.085 19.6875 128.169 36.3425 130.275 53.1662L130.275 53.1685L130.275 53.1709L130.275 53.1717C130.471 54.7329 130.666 56.2956 130.861 57.8599C138.601 120.1 145.801 182.45 151.621 244.86C157.011 302.58 162.531 364.18 146.381 420.68C144.09 428.686 141.123 436.454 138.171 444.184L138.167 444.194L138.166 444.196C137.472 446.013 136.779 447.828 136.096 449.643C134.581 442.456 133.578 435.195 133.391 427.84C132.9 408.367 137.062 389.442 141.223 370.526C143.085 362.059 144.947 353.593 146.391 345.08C151.391 315.44 150.481 287.99 144.311 258.6C140.119 238.648 138.908 219.098 137.68 199.283C137.13 190.405 136.577 181.474 135.751 172.43C133.051 142.89 123.461 119.27 109.011 93.7597C91.6869 63.1746 93.54 32.6507 103.249 3H125.777ZM87.7703 270.53C86.8706 260.43 87.2014 250.904 88.232 241.581L88.2708 241.85C89.4076 249.661 90.8878 257.31 92.3565 264.899C96.2107 284.815 99.9861 304.323 97.2708 325.3C96.8529 328.519 96.369 331.725 95.8357 334.922C94.9058 327.374 93.8715 319.84 92.8374 312.308C90.9289 298.406 89.0209 284.508 87.7703 270.53ZM97.8404 535.34C98.404 525.895 98.9164 516.447 99.3605 506.997C102.538 516.245 105.728 525.75 107.991 535.34H97.8404ZM28.3042 59.1645C27.677 62.8627 27.3503 66.6632 27.3503 70.54V467.8C27.3503 486.392 34.8626 503.229 47.0172 515.443C48.2608 491.122 49.0854 466.782 49.2003 442.42C49.3403 413.41 48.4803 384.39 46.1003 355.47C44.8919 340.773 42.8728 326.188 40.8542 311.606C38.9638 297.951 37.0738 284.298 35.8503 270.56C33.2808 241.748 39.0349 215.761 45.1855 187.984L45.6203 186.02C51.6503 158.77 46.0703 136.12 39.0703 109.68C34.5937 93.0143 31.003 76.1524 28.3042 59.1645Z" fill="#3C2722"/>
<path d="M370.509 26.6067C376.509 74.7548 386.289 122.368 392.899 170.41C396.259 194.773 398.229 219.288 399.239 243.821C400.239 267.499 403.059 293.35 398.989 316.823C395.539 336.786 382.449 354.139 374.639 372.694C366.049 393.103 355.329 412.344 348.949 433.519C336.629 474.496 337.199 517.388 362.359 554.472C379.619 579.923 424.529 556.699 407.189 531.124C355.989 455.637 449.189 380.275 451.869 305.75C455.249 211.324 433.999 119.972 422.439 26.6512C420.899 14.2423 411.599 3.49023 396.439 3.49023C383.599 3.49023 368.929 14.1265 370.439 26.6512L370.509 26.6067Z" fill="#1E1412"/>
</svg>
